<svg width="28" height="25" viewBox="0 0 28 25" version="1.1" xmlns="http://www.w3.org/2000/svg" xmlns:xlink="http://www.w3.org/1999/xlink">
<title>Group</title>
<desc>Created using Figma</desc>
<g id="Canvas" transform="translate(221 444)">
<g id="Group" opacity="0.5">
<g id="XMLID 16">
<g id="XMLID 17">
<use xlink:href="#path0_fill" transform="translate(-220 -442.99)" fill="#003C75"/>
<use xlink:href="#path1_stroke" transform="translate(-220 -442.99)" fill="#003C75"/>
</g>
</g>
</g>
</g>
<defs>
<path id="path0_fill" d="M 4.60458 23C 3.97631 23.0031 3.51826 22.5221 3.52445 21.9148C 3.53373 20.5737 3.52754 19.2326 3.52754 17.8916C 3.52754 17.7652 3.52754 14.6268 3.52754 13.5508C 3.52754 13.3473 3.52754 13.3473 3.31709 13.3473C 2.57431 13.3473 1.83152 13.3566 1.08874 13.3443C 0.655447 13.3381 0.302625 13.1624 0.10455 12.7523C -0.0997159 12.3331 0.00241679 11.8398 0.349049 11.5192C 1.36109 10.585 2.37313 9.64474 3.38518 8.71062C 4.81813 7.38804 6.25418 6.06855 7.69023 4.74905C 7.83878 4.61032 11.8467 0.910807 12.5586 0.257227C 12.9176 -0.0757295 13.5613 -0.125056 14.0565 0.346632C 14.8674 1.11736 25.2602 10.5881 26.2846 11.5284C 26.6405 11.8552 26.6993 12.2652 26.5662 12.6537C 26.4146 13.0884 26.0153 13.3443 25.5418 13.3473C 24.7897 13.3504 24.0346 13.3535 23.2825 13.3443C 23.1308 13.3443 23.0968 13.3905 23.0968 13.5354C 23.0999 16.3193 23.0999 19.1062 23.0999 21.8901C 23.0999 22.3957 22.8863 22.7534 22.4097 22.9383C 22.3014 22.9784 22.1776 22.9938 22.0631 22.9969C 20.6642 22.9969 6.49249 22.9907 4.60458 23ZM 13.2487 1.24068C 9.31816 4.87237 5.39688 8.49173 1.4787 12.108C 1.48798 12.1234 1.49727 12.1357 1.50655 12.1512C 2.57121 12.1512 3.63587 12.1512 4.69743 12.1512C 4.70671 12.1727 4.7129 12.182 4.7129 12.1912C 4.7129 13.4398 4.716 17.5124 4.716 17.9594C 4.716 19.1833 4.716 20.4042 4.716 21.6281C 4.716 21.7206 4.69743 21.8131 4.84908 21.8131C 6.1799 21.8161 7.50763 21.8254 8.83845 21.8316C 9.19436 21.8316 9.55028 21.8192 9.9031 21.8131C 10.1445 21.81 16.5139 21.8161 16.6624 21.8161C 17.1731 21.8069 19.2003 21.8131 19.3674 21.8131C 20.1566 21.8131 20.9458 21.81 21.735 21.8161C 21.8619 21.8161 21.9207 21.7822 21.9052 21.6497C 21.8991 21.6034 21.9052 21.5572 21.9052 21.5109C 21.9052 18.4527 21.9052 15.3975 21.9052 12.3392C 21.9052 12.2806 21.9052 12.219 21.9052 12.145C 22.9885 12.145 24.0531 12.145 25.158 12.145C 25.093 12.0741 25.0559 12.0278 25.0126 11.9908C 24.5019 11.5222 23.9881 11.0536 23.4744 10.5881C 23.0132 10.1688 14.7467 2.6095 13.2487 1.24068Z"/>
<path id="path1_stroke" d="M 4.60458 23L 4.60336 22.75L 4.60335 22.75L 4.60458 23ZM 3.52445 21.9148L 3.77444 21.9173L 3.77444 21.9165L 3.52445 21.9148ZM 1.08874 13.3443L 1.09289 13.0943L 1.0923 13.0943L 1.08874 13.3443ZM 0.10455 12.7523L 0.329661 12.6436L 0.329297 12.6428L 0.10455 12.7523ZM 0.349049 11.5192L 0.179486 11.3355L 0.179292 11.3356L 0.349049 11.5192ZM 3.38518 8.71062L 3.21562 8.5269L 3.21561 8.52691L 3.38518 8.71062ZM 7.69023 4.74905L 7.85938 4.93315L 7.86086 4.93177L 7.69023 4.74905ZM 12.5586 0.257227L 12.7276 0.44138L 12.7286 0.44053L 12.5586 0.257227ZM 14.0565 0.346632L 13.8841 0.527652L 13.8843 0.527836L 14.0565 0.346632ZM 26.2846 11.5284L 26.4537 11.3443L 26.4536 11.3442L 26.2846 11.5284ZM 26.5662 12.6537L 26.8023 12.736L 26.8027 12.7347L 26.5662 12.6537ZM 25.5418 13.3473L 25.5428 13.5973L 25.5434 13.5973L 25.5418 13.3473ZM 23.2825 13.3443L 23.2856 13.0943L 23.2825 13.0943L 23.2825 13.3443ZM 23.0968 13.5354L 22.8468 13.5354L 22.8468 13.5357L 23.0968 13.5354ZM 22.4097 22.9383L 22.4965 23.1728L 22.5002 23.1714L 22.4097 22.9383ZM 22.0631 22.9969L 22.0631 23.247L 22.0698 23.2468L 22.0631 22.9969ZM 13.2487 1.24068L 13.4174 1.05613L 13.2478 0.901168L 13.0791 1.05706L 13.2487 1.24068ZM 1.4787 12.108L 1.30914 11.9243L 1.15943 12.0625L 1.26455 12.237L 1.4787 12.108ZM 1.50655 12.1512L 1.2924 12.2802L 1.36529 12.4012L 1.50655 12.4012L 1.50655 12.1512ZM 4.69743 12.1512L 4.92708 12.0524L 4.86202 11.9012L 4.69743 11.9012L 4.69743 12.1512ZM 4.84908 21.8131L 4.84966 21.5631L 4.84908 21.5631L 4.84908 21.8131ZM 8.83845 21.8316L 8.83729 22.0816L 8.83845 22.0816L 8.83845 21.8316ZM 9.9031 21.8131L 9.89991 21.5631L 9.89874 21.5631L 9.9031 21.8131ZM 16.6624 21.8161L 16.6624 22.0662L 16.667 22.0661L 16.6624 21.8161ZM 21.735 21.8161L 21.7331 22.0661L 21.735 22.0661L 21.735 21.8161ZM 21.9052 21.6497L 22.1536 21.6207L 22.153 21.6165L 21.9052 21.6497ZM 21.9052 12.145L 21.9052 11.895L 21.6552 11.895L 21.6552 12.145L 21.9052 12.145ZM 25.158 12.145L 25.158 12.395L 25.7263 12.395L 25.3423 11.9761L 25.158 12.145ZM 25.0126 11.9908L 24.8434 12.1752L 24.8502 12.181L 25.0126 11.9908ZM 23.4744 10.5881L 23.3062 10.7731L 23.3065 10.7734L 23.4744 10.5881ZM 4.60335 22.75C 4.11764 22.7524 3.76964 22.3882 3.77444 21.9173L 3.27446 21.9122C 3.26688 22.6561 3.83498 23.2538 4.60581 23.25L 4.60335 22.75ZM 3.77444 21.9165C 3.78373 20.574 3.77754 19.2321 3.77754 17.8916L 3.27754 17.8916C 3.27754 19.2332 3.28373 20.5734 3.27446 21.9131L 3.77444 21.9165ZM 3.77754 17.8916C 3.77754 17.7652 3.77754 14.6268 3.77754 13.5508L 3.27754 13.5508C 3.27754 14.6268 3.27754 17.7652 3.27754 17.8916L 3.77754 17.8916ZM 3.77754 13.5508C 3.77754 13.4999 3.77714 13.4475 3.77262 13.4046C 3.76742 13.3594 3.75199 13.2675 3.67501 13.193C 3.59975 13.1203 3.50901 13.1066 3.46546 13.1019C 3.42253 13.0977 3.3697 13.0973 3.31709 13.0973L 3.31709 13.5973C 3.3434 13.5973 3.36395 13.5973 3.38162 13.5977C 3.39901 13.598 3.40791 13.5986 3.41206 13.5991C 3.41672 13.5996 3.40843 13.5992 3.39398 13.5942C 3.37763 13.5885 3.35221 13.5764 3.32747 13.5525C 3.30247 13.5283 3.28896 13.5025 3.28216 13.4843C 3.27619 13.4682 3.2755 13.4583 3.27589 13.4617C 3.27623 13.4647 3.27684 13.4724 3.27719 13.4889C 3.27756 13.5058 3.27754 13.5254 3.27754 13.5508L 3.77754 13.5508ZM 3.31709 13.0973C 2.57275 13.0973 1.83204 13.1066 1.09289 13.0943L 1.08459 13.5942C 1.831 13.6066 2.57586 13.5973 3.31709 13.5973L 3.31709 13.0973ZM 1.0923 13.0943C 0.73482 13.0892 0.478976 12.9527 0.329659 12.6436L -0.12056 12.8611C 0.126275 13.372 0.576075 13.587 1.08518 13.5942L 1.0923 13.0943ZM 0.329297 12.6428C 0.175596 12.3274 0.249225 11.952 0.518807 11.7027L 0.179292 11.3356C -0.244392 11.7275 -0.375028 12.3388 -0.120198 12.8618L 0.329297 12.6428ZM 0.518613 11.7029C 1.53096 10.7685 2.543 9.82817 3.55474 8.89432L 3.21561 8.52691C 2.20327 9.46131 1.19123 10.4016 0.179486 11.3355L 0.518613 11.7029ZM 3.55474 8.89433C 4.98748 7.57194 6.42333 6.25264 7.85938 4.93314L 7.52108 4.56496C 6.08503 5.88446 4.64878 7.20414 3.21562 8.5269L 3.55474 8.89433ZM 7.86086 4.93177C 8.00888 4.79353 12.016 1.09473 12.7276 0.441378L 12.3895 0.0730756C 11.6774 0.72688 7.66868 4.42711 7.5196 4.56634L 7.86086 4.93177ZM 12.7286 0.44053C 12.9867 0.201098 13.4805 0.143225 13.8841 0.527652L 14.2289 0.165612C 13.6421 -0.393338 12.8484 -0.352557 12.3886 0.0739234L 12.7286 0.44053ZM 13.8843 0.527836C 14.6971 1.30037 25.0914 10.7726 26.1155 11.7126L 26.4536 11.3442C 25.4289 10.4036 15.0377 0.934359 14.2287 0.165427L 13.8843 0.527836ZM 26.1155 11.7126C 26.3895 11.9641 26.4347 12.2663 26.3297 12.5727L 26.8027 12.7347C 26.9639 12.2642 26.8915 11.7463 26.4537 11.3443L 26.1155 11.7126ZM 26.3302 12.5713C 26.2176 12.8939 25.9216 13.0949 25.5402 13.0973L 25.5434 13.5973C 26.1091 13.5936 26.6115 13.2828 26.8023 12.736L 26.3302 12.5713ZM 25.5408 13.0973C 24.7887 13.1004 24.0356 13.1035 23.2856 13.0943L 23.2794 13.5942C 24.0335 13.6035 24.7907 13.6004 25.5428 13.5973L 25.5408 13.0973ZM 23.2825 13.0943C 23.2003 13.0943 23.0545 13.102 22.9493 13.2157C 22.8494 13.3236 22.8468 13.4647 22.8468 13.5354L 23.3468 13.5354C 23.3466 13.508 23.3505 13.4931 23.3484 13.4993C 23.3475 13.5032 23.341 13.5285 23.3162 13.5553C 23.2906 13.5831 23.2635 13.5927 23.2545 13.5952C 23.2488 13.5967 23.2546 13.5943 23.2825 13.5943L 23.2825 13.0943ZM 22.8468 13.5357C 22.8499 16.3194 22.8499 19.1062 22.8499 21.8901L 23.3499 21.8901C 23.3499 19.1062 23.3499 16.3191 23.3468 13.5351L 22.8468 13.5357ZM 22.8499 21.8901C 22.8517 22.1127 22.8169 22.2598 22.7232 22.3993C 22.6356 22.542 22.5242 22.6287 22.3193 22.7053L 22.5002 23.1714C 22.7719 23.063 23.0055 22.8784 23.1438 22.6697C 23.2761 22.4577 23.3481 22.1732 23.3499 21.8901L 22.8499 21.8901ZM 22.323 22.7039C 22.2422 22.7355 22.1588 22.7445 22.0564 22.747L 22.0698 23.2468C 22.1964 23.2431 22.3606 23.2213 22.4965 23.1728L 22.323 22.7039ZM 22.0631 22.7469C 20.6642 22.7469 6.49193 22.7407 4.60336 22.75L 4.60581 23.25C 6.49305 23.2407 20.6641 23.2469 22.0631 23.2469L 22.0631 22.7469ZM 13.0791 1.05706C 9.14855 4.68871 5.22732 8.30802 1.30914 11.9243L 1.64826 12.2917C 5.56644 8.67544 9.48777 5.05603 13.4184 1.4243L 13.0791 1.05706ZM 1.26455 12.237C 1.27232 12.2498 1.28022 12.2617 1.28486 12.2686C 1.2895 12.2756 1.29089 12.2775 1.2924 12.2802L 1.72071 12.0222C 1.71293 12.0094 1.70503 11.9975 1.70039 11.9905C 1.69575 11.9836 1.69436 11.9817 1.69285 11.979L 1.26455 12.237ZM 1.50655 12.4012C 2.57121 12.4012 3.63587 12.4012 4.69743 12.4012L 4.69743 11.9012C 3.63587 11.9012 2.57121 11.9012 1.50655 11.9012L 1.50655 12.4012ZM 4.46778 12.25C 4.47135 12.2582 4.47502 12.2662 4.47717 12.2708C 4.48019 12.2773 4.47988 12.2766 4.47975 12.2764C 4.47942 12.2756 4.47543 12.2667 4.47166 12.2537C 4.46748 12.2392 4.4629 12.2177 4.4629 12.1912L 4.9629 12.1912C 4.9629 12.1311 4.94208 12.0856 4.93754 12.0753C 4.93218 12.0633 4.92871 12.0564 4.92708 12.0524L 4.46778 12.25ZM 4.4629 12.1912C 4.4629 13.4399 4.466 17.5125 4.466 17.9594L 4.966 17.9594C 4.966 17.5123 4.9629 13.4397 4.9629 12.1912L 4.4629 12.1912ZM 4.466 17.9594C 4.466 19.1833 4.466 20.4042 4.466 21.6281L 4.966 21.6281C 4.966 20.4042 4.966 19.1833 4.966 17.9594L 4.466 17.9594ZM 4.466 21.6281C 4.46608 21.6449 4.46485 21.6717 4.46557 21.7033C 4.46678 21.7362 4.47661 21.801 4.49458 21.8506C 4.51841 21.9011 4.58764 21.9815 4.64958 22.0193C 4.71764 22.0544 4.78904 22.0631 4.84908 22.0631L 4.84908 21.5631C 4.8333 21.5631 4.85015 21.5601 4.87903 21.575C 4.89472 21.5831 4.91144 21.5953 4.92646 21.612C 4.94133 21.6286 4.95088 21.6456 4.95676 21.6599C 4.96699 21.6847 4.9657 21.7006 4.96536 21.6888C 4.96514 21.683 4.96526 21.6778 4.96545 21.6672C 4.96565 21.6567 4.96598 21.6428 4.966 21.6281L 4.466 21.6281ZM 4.8485 22.0631C 6.17874 22.0661 7.50618 22.0754 8.83729 22.0816L 8.83961 21.5816C 7.50908 21.5754 6.18106 21.5661 4.84966 21.5631L 4.8485 22.0631ZM 8.83845 22.0816C 9.19869 22.0815 9.5568 22.0691 9.90747 22.063L 9.89874 21.5631C 9.54377 21.5693 9.19003 21.5816 8.83845 21.5816L 8.83845 22.0816ZM 9.9063 22.063C 10.146 22.06 16.5138 22.0661 16.6624 22.0661L 16.6624 21.5661C 16.514 21.5661 10.143 21.56 9.89991 21.5631L 9.9063 22.063ZM 16.667 22.0661C 17.175 22.0569 19.1999 22.0631 19.3674 22.0631L 19.3674 21.5631C 19.2007 21.5631 17.1712 21.5569 16.6579 21.5662L 16.667 22.0661ZM 19.3674 22.0631C 20.1571 22.0631 20.9453 22.06 21.7331 22.0661L 21.737 21.5662C 20.9463 21.56 20.1561 21.5631 19.3674 21.5631L 19.3674 22.0631ZM 21.735 22.0661C 21.802 22.0661 21.9342 22.0617 22.0382 21.9708C 22.1606 21.8636 22.1645 21.7148 22.1536 21.6207L 21.6569 21.6786C 21.6588 21.6948 21.656 21.6895 21.6601 21.6724C 21.6654 21.6508 21.6797 21.62 21.7089 21.5945C 21.7352 21.5715 21.7588 21.5657 21.762 21.565C 21.7671 21.5631 21.7571 21.5663 21.735 21.5661L 21.735 22.0661ZM 22.153 21.6165C 22.1491 21.6034 22.1547 21.5738 22.1552 21.5109L 21.6552 21.5109C 21.6558 21.5406 21.6491 21.6034 21.6575 21.6828L 22.153 21.6165ZM 22.1552 21.5109C 22.1552 18.4527 22.1552 15.3975 22.1552 12.3392L 21.6552 12.3392C 21.6552 15.3975 21.6552 18.4527 21.6552 21.5109L 22.1552 21.5109ZM 22.1552 12.3392C 22.1552 12.2806 22.1552 12.219 22.1552 12.145L 21.6552 12.145C 21.6552 12.219 21.6552 12.2806 21.6552 12.3392L 22.1552 12.3392ZM 21.9052 12.395C 22.9885 12.395 24.0531 12.395 25.158 12.395L 25.158 11.895C 24.0531 11.895 22.9885 11.895 21.9052 11.895L 21.9052 12.395ZM 25.3423 11.9761C 25.2827 11.9113 25.2353 11.8537 25.1749 11.8007L 24.8502 12.181C 24.8765 12.2019 24.9033 12.2369 24.9737 12.3139L 25.3423 11.9761ZM 25.1816 11.8067C 24.6706 11.3378 24.1563 10.8687 23.6422 10.4029L 23.3065 10.7734C 23.82 11.2386 24.3331 11.7067 24.8435 12.175L 25.1816 11.8067ZM 23.6426 10.4031C 23.1817 9.98411 14.9153 2.42498 13.4174 1.05613L 13.0801 1.42523C 14.578 2.79402 22.8448 10.3536 23.3062 10.7731L 23.6426 10.4031Z"/>
</defs>
</svg>
