<svg width="16" height="12" viewBox="0 0 16 12" version="1.1" xmlns="http://www.w3.org/2000/svg" xmlns:xlink="http://www.w3.org/1999/xlink">
<title>Group</title>
<desc>Created using Figma</desc>
<g id="Canvas" transform="translate(-334 491)">
<g id="Group">
<g id="Group">
<g id="Group">
<g id="Vector">
<use xlink:href="#path0_fill" transform="matrix(1 1.60812e-16 -1.60812e-16 1 334 -491)" fill="#003C75"/>
</g>
</g>
</g>
</g>
</g>
<defs>
<path id="path0_fill" d="M 15.3388 1.38325C 15.0919 1.48374 14.8386 1.57241 14.579 1.64335C 14.8829 1.31823 15.1172 0.939901 15.2629 0.520197C 15.2945 0.425616 15.2629 0.325123 15.1805 0.26601C 15.0982 0.206897 14.9842 0.195074 14.8956 0.248276C 14.3447 0.555665 13.7494 0.774384 13.1288 0.898522C 12.4956 0.325123 11.6471 0 10.7669 0C 8.90513 0 7.39802 1.41281 7.39802 3.14483C 7.39802 3.28079 7.40436 3.41675 7.42335 3.55271C 5.11203 3.36355 2.97168 2.30542 1.49623 0.62069C 1.44557 0.561576 1.36325 0.526108 1.28093 0.53202C 1.19861 0.537931 1.12262 0.57931 1.08463 0.650246C 0.780672 1.12906 0.622362 1.67882 0.622362 2.23448C 0.622362 2.99113 0.913652 3.71232 1.42658 4.27389C 1.26827 4.22069 1.12262 4.16158 0.976976 4.08473C 0.900987 4.04335 0.806001 4.04335 0.730013 4.08473C 0.654024 4.12611 0.603365 4.20296 0.603365 4.28571C 0.603365 4.29754 0.603365 4.31527 0.603365 4.32709C 0.603365 5.45616 1.2556 6.47882 2.25612 7.03448C 2.16747 7.02857 2.08514 7.01675 1.99649 6.99901C 1.90784 6.98128 1.81918 7.01084 1.76219 7.07586C 1.7052 7.14089 1.6862 7.22365 1.71153 7.3064C 2.07881 8.38227 3.02867 9.17438 4.18117 9.41675C 3.22498 9.97241 2.1358 10.268 0.995973 10.268C 0.755342 10.268 0.514711 10.2562 0.280413 10.2266C 0.16643 10.2148 0.0524466 10.2798 0.0144522 10.3803C -0.0235421 10.4867 0.0144522 10.599 0.115771 10.6581C 1.57855 11.5389 3.27563 12 5.02338 12C 8.45553 12 10.6022 10.4867 11.799 9.22167C 13.2935 7.64335 14.1484 5.55074 14.1484 3.48177C 14.1484 3.3931 14.1484 3.31034 14.142 3.22167C 14.7309 2.80788 15.2375 2.30542 15.6491 1.73202C 15.7125 1.64335 15.7061 1.53103 15.6301 1.44828C 15.5605 1.37143 15.4402 1.34187 15.3388 1.38325Z"/>
</defs>
</svg>
