<svg width="53" height="32" viewBox="0 0 53 32" version="1.1" xmlns="http://www.w3.org/2000/svg" xmlns:xlink="http://www.w3.org/1999/xlink">
<title>Group</title>
<desc>Created using Figma</desc>
<g id="Canvas" transform="translate(-744 469)">
<g id="Group">
<g id="XMLID 16">
<g id="XMLID 20">
<use xlink:href="#path0_fill" transform="translate(745 -468)" fill="#FFFFFF"/>
<use xlink:href="#path1_stroke" transform="translate(745 -468)" fill="#FFFFFF"/>
</g>
<g id="XMLID 17">
<use xlink:href="#path2_fill" transform="translate(753.232 -465.519)" fill="#FFFFFF"/>
<use xlink:href="#path3_stroke" transform="translate(753.232 -465.519)" fill="#FFFFFF"/>
</g>
</g>
</g>
</g>
<defs>
<path id="path0_fill" d="M 42.7846 0C 44.142 0 45.125 0.602898 45.6477 1.83961C 45.9441 2.53527 45.8661 19.4164 45.8661 25.4686C 45.8661 25.6232 45.8661 25.77 45.8661 25.971C 46.0456 25.971 46.1782 25.971 46.3186 25.971C 47.5434 25.971 48.7604 25.971 49.9853 25.971C 50.8356 25.971 51.3505 26.5816 51.2335 27.4087C 51.0697 28.5372 50.4768 29.3565 49.408 29.7739C 49.0101 29.9285 48.5498 29.9826 48.1207 29.9903C 43.2292 30.0058 38.3456 29.9981 33.4541 29.9981C 23.3512 29.9981 13.2484 29.9981 3.14556 29.9981C 1.76471 29.9981 0.750527 29.4184 0.227832 28.1353C -0.00621061 27.5556 -0.177842 26.9295 0.32925 26.3575C 0.586697 26.0638 0.914357 25.9556 1.28882 25.9556C 2.63067 25.9633 3.96471 25.9556 5.36117 25.9556C 5.37677 25.7778 5.39237 25.6077 5.39237 25.4377C 5.39237 18.0019 5.39237 10.5739 5.39237 3.13816C 5.39237 2.10242 5.71223 1.22126 6.56258 0.57971C 7.13989 0.193237 7.764 0 8.45833 0C 13.3498 0.00772947 37.9399 0 42.7846 0ZM 6.22712 25.9478C 19.1931 25.9478 32.12 25.9478 45.0392 25.9478C 45.0548 25.8937 45.0626 25.8705 45.0626 25.8396C 45.0782 19.6328 45.0938 13.4261 45.1016 7.21932C 45.1016 5.85894 45.0392 4.49855 45.0782 3.13816C 45.1172 1.85507 44.1654 0.803865 42.7222 0.811594C 37.4718 0.850242 32.2214 0.842512 26.9633 0.834783C 20.8236 0.834783 14.6917 0.819324 8.55194 0.827053C 8.16968 0.827053 7.764 0.881159 7.42074 1.04348C 6.59379 1.42995 6.21932 2.13333 6.21932 3.02995C 6.21932 10.543 6.21932 18.0483 6.21932 25.5614C 6.22712 25.685 6.22712 25.7932 6.22712 25.9478ZM 25.6214 29.2097C 33.1498 29.2097 40.6704 29.2097 48.1987 29.2097C 49.2675 29.2097 50.0009 28.6918 50.3597 27.6792C 50.6016 26.9913 50.469 26.8058 49.7512 26.8058C 44.3292 26.8058 38.9073 26.8135 33.4931 26.8058C 33.1186 26.8058 32.8534 26.829 32.8846 27.2928C 32.8924 27.37 32.83 27.4628 32.7831 27.5401C 32.4399 28.1662 31.886 28.4135 31.1839 28.4135C 27.7668 28.4058 24.3498 28.4135 20.925 28.4135C 20.5739 28.4135 20.2229 28.4213 19.8718 28.4058C 19.1541 28.3749 18.4597 27.8338 18.3973 27.2155C 18.3661 26.8754 18.2335 26.7981 17.9136 26.7981C 12.4292 26.8058 6.94485 26.7981 1.46046 26.7981C 0.859747 26.7981 0.71152 26.9913 0.883151 27.5633C 1.18741 28.6068 1.98315 29.2019 3.08315 29.2019C 10.5959 29.2097 18.1087 29.2097 25.6214 29.2097ZM 19.2477 26.8599C 19.2321 27.3391 19.4661 27.5865 19.9576 27.5865C 21.9314 27.5865 23.9051 27.5865 25.8789 27.5865C 27.681 27.5865 29.491 27.5865 31.2931 27.5865C 31.808 27.5865 32.042 27.37 32.081 26.8599C 27.798 26.8599 23.5229 26.8599 19.2477 26.8599Z"/>
<path id="path1_stroke" d="M 45.6477 1.83961L 45.3023 1.9856L 45.3027 1.98663L 45.6477 1.83961ZM 45.8661 25.971L 45.4911 25.971L 45.4911 26.346L 45.8661 26.346L 45.8661 25.971ZM 51.2335 27.4087L 51.6046 27.4626L 51.6048 27.4612L 51.2335 27.4087ZM 49.408 29.7739L 49.5438 30.1235L 49.5444 30.1232L 49.408 29.7739ZM 48.1207 29.9903L 48.1219 30.3654L 48.1275 30.3653L 48.1207 29.9903ZM 0.227832 28.1353L -0.1199 28.2757L -0.119457 28.2767L 0.227832 28.1353ZM 0.32925 26.3575L 0.609858 26.6063L 0.611256 26.6047L 0.32925 26.3575ZM 1.28882 25.9556L 1.29098 25.5806L 1.28882 25.5806L 1.28882 25.9556ZM 5.36117 25.9556L 5.36117 26.3306L 5.70469 26.3306L 5.73473 25.9883L 5.36117 25.9556ZM 6.56258 0.57971L 6.35397 0.268091L 6.34518 0.273977L 6.33673 0.28035L 6.56258 0.57971ZM 8.45833 0L 8.45892 -0.375L 8.45833 -0.375L 8.45833 0ZM 6.22712 25.9478L 5.85212 25.9478L 5.85212 26.3228L 6.22712 26.3228L 6.22712 25.9478ZM 45.0392 25.9478L 45.0392 26.3228L 45.3213 26.3228L 45.3995 26.0517L 45.0392 25.9478ZM 45.0626 25.8396L 44.6876 25.8387L 44.6876 25.8396L 45.0626 25.8396ZM 45.1016 7.21932L 45.4766 7.2198L 45.4766 7.21932L 45.1016 7.21932ZM 45.0782 3.13816L 44.7034 3.12677L 44.7033 3.12742L 45.0782 3.13816ZM 42.7222 0.811594L 42.7201 0.436599L 42.7194 0.436604L 42.7222 0.811594ZM 26.9633 0.834783L 26.9638 0.459783L 26.9633 0.459783L 26.9633 0.834783ZM 8.55194 0.827053L 8.55194 1.20205L 8.55242 1.20205L 8.55194 0.827053ZM 7.42074 1.04348L 7.57951 1.38321L 7.58105 1.38249L 7.42074 1.04348ZM 6.21932 25.5614L 5.84432 25.5614L 5.84432 25.5732L 5.84506 25.585L 6.21932 25.5614ZM 50.3597 27.6792L 50.7132 27.8045L 50.7135 27.8036L 50.3597 27.6792ZM 33.4931 26.8058L 33.4936 26.4308L 33.4931 26.4308L 33.4931 26.8058ZM 32.8846 27.2928L 32.5102 27.3179L 32.5115 27.3304L 32.8846 27.2928ZM 32.7831 27.5401L 32.4624 27.3458L 32.4582 27.3527L 32.4543 27.3598L 32.7831 27.5401ZM 31.1839 28.4135L 31.183 28.7885L 31.1839 28.7885L 31.1839 28.4135ZM 19.8718 28.4058L 19.8883 28.0312L 19.8879 28.0311L 19.8718 28.4058ZM 18.3973 27.2155L 18.0239 27.2497L 18.0242 27.2531L 18.3973 27.2155ZM 17.9136 26.7981L 17.9136 26.4231L 17.9131 26.4231L 17.9136 26.7981ZM 0.883151 27.5633L 1.24317 27.4583L 1.24233 27.4555L 0.883151 27.5633ZM 3.08315 29.2019L 3.08354 28.8269L 3.08315 28.8269L 3.08315 29.2019ZM 19.2477 26.8599L 19.2477 26.4849L 18.8847 26.4849L 18.8729 26.8477L 19.2477 26.8599ZM 32.081 26.8599L 32.4549 26.8885L 32.4858 26.4849L 32.081 26.4849L 32.081 26.8599ZM 42.7846 0.375C 44.0033 0.375 44.8428 0.898394 45.3023 1.9856L 45.9931 1.69362C 45.4072 0.307403 44.2807 -0.375 42.7846 -0.375L 42.7846 0.375ZM 45.3027 1.98663C 45.2925 1.96271 45.2959 1.96037 45.3043 2.01165C 45.3117 2.05667 45.3183 2.11201 45.3257 2.18904C 45.3409 2.34663 45.3547 2.55774 45.3676 2.82462C 45.3937 3.36089 45.4148 4.09555 45.432 4.98129C 45.4663 6.75409 45.4843 9.11561 45.4931 11.6467C 45.5106 16.7092 45.4911 22.4419 45.4911 25.4686L 46.2411 25.4686C 46.2411 22.4431 46.2606 16.7092 46.2431 11.6441C 46.2343 9.11145 46.2162 6.74397 46.1818 4.96677C 46.1646 4.07752 46.1431 3.33192 46.1167 2.78822C 46.1035 2.5151 46.0885 2.28628 46.0723 2.11722C 46.0639 2.03091 46.0542 1.95123 46.0445 1.8912C 46.0358 1.83743 46.0214 1.75999 45.9927 1.6926L 45.3027 1.98663ZM 45.4911 25.4686C 45.4911 25.6232 45.4911 25.77 45.4911 25.971L 46.2411 25.971C 46.2411 25.77 46.2411 25.6232 46.2411 25.4686L 45.4911 25.4686ZM 45.8661 26.346C 46.0456 26.346 46.1782 26.346 46.3186 26.346L 46.3186 25.596C 46.1782 25.596 46.0456 25.596 45.8661 25.596L 45.8661 26.346ZM 46.3186 26.346C 47.5434 26.346 48.7604 26.346 49.9853 26.346L 49.9853 25.596C 48.7604 25.596 47.5434 25.596 46.3186 25.596L 46.3186 26.346ZM 49.9853 26.346C 50.3184 26.346 50.5493 26.4632 50.6879 26.6243C 50.8272 26.7861 50.908 27.0323 50.8622 27.3562L 51.6048 27.4612C 51.676 26.958 51.5579 26.4854 51.2564 26.1351C 50.9543 25.7841 50.5025 25.596 49.9853 25.596L 49.9853 26.346ZM 50.8624 27.3548C 50.7161 28.3625 50.2031 29.0608 49.2716 29.4246L 49.5444 30.1232C 50.7504 29.6522 51.4232 28.7119 51.6046 27.4626L 50.8624 27.3548ZM 49.2722 29.4244C 48.9196 29.5646 48.5245 29.6085 48.114 29.6154L 48.1275 30.3653C 48.5751 30.3568 49.1006 30.2924 49.5438 30.1235L 49.2722 29.4244ZM 48.1195 29.6153C 43.229 29.6308 38.3459 29.6231 33.4541 29.6231L 33.4541 30.3731C 38.3453 30.3731 43.2295 30.3808 48.1219 30.3653L 48.1195 29.6153ZM 33.4541 29.6231C 23.3512 29.6231 13.2484 29.6231 3.14556 29.6231L 3.14556 30.3731C 13.2484 30.3731 23.3512 30.3731 33.4541 30.3731L 33.4541 29.6231ZM 3.14556 29.6231C 2.49956 29.6257 2.00126 29.5073 1.56277 29.2293C 1.12022 28.9602 0.811141 28.5845 0.575121 27.9938L -0.119457 28.2767C 0.167218 28.9691 0.626576 29.5248 1.16701 29.8664C 1.7115 30.199 2.41071 30.3704 3.14556 30.3731L 3.14556 29.6231ZM 0.575562 27.9949C 0.343959 27.4212 0.262118 26.9985 0.609854 26.6063L 0.0486469 26.1087C -0.617802 26.8604 -0.35638 27.6899 -0.119899 28.2757L 0.575562 27.9949ZM 0.611256 26.6047C 0.780981 26.411 0.994504 26.3306 1.28882 26.3306L 1.28882 25.5806C 0.834209 25.5806 0.392413 25.7165 0.0472445 26.1103L 0.611256 26.6047ZM 1.28666 26.3305C 2.63068 26.3383 3.9658 26.3306 5.36117 26.3306L 5.36117 25.5806C 3.96362 25.5806 2.63066 25.5883 1.29098 25.5806L 1.28666 26.3305ZM 5.73473 25.9883C 5.75027 25.8113 5.76698 25.6249 5.76737 25.4377L 5.01737 25.4377C 5.01776 25.5906 5.00327 25.7443 4.9876 25.9228L 5.73473 25.9883ZM 5.76737 25.4377C 5.76737 18.0019 5.76737 10.5739 5.76737 3.13816L 5.01737 3.13816C 5.01737 10.5739 5.01737 18.0019 5.01737 25.4377L 5.76737 25.4377ZM 5.76737 3.13816C 5.76737 2.18864 6.05454 1.43275 6.78843 0.87907L 6.33673 0.28035C 5.36992 1.00976 5.01737 2.01619 5.01737 3.13816L 5.76737 3.13816ZM 6.77119 0.891329C 7.30134 0.531701 7.82009 0.370782 8.45833 0.375L 8.45833 -0.375C 7.70792 -0.370782 6.97844 -0.145228 6.35397 0.268091L 6.77119 0.891329ZM 8.45774 0.375C 13.3496 0.382729 37.9399 0.375 42.7846 0.375L 42.7846 -0.375C 37.9398 -0.375 13.3501 -0.36727 8.45892 -0.375L 8.45774 0.375ZM 6.22712 26.3228C 19.1931 26.3228 32.12 26.3228 45.0392 26.3228L 45.0392 25.5728C 32.12 25.5728 19.1931 25.5728 6.22712 25.5728L 6.22712 26.3228ZM 45.3995 26.0517C 45.4127 26.0055 45.4327 25.9311 45.4376 25.8396L 44.6876 25.8396C 44.6876 25.8309 44.6882 25.8217 44.6894 25.8128C 44.6905 25.8044 44.6917 25.799 44.6919 25.7984C 44.6919 25.7981 44.6918 25.7988 44.6912 25.8008C 44.6905 25.8035 44.69 25.8055 44.6888 25.8097C 44.6875 25.814 44.6862 25.8185 44.6846 25.8243C 44.6829 25.83 44.6809 25.8367 44.6789 25.8439L 45.3995 26.0517ZM 45.4376 25.8406C 45.4532 19.6338 45.4688 13.4268 45.4766 7.2198L 44.7266 7.21885C 44.7188 13.4254 44.7032 19.6319 44.6876 25.8387L 45.4376 25.8406ZM 45.4766 7.21932C 45.4765 5.85034 45.4142 4.49533 45.453 3.14891L 44.7033 3.12742C 44.6642 4.50177 44.7267 5.86753 44.7266 7.21932L 45.4766 7.21932ZM 45.453 3.14956C 45.4985 1.65273 44.3743 0.427741 42.7201 0.4366L 42.7242 1.18659C 43.9565 1.17999 44.7359 2.05742 44.7034 3.12677L 45.453 3.14956ZM 42.7194 0.436604C 37.4707 0.475243 32.222 0.467512 26.9638 0.459783L 26.9627 1.20978C 32.2209 1.21751 37.4729 1.22524 42.7249 1.18658L 42.7194 0.436604ZM 26.9633 0.459783C 20.824 0.459783 14.6919 0.444324 8.55147 0.452053L 8.55242 1.20205C 14.6914 1.19432 20.8231 1.20978 26.9633 1.20978L 26.9633 0.459783ZM 8.55194 0.452053C 8.14483 0.452877 7.65779 0.521514 7.26043 0.70447L 7.58105 1.38249C 7.87021 1.2408 8.19452 1.20123 8.55194 1.20205L 8.55194 0.452053ZM 7.26197 0.703748C 6.28389 1.16085 5.84432 2.01018 5.84432 3.02995L 6.59432 3.02995C 6.59432 2.25649 6.90369 1.69905 7.57951 1.38321L 7.26197 0.703748ZM 5.84432 3.02995C 5.84432 10.543 5.84432 18.0483 5.84432 25.5614L 6.59432 25.5614C 6.59432 18.0483 6.59432 10.543 6.59432 3.02995L 5.84432 3.02995ZM 5.84506 25.585C 5.85231 25.6968 5.85212 25.7932 5.85212 25.9478L 6.60212 25.9478C 6.60212 25.7932 6.60194 25.6732 6.59358 25.5377L 5.84506 25.585ZM 25.6214 29.5847C 33.1498 29.5847 40.6704 29.5847 48.1987 29.5847L 48.1987 28.8347C 40.6704 28.8347 33.1498 28.8347 25.6214 28.8347L 25.6214 29.5847ZM 48.1987 29.5847C 48.7854 29.581 49.3461 29.4182 49.7621 29.1303C 50.1719 28.8338 50.5129 28.3587 50.7132 27.8045L 50.0063 27.554C 49.8477 28.0123 49.6426 28.3024 49.3288 28.5181C 49.0213 28.7422 48.6809 28.8383 48.1987 28.8347L 48.1987 29.5847ZM 50.7135 27.8036C 50.7787 27.6173 50.8266 27.4316 50.8411 27.2864C 50.8558 27.1244 50.8388 26.9356 50.7226 26.7695C 50.6059 26.6028 50.4339 26.5228 50.2764 26.4823C 50.1356 26.4476 49.9458 26.4311 49.7512 26.4308L 49.7512 27.1808C 49.9203 27.1808 50.026 27.1924 50.0898 27.2087C 50.1515 27.2246 50.1322 27.2339 50.1081 27.1996C 50.0845 27.1658 50.1002 27.1524 50.0942 27.2186C 50.088 27.2865 50.063 27.3926 50.006 27.5549L 50.7135 27.8036ZM 49.7512 26.4308C 44.329 26.4308 38.9073 26.4385 33.4936 26.4308L 33.4925 27.1808C 38.9073 27.1885 44.3295 27.1808 49.7512 27.1808L 49.7512 26.4308ZM 33.4931 26.4308C 33.3324 26.4308 33.061 26.4269 32.8476 26.5515C 32.7457 26.6161 32.6212 26.7564 32.5645 26.8845C 32.511 27.0215 32.5005 27.1705 32.5104 27.3179L 33.2587 27.2676C 33.253 27.1832 33.264 27.1553 33.2631 27.1575C 33.2671 27.1641 33.2331 27.2001 33.2258 27.1992C 33.2174 27.2082 33.2284 27.1945 33.2811 27.1889C 33.3386 27.1813 33.4026 27.1808 33.4931 27.1808L 33.4931 26.4308ZM 32.5115 27.3304C 32.5077 27.2932 32.5135 27.2669 32.516 27.2574C 32.5186 27.2478 32.5203 27.2458 32.5165 27.2537C 32.5129 27.2611 32.507 27.272 32.4972 27.2885C 32.4922 27.297 32.4873 27.305 32.4814 27.3147C 32.4755 27.3244 32.4689 27.335 32.4624 27.3458L 33.1039 27.7343C 33.1247 27.6999 33.1612 27.642 33.1922 27.5792C 33.2209 27.5195 33.2722 27.3994 33.2577 27.2551L 32.5115 27.3304ZM 32.4543 27.3598C 32.1915 27.8392 31.7823 28.0385 31.1839 28.0385L 31.1839 28.7885C 31.9897 28.7885 32.6883 28.4931 33.112 27.7204L 32.4543 27.3598ZM 31.1847 28.0385C 27.7668 28.0308 24.3494 28.0385 20.925 28.0385L 20.925 28.7885C 24.3502 28.7885 27.7668 28.7808 31.183 28.7885L 31.1847 28.0385ZM 20.925 28.0385C 20.5698 28.0385 20.227 28.0463 19.8883 28.0312L 19.8553 28.7804C 20.2187 28.7962 20.5781 28.7885 20.925 28.7885L 20.925 28.0385ZM 19.8879 28.0311C 19.5926 28.0239 19.3493 27.9237 19.1228 27.7379C 18.9066 27.5653 18.7888 27.3597 18.7704 27.1778L 18.0242 27.2531C 18.0683 27.6895 18.3288 28.0637 18.6549 28.324C 18.9706 28.571 19.4333 28.7568 19.8557 28.7804L 19.8879 28.0311ZM 18.7708 27.1812C 18.7524 26.9808 18.6971 26.7462 18.4985 26.5868C 18.3126 26.4376 18.0814 26.4231 17.9136 26.4231L 17.9136 27.1731C 17.9815 27.1731 18.0197 27.1775 18.0403 27.1819C 18.0582 27.1858 18.0475 27.1865 18.029 27.1717C 18.0086 27.1553 18.0029 27.1396 18.0049 27.1449C 18.0088 27.1546 18.0179 27.1846 18.0239 27.2497L 18.7708 27.1812ZM 17.9131 26.4231C 12.4292 26.4308 6.94512 26.4231 1.46046 26.4231L 1.46046 27.1731C 6.94459 27.1731 12.4292 27.1808 17.9142 27.1731L 17.9131 26.4231ZM 1.46046 26.4231C 1.16521 26.4231 0.795371 26.4595 0.583181 26.7399C 0.369008 27.0228 0.43924 27.3887 0.523973 27.6711L 1.24233 27.4555C 1.20401 27.3278 1.19187 27.247 1.19146 27.1992C 1.19108 27.1553 1.20047 27.167 1.18117 27.1925C 1.16229 27.2175 1.1498 27.2108 1.19471 27.1981C 1.24288 27.1844 1.32578 27.1731 1.46046 27.1731L 1.46046 26.4231ZM 0.523143 27.6683C 0.874548 28.8734 1.81824 29.5769 3.08315 29.5769L 3.08315 28.8269C 2.14806 28.8269 1.50027 28.3401 1.24316 27.4583L 0.523143 27.6683ZM 3.08277 29.5769C 10.5957 29.5847 18.1087 29.5847 25.6214 29.5847L 25.6214 28.8347C 18.1087 28.8347 10.5961 28.8347 3.08354 28.8269L 3.08277 29.5769ZM 18.8729 26.8477C 18.8632 27.1449 18.9288 27.4426 19.1432 27.6639C 19.3576 27.885 19.6545 27.9615 19.9576 27.9615L 19.9576 27.2115C 19.7692 27.2115 19.7034 27.1642 19.6818 27.1419C 19.6602 27.1197 19.6166 27.0541 19.6225 26.8721L 18.8729 26.8477ZM 19.9576 27.9615C 21.9314 27.9615 23.9051 27.9615 25.8789 27.9615L 25.8789 27.2115C 23.9051 27.2115 21.9314 27.2115 19.9576 27.2115L 19.9576 27.9615ZM 25.8789 27.9615C 27.681 27.9615 29.491 27.9615 31.2931 27.9615L 31.2931 27.2115C 29.491 27.2115 27.681 27.2115 25.8789 27.2115L 25.8789 27.9615ZM 31.2931 27.9615C 31.5953 27.9615 31.8935 27.899 32.1198 27.6901C 32.3465 27.4809 32.432 27.1889 32.4549 26.8885L 31.7071 26.8313C 31.6911 27.041 31.64 27.1123 31.6112 27.1389C 31.5821 27.1658 31.5057 27.2115 31.2931 27.2115L 31.2931 27.9615ZM 32.081 26.4849C 27.798 26.4849 23.5229 26.4849 19.2477 26.4849L 19.2477 27.2349C 23.5229 27.2349 27.798 27.2349 32.081 27.2349L 32.081 26.4849Z"/>
<path id="path2_fill" d="M 34.7865 21.8435C 23.1858 21.8435 11.6319 21.8435 0.0390072 21.8435C 0.0234044 21.6812 0.00780142 21.5266 0.00780142 21.3797C 0.00780142 14.4077 0.00780154 7.44348 1.1904e-07 0.471498C 1.1904e-07 0.0927537 0.117021 -1.17942e-07 0.483688 -1.17942e-07C 11.7645 0.00772935 23.0532 0.00772935 34.334 -1.17942e-07C 34.7085 -1.17942e-07 34.8177 0.100483 34.8177 0.471498C 34.8099 7.44348 34.8099 14.4077 34.8099 21.3797C 34.8099 21.5266 34.8021 21.6657 34.7865 21.8435ZM 34.0142 21.0242C 34.0142 20.8541 34.0142 20.7459 34.0142 20.6299C 34.0142 14.1604 34.0142 7.69855 34.022 1.22899C 34.022 0.850241 33.8894 0.788406 33.5539 0.788406C 28.2255 0.796135 22.8894 0.796135 17.561 0.803865C 17.366 0.803865 17.1241 0.888889 16.9837 1.02802C 15.7823 2.19517 14.6043 3.38551 13.4184 4.56039C 10.4461 7.51304 7.46596 10.458 4.49362 13.4184C 4.17376 13.7353 4.08014 13.3797 3.90851 13.2638C 3.72908 13.1401 3.72908 12.9932 3.90071 12.8232C 7.59078 9.18261 11.2731 5.54203 14.9553 1.90145C 15.2986 1.56135 15.634 1.2058 16.0163 0.819324C 15.8915 0.803865 15.8525 0.796135 15.8213 0.796135C 10.9454 0.796135 6.0695 0.796135 1.19362 0.788406C 0.873759 0.788406 0.803546 0.888889 0.803546 1.19034C 0.811347 4.29758 0.811348 7.3971 0.811348 10.5043C 0.811348 10.6589 0.811348 10.8058 0.811348 11.0918C 3.2922 8.63382 5.69503 6.26087 8.11347 3.86473C 8.31631 4.05797 8.48794 4.22802 8.66738 4.39807C 8.56596 4.51401 8.50355 4.61449 8.42553 4.69179C 7.02908 6.08309 5.62482 7.4744 4.22057 8.85797C 3.19078 9.87826 2.15319 10.8985 1.1156 11.9111C 0.897163 12.1198 0.795745 12.3285 0.795745 12.6454C 0.811347 15.2889 0.803546 17.9246 0.803546 20.5681C 0.803546 20.715 0.803546 20.8696 0.803546 21.0551C 1.01418 21.0551 1.17021 21.0551 1.32624 21.0551C 6.31915 21.0551 11.3121 21.0551 16.305 21.0551C 16.9447 21.0551 17.4752 21.0242 18.1149 21.0319C 18.1149 21.0319 19.0745 20.0734 19.1915 19.9575C 22.0546 17.113 24.9177 14.2763 27.7809 11.4396C 28.4752 10.7517 29.1461 10.0406 29.8248 9.34493C 30.0745 9.57681 30.2539 9.73913 30.4957 9.95555C 26.7511 13.6425 23.0376 17.3063 19.3241 20.9623C 19.3397 20.9932 19.3553 21.0242 19.3709 21.0551C 20.5879 21.0551 21.805 21.0705 23.0298 21.0473C 23.2326 21.0396 23.4823 20.9391 23.6305 20.7923C 25.027 19.4319 26.4156 18.0483 27.8043 16.6802C 27.8979 16.5874 28.0071 16.5024 28.0929 16.4251C 28.3035 16.6184 28.483 16.7807 28.7638 17.0357C 27.383 18.3884 26.0255 19.7101 24.6759 21.0319C 27.7575 21.0242 30.8624 21.0242 34.0142 21.0242Z"/>
<path id="path3_stroke" d="M 34.7865 21.8435L 34.7865 22.2185L 35.1301 22.2185L 35.1601 21.8763L 34.7865 21.8435ZM 0.0390072 21.8435L -0.334272 21.8794L -0.301675 22.2185L 0.0390072 22.2185L 0.0390072 21.8435ZM 1.1904e-07 0.471498L -0.375 0.471498L -0.375 0.471917L 1.1904e-07 0.471498ZM 0.483688 -1.17942e-07L 0.483945 -0.375L 0.483688 -0.375L 0.483688 -1.17942e-07ZM 34.334 -1.17942e-07L 34.334 -0.375L 34.3338 -0.375L 34.334 -1.17942e-07ZM 34.8177 0.471498L 35.1927 0.471917L 35.1927 0.471498L 34.8177 0.471498ZM 34.0142 21.0242L 34.0142 21.3992L 34.3892 21.3992L 34.3892 21.0242L 34.0142 21.0242ZM 34.022 1.22899L 34.397 1.22944L 34.397 1.22899L 34.022 1.22899ZM 33.5539 0.788406L 33.5539 0.413405L 33.5534 0.413406L 33.5539 0.788406ZM 17.561 0.803865L 17.561 1.17886L 17.5615 1.17886L 17.561 0.803865ZM 16.9837 1.02802L 17.245 1.29701L 17.2476 1.29441L 16.9837 1.02802ZM 13.4184 4.56039L 13.1545 4.29399L 13.1542 4.29434L 13.4184 4.56039ZM 4.49362 13.4184L 4.75755 13.6847L 4.75825 13.6841L 4.49362 13.4184ZM 3.90851 13.2638L 3.69569 13.5725L 3.6986 13.5745L 3.90851 13.2638ZM 3.90071 12.8232L 3.63734 12.5562L 3.63678 12.5568L 3.90071 12.8232ZM 14.9553 1.90145L 15.219 2.16812L 15.2193 2.16784L 14.9553 1.90145ZM 16.0163 0.819324L 16.2829 1.08303L 16.8192 0.54089L 16.0624 0.447167L 16.0163 0.819324ZM 1.19362 0.788406L 1.19421 0.413406L 1.19362 0.413406L 1.19362 0.788406ZM 0.803546 1.19034L 0.428545 1.19034L 0.428547 1.19128L 0.803546 1.19034ZM 0.811348 11.0918L 0.436348 11.0918L 0.436348 11.9912L 1.07528 11.3582L 0.811348 11.0918ZM 8.11347 3.86473L 8.37214 3.59322L 8.10835 3.34192L 7.84954 3.59834L 8.11347 3.86473ZM 8.66738 4.39807L 8.94963 4.64496L 9.18687 4.37375L 8.92533 4.12588L 8.66738 4.39807ZM 8.42553 4.69179L 8.1616 4.4254L 8.16086 4.42613L 8.42553 4.69179ZM 4.22057 8.85797L 3.95738 8.59084L 3.95663 8.59158L 4.22057 8.85797ZM 1.1156 11.9111L 1.37467 12.1823L 1.37751 12.1795L 1.1156 11.9111ZM 0.795745 12.6454L 0.420738 12.6454L 0.420751 12.6476L 0.795745 12.6454ZM 0.803546 21.0551L 0.428546 21.0551L 0.428546 21.4301L 0.803546 21.4301L 0.803546 21.0551ZM 18.1149 21.0319L 18.1104 21.4069L 18.2682 21.4088L 18.3799 21.2972L 18.1149 21.0319ZM 19.1915 19.9575L 19.4554 20.2239L 19.4558 20.2235L 19.1915 19.9575ZM 27.7809 11.4396L 27.5169 11.1732L 27.7809 11.4396ZM 29.8248 9.34493L 30.08 9.07017L 29.8119 8.82115L 29.5564 9.08305L 29.8248 9.34493ZM 30.4957 9.95555L 30.7588 10.2228L 31.0435 9.9425L 30.7458 9.67611L 30.4957 9.95555ZM 19.3241 20.9623L 19.061 20.6951L 18.8661 20.887L 18.9893 21.1313L 19.3241 20.9623ZM 19.3709 21.0551L 19.0361 21.224L 19.1401 21.4301L 19.3709 21.4301L 19.3709 21.0551ZM 23.0298 21.0473L 23.0369 21.4223L 23.0441 21.4221L 23.0298 21.0473ZM 23.6305 20.7923L 23.3688 20.5236L 23.3666 20.5259L 23.6305 20.7923ZM 27.8043 16.6802L 28.0674 16.9473L 28.0682 16.9466L 27.8043 16.6802ZM 28.0929 16.4251L 28.3464 16.1488L 28.0952 15.9183L 27.8419 16.1465L 28.0929 16.4251ZM 28.7638 17.0357L 29.0262 17.3036L 29.3102 17.0254L 29.016 16.7581L 28.7638 17.0357ZM 24.6759 21.0319L 24.4135 20.764L 23.7547 21.4092L 24.6768 21.4069L 24.6759 21.0319ZM 34.7865 21.4685C 23.1858 21.4685 11.6319 21.4685 0.0390072 21.4685L 0.0390072 22.2185C 11.6319 22.2185 23.1858 22.2185 34.7865 22.2185L 34.7865 21.4685ZM 0.412287 21.8076C 0.396597 21.6444 0.382327 21.5077 0.382801 21.3797L -0.367199 21.3797C -0.366724 21.5454 -0.349789 21.7179 -0.334272 21.8794L 0.412287 21.8076ZM 0.382801 21.3797C 0.382801 14.4077 0.382801 7.44327 0.375 0.471078L -0.375 0.471917C -0.367198 7.44369 -0.367199 14.4077 -0.367199 21.3797L 0.382801 21.3797ZM 0.375 0.471498C 0.375 0.392298 0.381563 0.352441 0.386091 0.335639C 0.389336 0.3236 0.385928 0.343714 0.361085 0.367049C 0.337392 0.389304 0.320201 0.389909 0.33876 0.385572C 0.360734 0.380437 0.404043 0.375 0.483688 0.375L 0.483688 -0.375C 0.298727 -0.375 0.0390796 -0.359466 -0.152397 -0.17961C -0.350705 0.00666234 -0.375 0.270571 -0.375 0.471498L 0.375 0.471498ZM 0.483431 0.375C 11.7644 0.382729 23.0533 0.382729 34.3343 0.375L 34.3338 -0.375C 23.0531 -0.367271 11.7647 -0.367271 0.483945 -0.375L 0.483431 0.375ZM 34.334 0.375C 34.4146 0.375 34.458 0.38081 34.4794 0.385982C 34.4972 0.390283 34.4796 0.389296 34.456 0.366504C 34.4316 0.343 34.4286 0.323242 34.432 0.336086C 34.4365 0.353487 34.4427 0.393294 34.4427 0.471498L 35.1927 0.471498C 35.1927 0.276949 35.1712 0.0143667 34.9767 -0.173267C 34.7863 -0.356877 34.5255 -0.375 34.334 -0.375L 34.334 0.375ZM 34.4427 0.471078C 34.4349 7.44327 34.4349 14.4077 34.4349 21.3797L 35.1849 21.3797C 35.1849 14.4077 35.1849 7.44369 35.1927 0.471917L 34.4427 0.471078ZM 34.4349 21.3797C 34.4351 21.5161 34.4281 21.6388 34.413 21.8107L 35.1601 21.8763C 35.1762 21.6926 35.1848 21.5371 35.1849 21.3797L 34.4349 21.3797ZM 34.3892 21.0242C 34.3892 20.8541 34.3892 20.7459 34.3892 20.6299L 33.6392 20.6299C 33.6392 20.7459 33.6392 20.8541 33.6392 21.0242L 34.3892 21.0242ZM 34.3892 20.6299C 34.3892 14.1604 34.3892 7.69878 34.397 1.22944L 33.647 1.22853C 33.6392 7.69832 33.6392 14.1604 33.6392 20.6299L 34.3892 20.6299ZM 34.397 1.22899C 34.397 1.02165 34.3667 0.756596 34.1543 0.579014C 33.9624 0.41852 33.7105 0.413406 33.5539 0.413406L 33.5539 1.16341C 33.6303 1.16341 33.6727 1.16731 33.6962 1.17195C 33.7174 1.1761 33.6996 1.17643 33.6732 1.15432C 33.6433 1.12935 33.6356 1.104 33.6368 1.10788C 33.6398 1.11788 33.647 1.15215 33.647 1.22899L 34.397 1.22899ZM 33.5534 0.413406C 28.2253 0.421135 22.8891 0.421135 17.5604 0.428865L 17.5615 1.17886C 22.8896 1.17114 28.2258 1.17113 33.5544 1.16341L 33.5534 0.413406ZM 17.561 0.428865C 17.2836 0.428865 16.9413 0.542109 16.7198 0.761629L 17.2476 1.29441C 17.3069 1.23567 17.4483 1.17886 17.561 1.17886L 17.561 0.428865ZM 16.7224 0.759046C 15.5183 1.92878 14.339 3.12042 13.1545 4.294L 13.6824 4.82678C 14.8695 3.6506 16.0462 2.46156 17.245 1.29699L 16.7224 0.759046ZM 13.1542 4.29434C 10.1822 7.24665 7.20185 10.1918 4.22899 13.1527L 4.75825 13.6841C 7.73007 10.7242 10.71 7.77943 13.6827 4.82643L 13.1542 4.29434ZM 4.22968 13.152C 4.17431 13.2068 4.17605 13.1833 4.22965 13.1743C 4.26005 13.1692 4.29293 13.1715 4.32313 13.1808C 4.35082 13.1893 4.36699 13.2008 4.37079 13.2036C 4.38 13.2074 4.35238 13.1849 4.31332 13.1388C 4.29378 13.1158 4.26648 13.0842 4.23887 13.0555C 4.20917 13.0249 4.16892 12.9871 4.11843 12.953L 3.6986 13.5745C 3.69469 13.5758 3.70467 13.5807 3.7414 13.624C 3.77816 13.6673 3.84454 13.7431 3.92017 13.8031C 4.01773 13.8765 4.16644 13.9452 4.35313 13.9141C 4.5196 13.8863 4.65299 13.7883 4.75755 13.6847L 4.22968 13.152ZM 4.12132 12.955C 4.10328 12.9426 4.10842 12.9421 4.11945 12.9586C 4.13283 12.9787 4.14736 13.013 4.14793 13.0559C 4.14846 13.0961 4.1364 13.1206 4.13446 13.1242C 4.13328 13.1264 4.13948 13.1145 4.16464 13.0896L 3.63678 12.5568C 3.52439 12.6681 3.395 12.8405 3.39799 13.0658C 3.40124 13.3106 3.55544 13.4759 3.6957 13.5725L 4.12132 12.955ZM 4.16408 13.0901C 7.85429 9.44942 11.5367 5.8087 15.219 2.16812L 14.6917 1.63478C 11.0094 5.27536 7.32727 8.9158 3.63734 12.5562L 4.16408 13.0901ZM 15.2193 2.16784C 15.567 1.82326 15.9037 1.46634 16.2829 1.08303L 15.7497 0.555613C 15.3643 0.945251 15.0302 1.29945 14.6914 1.63506L 15.2193 2.16784ZM 16.0624 0.447167C 16.0032 0.439852 15.9638 0.434258 15.9328 0.430162C 15.9061 0.42663 15.8651 0.421135 15.8213 0.421135L 15.8213 1.17114C 15.8087 1.17114 15.8028 1.16951 15.8346 1.1737C 15.8621 1.17734 15.9046 1.18334 15.9702 1.19148L 16.0624 0.447167ZM 15.8213 0.421135C 10.9454 0.421135 6.0698 0.421135 1.19421 0.413406L 1.19302 1.16341C 6.06921 1.17113 10.9454 1.17114 15.8213 1.17114L 15.8213 0.421135ZM 1.19362 0.413406C 1.022 0.413406 0.775725 0.433525 0.602129 0.623011C 0.437347 0.802877 0.428546 1.04218 0.428546 1.19034L 1.17855 1.19034C 1.17855 1.15951 1.17946 1.13546 1.18098 1.11662C 1.1825 1.09767 1.18441 1.08695 1.18548 1.08216C 1.18652 1.07751 1.18608 1.08159 1.18169 1.09089C 1.17696 1.10089 1.16858 1.11498 1.15514 1.12965C 1.14157 1.14446 1.12709 1.15522 1.11458 1.16232C 1.10277 1.16901 1.09558 1.17083 1.09684 1.17048C 1.09838 1.17006 1.10634 1.16809 1.12328 1.16636C 1.14013 1.16463 1.16303 1.16341 1.19362 1.16341L 1.19362 0.413406ZM 0.428547 1.19128C 0.436348 4.29805 0.436348 7.3971 0.436348 10.5043L 1.18635 10.5043C 1.18635 7.3971 1.18635 4.29711 1.17854 1.1894L 0.428547 1.19128ZM 0.436348 10.5043C 0.436348 10.6589 0.436348 10.8058 0.436348 11.0918L 1.18635 11.0918C 1.18635 10.8058 1.18635 10.6589 1.18635 10.5043L 0.436348 10.5043ZM 1.07528 11.3582C 3.55592 8.90042 5.95875 6.52747 8.37741 4.13112L 7.84954 3.59834C 5.43132 5.99426 3.02848 8.36721 0.547414 10.8254L 1.07528 11.3582ZM 7.85481 4.13625C 8.055 4.32694 8.22698 4.49732 8.40942 4.67025L 8.92533 4.12588C 8.7489 3.95871 8.57762 3.78901 8.37214 3.59322L 7.85481 4.13625ZM 8.38512 4.15117C 8.26455 4.29089 8.21029 4.38077 8.1616 4.4254L 8.68947 4.95818C 8.7968 4.84822 8.86736 4.73713 8.94963 4.64496L 8.38512 4.15117ZM 8.16086 4.42613C 6.76477 5.81707 5.36126 7.20764 3.95738 8.59085L 4.48376 9.12509C 5.88839 7.74115 7.29338 6.34911 8.69021 4.95744L 8.16086 4.42613ZM 3.95663 8.59158C 2.92735 9.61137 1.89077 10.6307 0.853694 11.6427L 1.37751 12.1795C 2.41561 11.1664 3.45421 10.1451 4.4845 9.12436L 3.95663 8.59158ZM 0.856554 11.64C 0.570481 11.9133 0.420745 12.2175 0.420745 12.6454L 1.17074 12.6454C 1.17074 12.4395 1.22384 12.3263 1.37465 12.1823L 0.856554 11.64ZM 0.420751 12.6476C 0.436348 15.2894 0.428546 17.9241 0.428546 20.5681L 1.17855 20.5681C 1.17855 17.9252 1.18635 15.2883 1.17074 12.6432L 0.420751 12.6476ZM 0.428546 20.5681C 0.428546 20.715 0.428546 20.8696 0.428546 21.0551L 1.17855 21.0551C 1.17855 20.8696 1.17855 20.715 1.17855 20.5681L 0.428546 20.5681ZM 0.803546 21.4301C 1.01418 21.4301 1.17021 21.4301 1.32624 21.4301L 1.32624 20.6801C 1.17021 20.6801 1.01418 20.6801 0.803546 20.6801L 0.803546 21.4301ZM 1.32624 21.4301C 6.31915 21.4301 11.3121 21.4301 16.305 21.4301L 16.305 20.6801C 11.3121 20.6801 6.31915 20.6801 1.32624 20.6801L 1.32624 21.4301ZM 16.305 21.4301C 16.9556 21.4299 17.4838 21.3991 18.1104 21.4069L 18.1194 20.6569C 17.4665 20.6493 16.9338 20.6802 16.305 20.6801L 16.305 21.4301ZM 18.1149 21.0319C 18.3799 21.2972 18.3799 21.2972 18.3799 21.2972C 18.3799 21.2972 18.3799 21.2972 18.3799 21.2972C 18.38 21.2971 18.38 21.2971 18.3801 21.297C 18.3802 21.2969 18.3804 21.2967 18.3806 21.2965C 18.3811 21.296 18.3818 21.2954 18.3827 21.2945C 18.3845 21.2926 18.3872 21.2899 18.3907 21.2864C 18.3978 21.2794 18.4081 21.269 18.4214 21.2558C 18.4478 21.2294 18.4858 21.1915 18.5316 21.1457C 18.6234 21.054 18.747 20.9306 18.8743 20.8035C 19.1288 20.5495 19.3974 20.2814 19.4554 20.2239L 18.9276 19.6911C 18.8686 19.7495 18.5989 20.0186 18.3444 20.2728C 18.2171 20.3998 18.0935 20.5233 18.0017 20.615C 17.9558 20.6608 17.9178 20.6987 17.8914 20.7251C 17.8781 20.7384 17.8678 20.7487 17.8607 20.7558C 17.8572 20.7593 17.8545 20.762 17.8526 20.7638C 17.8517 20.7647 17.851 20.7654 17.8506 20.7659C 17.8504 20.7661 17.8502 20.7663 17.8501 20.7664C 17.85 20.7664 17.85 20.7665 17.8499 20.7665C 17.8499 20.7665 17.8499 20.7665 17.8499 20.7666C 17.8499 20.7666 17.8499 20.7666 18.1149 21.0319ZM 19.4558 20.2235C 22.3187 17.3793 25.1817 14.5427 28.0448 11.706L 27.5169 11.1732C 24.6538 14.0099 21.7905 16.8468 18.9272 19.6915L 19.4558 20.2235ZM 28.0448 11.706C 28.7436 11.0136 29.4167 10.3002 30.0932 9.60681L 29.5564 9.08305C 28.8755 9.78096 28.2068 10.4898 27.5169 11.1732L 28.0448 11.706ZM 29.5696 9.61969C 29.8211 9.85324 30.0031 10.0179 30.2457 10.235L 30.7458 9.67611C 30.5047 9.46036 30.3279 9.30038 30.08 9.07017L 29.5696 9.61969ZM 30.2326 9.68834C 26.4878 13.3754 22.7744 17.0392 19.061 20.6951L 19.5872 21.2295C 23.3008 17.5734 27.0143 13.9096 30.7588 10.2228L 30.2326 9.68834ZM 18.9893 21.1313C 19.0049 21.1622 19.0205 21.1931 19.0361 21.224L 19.7057 20.8861C 19.6901 20.8552 19.6745 20.8243 19.6589 20.7934L 18.9893 21.1313ZM 19.3709 21.4301C 20.5856 21.4301 21.8061 21.4455 23.0369 21.4223L 23.0227 20.6724C 21.8038 20.6955 20.5903 20.6801 19.3709 20.6801L 19.3709 21.4301ZM 23.0441 21.4221C 23.3334 21.411 23.6745 21.2766 23.8944 21.0587L 23.3666 20.5259C 23.2901 20.6017 23.1318 20.6682 23.0155 20.6726L 23.0441 21.4221ZM 23.8922 21.0609C 25.2901 19.699 26.6795 18.3147 28.0674 16.9473L 27.5411 16.4131C 26.1517 17.7819 24.7638 19.1647 23.3688 20.5237L 23.8922 21.0609ZM 28.0682 16.9466C 28.1455 16.8691 28.2479 16.7899 28.3439 16.7038L 27.8419 16.1465C 27.7663 16.215 27.6503 16.3058 27.5403 16.4138L 28.0682 16.9466ZM 27.8394 16.7015C 28.051 16.8956 28.2311 17.0585 28.5117 17.3133L 29.016 16.7581C 28.7348 16.5028 28.5561 16.3411 28.3464 16.1488L 27.8394 16.7015ZM 28.5014 16.7679C 27.121 18.1201 25.7635 19.4418 24.4135 20.764L 24.9383 21.2998C 26.2875 19.9784 27.645 18.6567 29.0262 17.3036L 28.5014 16.7679ZM 24.6768 21.4069C 27.7579 21.3992 30.8624 21.3992 34.0142 21.3992L 34.0142 20.6492C 30.8624 20.6492 27.757 20.6492 24.6749 20.6569L 24.6768 21.4069Z"/>
</defs>
</svg>
