<svg width="16" height="12" viewBox="0 0 16 12" version="1.1" xmlns="http://www.w3.org/2000/svg" xmlns:xlink="http://www.w3.org/1999/xlink">
<title>Group</title>
<desc>Created using Figma</desc>
<g id="Canvas" transform="translate(-408 491)">
<g id="Group" opacity="0.6">
<g id="Vector">
<use xlink:href="#path0_fill" transform="matrix(1 1.60812e-16 1.60812e-16 -1 408 -479)" fill="#B0E519"/>
</g>
</g>
</g>
<defs>
<path id="path0_fill" d="M 15.375 1.02943C 14.8 0.299833 13.7312 0 11.6969 0L 4.30312 0C 2.22187 0 1.1375 0.316491 0.5625 1.09606C 0 1.85564 0 2.97501 0 4.52415L 0 7.47585C 0 10.4775 0.665625 12 4.30312 12L 11.6969 12C 13.4625 12 14.4406 11.7368 15.075 11.0905C 15.725 10.4275 16 9.34814 16 7.47585L 16 4.52415C 16 2.89173 15.9563 1.76569 15.375 1.02943ZM 10.2719 6.40977L 6.91563 8.27873C 6.84063 8.32204 6.75938 8.34203 6.675 8.34203C 6.58125 8.34203 6.49062 8.31538 6.40625 8.26208C 6.25313 8.16213 6.15625 7.98223 6.15625 7.79234L 6.15625 4.06441C 6.15625 3.87118 6.25 3.69461 6.40312 3.59467C 6.55625 3.49472 6.75 3.48806 6.90938 3.57801L 10.2656 5.43698C 10.4375 5.53026 10.5437 5.72016 10.5437 5.92338C 10.55 6.1266 10.4438 6.31649 10.2719 6.40977Z"/>
</defs>
</svg>
