<svg width="59" height="19" viewBox="0 0 59 19" version="1.1" xmlns="http://www.w3.org/2000/svg" xmlns:xlink="http://www.w3.org/1999/xlink">
<title>XMLID 15</title>
<desc>Created using Figma</desc>
<g id="Canvas" transform="translate(-904 -1388)">
<g id="XMLID 15">
<g id="XMLID 27">
<use xlink:href="#path0_fill" transform="translate(904.382 1388.59)" fill="#003C75"/>
<use xlink:href="#path1_stroke" transform="translate(904.382 1388.59)" fill="#003C75"/>
</g>
<g id="XMLID 25">
<use xlink:href="#path2_fill" transform="translate(916.719 1392.12)" fill="#003C75"/>
<use xlink:href="#path3_stroke" transform="translate(916.719 1392.12)" fill="#003C75"/>
</g>
<g id="XMLID 22">
<use xlink:href="#path4_fill" transform="translate(929.217 1394.78)" fill="#003C75"/>
<use xlink:href="#path5_stroke" transform="translate(929.217 1394.78)" fill="#003C75"/>
</g>
<g id="XMLID 19">
<use xlink:href="#path6_fill" transform="translate(940.363 1392.94)" fill="#003C75"/>
<use xlink:href="#path7_stroke" transform="translate(940.363 1392.94)" fill="#003C75"/>
</g>
<g id="XMLID 16">
<use xlink:href="#path8_fill" transform="matrix(0.998738 0.0502197 -0.051234 0.998687 950.816 1389.63)" fill="#003C75"/>
<use xlink:href="#path9_stroke" transform="matrix(0.998738 0.0502197 -0.051234 0.998687 950.816 1389.63)" fill="#003C75"/>
</g>
</g>
</g>
<defs>
<path id="path0_fill" d="M 4.43935 7.03584L 2.25646 9.04262L 0 7.68865L 8.78058 2.30581e-08L 11.6257 1.71665L 8.75606 12.9595L 6.42601 11.5572L 7.18634 8.67995L 4.43935 7.03584ZM 7.84857 6.89077L 8.48626 4.52131C 8.65795 3.8685 8.92774 3.04645 9.12396 2.41781L 9.09943 2.39364C 8.6089 2.8772 8.02025 3.50583 7.52972 3.96522L 5.71474 5.63351L 7.84857 6.89077Z"/>
<path id="path1_stroke" d="M 4.43935 7.03584L 4.50354 6.92858L 4.42346 6.88065L 4.35475 6.94382L 4.43935 7.03584ZM 2.25646 9.04262L 2.19215 9.14981L 2.27227 9.19789L 2.34106 9.13465L 2.25646 9.04262ZM 0 7.68865L -0.0823473 7.59461L -0.211377 7.70759L -0.0643154 7.79583L 0 7.68865ZM 8.78058 2.30581e-08L 8.84516 -0.107027L 8.76695 -0.154214L 8.69824 -0.0940421L 8.78058 2.30581e-08ZM 11.6257 1.71665L 11.7468 1.74756L 11.7698 1.65759L 11.6903 1.60962L 11.6257 1.71665ZM 8.75606 12.9595L 8.6916 13.0666L 8.83561 13.1533L 8.87717 12.9904L 8.75606 12.9595ZM 6.42601 11.5572L 6.30516 11.5252L 6.2812 11.6159L 6.36156 11.6643L 6.42601 11.5572ZM 7.18634 8.67995L 7.3072 8.71189L 7.33122 8.62098L 7.25054 8.5727L 7.18634 8.67995ZM 7.84857 6.89077L 7.78511 6.99847L 7.92659 7.08183L 7.96927 6.92326L 7.84857 6.89077ZM 8.48626 4.52131L 8.60697 4.5538L 8.60715 4.55311L 8.48626 4.52131ZM 9.12396 2.41781L 9.24328 2.45506L 9.26599 2.3823L 9.21171 2.32879L 9.12396 2.41781ZM 9.09943 2.39364L 9.18718 2.30462L 9.09943 2.21811L 9.01168 2.30462L 9.09943 2.39364ZM 7.52972 3.96522L 7.61431 4.05725L 7.61516 4.05645L 7.52972 3.96522ZM 5.71474 5.63351L 5.63015 5.54148L 5.50599 5.6556L 5.65128 5.7412L 5.71474 5.63351ZM 4.35475 6.94382L 2.17186 8.9506L 2.34106 9.13465L 4.52394 7.12786L 4.35475 6.94382ZM 2.32078 8.93544L 0.0643154 7.58147L -0.0643154 7.79583L 2.19215 9.14981L 2.32078 8.93544ZM 0.0823473 7.78269L 8.86293 0.0940422L 8.69824 -0.0940421L -0.0823473 7.59461L 0.0823473 7.78269ZM 8.71601 0.107027L 11.5611 1.82368L 11.6903 1.60962L 8.84516 -0.107027L 8.71601 0.107027ZM 11.5046 1.68573L 8.63494 12.9286L 8.87717 12.9904L 11.7468 1.74756L 11.5046 1.68573ZM 8.82051 12.8524L 6.49047 11.4501L 6.36156 11.6643L 8.6916 13.0666L 8.82051 12.8524ZM 6.54687 11.5891L 7.3072 8.71189L 7.06549 8.64802L 6.30516 11.5252L 6.54687 11.5891ZM 7.25054 8.5727L 4.50354 6.92858L 4.37515 7.1431L 7.12215 8.78721L 7.25054 8.5727ZM 7.96927 6.92326L 8.60697 4.5538L 8.36556 4.48883L 7.72786 6.85829L 7.96927 6.92326ZM 8.60715 4.55311C 8.77783 3.90391 9.04679 3.08456 9.24328 2.45506L 9.00464 2.38057C 8.8087 3.00833 8.53807 3.8331 8.36537 4.48952L 8.60715 4.55311ZM 9.21171 2.32879L 9.18718 2.30462L 9.01168 2.48266L 9.03621 2.50683L 9.21171 2.32879ZM 9.01168 2.30462C 8.51938 2.78995 7.93186 3.41744 7.44427 3.87398L 7.61516 4.05645C 8.10865 3.59422 8.69841 2.96445 9.18719 2.48266L 9.01168 2.30462ZM 7.44513 3.87319L 5.63015 5.54148L 5.79933 5.72554L 7.61431 4.05724L 7.44513 3.87319ZM 5.65128 5.7412L 7.78511 6.99847L 7.91202 6.78307L 5.77819 5.52581L 5.65128 5.7412Z"/>
<path id="path2_fill" d="M 5.05252 0.580275L 4.07144 4.71474L 8.14289 5.65769L 9.12396 1.52322L 11.6012 2.1035L 9.00133 12.887L 6.54865 12.3067L 7.62783 7.78536L 3.55638 6.84241L 2.4772 11.3637L -1.87124e-07 10.7835L 2.57531 1.71796e-15L 5.05252 0.580275Z"/>
<path id="path3_stroke" d="M 5.05252 0.580275L 5.17414 0.609135L 5.20308 0.487161L 5.08102 0.45857L 5.05252 0.580275ZM 4.07144 4.71474L 3.94982 4.68588L 3.92081 4.80816L 4.04324 4.83651L 4.07144 4.71474ZM 8.14289 5.65769L 8.11469 5.77946L 8.23581 5.80751L 8.26451 5.68655L 8.14289 5.65769ZM 9.12396 1.52322L 9.15247 1.40152L 9.03111 1.37309L 9.00234 1.49436L 9.12396 1.52322ZM 11.6012 2.1035L 11.7227 2.1328L 11.7522 2.01049L 11.6297 1.98179L 11.6012 2.1035ZM 9.00133 12.887L 8.97255 13.0086L 9.09367 13.0373L 9.12284 12.9162L 9.00133 12.887ZM 6.54865 12.3067L 6.42706 12.2777L 6.39799 12.3995L 6.51987 12.4283L 6.54865 12.3067ZM 7.62783 7.78536L 7.74941 7.81438L 7.77863 7.69198L 7.65603 7.66359L 7.62783 7.78536ZM 3.55638 6.84241L 3.58459 6.72064L 3.46362 6.69262L 3.4348 6.81339L 3.55638 6.84241ZM 2.4772 11.3637L 2.4487 11.4854L 2.56989 11.5138L 2.59879 11.3927L 2.4772 11.3637ZM -1.87124e-07 10.7835L -0.121581 10.7544L -0.150743 10.8765L -0.0285092 10.9052L -1.87124e-07 10.7835ZM 2.57531 1.71796e-15L 2.60382 -0.121706L 2.48264 -0.150091L 2.45373 -0.029036L 2.57531 1.71796e-15ZM 4.93089 0.551415L 3.94982 4.68588L 4.19307 4.7436L 5.17414 0.609135L 4.93089 0.551415ZM 4.04324 4.83651L 8.11469 5.77946L 8.17109 5.53591L 4.09965 4.59296L 4.04324 4.83651ZM 8.26451 5.68655L 9.24558 1.55208L 9.00234 1.49436L 8.02127 5.62883L 8.26451 5.68655ZM 9.09545 1.64493L 11.5727 2.2252L 11.6297 1.98179L 9.15247 1.40152L 9.09545 1.64493ZM 11.4796 2.0742L 8.87981 12.8577L 9.12284 12.9162L 11.7227 2.1328L 11.4796 2.0742ZM 9.0301 12.7653L 6.57743 12.185L 6.51987 12.4283L 8.97255 13.0086L 9.0301 12.7653ZM 6.67023 12.3357L 7.74941 7.81438L 7.50624 7.75634L 6.42706 12.2777L 6.67023 12.3357ZM 7.65603 7.66359L 3.58459 6.72064L 3.52818 6.96419L 7.59962 7.90714L 7.65603 7.66359ZM 3.4348 6.81339L 2.35562 11.3347L 2.59879 11.3927L 3.67797 6.87144L 3.4348 6.81339ZM 2.50571 11.242L 0.0285089 10.6617L -0.0285092 10.9052L 2.4487 11.4854L 2.50571 11.242ZM 0.121581 10.8125L 2.69689 0.029036L 2.45373 -0.029036L -0.121581 10.7544L 0.121581 10.8125ZM 2.5468 0.121706L 5.02401 0.701981L 5.08102 0.45857L 2.60382 -0.121706L 2.5468 0.121706Z"/>
<path id="path4_fill" d="M 10.7774 5.32994C 10.9736 8.95666 8.86435 11.2778 5.57776 11.447C 2.24212 11.6163 0.18187 9.2468 0.0101827 6.07946C -0.161505 2.76706 1.84969 0.179996 5.1608 0.0107488C 8.59455 -0.182676 10.6057 2.25932 10.7774 5.32994ZM 2.65907 5.88604C 2.78171 8.06207 3.88541 9.53694 5.57776 9.44022C 7.29463 9.34351 8.20212 7.6994 8.07949 5.54754C 7.98138 3.56494 6.92673 1.89664 5.1608 1.99336C 3.46846 2.06589 2.56097 3.73418 2.65907 5.88604Z"/>
<path id="path5_stroke" d="M 10.7774 5.32994L 10.9023 5.32319L 10.9022 5.32296L 10.7774 5.32994ZM 5.57776 11.447L 5.58409 11.5718L 5.58419 11.5718L 5.57776 11.447ZM 0.0101827 6.07946L -0.11465 6.08593L -0.114634 6.08623L 0.0101827 6.07946ZM 5.1608 0.0107488L 5.16719 0.135587L 5.16783 0.135551L 5.1608 0.0107488ZM 2.65907 5.88604L 2.5342 5.89173L 2.53427 5.89307L 2.65907 5.88604ZM 5.57776 9.44022L 5.57073 9.31542L 5.57063 9.31543L 5.57776 9.44022ZM 8.07949 5.54754L 7.95464 5.55372L 7.95469 5.55466L 8.07949 5.54754ZM 5.1608 1.99336L 5.16616 2.11825L 5.16764 2.11817L 5.1608 1.99336ZM 10.6526 5.33669C 10.7493 7.12433 10.2776 8.5775 9.38916 9.60319C 8.50105 10.6285 7.18592 11.239 5.57133 11.3222L 5.58419 11.5718C 7.25619 11.4857 8.639 10.8511 9.57813 9.76687C 10.5169 8.68302 11.0017 7.16227 10.9023 5.32319L 10.6526 5.33669ZM 5.57142 11.3222C 3.9366 11.4051 2.62316 10.8666 1.6965 9.9267C 0.76819 8.9851 0.219506 7.63169 0.134999 6.0727L -0.114634 6.08623C -0.027453 7.69457 0.53983 9.10956 1.51847 10.1022C 2.49877 11.0965 3.88327 11.6581 5.58409 11.5718L 5.57142 11.3222ZM 0.135015 6.07299C 0.0505578 4.44354 0.503206 3.00066 1.37575 1.94611C 2.24738 0.892658 3.54456 0.218526 5.16719 0.135586L 5.15442 -0.114088C 3.46594 -0.0277815 2.10196 0.676241 1.18314 1.78674C 0.265226 2.89612 -0.20188 4.40298 -0.11465 6.08593L 0.135015 6.07299ZM 5.16783 0.135551C 6.85141 0.0407139 8.17676 0.591269 9.10324 1.53395C 10.0317 2.4786 10.5682 3.82609 10.6526 5.33692L 10.9022 5.32296C 10.815 3.76317 10.2601 2.35435 9.28154 1.35871C 8.30106 0.361087 6.90394 -0.212642 5.15377 -0.114053L 5.16783 0.135551ZM 2.53427 5.89307C 2.59658 6.99869 2.9086 7.93891 3.43216 8.59349C 3.95866 9.25176 4.69583 9.61583 5.58489 9.56502L 5.57063 9.31543C 4.76734 9.36133 4.10648 9.03632 3.62739 8.43733C 3.14534 7.83465 2.8442 6.94942 2.78387 5.879L 2.53427 5.89307ZM 5.58479 9.56503C 6.48732 9.51419 7.17905 9.05415 7.62488 8.3301C 8.06817 7.61017 8.26659 6.63371 8.20429 5.54043L 7.95469 5.55466C 8.01502 6.61323 7.82102 7.53475 7.412 8.19902C 7.00552 8.85917 6.38507 9.26955 5.57073 9.31542L 5.58479 9.56503ZM 8.20434 5.54137C 8.15437 4.53172 7.86069 3.59275 7.34506 2.91502C 6.82675 2.23376 6.08372 1.81763 5.15397 1.86854L 5.16764 2.11817C 6.00382 2.07238 6.67107 2.44203 7.1461 3.06639C 7.6238 3.69428 7.90649 4.58076 7.95464 5.55372L 8.20434 5.54137ZM 5.15545 1.86847C 4.26311 1.90672 3.5773 2.36819 3.13195 3.09462C 2.68909 3.81699 2.48438 4.79883 2.5342 5.89173L 2.78394 5.88034C 2.73566 4.82139 2.93564 3.89316 3.34509 3.22528C 3.75204 2.56147 4.36615 2.15253 5.16616 2.11824L 5.15545 1.86847Z"/>
<path id="path6_fill" d="M -7.48498e-07 1.73264C 0.735802 1.36996 1.86403 0.886402 3.13943 0.475373C 4.73367 -0.0323678 5.91095 -0.153259 6.86749 0.209414C 7.67688 0.499551 8.26552 1.12818 8.58437 2.09531C 9.02585 3.44928 8.36363 4.68237 7.55424 5.28682L 7.57877 5.33518C 8.41268 5.38354 9.07491 5.96381 9.66355 6.8584C 10.3748 7.94642 11.1597 9.20368 11.5031 9.54218L 9.02585 10.3401C 8.75606 10.0983 8.21647 9.32457 7.48066 8.11567C 6.76939 6.88258 6.18074 6.68916 5.19967 6.97929L 4.46387 7.22108L 5.81284 11.3555L 3.40922 12.1292L -7.48498e-07 1.73264ZM 3.87523 5.50443L 4.83177 5.19011C 6.03358 4.80326 6.54865 3.9812 6.25433 3.06243C 5.93548 2.09531 5.10157 1.82935 3.99786 2.16784C 3.40922 2.36127 3.09037 2.50634 2.91869 2.60305L 3.87523 5.50443Z"/>
<path id="path7_stroke" d="M -7.48498e-07 1.73264L -0.0552641 1.62052L -0.152586 1.66849L -0.118778 1.77159L -7.48498e-07 1.73264ZM 3.13943 0.475373L 3.10149 0.356267L 3.10108 0.356399L 3.13943 0.475373ZM 6.86749 0.209414L 6.82317 0.326314L 6.82531 0.327082L 6.86749 0.209414ZM 8.58437 2.09531L 8.70321 2.05656L 8.70308 2.05617L 8.58437 2.09531ZM 7.55424 5.28682L 7.47945 5.18667L 7.3952 5.24959L 7.44277 5.34337L 7.55424 5.28682ZM 7.57877 5.33518L 7.4673 5.39173L 7.4998 5.45581L 7.57154 5.45997L 7.57877 5.33518ZM 9.66355 6.8584L 9.76818 6.79L 9.76797 6.78969L 9.66355 6.8584ZM 11.5031 9.54218L 11.5414 9.66116L 11.7377 9.59793L 11.5908 9.45316L 11.5031 9.54218ZM 9.02585 10.3401L 8.94243 10.4331L 8.99587 10.481L 9.06417 10.459L 9.02585 10.3401ZM 7.48066 8.11567L 7.37236 8.17814L 7.37389 8.18066L 7.48066 8.11567ZM 5.19967 6.97929L 5.16421 6.85937L 5.16065 6.86054L 5.19967 6.97929ZM 4.46387 7.22108L 4.42485 7.10232L 4.30634 7.14126L 4.34504 7.25985L 4.46387 7.22108ZM 5.81284 11.3555L 5.85114 11.4745L 5.9706 11.4361L 5.93168 11.3168L 5.81284 11.3555ZM 3.40922 12.1292L 3.29045 12.1682L 3.32918 12.2863L 3.44752 12.2482L 3.40922 12.1292ZM 3.87523 5.50443L 3.75652 5.54356L 3.79562 5.66216L 3.91425 5.62318L 3.87523 5.50443ZM 4.83177 5.19011L 4.79347 5.07112L 4.79275 5.07136L 4.83177 5.19011ZM 6.25433 3.06243L 6.37337 3.0243L 6.37304 3.0233L 6.25433 3.06243ZM 3.99786 2.16784L 3.96121 2.04831L 3.95884 2.04909L 3.99786 2.16784ZM 2.91869 2.60305L 2.85734 2.49414L 2.76779 2.54458L 2.79997 2.64219L 2.91869 2.60305ZM 0.0552626 1.84476C 0.788074 1.48351 1.90787 1.00346 3.17777 0.594347L 3.10108 0.356399C 1.82019 0.769342 0.683531 1.25642 -0.0552641 1.62052L 0.0552626 1.84476ZM 3.17736 0.594478C 4.76516 0.0887877 5.90779 -0.0207746 6.82318 0.326295L 6.91181 0.0925326C 5.91411 -0.285743 4.70217 -0.153523 3.10149 0.356268L 3.17736 0.594478ZM 6.82531 0.327082C 7.5933 0.60238 8.15704 1.19836 8.46565 2.13445L 8.70308 2.05617C 8.374 1.05801 7.76046 0.396722 6.90968 0.0917452L 6.82531 0.327082ZM 8.46553 2.13406C 8.88684 3.42619 8.25585 4.60685 7.47945 5.18667L 7.62904 5.38698C 8.47141 4.75789 9.16486 3.47238 8.70321 2.05656L 8.46553 2.13406ZM 7.44277 5.34337L 7.4673 5.39173L 7.69025 5.27863L 7.66572 5.23028L 7.44277 5.34337ZM 7.57154 5.45997C 8.34498 5.50482 8.97717 6.04268 9.55913 6.92711L 9.76797 6.78969C 9.17264 5.88494 8.48038 5.26225 7.58601 5.21039L 7.57154 5.45997ZM 9.55892 6.9268C 9.91418 7.47022 10.2885 8.05699 10.6172 8.55064C 10.9428 9.03954 11.2324 9.45094 11.4153 9.6312L 11.5908 9.45316C 11.4303 9.29492 11.1558 8.90844 10.8253 8.41208C 10.4979 7.92047 10.1242 7.3346 9.76818 6.79L 9.55892 6.9268ZM 11.4647 9.4232L 8.98753 10.2211L 9.06417 10.459L 11.5414 9.66116L 11.4647 9.4232ZM 9.10927 10.247C 8.98655 10.137 8.7916 9.89446 8.53064 9.51917C 8.27131 9.14627 7.95453 8.65381 7.58744 8.05068L 7.37389 8.18066C 7.74261 8.78643 8.06352 9.28528 8.32538 9.6619C 8.58562 10.0361 8.79535 10.3013 8.94243 10.4331L 9.10927 10.247ZM 7.58894 8.05321C 7.22947 7.43001 6.88829 7.04562 6.4939 6.86286C 6.09485 6.67793 5.66675 6.71081 5.16422 6.85943L 5.23512 7.09916C 5.71367 6.95764 6.07043 6.94216 6.38879 7.08969C 6.7118 7.23937 7.02059 7.56823 7.37239 8.17812L 7.58894 8.05321ZM 5.16065 6.86054L 4.42485 7.10232L 4.50289 7.33983L 5.2387 7.09805L 5.16065 6.86054ZM 4.34504 7.25985L 5.69401 11.3943L 5.93168 11.3168L 4.58271 7.1823L 4.34504 7.25985ZM 5.77454 11.2365L 3.37092 12.0102L 3.44752 12.2482L 5.85114 11.4745L 5.77454 11.2365ZM 3.528 12.0903L 0.118776 1.69369L -0.118778 1.77159L 3.29045 12.1682L 3.528 12.0903ZM 3.91425 5.62318L 4.87079 5.30886L 4.79275 5.07136L 3.83621 5.38567L 3.91425 5.62318ZM 4.87007 5.3091C 5.48923 5.1098 5.94624 4.79373 6.20857 4.39437C 6.47303 3.99178 6.53117 3.51692 6.37337 3.0243L 6.13528 3.10057C 6.2718 3.52672 6.21957 3.92227 5.99962 4.25711C 5.77755 4.59519 5.37613 4.88357 4.79347 5.07112L 4.87007 5.3091ZM 6.37304 3.0233C 6.20365 2.50951 5.89136 2.16887 5.46436 2.00851C 5.04286 1.85022 4.52799 1.87451 3.96121 2.04834L 4.03451 2.28735C 4.57145 2.12268 5.02538 2.1107 5.37647 2.24255C 5.72206 2.37233 5.98615 2.64823 6.13561 3.10157L 6.37304 3.0233ZM 3.95884 2.04909C 3.36376 2.24483 3.03376 2.39489 2.85734 2.49414L 2.98004 2.71196C 3.14698 2.61778 3.45468 2.47771 4.03689 2.2866L 3.95884 2.04909ZM 2.79997 2.64219L 3.75652 5.54356L 3.99394 5.46529L 3.0374 2.56391L 2.79997 2.64219Z"/>
<path id="path8_fill" d="M 4.51498 8.4546L 5.42275 11.1865L 3.29665 12.5995L 0 1.76628L 2.69943 0L 11.5861 7.11223L 9.3644 8.57235L 7.09496 6.73542L 4.51498 8.4546ZM 5.80497 5.4166L 3.94165 3.88582C 3.41609 3.46191 2.81887 2.8967 2.31721 2.44924L 2.29332 2.47279C 2.50832 3.08511 2.84276 3.86227 3.03387 4.47458L 3.77443 6.73542L 5.80497 5.4166Z"/>
<path id="path9_stroke" d="M 4.51498 8.4546L 4.44566 8.35058L 4.36627 8.40348L 4.39635 8.49402L 4.51498 8.4546ZM 5.42275 11.1865L 5.49194 11.2906L 5.57149 11.2377L 5.54137 11.147L 5.42275 11.1865ZM 3.29665 12.5995L 3.17707 12.6359L 3.22596 12.7965L 3.36584 12.7036L 3.29665 12.5995ZM 0 1.76628L -0.0684406 1.66168L -0.146873 1.713L -0.119585 1.80267L 0 1.76628ZM 2.69943 0L 2.77754 -0.0975929L 2.7068 -0.154204L 2.63099 -0.104599L 2.69943 0ZM 11.5861 7.11223L 11.6547 7.21669L 11.7985 7.12217L 11.6642 7.01464L 11.5861 7.11223ZM 9.3644 8.57235L 9.28575 8.66951L 9.35673 8.72697L 9.43305 8.67681L 9.3644 8.57235ZM 7.09496 6.73542L 7.17361 6.63826L 7.10215 6.58042L 7.02565 6.6314L 7.09496 6.73542ZM 5.80497 5.4166L 5.87306 5.52143L 6.01627 5.42841L 5.88432 5.32001L 5.80497 5.4166ZM 3.94165 3.88582L 4.021 3.78923L 4.02012 3.78852L 3.94165 3.88582ZM 2.31721 2.44924L 2.40041 2.35596L 2.31293 2.27793L 2.22945 2.36023L 2.31721 2.44924ZM 2.29332 2.47279L 2.20556 2.38378L 2.14912 2.43943L 2.17538 2.51421L 2.29332 2.47279ZM 3.03387 4.47458L 2.91454 4.51183L 2.91508 4.51349L 3.03387 4.47458ZM 3.77443 6.73542L 3.65564 6.77433L 3.70622 6.92877L 3.84251 6.84025L 3.77443 6.73542ZM 4.39635 8.49402L 5.30413 11.2259L 5.54137 11.147L 4.6336 8.41518L 4.39635 8.49402ZM 5.35356 11.0823L 3.22746 12.4954L 3.36584 12.7036L 5.49194 11.2906L 5.35356 11.0823ZM 3.41624 12.5631L 0.119585 1.72989L -0.119585 1.80267L 3.17707 12.6359L 3.41624 12.5631ZM 0.0684406 1.87088L 2.76787 0.104599L 2.63099 -0.104599L -0.0684406 1.66168L 0.0684406 1.87088ZM 2.62132 0.0975929L 11.5079 7.20982L 11.6642 7.01464L 2.77754 -0.0975929L 2.62132 0.0975929ZM 11.5174 7.00777L 9.29574 8.46789L 9.43305 8.67681L 11.6547 7.21669L 11.5174 7.00777ZM 9.44304 8.47519L 7.17361 6.63826L 7.01632 6.83258L 9.28575 8.66951L 9.44304 8.47519ZM 7.02565 6.6314L 4.44566 8.35058L 4.58429 8.55862L 7.16428 6.83944L 7.02565 6.6314ZM 5.88432 5.32001L 4.02099 3.78923L 3.8623 3.98241L 5.72562 5.51318L 5.88432 5.32001ZM 4.02012 3.78852C 3.49836 3.3678 2.90345 2.80466 2.40041 2.35596L 2.234 2.54253C 2.7343 2.98875 3.33383 3.55603 3.86317 3.98311L 4.02012 3.78852ZM 2.22945 2.36023L 2.20556 2.38378L 2.38108 2.56181L 2.40497 2.53826L 2.22945 2.36023ZM 2.17538 2.51421C 2.39187 3.13054 2.72553 3.90565 2.91455 4.51182L 3.1532 4.43734C 2.95999 3.81888 2.62477 3.03967 2.41126 2.43138L 2.17538 2.51421ZM 2.91508 4.51349L 3.65564 6.77433L 3.89322 6.69651L 3.15266 4.43567L 2.91508 4.51349ZM 3.84251 6.84025L 5.87306 5.52143L 5.73689 5.31177L 3.70634 6.63059L 3.84251 6.84025Z"/>
</defs>
</svg>
