<svg width="75" height="24" viewBox="0 0 75 24" version="1.1" xmlns="http://www.w3.org/2000/svg" xmlns:xlink="http://www.w3.org/1999/xlink">
<title>XMLID 15</title>
<desc>Created using Figma</desc>
<g id="Canvas" transform="translate(-897 -1303)">
<g id="XMLID 15">
<g id="XMLID 32">
<use xlink:href="#path0_fill" transform="matrix(0.999119 -0.0419693 0.0419667 0.999119 897.097 1312.66)" fill="#B0E519"/>
<use xlink:href="#path1_stroke" transform="matrix(0.999119 -0.0419693 0.0419667 0.999119 897.097 1312.66)" fill="#B0E519"/>
</g>
<g id="XMLID 29">
<use xlink:href="#path2_fill" transform="translate(905.913 1308.94)" fill="#B0E519"/>
<use xlink:href="#path3_stroke" transform="translate(905.913 1308.94)" fill="#B0E519"/>
</g>
<g id="XMLID 27">
<use xlink:href="#path4_fill" transform="translate(915.744 1303.88)" fill="#B0E519"/>
<use xlink:href="#path5_stroke" transform="translate(915.744 1303.88)" fill="#B0E519"/>
</g>
<g id="XMLID 25">
<use xlink:href="#path6_fill" transform="translate(929.702 1303.59)" fill="#B0E519"/>
<use xlink:href="#path7_stroke" transform="translate(929.702 1303.59)" fill="#B0E519"/>
</g>
<g id="XMLID 23">
<use xlink:href="#path8_fill" transform="translate(934.373 1303.5)" fill="#B0E519"/>
<use xlink:href="#path9_stroke" transform="translate(934.373 1303.5)" fill="#B0E519"/>
</g>
<g id="XMLID 21">
<use xlink:href="#path10_fill" transform="translate(942.365 1304.34)" fill="#B0E519"/>
<use xlink:href="#path11_stroke" transform="translate(942.365 1304.34)" fill="#B0E519"/>
</g>
<g id="XMLID 19">
<use xlink:href="#path12_fill" transform="translate(951.82 1307.55)" fill="#B0E519"/>
<use xlink:href="#path13_stroke" transform="translate(951.82 1307.55)" fill="#B0E519"/>
</g>
<g id="XMLID 16">
<use xlink:href="#path14_fill" transform="translate(959.812 1313.59)" fill="#B0E519"/>
<use xlink:href="#path15_stroke" transform="translate(959.812 1313.59)" fill="#B0E519"/>
</g>
</g>
</g>
<defs>
<path id="path0_fill" d="M 11.0112 8.88394C 10.7491 9.33263 10.05 10.1403 8.94327 10.918C 5.79771 13.1016 2.85602 12.2042 1.10848 9.54201C -0.988563 6.3414 0.0599591 3.02114 2.82689 1.13667C 3.90454 0.388859 4.86569 0.0598245 5.36082 1.0627e-15L 6.03071 1.97421C 5.50645 2.09386 4.80743 2.30324 4.07929 2.81175C 2.44826 3.94842 1.83662 5.83289 3.20553 7.92675C 4.4288 9.81122 6.29284 10.23 8.12776 8.97368C 8.73939 8.55491 9.35103 7.92675 9.64229 7.47807L 11.0112 8.88394Z"/>
<path id="path1_stroke" d="M 11.0112 8.88394L 11.1191 8.947L 11.1671 8.86488L 11.1007 8.79674L 11.0112 8.88394ZM 8.94327 10.918L 9.01455 11.0207L 9.01514 11.0203L 8.94327 10.918ZM 1.10848 9.54201L 1.00393 9.61052L 1.00398 9.61061L 1.10848 9.54201ZM 2.82689 1.13667L 2.89726 1.23998L 2.89816 1.23936L 2.82689 1.13667ZM 5.36082 1.0627e-15L 5.47919 -0.0401657L 5.44658 -0.136271L 5.34583 -0.124097L 5.36082 1.0627e-15ZM 6.03071 1.97421L 6.05852 2.09608L 6.1936 2.06525L 6.14908 1.93404L 6.03071 1.97421ZM 4.07929 2.81175L 4.15076 2.91431L 4.15086 2.91424L 4.07929 2.81175ZM 3.20553 7.92675L 3.31037 7.85869L 3.31015 7.85835L 3.20553 7.92675ZM 8.12776 8.97368L 8.19837 9.07682L 8.12776 8.97368ZM 9.64229 7.47807L 9.73185 7.39086L 9.62266 7.27873L 9.53744 7.41001L 9.64229 7.47807ZM 10.9033 8.82089C 10.6525 9.25012 9.96773 10.0453 8.87141 10.8157L 9.01514 11.0203C 10.1324 10.2352 10.8456 9.41513 11.1191 8.947L 10.9033 8.82089ZM 8.87199 10.8153C 7.32138 11.8917 5.83415 12.2005 4.52742 11.9249C 3.21944 11.6489 2.07284 10.7833 1.21298 9.47342L 1.00398 9.61061C 1.89166 10.9629 3.08967 11.8771 4.47581 12.1695C 5.8632 12.4621 7.4196 12.1278 9.01455 11.0207L 8.87199 10.8153ZM 1.21304 9.47351C 0.181545 7.89919 -0.0719254 6.3038 0.265354 4.87449C 0.60303 3.44351 1.5357 2.16729 2.89726 1.23998L 2.75653 1.03335C 1.35115 1.99051 0.376094 3.31667 0.0220367 4.81708C -0.332417 6.31917 -0.0616262 7.98422 1.00393 9.61052L 1.21304 9.47351ZM 2.89816 1.23936C 3.96414 0.49965 4.90625 0.180833 5.37582 0.124097L 5.34583 -0.124097C 4.82513 -0.061184 3.84494 0.278068 2.75563 1.03397L 2.89816 1.23936ZM 5.24245 0.0401657L 5.91234 2.01437L 6.14908 1.93404L 5.47919 -0.0401657L 5.24245 0.0401657ZM 6.0029 1.85234C 5.47459 1.97299 4.75303 2.19071 4.00772 2.70927L 4.15086 2.91424C 4.86184 2.41578 5.53831 2.21473 6.05852 2.09608L 6.0029 1.85234ZM 4.00783 2.7092C 3.17202 3.29167 2.58875 4.07211 2.39516 4.98435C 2.20129 5.89787 2.40192 6.926 3.1009 7.99515L 3.31015 7.85835C 2.64022 6.83364 2.46222 5.8726 2.63971 5.03625C 2.81747 4.19863 3.35553 3.4685 4.15076 2.91431L 4.00783 2.7092ZM 3.10068 7.99481C 3.72566 8.9576 4.52286 9.5584 5.41089 9.75019C 6.29962 9.94214 7.25895 9.72002 8.19837 9.07682L 8.05714 8.87054C 7.16165 9.48365 6.2715 9.6803 5.46367 9.50583C 4.65512 9.3312 3.90867 8.78037 3.31037 7.85869L 3.10068 7.99481ZM 8.19837 9.07682C 8.82176 8.65 9.44574 8.01042 9.74714 7.54612L 9.53744 7.41001C 9.25632 7.84308 8.65702 8.45981 8.05714 8.87054L 8.19837 9.07682ZM 9.55273 7.56527L 10.9216 8.97114L 11.1007 8.79674L 9.73185 7.39086L 9.55273 7.56527Z"/>
<path id="path2_fill" d="M 9.33029 3.28786C 10.6686 6.41432 9.65149 9.15343 6.97485 10.3985C 4.24469 11.6712 1.70188 10.2601 0.550932 7.5487C -0.68032 4.69892 0.176202 1.73847 2.8796 0.493422C 5.69007 -0.83463 8.17934 0.659429 9.33029 3.28786ZM 2.71901 6.46966C 3.522 8.35106 4.94061 9.2641 6.33246 8.62774C 7.75108 7.99138 7.96521 6.22065 7.16222 4.36691C 6.41276 2.65151 4.99414 1.5448 3.54876 2.20882C 2.13015 2.87285 1.91601 4.61592 2.71901 6.46966Z"/>
<path id="path3_stroke" d="M 9.33029 3.28786L 9.44521 3.23867L 9.44479 3.23773L 9.33029 3.28786ZM 6.97485 10.3985L 6.92213 10.2851L 6.92204 10.2852L 6.97485 10.3985ZM 0.550932 7.5487L 0.665997 7.49985L 0.66568 7.49912L 0.550932 7.5487ZM 2.8796 0.493422L 2.9319 0.606965L 2.93301 0.60644L 2.8796 0.493422ZM 2.71901 6.46966L 2.83397 6.42059L 2.83371 6.41997L 2.71901 6.46966ZM 6.33246 8.62774L 6.2813 8.51369L 6.28049 8.51406L 6.33246 8.62774ZM 7.16222 4.36691L 7.27692 4.31722L 7.27676 4.31686L 7.16222 4.36691ZM 3.54876 2.20882L 3.49658 2.09523L 3.49577 2.09561L 3.54876 2.20882ZM 9.21537 3.33706C 9.87484 4.87764 9.94959 6.31174 9.53992 7.50821C 9.13055 8.70377 8.23308 9.67534 6.92213 10.2851L 7.02757 10.5118C 8.39326 9.87656 9.34266 8.85605 9.77644 7.58919C 10.2099 6.32323 10.1241 4.82455 9.4452 3.23867L 9.21537 3.33706ZM 6.92204 10.2852C 5.58897 10.9066 4.3098 10.8705 3.22434 10.3547C 2.13621 9.83768 1.23193 8.8331 0.665994 7.49986L 0.435869 7.59754C 1.02089 8.97574 1.96348 10.0324 3.11704 10.5805C 4.27325 11.13 5.63057 11.1631 7.02767 10.5118L 6.92204 10.2852ZM 0.66568 7.49912C -0.544144 4.69894 0.302004 1.81815 2.93189 0.60696L 2.82731 0.379885C 0.050401 1.65879 -0.816496 4.6989 0.436183 7.59827L 0.66568 7.49912ZM 2.93301 0.60644C 4.30616 -0.0424272 5.59156 0.000801826 6.6732 0.519664C 7.75817 1.04012 8.6496 2.045 9.21579 3.338L 9.44479 3.23773C 8.86003 1.9023 7.93135 0.845923 6.78133 0.294257C 5.62798 -0.259006 4.26351 -0.29878 2.8262 0.380405L 2.93301 0.60644ZM 2.60404 6.51872C 3.01232 7.47533 3.58213 8.19818 4.23979 8.59956C 4.90179 9.00358 5.6482 9.07803 6.38444 8.74142L 6.28049 8.51406C 5.62487 8.81381 4.96605 8.74992 4.37003 8.38616C 3.76967 8.01976 3.22868 7.34539 2.83397 6.42059L 2.60404 6.51872ZM 6.38362 8.74179C 7.13606 8.40426 7.56707 7.76411 7.70361 6.97516C 7.8394 6.19057 7.685 5.25929 7.27692 4.31722L 7.04752 4.41659C 7.44242 5.32826 7.58245 6.20922 7.45727 6.93252C 7.33284 7.65147 6.94747 8.21486 6.2813 8.51369L 6.38362 8.74179ZM 7.27676 4.31686C 6.8953 3.44375 6.33964 2.71577 5.6845 2.29072C 5.02515 1.86293 4.26389 1.74273 3.49658 2.09524L 3.60094 2.32241C 4.27902 2.01089 4.94976 2.11203 5.54843 2.50044C 6.1513 2.89158 6.67968 3.57467 7.04767 4.41695L 7.27676 4.31686ZM 3.49577 2.09561C 2.74523 2.44692 2.31426 3.08584 2.17763 3.87168C 2.04178 4.65302 2.1963 5.57745 2.6043 6.51934L 2.83371 6.41997C 2.43872 5.50812 2.29881 4.63415 2.42393 3.91451C 2.54827 3.19938 2.93367 2.63475 3.60175 2.32203L 3.49577 2.09561Z"/>
<path id="path4_fill" d="M 9.68022 6.96465C 9.37067 5.6931 9.03299 4.13255 8.72345 2.60091L 8.66717 2.60091C 8.61089 4.04586 8.49833 5.6353 8.32949 6.99355L 7.90739 11.4151L 6.07827 11.7908L 4.1366 7.88942C 3.54566 6.70456 2.89844 5.25961 2.36377 3.93026L 2.33563 3.93026C 2.56075 5.37521 2.84216 7.05135 3.03914 8.3807L 3.65822 12.4844L 1.49143 12.9467L 4.29385e-07 2.13852L 3.12356 1.47385L 4.86825 4.82613C 5.43105 5.98209 6.02199 7.25364 6.50038 8.4674L 6.55666 8.4674C 6.61294 7.16694 6.66922 5.6931 6.78178 4.42154L 7.17574 0.635777L 10.243 -1.37801e-08L 12.9445 10.577L 10.637 11.0683L 9.68022 6.96465Z"/>
<path id="path5_stroke" d="M 9.68022 6.96465L 9.80196 6.93627L 9.80167 6.93508L 9.68022 6.96465ZM 8.72345 2.60091L 8.84597 2.57615L 8.82572 2.47591L 8.72345 2.47591L 8.72345 2.60091ZM 8.66717 2.60091L 8.66717 2.47591L 8.54694 2.47591L 8.54226 2.59604L 8.66717 2.60091ZM 8.32949 6.99355L 8.20539 6.97812L 8.20505 6.98167L 8.32949 6.99355ZM 7.90739 11.4151L 7.93253 11.5375L 8.02304 11.5189L 8.03182 11.427L 7.90739 11.4151ZM 6.07827 11.7908L 5.96637 11.8465L 6.00922 11.9326L 6.10342 11.9132L 6.07827 11.7908ZM 4.1366 7.88942L 4.24851 7.83372L 4.24846 7.83363L 4.1366 7.88942ZM 2.36377 3.93026L 2.47975 3.88362L 2.44823 3.80526L 2.36377 3.80526L 2.36377 3.93026ZM 2.33563 3.93026L 2.33563 3.80526L 2.18965 3.80526L 2.21212 3.9495L 2.33563 3.93026ZM 3.03914 8.3807L 2.91549 8.39902L 2.91554 8.39935L 3.03914 8.3807ZM 3.65822 12.4844L 3.68431 12.6066L 3.79937 12.582L 3.78182 12.4657L 3.65822 12.4844ZM 1.49143 12.9467L 1.3676 12.9638L 1.38599 13.0971L 1.51751 13.069L 1.49143 12.9467ZM 4.29385e-07 2.13852L -0.0260164 2.01626L -0.139716 2.04046L -0.123826 2.15561L 4.29385e-07 2.13852ZM 3.12356 1.47385L 3.23444 1.41614L 3.19054 1.33179L 3.09754 1.35158L 3.12356 1.47385ZM 4.86825 4.82613L 4.98067 4.77139L 4.97913 4.76842L 4.86825 4.82613ZM 6.50038 8.4674L 6.38408 8.51323L 6.41529 8.5924L 6.50038 8.5924L 6.50038 8.4674ZM 6.55666 8.4674L 6.55666 8.5924L 6.67636 8.5924L 6.68154 8.4728L 6.55666 8.4674ZM 6.78178 4.42154L 6.65744 4.4086L 6.65727 4.41052L 6.78178 4.42154ZM 7.17574 0.635777L 7.15037 0.513379L 7.06087 0.53193L 7.05141 0.622839L 7.17574 0.635777ZM 10.243 -1.37801e-08L 10.3641 -0.030933L 10.3346 -0.146636L 10.2176 -0.122398L 10.243 -1.37801e-08ZM 12.9445 10.577L 12.9705 10.6993L 13.0978 10.6722L 13.0656 10.5461L 12.9445 10.577ZM 10.637 11.0683L 10.5152 11.0967L 10.5431 11.2161L 10.663 11.1906L 10.637 11.0683ZM 9.80167 6.93508C 9.4925 5.66509 9.15534 4.10695 8.84597 2.57615L 8.60093 2.62567C 8.91064 4.15815 9.24885 5.7211 9.55876 6.99422L 9.80167 6.93508ZM 8.72345 2.47591L 8.66717 2.47591L 8.66717 2.72591L 8.72345 2.72591L 8.72345 2.47591ZM 8.54226 2.59604C 8.48608 4.03901 8.37392 5.62317 8.20544 6.97813L 8.45353 7.00897C 8.62274 5.64743 8.7357 4.0527 8.79207 2.60577L 8.54226 2.59604ZM 8.20505 6.98167L 7.78295 11.4032L 8.03182 11.427L 8.45392 7.00543L 8.20505 6.98167ZM 7.88224 11.2926L 6.05313 11.6683L 6.10342 11.9132L 7.93253 11.5375L 7.88224 11.2926ZM 6.19018 11.7351L 4.24851 7.83372L 4.0247 7.94511L 5.96637 11.8465L 6.19018 11.7351ZM 4.24846 7.83363C 3.65865 6.6511 3.01348 5.21073 2.47975 3.88362L 2.2478 3.9769C 2.78339 5.30849 3.43267 6.75802 4.02474 7.94521L 4.24846 7.83363ZM 2.36377 3.80526L 2.33563 3.80526L 2.33563 4.05526L 2.36377 4.05526L 2.36377 3.80526ZM 2.21212 3.9495C 2.43736 5.39518 2.71869 7.07086 2.91549 8.39902L 3.16279 8.36238C 2.96562 7.03184 2.68415 5.35524 2.45914 3.91102L 2.21212 3.9495ZM 2.91554 8.39935L 3.53462 12.503L 3.78182 12.4657L 3.16274 8.36205L 2.91554 8.39935ZM 3.63213 12.3621L 1.46534 12.8245L 1.51751 13.069L 3.68431 12.6066L 3.63213 12.3621ZM 1.61525 12.9296L 0.123827 2.12144L -0.123826 2.15561L 1.3676 12.9638L 1.61525 12.9296ZM 0.0260172 2.26079L 3.14957 1.59611L 3.09754 1.35158L -0.0260164 2.01626L 0.0260172 2.26079ZM 3.01268 1.53156L 4.75737 4.88384L 4.97913 4.76842L 3.23444 1.41614L 3.01268 1.53156ZM 4.75586 4.88085C 5.31817 6.03579 5.90712 7.30292 6.38408 8.51323L 6.61667 8.42156C 6.13687 7.20436 5.54393 5.92838 4.98063 4.77141L 4.75586 4.88085ZM 6.50038 8.5924L 6.55666 8.5924L 6.55666 8.3424L 6.50038 8.3424L 6.50038 8.5924ZM 6.68154 8.4728C 6.73783 7.17203 6.79397 5.70099 6.90629 4.43256L 6.65727 4.41052C 6.54447 5.6852 6.48804 7.16186 6.43177 8.46199L 6.68154 8.4728ZM 6.90611 4.43448L 7.30007 0.648715L 7.05141 0.622839L 6.65745 4.4086L 6.90611 4.43448ZM 7.20111 0.758176L 10.2684 0.122398L 10.2176 -0.122398L 7.15037 0.513379L 7.20111 0.758176ZM 10.1219 0.030933L 12.8234 10.608L 13.0656 10.5461L 10.3641 -0.030933L 10.1219 0.030933ZM 12.9184 10.4548L 10.6109 10.946L 10.663 11.1906L 12.9705 10.6993L 12.9184 10.4548ZM 10.7587 11.0399L 9.80195 6.93627L 9.55848 6.99303L 10.5152 11.0967L 10.7587 11.0399Z"/>
<path id="path6_fill" d="M 2.39191 3.44502e-09L 2.89844 10.8949L 0.478382 11.0105L 0 0.115596L 2.39191 3.44502e-09Z"/>
<path id="path7_stroke" d="M 2.39191 3.44502e-09L 2.51678 -0.0058052L 2.51096 -0.130899L 2.38588 -0.124854L 2.39191 3.44502e-09ZM 2.89844 10.8949L 2.9044 11.0198L 3.0291 11.0138L 3.0233 10.8891L 2.89844 10.8949ZM 0.478382 11.0105L 0.353502 11.016L 0.359007 11.1414L 0.484346 11.1354L 0.478382 11.0105ZM 0 0.115596L -0.00603393 -0.00925844L -0.130339 -0.00325106L -0.12488 0.121079L 0 0.115596ZM 2.26705 0.00580521L 2.77357 10.9007L 3.0233 10.8891L 2.51678 -0.0058052L 2.26705 0.00580521ZM 2.89247 10.7701L 0.472418 10.8856L 0.484346 11.1354L 2.9044 11.0198L 2.89247 10.7701ZM 0.603262 11.005L 0.12488 0.110113L -0.12488 0.121079L 0.353502 11.016L 0.603262 11.005ZM 0.00603393 0.24045L 2.39795 0.124854L 2.38588 -0.124854L -0.00603393 -0.00925844L 0.00603393 0.24045Z"/>
<path id="path8_fill" d="M 6.61294 6.70456L 2.70145 6.44447L 2.53262 9.01648L 6.89434 9.30547L 6.75364 11.3284L 1.71754e-06 10.866L 0.703506 0L 7.23202 0.433484L 7.09132 2.45641L 2.95472 2.16742L 2.81402 4.42154L 6.7255 4.68163L 6.61294 6.70456Z"/>
<path id="path9_stroke" d="M 6.61294 6.70456L 6.60465 6.82929L 6.73073 6.83767L 6.73775 6.7115L 6.61294 6.70456ZM 2.70145 6.44447L 2.70975 6.31974L 2.58492 6.31144L 2.57672 6.43628L 2.70145 6.44447ZM 2.53262 9.01648L 2.40788 9.00829L 2.3997 9.13295L 2.52435 9.1412L 2.53262 9.01648ZM 6.89434 9.30547L 7.01904 9.31414L 7.02774 9.18903L 6.9026 9.18074L 6.89434 9.30547ZM 6.75364 11.3284L 6.7451 11.4531L 6.86967 11.4616L 6.87834 11.3371L 6.75364 11.3284ZM 1.71754e-06 10.866L -0.124737 10.8579L -0.132783 10.9822L -0.00853635 10.9907L 1.71754e-06 10.866ZM 0.703506 0L 0.711787 -0.124725L 0.586856 -0.133021L 0.578767 -0.00807603L 0.703506 0ZM 7.23202 0.433484L 7.35672 0.442158L 7.36542 0.317067L 7.2403 0.308759L 7.23202 0.433484ZM 7.09132 2.45641L 7.08261 2.58111L 7.20734 2.58982L 7.21602 2.46509L 7.09132 2.45641ZM 2.95472 2.16742L 2.96343 2.04273L 2.83781 2.03395L 2.82996 2.15964L 2.95472 2.16742ZM 2.81402 4.42154L 2.68926 4.41375L 2.6815 4.53801L 2.80572 4.54627L 2.81402 4.42154ZM 6.7255 4.68163L 6.8503 4.68858L 6.85717 4.56511L 6.73379 4.55691L 6.7255 4.68163ZM 6.62123 6.57984L 2.70975 6.31974L 2.69316 6.56919L 6.60465 6.82929L 6.62123 6.57984ZM 2.57672 6.43628L 2.40788 9.00829L 2.65735 9.02467L 2.82619 6.45266L 2.57672 6.43628ZM 2.52435 9.1412L 6.88608 9.43019L 6.9026 9.18074L 2.54088 8.89175L 2.52435 9.1412ZM 6.76964 9.29679L 6.62894 11.3197L 6.87834 11.3371L 7.01904 9.31414L 6.76964 9.29679ZM 6.76218 11.2037L 0.00853979 10.7413L -0.00853635 10.9907L 6.7451 11.4531L 6.76218 11.2037ZM 0.124741 10.8741L 0.828245 0.00807603L 0.578767 -0.00807603L -0.124737 10.8579L 0.124741 10.8741ZM 0.695224 0.124725L 7.22374 0.55821L 7.2403 0.308759L 0.711787 -0.124725L 0.695224 0.124725ZM 7.10732 0.424811L 6.96662 2.44774L 7.21602 2.46509L 7.35672 0.442158L 7.10732 0.424811ZM 7.10003 2.33172L 2.96343 2.04273L 2.94601 2.29212L 7.08261 2.58111L 7.10003 2.33172ZM 2.82996 2.15964L 2.68926 4.41375L 2.93877 4.42933L 3.07948 2.17521L 2.82996 2.15964ZM 2.80572 4.54627L 6.7172 4.80636L 6.73379 4.55691L 2.82231 4.29682L 2.80572 4.54627ZM 6.60069 4.67469L 6.48813 6.69762L 6.73775 6.7115L 6.8503 4.68858L 6.60069 4.67469Z"/>
<path id="path10_fill" d="M 0 10.6059L 2.44819 2.75602e-08L 5.17779 0.664676L 6.41596 5.08622C 6.78178 6.35777 7.09132 7.83162 7.26016 9.13207L 7.31644 9.13207C 7.48528 7.68713 7.76668 6.24218 8.1325 4.65273L 8.83601 1.56054L 10.9747 2.08073L 8.52647 12.6866L 6.07828 12.0798L 4.81197 7.45593C 4.47429 6.18438 4.10846 4.62383 3.88334 3.26558L 3.82706 3.26558C 3.5738 4.68163 3.23612 6.18438 2.84216 7.91832L 2.11051 11.1261L 0 10.6059Z"/>
<path id="path11_stroke" d="M 0 10.6059L -0.121797 10.5778L -0.149499 10.6978L -0.0299138 10.7273L 0 10.6059ZM 2.44819 2.75602e-08L 2.47777 -0.121451L 2.35485 -0.151382L 2.3264 -0.0281147L 2.44819 2.75602e-08ZM 5.17779 0.664676L 5.29816 0.630969L 5.27843 0.560531L 5.20736 0.543225L 5.17779 0.664676ZM 6.41596 5.08622L 6.29558 5.11993L 6.29583 5.12078L 6.41596 5.08622ZM 7.26016 9.13207L 7.1362 9.14817L 7.15034 9.25707L 7.26016 9.25707L 7.26016 9.13207ZM 7.31644 9.13207L 7.31644 9.25707L 7.42769 9.25707L 7.4406 9.14658L 7.31644 9.13207ZM 8.1325 4.65273L 8.25432 4.68077L 8.25439 4.68046L 8.1325 4.65273ZM 8.83601 1.56054L 8.86555 1.43909L 8.74227 1.4091L 8.71412 1.53281L 8.83601 1.56054ZM 10.9747 2.08073L 11.0965 2.10884L 11.1242 1.98846L 11.0042 1.95927L 10.9747 2.08073ZM 8.52647 12.6866L 8.49639 12.808L 8.61969 12.8385L 8.64827 12.7148L 8.52647 12.6866ZM 6.07828 12.0798L 5.95772 12.1128L 5.97707 12.1835L 6.0482 12.2011L 6.07828 12.0798ZM 4.81197 7.45593L 4.69115 7.48802L 4.69141 7.48895L 4.81197 7.45593ZM 3.88334 3.26558L 4.00666 3.24514L 3.98933 3.14058L 3.88334 3.14058L 3.88334 3.26558ZM 3.82706 3.26558L 3.82706 3.14058L 3.72244 3.14058L 3.70402 3.24358L 3.82706 3.26558ZM 2.84216 7.91832L 2.96403 7.94611L 2.96405 7.94601L 2.84216 7.91832ZM 2.11051 11.1261L 2.0806 11.2475L 2.2041 11.2779L 2.23238 11.1539L 2.11051 11.1261ZM 0.121797 10.634L 2.56999 0.0281148L 2.3264 -0.0281147L -0.121797 10.5778L 0.121797 10.634ZM 2.41862 0.121451L 5.14821 0.786127L 5.20736 0.543225L 2.47777 -0.121451L 2.41862 0.121451ZM 5.05742 0.698383L 6.29559 5.11993L 6.53633 5.05251L 5.29816 0.630969L 5.05742 0.698383ZM 6.29583 5.12078C 6.66047 6.38792 6.96808 7.85253 7.1362 9.14817L 7.38412 9.11598C 7.21456 7.81071 6.90309 6.32763 6.53608 5.05166L 6.29583 5.12078ZM 7.26016 9.25707L 7.31644 9.25707L 7.31644 9.00707L 7.26016 9.00707L 7.26016 9.25707ZM 7.4406 9.14658C 7.6088 7.70634 7.88895 6.26815 8.25432 4.68077L 8.01069 4.6247C 7.64441 6.21621 7.36177 7.66791 7.19229 9.11757L 7.4406 9.14658ZM 8.25439 4.68046L 8.95789 1.58827L 8.71412 1.53281L 8.01062 4.625L 8.25439 4.68046ZM 8.80647 1.682L 10.9451 2.20218L 11.0042 1.95927L 8.86555 1.43909L 8.80647 1.682ZM 10.8529 2.05261L 8.40467 12.6585L 8.64827 12.7148L 11.0965 2.10884L 10.8529 2.05261ZM 8.55654 12.5653L 6.10835 11.9584L 6.0482 12.2011L 8.49639 12.808L 8.55654 12.5653ZM 6.19884 12.0468L 4.93253 7.42292L 4.69141 7.48895L 5.95772 12.1128L 6.19884 12.0468ZM 4.93278 7.42385C 4.59556 6.15407 4.23104 4.59934 4.00666 3.24514L 3.76003 3.28602C 3.98589 4.64833 4.35302 6.21469 4.69116 7.48802L 4.93278 7.42385ZM 3.88334 3.14058L 3.82706 3.14058L 3.82706 3.39058L 3.88334 3.39058L 3.88334 3.14058ZM 3.70402 3.24358C 3.45127 4.65692 3.11419 6.15683 2.72026 7.89062L 2.96405 7.94601C 3.35805 6.21193 3.69633 4.70635 3.95011 3.28759L 3.70402 3.24358ZM 2.72029 7.89052L 1.98864 11.0983L 2.23238 11.1539L 2.96403 7.94611L 2.72029 7.89052ZM 2.14043 11.0047L 0.0299138 10.4846L -0.0299138 10.7273L 2.0806 11.2475L 2.14043 11.0047Z"/>
<path id="path12_fill" d="M 0.506521 8.61189L 8.04808 3.81466L 8.07623 3.75687L 3.8552 1.87843L 4.64313 1.0267e-15L 11.7063 3.12109L 11.1435 4.42154L 3.77078 9.21877L 3.74264 9.27657L 8.35763 11.3284L 7.5697 13.2068L 1.71754e-06 9.82565L 0.506521 8.61189Z"/>
<path id="path13_stroke" d="M 0.506521 8.61189L 0.439431 8.50642L 0.40629 8.5275L 0.391163 8.56375L 0.506521 8.61189ZM 8.04808 3.81466L 8.11517 3.92013L 8.145 3.90116L 8.16047 3.86938L 8.04808 3.81466ZM 8.07623 3.75687L 8.18861 3.81159L 8.24525 3.69527L 8.12705 3.64266L 8.07623 3.75687ZM 3.8552 1.87843L 3.73993 1.83008L 3.69261 1.9429L 3.80438 1.99263L 3.8552 1.87843ZM 4.64313 1.0267e-15L 4.69365 -0.114335L 4.57713 -0.165822L 4.52786 -0.048351L 4.64313 1.0267e-15ZM 11.7063 3.12109L 11.821 3.17074L 11.8703 3.05689L 11.7568 3.00675L 11.7063 3.12109ZM 11.1435 4.42154L 11.2117 4.52631L 11.2433 4.50577L 11.2582 4.47119L 11.1435 4.42154ZM 3.77078 9.21877L 3.70261 9.114L 3.67356 9.1329L 3.6584 9.16405L 3.77078 9.21877ZM 3.74264 9.27657L 3.63025 9.22185L 3.5736 9.33821L 3.69186 9.39079L 3.74264 9.27657ZM 8.35763 11.3284L 8.4729 11.3767L 8.52024 11.2639L 8.40841 11.2142L 8.35763 11.3284ZM 7.5697 13.2068L 7.51872 13.321L 7.6355 13.3731L 7.68497 13.2552L 7.5697 13.2068ZM 1.71754e-06 9.82565L -0.115356 9.77751L -0.16232 9.89005L -0.0509779 9.93978L 1.71754e-06 9.82565ZM 0.573611 8.71736L 8.11517 3.92013L 7.98099 3.70919L 0.439431 8.50642L 0.573611 8.71736ZM 8.16047 3.86938L 8.18861 3.81159L 7.96384 3.70214L 7.9357 3.75994L 8.16047 3.86938ZM 8.12705 3.64266L 3.90602 1.76423L 3.80438 1.99263L 8.0254 3.87107L 8.12705 3.64266ZM 3.97047 1.92678L 4.7584 0.048351L 4.52786 -0.048351L 3.73993 1.83008L 3.97047 1.92678ZM 4.59261 0.114335L 11.6558 3.23542L 11.7568 3.00675L 4.69365 -0.114335L 4.59261 0.114335ZM 11.5916 3.07144L 11.0288 4.37189L 11.2582 4.47119L 11.821 3.17074L 11.5916 3.07144ZM 11.0753 4.31677L 3.70261 9.114L 3.83895 9.32354L 11.2117 4.52631L 11.0753 4.31677ZM 3.6584 9.16405L 3.63025 9.22185L 3.85502 9.33129L 3.88317 9.27349L 3.6584 9.16405ZM 3.69186 9.39079L 8.30685 11.4426L 8.40841 11.2142L 3.79342 9.16235L 3.69186 9.39079ZM 8.24236 11.28L 7.45443 13.1585L 7.68497 13.2552L 8.4729 11.3767L 8.24236 11.28ZM 7.62068 13.0927L 0.0509813 9.71152L -0.0509779 9.93978L 7.51872 13.321L 7.62068 13.0927ZM 0.11536 9.87379L 0.621879 8.66003L 0.391163 8.56375L -0.115356 9.77751L 0.11536 9.87379Z"/>
<path id="path14_fill" d="M 4.22102 6.76236L 2.08237 8.66969L 0 7.28254L 8.52646 4.40963e-07L 11.1716 1.76284L 8.10437 12.7444L 5.93757 11.2995L 6.75364 8.4963L 4.22102 6.76236ZM 7.45714 6.73346L 8.1325 4.42154C 8.32948 3.78576 8.58274 2.97659 8.80787 2.36971L 8.77973 2.34082C 8.30135 2.8032 7.73854 3.38118 7.26016 3.81466L 5.48733 5.40411L 7.45714 6.73346Z"/>
<path id="path15_stroke" d="M 4.22102 6.76236L 4.29164 6.65921L 4.21087 6.60392L 4.13782 6.66907L 4.22102 6.76236ZM 2.08237 8.66969L 2.01307 8.77372L 2.09347 8.82728L 2.16557 8.76298L 2.08237 8.66969ZM 0 7.28254L -0.0811826 7.18749L -0.206928 7.29489L -0.0692996 7.38657L 0 7.28254ZM 8.52646 4.40963e-07L 8.59579 -0.104017L 8.51714 -0.156427L 8.44528 -0.0950489L 8.52646 4.40963e-07ZM 11.1716 1.76284L 11.292 1.79646L 11.3164 1.70911L 11.241 1.65882L 11.1716 1.76284ZM 8.10437 12.7444L 8.03502 12.8484L 8.1784 12.9441L 8.22476 12.7781L 8.10437 12.7444ZM 5.93757 11.2995L 5.81756 11.2646L 5.79192 11.3526L 5.86822 11.4035L 5.93757 11.2995ZM 6.75364 8.4963L 6.87366 8.53124L 6.89896 8.4443L 6.82425 8.39315L 6.75364 8.4963ZM 7.45714 6.73346L 7.38722 6.83707L 7.52912 6.93284L 7.57713 6.76851L 7.45714 6.73346ZM 8.1325 4.42154L 8.01309 4.38454L 8.01252 4.38649L 8.1325 4.42154ZM 8.80787 2.36971L 8.92506 2.41319L 8.95254 2.33912L 8.89743 2.28252L 8.80787 2.36971ZM 8.77973 2.34082L 8.8693 2.25362L 8.78242 2.16438L 8.69286 2.25094L 8.77973 2.34082ZM 7.26016 3.81466L 7.34361 3.90774L 7.3441 3.90729L 7.26016 3.81466ZM 5.48733 5.40411L 5.40389 5.31103L 5.28453 5.41805L 5.41741 5.50772L 5.48733 5.40411ZM 4.13782 6.66907L 1.99917 8.5764L 2.16557 8.76298L 4.30422 6.85565L 4.13782 6.66907ZM 2.15167 8.56566L 0.0692996 7.17851L -0.0692996 7.38657L 2.01307 8.77372L 2.15167 8.56566ZM 0.0811826 7.37759L 8.60765 0.0950498L 8.44528 -0.0950489L -0.0811826 7.18749L 0.0811826 7.37759ZM 8.45714 0.104018L 11.1023 1.86685L 11.241 1.65882L 8.59579 -0.104017L 8.45714 0.104018ZM 11.0513 1.72921L 7.98397 12.7108L 8.22476 12.7781L 11.292 1.79646L 11.0513 1.72921ZM 8.17372 12.6404L 6.00693 11.1955L 5.86822 11.4035L 8.03502 12.8484L 8.17372 12.6404ZM 6.05759 11.3344L 6.87366 8.53124L 6.63362 8.46136L 5.81756 11.2646L 6.05759 11.3344ZM 6.82425 8.39315L 4.29164 6.65921L 4.15041 6.8655L 6.68302 8.59944L 6.82425 8.39315ZM 7.57713 6.76851L 8.25249 4.45659L 8.01252 4.38649L 7.33716 6.69841L 7.57713 6.76851ZM 8.2519 4.45854C 8.44883 3.82293 8.70103 3.01701 8.92506 2.41319L 8.69067 2.32624C 8.46446 2.93617 8.21014 3.7486 8.0131 4.38455L 8.2519 4.45854ZM 8.89743 2.28252L 8.8693 2.25362L 8.69017 2.42801L 8.7183 2.45691L 8.89743 2.28252ZM 8.69286 2.25094C 8.21313 2.71465 7.65176 3.29122 7.17623 3.72203L 7.3441 3.90729C 7.82533 3.47114 8.38957 2.89175 8.8666 2.43069L 8.69286 2.25094ZM 7.17672 3.72159L 5.40389 5.31103L 5.57077 5.49718L 7.34361 3.90773L 7.17672 3.72159ZM 5.41741 5.50772L 7.38722 6.83707L 7.52707 6.62985L 5.55726 5.30049L 5.41741 5.50772Z"/>
</defs>
</svg>
