<svg width="78" height="68" viewBox="0 0 78 68" version="1.1" xmlns="http://www.w3.org/2000/svg" xmlns:xlink="http://www.w3.org/1999/xlink">
<title>Group</title>
<desc>Created using Figma</desc>
<g id="Canvas" transform="translate(116 -1945)">
<g id="Group" opacity="0.1">
<g id="XMLID 19">
<use xlink:href="#path0_fill" transform="translate(-115 1946)"/>
<use xlink:href="#path1_stroke" transform="translate(-115 1946)"/>
</g>
<g id="XMLID 18">
<use xlink:href="#path2_fill" transform="translate(-98.7083 1958.1)"/>
<use xlink:href="#path3_stroke" transform="translate(-98.7083 1958.1)"/>
</g>
<g id="XMLID 17">
<use xlink:href="#path4_fill" transform="translate(-92.6743 1965.37)"/>
<use xlink:href="#path5_stroke" transform="translate(-92.6743 1965.37)"/>
</g>
<g id="XMLID 16">
<use xlink:href="#path6_fill" transform="translate(-87.3016 1977.04)"/>
<use xlink:href="#path7_stroke" transform="translate(-87.3016 1977.04)"/>
</g>
<g id="XMLID 15">
<use xlink:href="#path8_fill" transform="translate(-83.0508 1991.27)"/>
<use xlink:href="#path9_stroke" transform="translate(-83.0508 1991.27)"/>
</g>
</g>
</g>
<defs>
<path id="path0_fill" d="M 55.4547 57.0115C 53.4031 57.2536 50.6275 56.83 49.481 58.0404C 48.3346 59.1902 48.8173 61.9741 47.9122 64.6369C 46.8864 63.366 45.6796 62.1556 44.7745 60.8242C 42.6627 57.6772 39.5853 57.3746 36.327 57.7378C 35.3616 57.8588 34.3358 58.585 33.5514 59.2507C 31.8015 60.8242 30.1723 62.5793 27.8794 65C 27.8794 63.0029 27.7588 61.732 27.8191 60.4006C 28.0001 58.2824 27.1554 57.4352 25.0435 57.6772C 23.6557 57.7983 22.3282 57.7378 20.9404 57.7378C 20.699 57.4352 20.4577 57.0721 20.2163 56.7695C 22.2678 54.9539 24.3797 53.1383 26.3106 51.2017C 26.914 50.5966 26.9743 49.5072 27.276 48.66C 26.4916 48.3574 25.7072 47.8732 24.9228 47.8732C 18.1044 47.8732 11.2257 47.8732 4.4073 48.1153C 1.57133 48.2363 0.48522 47.4496 0.48522 44.4237C 0.42488 31.1096 0.304201 17.7955 0.00250263 4.48136C -0.0578371 1.63699 0.967937 0.850246 3.62288 0.850246C 26.2503 0.66869 48.757 0.366096 71.2637 0.00298464C 74.16 -0.057534 75.1857 0.789727 75.1857 3.69462C 75.2461 16.8877 75.4271 30.1413 75.6685 43.3343C 75.7288 46.1182 74.9444 47.3286 71.9274 47.268C 65.1694 47.147 58.4717 47.3286 51.7136 47.5101C 50.8689 47.5101 49.9638 48.1153 49.119 48.4179C 49.481 49.3862 49.6017 50.5966 50.3258 51.2017C 52.1963 53.0173 54.2479 54.5303 56.2391 56.2248C 55.9977 56.4669 55.7564 56.7695 55.4547 57.0115ZM 2.35575 46.4813C 10.2602 46.3603 17.9234 46.2997 25.5262 46.1182C 26.2503 46.1182 27.3364 45.1499 27.5174 44.4842C 28.7242 38.9165 33.672 36.0721 37.8355 35.9511C 41.9386 35.83 47.0071 38.0087 48.6363 43.758C 49.119 45.4525 50.0241 45.8761 51.6533 45.8761C 58.17 45.6946 64.747 45.5735 71.2637 45.634C 73.8583 45.6946 74.4013 44.7263 74.341 42.3055C 74.0996 29.8992 73.9186 17.4929 73.8583 5.08655C 73.8583 2.36321 73.1945 1.45543 70.2982 1.51595C 48.576 1.93958 26.8537 2.12114 5.19172 2.42373C 4.1056 2.48425 3.07983 2.60529 1.81269 2.6658C 1.99371 17.3113 2.17473 31.6542 2.35575 46.4813ZM 47.7312 46.6628C 47.6105 41.5188 43.1454 37.2219 38.0165 37.343C 32.8273 37.464 28.4828 42.0029 28.6639 47.147C 28.7845 52.17 33.5514 56.7089 38.4992 56.5879C 43.4471 56.4063 47.8519 51.7464 47.7312 46.6628ZM 47.4295 61.0663C 47.6105 59.0087 47.7312 57.6772 47.7915 56.2248C 49.3 55.9827 50.6878 55.8012 52.0153 55.6196C 50.7482 54.1066 49.7224 52.7752 48.9983 51.928C 46.9468 53.8646 45.1969 55.5591 43.2661 57.3746C 44.4729 58.464 45.74 59.5533 47.4295 61.0663ZM 33.491 57.3746C 33.1893 57.5562 32.948 57.7378 32.6463 57.8588C 31.0171 56.0432 29.3879 54.2277 27.6381 52.2911C 26.7933 53.1989 25.6469 54.4698 23.6557 56.5879C 28.2415 55.2565 29.75 56.951 28.9656 61.611C 31.0171 59.6744 32.2239 58.5245 33.491 57.3746Z"/>
<path id="path1_stroke" d="M 55.4547 57.0115L 55.5133 57.5081L 55.6557 57.4913L 55.7676 57.4015L 55.4547 57.0115ZM 49.481 58.0404L 49.8352 58.3935L 49.8441 58.3842L 49.481 58.0404ZM 47.9122 64.6369L 47.5231 64.9509L 48.0934 65.6575L 48.3856 64.7978L 47.9122 64.6369ZM 44.7745 60.8242L 44.3594 61.1028L 44.361 61.1053L 44.7745 60.8242ZM 36.327 57.7378L 36.2716 57.2408L 36.2648 57.2416L 36.327 57.7378ZM 33.5514 59.2507L 33.2278 58.8695L 33.2224 58.8741L 33.217 58.8789L 33.5514 59.2507ZM 27.8794 65L 27.3794 65L 27.3794 66.255L 28.2424 65.3438L 27.8794 65ZM 27.8191 60.4006L 27.3209 60.358L 27.3201 60.368L 27.3196 60.3779L 27.8191 60.4006ZM 25.0435 57.6772L 25.0869 58.1755L 25.1004 58.174L 25.0435 57.6772ZM 20.9404 57.7378L 20.5495 58.0495L 20.6996 58.2378L 20.9404 58.2378L 20.9404 57.7378ZM 20.2163 56.7695L 19.8849 56.395L 19.5292 56.7099L 19.8254 57.0812L 20.2163 56.7695ZM 27.276 48.66L 27.7471 48.8277L 27.9105 48.3688L 27.456 48.1935L 27.276 48.66ZM 4.4073 48.1153L 4.38956 47.6156L 4.38598 47.6158L 4.4073 48.1153ZM 0.48522 44.4237L 0.985225 44.4237L 0.985215 44.4214L 0.48522 44.4237ZM 0.00250263 4.48136L -0.497385 4.49197L -0.497369 4.49269L 0.00250263 4.48136ZM 3.62288 0.850246L 3.62288 1.35026L 3.6269 1.35023L 3.62288 0.850246ZM 71.2637 0.00298464L 71.2717 0.502925L 71.2741 0.502876L 71.2637 0.00298464ZM 75.1857 3.69462L 74.6857 3.69462L 74.6858 3.69691L 75.1857 3.69462ZM 75.6685 43.3343L 75.1685 43.3435L 75.1686 43.3452L 75.6685 43.3343ZM 71.9274 47.268L 71.9374 46.7681L 71.9364 46.7681L 71.9274 47.268ZM 51.7136 47.5101L 51.7136 48.0103L 51.727 48.0099L 51.7136 47.5101ZM 49.119 48.4179L 48.9504 47.9472L 48.4731 48.1181L 48.6507 48.593L 49.119 48.4179ZM 50.3258 51.2017L 50.674 50.843L 50.6607 50.83L 50.6465 50.8181L 50.3258 51.2017ZM 56.2391 56.2248L 56.5932 56.5778L 56.9752 56.1947L 56.5631 55.844L 56.2391 56.2248ZM 2.35575 46.4813L 1.85579 46.4874L 1.86191 46.9889L 2.36341 46.9812L 2.35575 46.4813ZM 25.5262 46.1182L 25.5262 45.618L 25.5143 45.6183L 25.5262 46.1182ZM 27.5174 44.4842L 27.9999 44.6154L 28.0033 44.6028L 28.0061 44.5901L 27.5174 44.4842ZM 37.8355 35.9511L 37.85 36.4508L 37.8502 36.4508L 37.8355 35.9511ZM 48.6363 43.758L 48.1552 43.8943L 48.1554 43.8949L 48.6363 43.758ZM 51.6533 45.8761L 51.6533 46.3763L 51.6672 46.3759L 51.6533 45.8761ZM 71.2637 45.634L 71.2753 45.1341L 71.2683 45.1341L 71.2637 45.634ZM 74.341 42.3055L 73.8411 42.3152L 73.8411 42.318L 74.341 42.3055ZM 73.8583 5.08655L 73.3583 5.08655L 73.3583 5.08898L 73.8583 5.08655ZM 70.2982 1.51595L 70.308 2.01586L 70.3087 2.01584L 70.2982 1.51595ZM 5.19172 2.42373L 5.18473 1.92378L 5.17431 1.92392L 5.1639 1.9245L 5.19172 2.42373ZM 1.81269 2.6658L 1.78884 2.16637L 1.30677 2.1894L 1.31273 2.67198L 1.81269 2.6658ZM 47.7312 46.6628L 47.2313 46.6746L 47.2313 46.6747L 47.7312 46.6628ZM 38.0165 37.343L 38.0282 37.8428L 38.0283 37.8428L 38.0165 37.343ZM 28.6639 47.147L 29.1637 47.135L 29.1635 47.1294L 28.6639 47.147ZM 38.4992 56.5879L 38.5115 57.0878L 38.5176 57.0876L 38.4992 56.5879ZM 47.4295 61.0663L 47.0959 61.4388L 47.84 62.1051L 47.9276 61.1101L 47.4295 61.0663ZM 47.7915 56.2248L 47.7123 55.7311L 47.3089 55.7958L 47.292 56.204L 47.7915 56.2248ZM 52.0153 55.6196L 52.0831 56.115L 52.9797 55.9924L 52.3986 55.2986L 52.0153 55.6196ZM 48.9983 51.928L 49.3784 51.6031L 49.0371 51.2038L 48.6551 51.5644L 48.9983 51.928ZM 43.2661 57.3746L 42.9235 57.0104L 42.5282 57.3822L 42.931 57.7458L 43.2661 57.3746ZM 33.491 57.3746L 33.827 57.7449L 33.2332 56.9462L 33.491 57.3746ZM 32.6463 57.8588L 32.2741 58.1927L 32.5078 58.4531L 32.8324 58.3228L 32.6463 57.8588ZM 27.6381 52.2911L 28.0091 51.9559L 27.6435 51.5513L 27.272 51.9505L 27.6381 52.2911ZM 23.6557 56.5879L 23.2914 56.2454L 22.0386 57.578L 23.7951 57.0681L 23.6557 56.5879ZM 28.9656 61.611L 28.4725 61.528L 28.2251 62.9975L 29.3088 61.9745L 28.9656 61.611ZM 55.3961 56.515C 54.4089 56.633 53.2142 56.5872 52.0939 56.664C 51.0053 56.7393 49.8377 56.9367 49.118 57.6965L 49.8441 58.3842C 50.2709 57.9336 51.0643 57.7376 52.163 57.6616C 53.23 57.5871 54.4489 57.6322 55.5133 57.5081L 55.3961 56.515ZM 49.127 57.6873C 48.7856 58.04 48.5414 58.5422 48.3981 59.0468C 48.26 59.5437 48.178 60.1216 48.1094 60.7137C 47.9727 61.8957 47.875 63.2049 47.4388 64.476L 48.3856 64.7978C 48.8545 63.406 48.968 61.9919 49.1028 60.8288C 49.17 60.2484 49.2388 59.7483 49.361 59.3166C 49.4779 58.8926 49.6033 58.6156 49.8351 58.3934L 49.127 57.6873ZM 48.3013 64.3229C 47.2585 63.032 46.0651 61.8372 45.188 60.5431L 44.361 61.1053C 45.2942 62.4741 46.5144 63.7 47.5231 64.9509L 48.3013 64.3229ZM 45.1897 60.5456C 44.0714 58.8964 42.6326 57.9352 41.1217 57.485C 39.609 57.0458 37.926 57.0571 36.2716 57.2408L 36.3824 58.2347C 37.9863 58.0553 39.4712 58.0363 40.8396 58.4444C 42.21 58.8415 43.3658 59.6051 44.3594 61.1028L 45.1897 60.5456ZM 36.2648 57.2416C 35.1377 57.3829 34.0115 58.2045 33.2278 58.8695L 33.8749 59.6319C 34.6601 58.9656 35.5854 58.3347 36.3892 58.2339L 36.2648 57.2416ZM 33.217 58.8789C 31.4508 60.4679 29.8076 62.2372 27.5164 64.6562L 28.2424 65.3438C 30.5371 62.9213 32.1523 61.1806 33.8857 59.6225L 33.217 58.8789ZM 28.3794 65C 28.3789 62.9792 28.2586 61.7196 28.3186 60.4232L 27.3196 60.3779C 27.2589 61.7443 27.38 63.0265 27.3794 65L 28.3794 65ZM 28.3173 60.4432C 28.4116 59.34 28.2574 58.4046 27.6422 57.7978C 27.0249 57.189 26.0893 57.0541 24.9865 57.1805L 25.1004 58.174C 26.1095 58.0583 26.6522 58.226 26.94 58.5098C 27.2299 58.7958 27.4077 59.343 27.3209 60.358L 28.3173 60.4432ZM 25 57.1791C 23.6453 57.2984 22.3396 57.2379 20.9404 57.2378L 20.9404 58.2378C 22.3168 58.2376 23.666 58.2982 25.0869 58.1754L 25 57.1791ZM 21.3313 57.426C 21.103 57.1406 20.8617 56.7775 20.6072 56.4577L 19.8254 57.0812C 20.0536 57.3666 20.295 57.7297 20.5495 58.0495L 21.3313 57.426ZM 20.5477 57.1439C 22.5965 55.3307 24.72 53.5047 26.6647 51.5548L 25.9565 50.8487C 24.0395 52.772 21.9392 54.5771 19.8849 56.395L 20.5477 57.1439ZM 26.6647 51.5548C 27.0615 51.1568 27.255 50.627 27.3876 50.1576C 27.5215 49.6818 27.6079 49.2138 27.7471 48.8277L 26.805 48.4922C 26.6424 48.9534 26.5479 49.4537 26.4253 49.8857C 26.3014 50.3241 26.1631 50.6415 25.9565 50.8487L 26.6647 51.5548ZM 27.456 48.1935C 27.0861 48.0514 26.6977 47.8564 26.2871 47.6897C 25.8749 47.5232 25.3896 47.3788 24.9228 47.3732L 24.9228 48.3732C 25.2404 48.3676 25.5395 48.4653 25.9117 48.6166C 26.2855 48.7675 26.6815 48.9659 27.0961 49.1265L 27.456 48.1935ZM 24.9228 47.3732C 18.1044 47.3732 11.2168 47.3733 4.38956 47.6156L 4.42504 48.615C 11.2346 48.3731 18.1044 48.3732 24.9228 48.3732L 24.9228 47.3732ZM 4.38598 47.6158C 2.9819 47.6757 2.18346 47.4948 1.71606 47.0769C 1.25825 46.6675 0.98522 45.9073 0.98522 44.4237L -0.0147799 44.4237C -0.0147799 45.9659 0.255249 47.1121 1.04948 47.8223C 1.83413 48.5239 2.99674 48.676 4.42862 48.6148L 4.38598 47.6158ZM 0.985215 44.4214C 0.924869 31.1062 0.804138 17.7875 0.502374 4.47004L -0.497369 4.49269C -0.195736 17.8034 -0.0751081 31.113 -0.0147748 44.4259L 0.985215 44.4214ZM 0.50239 4.47076C 0.472934 3.08222 0.717993 2.36183 1.139 1.96151C 1.56933 1.55232 2.31258 1.35025 3.62288 1.35025L 3.62288 0.350246C 2.27824 0.350246 1.18113 0.541544 0.449922 1.23682C -0.29061 1.94097 -0.528269 3.03613 -0.497385 4.49197L 0.50239 4.47076ZM 3.6269 1.35023C 26.2556 1.16866 48.7644 0.866042 71.2717 0.50292L 71.2556 -0.49695C 48.7496 -0.133849 26.2449 0.168718 3.61887 0.350262L 3.6269 1.35023ZM 71.2741 0.502876C 72.7052 0.472973 73.508 0.678833 73.9728 1.10523C 74.4282 1.52296 74.6857 2.27237 74.6857 3.69462L 75.6857 3.69462C 75.6857 2.21198 75.4304 1.08531 74.6488 0.368321C 73.8767 -0.340011 72.7184 -0.527522 71.2532 -0.496906L 71.2741 0.502876ZM 74.6858 3.69691C 74.7461 16.8922 74.9272 30.1493 75.1685 43.3435L 76.1684 43.3252C 75.927 30.1333 75.7461 16.8831 75.6857 3.69233L 74.6858 3.69691ZM 75.1686 43.3452C 75.1984 44.7209 75.0081 45.547 74.5765 46.0376C 74.1602 46.5108 73.402 46.7975 71.9374 46.7681L 71.9174 47.7679C 73.4698 47.7991 74.6123 47.5109 75.3273 46.6981C 76.0271 45.9027 76.1989 44.7316 76.1684 43.3235L 75.1686 43.3452ZM 71.9364 46.7681C 65.1671 46.647 58.4582 46.8287 51.7002 47.0103L 51.727 48.0099C 58.4851 47.8284 65.1717 47.647 71.9184 47.768L 71.9364 46.7681ZM 51.7136 47.0101C 51.2084 47.017 50.6727 47.1953 50.2179 47.3916C 49.7644 47.588 49.3415 47.8083 48.9504 47.9472L 49.2876 48.8886C 49.7413 48.7249 50.1933 48.4913 50.6147 48.3095C 51.0348 48.1275 51.3741 48.0032 51.7136 48.0101L 51.7136 47.0101ZM 48.6507 48.593C 48.8206 49.044 48.9387 49.5798 49.1122 50.1037C 49.2845 50.6223 49.5315 51.1895 50.0051 51.5854L 50.6465 50.8181C 50.396 50.6088 50.2206 50.2682 50.0611 49.7883C 49.9027 49.3136 49.7794 48.7601 49.5873 48.2428L 48.6507 48.593ZM 49.9776 51.5605C 51.8731 53.3988 53.9373 54.9221 55.915 56.6056L 56.5631 55.844C 54.5585 54.1384 52.5196 52.6358 50.674 50.843L 49.9776 51.5605ZM 55.885 55.8718C 55.6247 56.134 55.4023 56.4164 55.1418 56.6216L 55.7676 57.4015C 56.1104 57.1225 56.3708 56.7998 56.5932 56.5778L 55.885 55.8718ZM 2.36341 46.9812C 10.2661 46.8602 17.9313 46.7997 25.5381 46.618L 25.5143 45.6183C 17.9154 45.7998 10.2544 45.8603 2.34809 45.9814L 2.36341 46.9812ZM 25.5262 46.6182C 26.07 46.6182 26.6381 46.2795 27.0483 45.9326C 27.464 45.5811 27.8704 45.0916 27.9999 44.6154L 27.0349 44.353C 26.9834 44.5425 26.7562 44.87 26.4026 45.169C 26.0434 45.4727 25.7065 45.6182 25.5262 45.6182L 25.5262 46.6182ZM 28.0061 44.5901C 29.155 39.2892 33.8703 36.5665 37.85 36.4508L 37.821 35.4513C 33.4738 35.5776 28.2934 38.5437 27.0287 44.3783L 28.0061 44.5901ZM 37.8502 36.4508C 41.7869 36.3347 46.6041 38.4205 48.1552 43.8943L 49.1173 43.6216C 47.4101 37.5969 42.0902 35.3253 37.8207 35.4513L 37.8502 36.4508ZM 48.1554 43.8949C 48.4158 44.8089 48.8149 45.465 49.4429 45.8721C 50.0564 46.2696 50.8092 46.3761 51.6533 46.3761L 51.6533 45.3761C 50.8682 45.3761 50.3539 45.2708 49.9868 45.0329C 49.6343 44.8045 49.3395 44.4015 49.1172 43.621L 48.1554 43.8949ZM 51.6672 46.3759C 58.1815 46.1944 64.7493 46.0735 71.259 46.134L 71.2683 45.1341C 64.7447 45.0735 58.1584 45.1947 51.6393 45.3763L 51.6672 46.3759ZM 71.252 46.1339C 72.5808 46.1649 73.5728 45.9435 74.1803 45.2224C 74.7658 44.5275 74.8709 43.5008 74.8408 42.293L 73.8411 42.318C 73.8714 43.531 73.7351 44.1988 73.4156 44.5781C 73.118 44.9312 72.5411 45.1637 71.2753 45.1342L 71.252 46.1339ZM 74.8409 42.2958C 74.5996 29.8907 74.4186 17.488 74.3583 5.08412L 73.3583 5.08898C 73.4186 17.4977 73.5997 29.9077 73.8411 42.3152L 74.8409 42.2958ZM 74.3583 5.08655C 74.3583 3.72669 74.2038 2.63067 73.5281 1.91424C 72.8416 1.18633 71.7514 0.985478 70.2878 1.01606L 70.3087 2.01584C 71.7414 1.9859 72.4312 2.20868 72.8006 2.60037C 73.1809 3.00353 73.3583 3.72307 73.3583 5.08655L 74.3583 5.08655ZM 70.2885 1.01605C 48.569 1.43963 26.8481 1.62117 5.18473 1.92378L 5.1987 2.92368C 26.8592 2.62111 48.5829 2.43953 70.308 2.01586L 70.2885 1.01605ZM 5.1639 1.9245C 4.06238 1.98612 3.03858 2.10699 1.78884 2.16637L 1.83655 3.16524C 3.12107 3.10358 4.14883 2.98238 5.21953 2.92296L 5.1639 1.9245ZM 1.31273 2.67198C 1.49375 17.3176 1.67477 31.6604 1.85579 46.4874L 2.85571 46.4752C 2.67469 31.648 2.49367 17.3051 2.31265 2.65963L 1.31273 2.67198ZM 48.2311 46.6511C 48.104 41.234 43.4128 36.7155 38.0047 36.8431L 38.0283 37.8428C 42.878 37.7284 47.1171 41.8035 47.2313 46.6746L 48.2311 46.6511ZM 38.0048 36.8431C 32.5432 36.9705 27.9731 41.7363 28.1642 47.1646L 29.1635 47.1294C 28.9925 42.2695 33.1114 37.9575 38.0282 37.8428L 38.0048 36.8431ZM 28.164 47.159C 28.2913 52.4559 33.2851 57.2156 38.5114 57.0878L 38.487 56.0881C 33.8176 56.2023 29.2778 51.8842 29.1637 47.135L 28.164 47.159ZM 38.5176 57.0876C 43.742 56.8959 48.3582 52.0049 48.2311 46.651L 47.2313 46.6747C 47.3456 51.4879 43.1521 55.9168 38.4809 56.0882L 38.5176 57.0876ZM 47.9276 61.1101C 48.1085 59.0531 48.2301 57.7102 48.2911 56.2455L 47.292 56.204C 47.2323 57.6443 47.1125 58.9642 46.9314 61.0225L 47.9276 61.1101ZM 47.8708 56.7185C 49.3721 56.4775 50.7541 56.2967 52.0831 56.115L 51.9476 55.1242C 50.6215 55.3056 49.228 55.4879 47.7123 55.7311L 47.8708 56.7185ZM 52.3986 55.2986C 51.138 53.7935 50.1106 52.4601 49.3784 51.6031L 48.6182 52.2528C 49.3342 53.0903 50.3584 54.4198 51.632 55.9406L 52.3986 55.2986ZM 48.6551 51.5644C 46.6012 53.5032 44.8517 55.1974 42.9235 57.0104L 43.6086 57.7389C 45.5421 55.9208 47.2923 54.226 49.3415 52.2916L 48.6551 51.5644ZM 42.931 57.7458C 44.1423 58.8392 45.4102 59.9292 47.0959 61.4388L 47.7631 60.6938C 46.0698 59.1775 44.8034 58.0888 43.6011 57.0035L 42.931 57.7458ZM 33.2332 56.9462C 32.9098 57.1417 32.7025 57.3022 32.4601 57.3947L 32.8324 58.3228C 33.1935 58.1733 33.4689 57.9707 33.7488 57.8031L 33.2332 56.9462ZM 33.0184 57.5249C 31.3892 55.7093 29.7595 53.8931 28.0091 51.9559L 27.2671 52.6263C 29.0164 54.5623 30.645 56.3772 32.2741 58.1927L 33.0184 57.5249ZM 27.272 51.9505C 26.4247 52.8611 25.2791 54.131 23.2914 56.2454L 24.02 56.9304C 26.0147 54.8085 27.162 53.5366 28.0041 52.6317L 27.272 51.9505ZM 23.7951 57.0681C 26.0774 56.4054 27.3374 56.5821 27.9735 57.2089C 28.2951 57.5256 28.5221 58.0138 28.6158 58.7372C 28.7148 59.4851 28.6647 60.3909 28.4725 61.528L 29.4586 61.694C 29.6586 60.501 29.7141 59.4476 29.6075 58.6087C 29.4957 57.7454 29.2061 57.0194 28.6754 56.4965C 27.6069 55.4439 25.8197 55.439 23.5162 56.1077L 23.7951 57.0681ZM 29.3088 61.9745C 31.3612 60.0372 32.5644 58.8907 33.827 57.7449L 33.155 57.0044C 31.8834 58.1583 30.673 59.3116 28.6223 61.2474L 29.3088 61.9745Z"/>
<path id="path2_fill" d="M 43.4446 0.955557C 28.9833 1.24222 14.4613 1.52889 2.31787e-07 1.81556C 2.31787e-07 1.52889 2.31787e-07 1.14667 2.31787e-07 0.860002C 14.4613 0.573335 28.9833 0.286667 43.4446 -7.29032e-07C 43.4446 0.286667 43.4446 0.668889 43.4446 0.955557Z"/>
<path id="path3_stroke" d="M 43.4446 0.955557L 43.4545 1.45546L 43.9446 1.44574L 43.9446 0.955557L 43.4446 0.955557ZM 2.31787e-07 1.81556L -0.5 1.81556L -0.5 2.32557L 0.00990984 2.31546L 2.31787e-07 1.81556ZM 2.31787e-07 0.860002L -0.00990937 0.360101L -0.5 0.369816L -0.5 0.860002L 2.31787e-07 0.860002ZM 43.4446 -7.29032e-07L 43.9446 -7.29032e-07L 43.9446 -0.51001L 43.4347 -0.499903L 43.4446 -7.29032e-07ZM 43.4347 0.455655C 28.9734 0.742322 14.4514 1.02899 -0.00990937 1.31566L 0.00990984 2.31546C 14.4712 2.0288 28.9932 1.74213 43.4545 1.45546L 43.4347 0.455655ZM 0.5 1.81556C 0.5 1.52889 0.5 1.14667 0.5 0.860002L -0.5 0.860002C -0.5 1.14667 -0.5 1.52889 -0.5 1.81556L 0.5 1.81556ZM 0.00990984 1.3599C 14.4712 1.07324 28.9932 0.786569 43.4545 0.499901L 43.4347 -0.499903C 28.9734 -0.213236 14.4514 0.073433 -0.00990937 0.360101L 0.00990984 1.3599ZM 42.9446 -7.29032e-07C 42.9446 0.286667 42.9446 0.668889 42.9446 0.955557L 43.9446 0.955557C 43.9446 0.668889 43.9446 0.286667 43.9446 -7.29032e-07L 42.9446 -7.29032e-07Z"/>
<path id="path4_fill" d="M 31.9201 1.10951C 21.2601 1.31124 10.6001 1.51297 9.13814e-07 1.81556C 9.13814e-07 1.4121 9.13814e-07 1.10951 9.13814e-07 0.70605C 10.66 0.504321 21.32 0.302592 31.98 -1.53907e-06C 31.9201 0.403456 31.9201 0.706052 31.9201 1.10951Z"/>
<path id="path5_stroke" d="M 31.9201 1.10951L 31.9296 1.60942L 32.4201 1.60014L 32.4201 1.10951L 31.9201 1.10951ZM 9.13814e-07 1.81556L -0.499999 1.81556L -0.499999 2.33004L 0.0142682 2.31536L 9.13814e-07 1.81556ZM 9.13814e-07 0.70605L -0.00945933 0.20614L -0.499999 0.215422L -0.499999 0.70605L 9.13814e-07 0.70605ZM 31.98 -1.53907e-06L 32.4746 0.0734122L 32.5622 -0.516729L 31.9658 -0.4998L 31.98 -1.53907e-06ZM 31.9107 0.609599C 21.2507 0.811327 10.5883 1.01311 -0.0142664 1.31576L 0.0142682 2.31536C 10.612 2.01283 21.2696 1.81115 31.9296 1.60942L 31.9107 0.609599ZM 0.500001 1.81556C 0.500001 1.4121 0.500001 1.10951 0.500001 0.70605L -0.499999 0.70605C -0.499999 1.10951 -0.499999 1.4121 -0.499999 1.81556L 0.500001 1.81556ZM 0.00946116 1.20596C 10.6695 1.00423 21.3318 0.802452 31.9942 0.499797L 31.9658 -0.4998C 21.3082 -0.197269 10.6506 0.0044107 -0.00945933 0.20614L 0.00946116 1.20596ZM 31.4855 -0.0734153C 31.4215 0.366646 31.4201 0.706048 31.4201 1.10951L 32.4201 1.10951C 32.4201 0.706055 32.4188 0.440266 32.4746 0.0734122L 31.4855 -0.0734153Z"/>
<path id="path6_fill" d="M 20.7569 5.57774C 15.1453 1.03885 8.68891 -1.26086 -4.60355e-07 5.57774C 0.0603392 2.67285 4.4048 0.252104 9.77503 0.0100291C 15.5073 -0.171527 20.3948 2.12818 20.7569 5.57774Z"/>
<path id="path7_stroke" d="M 20.7569 5.57774L 20.4424 5.9665L 21.38 6.72485L 21.2541 5.52555L 20.7569 5.57774ZM -4.60355e-07 5.57774L -0.499893 5.56736L -0.521857 6.62476L 0.309235 5.97065L -4.60355e-07 5.57774ZM 9.77503 0.0100291L 9.7592 -0.489765L 9.75251 -0.489464L 9.77503 0.0100291ZM 21.0713 5.18899C 18.2313 2.89185 15.12 1.11257 11.5745 0.812956C 8.01464 0.51212 4.10626 1.70962 -0.309235 5.18484L 0.309235 5.97065C 4.58265 2.60726 8.24691 1.53531 11.4903 1.8094C 14.7482 2.08472 17.6709 3.72474 20.4424 5.9665L 21.0713 5.18899ZM 0.499892 5.58813C 0.524627 4.39732 1.43868 3.1945 3.14252 2.23051C 4.85189 1.259 7.16774 0.624972 9.79755 0.509522L 9.75251 -0.489464C 7.01209 -0.362839 4.47059 0.334546 2.65009 1.36015C 0.824061 2.39328 -0.464288 3.85327 -0.499893 5.56736L 0.499892 5.58813ZM 9.79086 0.509779C 12.5999 0.417546 15.1348 0.922043 17.0577 1.88019C 18.9633 2.82494 20.1037 4.1451 20.2596 5.62993L 21.2541 5.52555C 21.0479 3.56082 19.5635 2.00635 17.5019 0.984247C 15.4575 -0.0244644 12.6824 -0.579044 9.7592 -0.48972L 9.79086 0.509779Z"/>
<path id="path8_fill" d="M 0.576377 1.08933C 1.24011 4.11527 2.62793 6.29394 5.82593 6.47549C 9.56699 6.71757 11.0151 4.11527 11.6789 1.84688e-06C 13.1874 3.5706 11.7996 5.32564 9.86869 6.83861C 7.69646 8.53313 3.89506 8.29105 1.90385 6.23342C 0.576377 4.90201 -0.811436 3.26801 0.576377 1.08933Z"/>
<path id="path9_stroke" d="M 0.576377 1.08933L 1.06477 0.982207L 0.805297 -0.200692L 0.154668 0.820706L 0.576377 1.08933ZM 5.82593 6.47549L 5.85822 5.97652L 5.85427 5.9763L 5.82593 6.47549ZM 11.6789 1.84688e-06L 12.1395 -0.194583L 11.4623 -1.79739L 11.1853 -0.0796125L 11.6789 1.84688e-06ZM 9.86869 6.83861L 10.1762 7.23284L 10.1771 7.23217L 9.86869 6.83861ZM 1.90385 6.23342L 2.2632 5.88567L 2.25793 5.88039L 1.90385 6.23342ZM 0.087988 1.19646C 0.428065 2.74685 0.965477 4.14225 1.87496 5.17882C 2.79997 6.23309 4.07556 6.87693 5.79759 6.97469L 5.85427 5.9763C 4.3783 5.8925 3.36097 5.35623 2.62664 4.51929C 1.87679 3.66466 1.38843 2.45775 1.06477 0.982207L 0.087988 1.19646ZM 5.79364 6.97445C 7.80581 7.10465 9.26893 6.46214 10.296 5.18511C 11.2926 3.94602 11.8371 2.15941 12.1725 0.0796162L 11.1853 -0.0796125C 10.857 1.95586 10.3455 3.52804 9.51678 4.55839C 8.71859 5.55081 7.58711 6.08841 5.85822 5.97654L 5.79364 6.97445ZM 11.2183 0.194587C 11.9388 1.89994 11.9378 3.09522 11.5949 4.01653C 11.245 4.95683 10.5074 5.70289 9.5603 6.44504L 10.1771 7.23217C 11.1608 6.46136 12.0826 5.57341 12.5321 4.3653C 12.9888 3.13821 12.9275 1.67066 12.1395 -0.194583L 11.2183 0.194587ZM 9.56115 6.44437C 7.592 7.98048 4.07803 7.76113 2.26316 5.88571L 1.54455 6.58113C 3.71209 8.82098 7.80092 9.08578 10.1762 7.23284L 9.56115 6.44437ZM 2.25793 5.88039C 1.59251 5.213 0.983378 4.53544 0.686024 3.79317C 0.406202 3.09465 0.391152 2.31077 0.998086 1.35796L 0.154668 0.820706C -0.626211 2.04658 -0.641261 3.16902 -0.242261 4.16503C 0.139207 5.11728 0.887713 5.92242 1.54977 6.58645L 2.25793 5.88039Z"/>
</defs>
</svg>
