<svg width="80" height="64" viewBox="0 0 80 64" version="1.1" xmlns="http://www.w3.org/2000/svg" xmlns:xlink="http://www.w3.org/1999/xlink">
<title>Group</title>
<desc>Created using Figma</desc>
<g id="Canvas" transform="translate(-368 -1944)">
<g id="Group" opacity="0.1">
<g id="XMLID 26">
<use xlink:href="#path0_fill" transform="translate(369 1960.2)"/>
<use xlink:href="#path1_stroke" transform="translate(369 1960.2)"/>
</g>
<g id="XMLID 23">
<use xlink:href="#path2_fill" transform="translate(401.535 1945)"/>
<use xlink:href="#path3_stroke" transform="translate(401.535 1945)"/>
</g>
<g id="XMLID 20">
<use xlink:href="#path4_fill" transform="translate(425.49 1950.17)"/>
<use xlink:href="#path5_stroke" transform="translate(425.49 1950.17)"/>
</g>
<g id="XMLID 17">
<use xlink:href="#path6_fill" transform="translate(379.844 1950.78)"/>
<use xlink:href="#path7_stroke" transform="translate(379.844 1950.78)"/>
</g>
<g id="XMLID 16">
<use xlink:href="#path8_fill" transform="translate(389.406 1989.45)"/>
<use xlink:href="#path9_stroke" transform="translate(389.406 1989.45)"/>
</g>
<g id="XMLID 15">
<use xlink:href="#path10_fill" transform="translate(413.299 1969.2)"/>
<use xlink:href="#path11_stroke" transform="translate(413.299 1969.2)"/>
</g>
</g>
</g>
<defs>
<path id="path0_fill" d="M 42.8902 0.505433C 43.5641 -0.0486809 44.4831 -0.171817 45.2796 0.25916C 46.995 1.30582 48.7104 2.29091 50.242 3.46071C 51.7736 4.69207 53.1215 4.69207 54.6531 3.70698C 56.3072 2.59875 57.8388 2.22934 59.6155 3.70698C 60.2894 4.2611 62.1274 4.01482 63.0464 3.52228C 66.1709 1.7368 71.1333 4.01482 71.3784 7.58578C 71.5009 9.30969 71.746 11.0336 71.8685 12.8191C 72.0523 15.5281 72.6649 17.7445 75.2993 19.4684C 76.7084 20.3304 77.5661 22.9163 77.6274 24.7633C 77.995 31.1048 77.8725 37.4464 77.995 43.8495C 78.0563 45.3887 77.5661 46.1275 75.9732 46.1275C 72.4811 46.1275 69.0503 46.3122 65.5582 46.1275C 64.7618 46.0659 63.5365 44.8961 63.4139 44.0957C 62.5562 37.5079 60.8408 35.9072 54.1017 36.0303C 43.6254 36.215 33.0878 36.5228 22.6116 36.3997C 17.404 36.3381 15.1372 38.924 14.7697 44.5267C 14.7084 45.1424 14.7084 45.7581 14.7084 46.62L 1.41392 46.8047C 0.740003 46.8047 0.249884 46.3122 0.249884 45.6349C 0.127354 38.3083 -0.117705 30.9817 0.0660891 23.7167C 0.127354 22.3006 1.90403 21.0077 2.82301 19.5916C 3.68072 18.2371 4.66095 16.821 5.15107 15.3434C 5.57993 13.9273 5.33487 12.265 5.39613 10.7258C 5.64119 5.67716 6.43763 3.76855 11.0938 3.70698C 14.157 3.64541 16.4238 4.75364 19.487 3.58384C 19.9772 3.39914 20.7123 3.46071 21.1412 3.76855C 24.4495 5.92344 27.0226 3.89169 29.5957 1.7368C 31.6788 -0.048681 33.7618 -0.602795 35.7222 2.04464C 36.3961 2.90659 37.3764 3.52228 38.4792 4.4458C 39.9495 3.15287 41.4199 1.85993 42.8902 0.505433ZM 12.8092 45.6349C 13.5444 36.9538 17.4653 35.2299 22.1827 35.1068C 33.3942 34.7989 44.6056 34.7374 55.8171 34.6758C 61.2697 34.6142 64.0266 37.3232 64.6392 42.6797C 64.7005 43.48 65.4969 44.8345 65.9871 44.8345C 69.1728 44.9577 72.3586 44.8961 75.7894 44.8345C 76.2183 44.8345 76.5246 44.4651 76.5246 44.0957C 76.4634 37.077 76.5246 30.4892 76.2183 23.8398C 76.0345 20.6382 73.5227 19.0375 69.908 19.0375C 49.078 19.2837 28.3092 19.53 7.47914 19.8379C 3.37439 19.8994 1.29139 21.7465 1.16886 25.7484C 1.04633 31.7205 1.16886 37.6311 1.41392 43.6032C 1.41392 44.342 2.70048 45.6349 3.49692 45.6965C 6.4989 45.8812 9.56214 45.6965 12.8092 45.6349ZM 16.4851 14.3583C 16.0562 14.3583 15.6274 14.3583 15.1985 14.3583C 15.1985 12.3881 15.5661 10.2948 15.0147 8.5093C 14.5859 7.1548 13.4218 5.36932 11.8289 5.24619C 10.2361 5.12305 7.66293 6.60069 7.35661 7.89362C 6.4989 11.0336 6.68269 14.4814 6.37637 18.1755C 9.37835 18.1139 12.1353 18.1139 14.8309 18.0524C 23.5305 17.9292 23.408 17.9292 23.7756 9.00185C 23.8981 5.985 22.3052 5.24619 20.0384 4.93834C 18.0167 4.69207 16.3625 6.66225 16.3625 9.12498C 16.4238 10.9105 16.4238 12.6344 16.4851 14.3583ZM 60.9634 13.8042C 60.7183 13.7426 60.5345 13.4963 60.5345 13.2501C 60.5345 11.3414 60.8408 9.37125 60.2894 7.64735C 59.8606 6.35441 58.0839 4.81521 56.8586 4.75364C 55.2045 4.69207 52.7539 5.18462 53.1215 8.01676C 53.489 11.1567 53.7954 14.2967 54.163 17.3751L 71.1333 17.1904C 70.6432 13.6195 70.5819 10.2948 69.6017 7.21637C 69.1728 5.92344 66.7223 4.81521 65.1294 4.6305C 64.2717 4.56894 62.8013 6.53912 62.3112 7.83205C 61.8211 9.18655 62.3112 10.8489 62.1887 12.3881C 62.1887 12.7575 61.9436 13.1269 61.7598 13.4963C 61.5147 13.7426 61.2084 13.8657 60.9634 13.8042ZM 45.8309 2.47562C 44.7894 2.04464 43.5641 2.22934 42.6452 2.84503C 41.0523 3.95325 38.6629 4.93834 41.8487 7.89362C 42.155 8.13989 42.155 9.24812 41.8487 9.61753C 39.3981 12.5728 41.4811 15.0355 42.4001 17.5598L 52.3863 17.4367C 52.2637 11.2799 52.6926 5.06148 45.8309 2.47562ZM 24.6946 17.9908C 27.2064 17.9292 29.3507 17.9292 31.4337 17.9292C 35.8448 17.8677 37.6827 14.2351 35.5384 10.2332C 35.1096 9.43283 35.2321 7.77048 35.7835 7.21637C 37.1926 5.86187 36.5799 5.06148 35.5997 3.95325C 33.7618 1.79837 31.9238 1.42896 29.7795 3.39914C 28.3092 4.75364 26.0424 5.86187 25.6135 7.46264C 24.8171 10.6026 25.0009 14.0504 24.6946 17.9908ZM 40.746 17.5598C 40.072 15.7744 39.5207 14.3583 38.9693 12.9422C 38.6629 13.0038 38.3566 13.0653 38.0503 13.1269C 37.5602 14.543 37.0701 15.8975 36.5187 17.6214C 37.9278 17.6214 38.9693 17.6214 40.746 17.5598ZM 38.6017 11.5261C 40.746 9.80224 40.991 8.3246 38.6629 6.84696C 35.906 8.3246 36.1511 9.74067 38.6017 11.5261Z"/>
<path id="path1_stroke" d="M 42.8902 0.505433L 42.5727 0.119222L 42.5618 0.128157L 42.5515 0.137689L 42.8902 0.505433ZM 45.2796 0.25916L 45.54 -0.167663L 45.5289 -0.174415L 45.5175 -0.180585L 45.2796 0.25916ZM 50.242 3.46071L 50.5554 3.07091L 50.5455 3.06335L 50.242 3.46071ZM 54.6531 3.70698L 54.9236 4.12758L 54.9314 4.12237L 54.6531 3.70698ZM 59.6155 3.70698L 59.2958 4.09141L 59.298 4.09319L 59.6155 3.70698ZM 63.0464 3.52228L 63.2826 3.96313L 63.2944 3.95639L 63.0464 3.52228ZM 71.3784 7.58578L 70.8796 7.62001L 70.8796 7.62123L 71.3784 7.58578ZM 71.8685 12.8191L 72.3674 12.7852L 72.3673 12.7848L 71.8685 12.8191ZM 75.2993 19.4684L 75.0256 19.8868L 75.0319 19.891L 75.0384 19.895L 75.2993 19.4684ZM 77.6274 24.7633L 77.1275 24.7799L 77.1282 24.7922L 77.6274 24.7633ZM 77.995 43.8495L 77.495 43.859L 77.4954 43.8693L 77.995 43.8495ZM 65.5582 46.1275L 65.5197 46.6261L 65.5318 46.6268L 65.5582 46.1275ZM 63.4139 44.0957L 62.918 44.1603L 62.9197 44.1714L 63.4139 44.0957ZM 54.1017 36.0303L 54.1105 36.5302L 54.1108 36.5302L 54.1017 36.0303ZM 22.6116 36.3997L 22.6056 36.8997L 22.6057 36.8997L 22.6116 36.3997ZM 14.7697 44.5267L 15.2672 44.5762L 15.268 44.5678L 15.2686 44.5594L 14.7697 44.5267ZM 14.7084 46.62L 14.7153 47.12L 15.2084 47.1131L 15.2084 46.62L 14.7084 46.62ZM 1.41392 46.8047L 1.41392 47.3048L 1.42086 47.3047L 1.41392 46.8047ZM 0.249884 45.6349L 0.749954 45.6349L 0.749814 45.6266L 0.249884 45.6349ZM 0.0660891 23.7167L -0.433524 23.695L -0.433751 23.704L 0.0660891 23.7167ZM 2.82301 19.5916L 3.24245 19.8638L 3.24544 19.8591L 2.82301 19.5916ZM 5.15107 15.3434L 5.62581 15.5008L 5.62961 15.4883L 5.15107 15.3434ZM 5.39613 10.7258L 4.8967 10.7015L 4.89653 10.7059L 5.39613 10.7258ZM 11.0938 3.70698L 11.1004 4.20695L 11.1038 4.20688L 11.0938 3.70698ZM 19.487 3.58384L 19.3107 3.11596L 19.3087 3.11674L 19.487 3.58384ZM 21.1412 3.76855L 20.8496 4.17473L 20.8588 4.18133L 20.8683 4.18751L 21.1412 3.76855ZM 29.5957 1.7368L 29.9168 2.12015L 29.9211 2.11642L 29.5957 1.7368ZM 35.7222 2.04464L 35.3203 2.3423L 35.3283 2.35261L 35.7222 2.04464ZM 38.4792 4.4458L 38.1581 4.82913L 38.4871 5.10463L 38.8093 4.82128L 38.4792 4.4458ZM 12.8092 45.6349L 12.8187 46.1348L 13.2694 46.1263L 13.3074 45.6771L 12.8092 45.6349ZM 22.1827 35.1068L 22.1957 35.6066L 22.1964 35.6066L 22.1827 35.1068ZM 55.8171 34.6758L 55.8199 35.1758L 55.8228 35.1758L 55.8171 34.6758ZM 64.6392 42.6797L 65.1378 42.6415L 65.1371 42.6322L 65.136 42.6228L 64.6392 42.6797ZM 65.9871 44.8345L 66.0064 44.3349L 65.9967 44.3345L 65.9871 44.3345L 65.9871 44.8345ZM 75.7894 44.8345L 75.7894 44.3345L 75.7805 44.3346L 75.7894 44.8345ZM 76.5246 44.0957L 77.0247 44.0957L 77.0246 44.0914L 76.5246 44.0957ZM 76.2183 23.8398L 76.7178 23.8168L 76.7175 23.8111L 76.2183 23.8398ZM 69.908 19.0375L 69.908 18.5374L 69.9021 18.5375L 69.908 19.0375ZM 7.47914 19.8379L 7.47175 19.3379L 7.47164 19.3379L 7.47914 19.8379ZM 1.16886 25.7484L 0.669065 25.7331L 0.668962 25.7381L 1.16886 25.7484ZM 1.41392 43.6032L 1.91392 43.6032L 1.91392 43.5929L 1.9135 43.5827L 1.41392 43.6032ZM 3.49692 45.6965L 3.45838 46.1951L 3.46622 46.1956L 3.49692 45.6965ZM 16.4851 14.3583L 16.4851 14.8583L 17.0032 14.8583L 16.9848 14.3405L 16.4851 14.3583ZM 15.1985 14.3583L 14.6985 14.3583L 14.6985 14.8583L 15.1985 14.8583L 15.1985 14.3583ZM 15.0147 8.5093L 15.4925 8.36176L 15.4914 8.35838L 15.0147 8.5093ZM 7.35661 7.89362L 7.83894 8.02537L 7.84118 8.01717L 7.84314 8.00889L 7.35661 7.89362ZM 6.37637 18.1755L 5.87808 18.1342L 5.83226 18.6868L 6.38662 18.6754L 6.37637 18.1755ZM 14.8309 18.0524L 14.8238 17.5524L 14.8195 17.5525L 14.8309 18.0524ZM 23.7756 9.00185L 24.2752 9.02242L 24.2752 9.02214L 23.7756 9.00185ZM 20.0384 4.93834L 20.1057 4.44285L 20.0989 4.44201L 20.0384 4.93834ZM 16.3625 9.12498L 15.8625 9.12498L 15.8625 9.13356L 15.8628 9.14213L 16.3625 9.12498ZM 60.2894 7.64735L 60.7657 7.49502L 60.764 7.48993L 60.2894 7.64735ZM 56.8586 4.75364L 56.8837 4.25423L 56.8772 4.25399L 56.8586 4.75364ZM 53.1215 8.01676L 53.6181 7.95861L 53.6173 7.9524L 53.1215 8.01676ZM 54.163 17.3751L 53.6665 17.4344L 53.7197 17.88L 54.1684 17.8751L 54.163 17.3751ZM 71.1333 17.1904L 71.1388 17.6904L 71.7058 17.6842L 71.6287 17.1224L 71.1333 17.1904ZM 69.6017 7.21637L 70.0782 7.06465L 70.0763 7.05896L 69.6017 7.21637ZM 65.1294 4.6305L 65.187 4.13383L 65.1761 4.13257L 65.1652 4.13179L 65.1294 4.6305ZM 62.3112 7.83205L 61.8436 7.6548L 61.841 7.66192L 62.3112 7.83205ZM 62.1887 12.3881L 61.6902 12.3484L 61.6887 12.3682L 61.6887 12.3881L 62.1887 12.3881ZM 61.7598 13.4963L 62.1142 13.849L 62.1714 13.7916L 62.2075 13.7191L 61.7598 13.4963ZM 45.8309 2.47562L 45.6398 2.93762L 45.6471 2.94068L 45.6546 2.9435L 45.8309 2.47562ZM 42.6452 2.84503L 42.3668 2.42957L 42.3596 2.43459L 42.6452 2.84503ZM 41.8487 7.89362L 41.5087 8.26018L 41.5216 8.27221L 41.5354 8.2833L 41.8487 7.89362ZM 42.4001 17.5598L 41.9303 17.7309L 42.0516 18.0642L 42.4063 18.0598L 42.4001 17.5598ZM 52.3863 17.4367L 52.3924 17.9367L 52.8962 17.9304L 52.8862 17.4267L 52.3863 17.4367ZM 24.6946 17.9908L 24.1961 17.9521L 24.1531 18.5042L 24.7068 18.4907L 24.6946 17.9908ZM 31.4337 17.9292L 31.4337 18.4293L 31.4407 18.4292L 31.4337 17.9292ZM 35.5384 10.2332L 35.9792 9.99707L 35.5384 10.2332ZM 35.7835 7.21637L 35.4369 6.85581L 35.4291 6.86369L 35.7835 7.21637ZM 35.5997 3.95325L 35.2192 4.27777L 35.2252 4.28452L 35.5997 3.95325ZM 29.7795 3.39914L 29.4412 3.03096L 29.4408 3.0314L 29.7795 3.39914ZM 25.6135 7.46264L 25.1305 7.33324L 25.1289 7.33971L 25.6135 7.46264ZM 40.746 17.5598L 40.7633 18.0595L 41.4599 18.0354L 41.2137 17.3833L 40.746 17.5598ZM 38.9693 12.9422L 39.4352 12.7608L 39.2827 12.3692L 38.8707 12.452L 38.9693 12.9422ZM 38.0503 13.1269L 37.9518 12.6367L 37.6714 12.6931L 37.5778 12.9634L 38.0503 13.1269ZM 36.5187 17.6214L 36.0424 17.4691L 35.8338 18.1214L 36.5187 18.1214L 36.5187 17.6214ZM 38.6017 11.5261L 38.3072 11.9303L 38.6166 12.1557L 38.915 11.9158L 38.6017 11.5261ZM 38.6629 6.84696L 38.9309 6.42481L 38.6842 6.26826L 38.4267 6.40627L 38.6629 6.84696ZM 43.2078 0.891644C 43.7341 0.458864 44.4346 0.370417 45.0416 0.698906L 45.5175 -0.180585C 44.5317 -0.714052 43.3941 -0.556226 42.5727 0.119222L 43.2078 0.891644ZM 45.0191 0.685984C 46.7402 1.73607 48.4335 2.70728 49.9385 3.85807L 50.5455 3.06335C 48.9872 1.87454 47.2497 0.875574 45.54 -0.167663L 45.0191 0.685984ZM 49.9287 3.85039C 50.7499 4.51056 51.569 4.8779 52.4262 4.91456C 53.2818 4.95115 54.1033 4.65508 54.9235 4.12751L 54.3826 3.28645C 53.6712 3.74398 53.053 3.94045 52.4689 3.91547C 51.8864 3.89056 51.2658 3.64222 50.5553 3.07103L 49.9287 3.85039ZM 54.9314 4.12237C 55.7289 3.58804 56.436 3.2752 57.1167 3.23647C 57.7766 3.19894 58.4832 3.41558 59.2958 4.0914L 59.9352 3.32256C 58.9712 2.52074 58.0236 2.18327 57.06 2.23809C 56.1172 2.29172 55.2314 2.7177 54.3748 3.29159L 54.9314 4.12237ZM 59.298 4.09319C 59.7984 4.50467 60.6065 4.56053 61.2798 4.50546C 61.9831 4.4459 62.7709 4.23345 63.2826 3.96297L 62.8102 3.08158C 62.4028 3.30365 61.8122 3.46061 61.1983 3.50879C 60.5544 3.56146 60.1066 3.46341 59.9331 3.32077L 59.298 4.09319ZM 63.2944 3.95639C 64.6791 3.16513 66.5221 3.25501 68.0769 3.99665C 69.6323 4.73857 70.7731 6.06925 70.8796 7.62001L 71.8772 7.55155C 71.7386 5.53135 70.2757 3.93754 68.5074 3.09408C 66.7386 2.25034 64.5381 2.09394 62.7983 3.08816L 63.2944 3.95639ZM 70.8796 7.62123C 71.0037 9.36263 71.2487 11.0859 71.3697 12.8533L 72.3673 12.7848C 72.2432 10.9813 71.9981 9.25675 71.8771 7.55033L 70.8796 7.62123ZM 71.3696 12.8529C 71.4636 14.2305 71.681 15.5499 72.21 16.7206C 72.7464 17.8864 73.6485 18.9789 75.0256 19.8868L 75.5731 19.0501C 74.3158 18.2341 73.5944 17.3564 73.1199 16.3057C 72.638 15.26 72.4572 14.1167 72.3674 12.7852L 71.3696 12.8529ZM 75.0384 19.895C 75.6076 20.2432 76.1223 20.9865 76.5052 21.9339C 76.8885 22.8766 77.1003 23.899 77.1277 24.7799L 78.1271 24.7467C 78.0932 23.7805 77.8455 22.5865 77.4324 21.5591C 77.0189 20.5363 76.4001 19.5557 75.5602 19.0419L 75.0384 19.895ZM 77.1282 24.7922C 77.4951 31.1145 77.3725 37.4463 77.4951 43.859L 78.4949 43.8399C 78.3725 37.4464 78.4949 31.0952 78.1266 24.7344L 77.1282 24.7922ZM 77.4954 43.8693C 77.5248 44.6075 77.4111 45.0165 77.2202 45.2457C 77.0448 45.4564 76.7064 45.6275 75.9732 45.6275L 75.9732 46.6275C 76.8329 46.6275 77.5361 46.4292 77.9887 45.8856C 78.4257 45.3607 78.5265 44.6307 78.4946 43.8296L 77.4954 43.8693ZM 75.9732 45.6275C 72.4677 45.6277 69.0501 45.8122 65.5846 45.6282L 65.5318 46.6268C 69.0506 46.8122 72.4946 46.6273 75.9732 46.6275L 75.9732 45.6275ZM 65.5968 45.629C 65.3741 45.6118 64.9747 45.4034 64.5778 45.0262C 64.1829 44.651 63.9441 44.2547 63.9082 44.0201L 62.9197 44.1714C 63.0063 44.7372 63.4415 45.326 63.889 45.7511C 64.3344 46.1744 64.9459 46.5816 65.5197 46.626L 65.5968 45.629ZM 63.9098 44.0312C 63.481 40.7383 62.8253 38.5136 61.2929 37.1704C 59.7583 35.8252 57.4652 35.4688 54.0926 35.5304L 54.1108 36.5302C 57.4773 36.4687 59.4115 36.851 60.6338 37.9224C 61.8583 38.9958 62.4892 40.8654 62.9181 44.1603L 63.9098 44.0312ZM 54.0929 35.5304C 43.6137 35.7151 33.0835 36.0229 22.6174 35.8997L 22.6057 36.8997C 33.0922 37.0228 43.6371 36.7149 54.1105 36.5302L 54.0929 35.5304ZM 22.6175 35.8997C 19.9335 35.868 17.9058 36.5188 16.512 37.996C 15.1314 39.459 14.4576 41.6455 14.2707 44.494L 15.2686 44.5594C 15.4493 41.8052 16.0927 39.8974 17.2393 38.6823C 18.3726 37.4812 20.0821 36.8698 22.6056 36.8997L 22.6175 35.8997ZM 14.2721 44.4772C 14.209 45.1176 14.2084 45.7581 14.2084 46.62L 15.2084 46.62C 15.2084 45.7581 15.2078 45.1672 15.2672 44.5762L 14.2721 44.4772ZM 14.7014 46.1201L 1.40697 46.3048L 1.42086 47.3047L 14.7153 47.12L 14.7014 46.1201ZM 1.41392 46.3047C 1.01847 46.3047 0.749884 46.0384 0.749884 45.6349L -0.250116 45.6349C -0.250116 46.586 0.461537 47.3047 1.41392 47.3047L 1.41392 46.3047ZM 0.749814 45.6266C 0.627197 38.2958 0.38229 30.9797 0.565929 23.7293L -0.433751 23.704C -0.617701 30.9837 -0.372489 38.3209 -0.250046 45.6433L 0.749814 45.6266ZM 0.565622 23.7383C 0.588217 23.216 0.93697 22.6555 1.50637 21.975C 2.05889 21.314 2.75253 20.6137 3.24243 19.8638L 2.40359 19.3194C 1.97451 19.9855 1.32032 20.6398 0.739445 21.3332C 0.175446 22.0073 -0.394774 22.8012 -0.433444 23.695L 0.565622 23.7383ZM 3.24544 19.8591C 4.09757 18.5132 5.10834 17.0443 5.62565 15.5008L 4.6765 15.186C 4.21357 16.5977 3.26386 17.961 2.40058 19.3241L 3.24544 19.8591ZM 5.62961 15.4883C 5.8577 14.7233 5.91123 13.8806 5.91145 13.0807C 5.91124 12.2814 5.86548 11.491 5.89574 10.7456L 4.89653 10.7059C 4.86552 11.4998 4.91165 12.3101 4.91145 13.0807C 4.91167 13.8508 4.8733 14.5474 4.67254 15.1984L 5.62961 15.4883ZM 5.89554 10.75C 6.01902 8.20621 6.28375 6.61829 6.99513 5.64036C 7.66503 4.71946 8.82165 4.23707 11.1004 4.20694L 11.0872 3.20702C 8.70975 3.23846 7.14008 3.74116 6.18646 5.05211C 5.27432 6.30602 5.0183 8.19671 4.89672 10.7015L 5.89554 10.75ZM 11.1038 4.20688C 12.582 4.17431 13.8866 4.43276 15.2444 4.55888C 16.6028 4.68373 18.049 4.65992 19.6654 4.05094L 19.3087 3.11674C 17.8619 3.67757 16.6431 3.68454 15.3364 3.56312C 14.0292 3.44297 12.6688 3.17808 11.0837 3.20708L 11.1038 4.20688ZM 19.6634 4.05172C 20.0176 3.91821 20.5736 3.97658 20.8496 4.17473L 21.4328 3.36236C 20.8511 2.94483 19.9367 2.88006 19.3107 3.11597L 19.6634 4.05172ZM 20.8683 4.18751C 22.6591 5.35393 24.2953 5.39875 25.817 4.838C 27.2909 4.29493 28.6426 3.18718 29.9168 2.12013L 29.2747 1.35347C 27.9758 2.4413 26.7544 3.42687 25.4713 3.89968C 24.2362 4.3548 22.9316 4.33806 21.4141 3.34959L 20.8683 4.18751ZM 29.9211 2.11642C 30.9356 1.24686 31.8673 0.753728 32.7199 0.728151C 33.5305 0.703836 34.4019 1.10187 35.3204 2.34219L 36.1241 1.74708C 35.0821 0.339973 33.9318 -0.308652 32.6899 -0.271399C 31.4902 -0.235408 30.3389 0.441259 29.2703 1.35717L 29.9211 2.11642ZM 35.3283 2.35261C 35.6942 2.8174 36.149 3.22612 36.6258 3.61118C 37.1013 3.99492 37.6185 4.37695 38.1581 4.82913L 38.8002 4.06247C 38.237 3.59113 37.7127 3.20356 37.2539 2.83308C 36.7964 2.46394 36.4241 2.13383 36.1161 1.73667L 35.3283 2.35261ZM 38.8093 4.82128C 40.2797 3.52835 41.7544 2.23157 43.229 0.873178L 42.5515 0.137689C 41.0854 1.4883 39.6193 2.77739 38.149 4.07032L 38.8093 4.82128ZM 13.3074 45.6771C 13.6698 41.398 14.8095 38.9411 16.3415 37.5293C 17.8719 36.1188 19.8844 35.6669 22.1957 35.6066L 22.1697 34.6069C 19.7636 34.6697 17.4569 35.1414 15.6638 36.7939C 13.8721 38.4451 12.6837 41.1908 12.311 45.5927L 13.3074 45.6771ZM 22.1964 35.6066C 33.4024 35.2989 44.6084 35.2374 55.8199 35.1758L 55.8144 34.1758C 44.6029 34.2374 33.3859 34.299 22.169 34.607L 22.1964 35.6066ZM 55.8228 35.1758C 58.4673 35.1459 60.3792 35.7876 61.7036 37.013C 63.0321 38.2421 63.844 40.1269 64.1425 42.7365L 65.136 42.6228C 64.8218 39.876 63.949 37.7281 62.3827 36.279C 60.8124 34.8261 58.6195 34.1441 55.8115 34.1758L 55.8228 35.1758ZM 64.1407 42.7178C 64.1797 43.2277 64.4363 43.8444 64.7257 44.3179C 64.8733 44.5584 65.0599 44.8029 65.2311 44.9702C 65.3927 45.1261 65.6581 45.3345 65.9871 45.3345L 65.9871 44.3345C 66.071 44.3345 66.053 44.3737 65.9255 44.2506C 65.8077 44.1389 65.6994 43.9948 65.579 43.7966C 65.3323 43.3928 65.16 42.932 65.1378 42.6415L 64.1407 42.7178ZM 65.9678 45.3342C 69.168 45.4577 72.3679 45.396 75.7984 45.3345L 75.7805 44.3346C 72.3493 44.3962 69.1777 44.4577 66.0064 44.3349L 65.9678 45.3342ZM 75.7894 45.3345C 76.5232 45.3345 77.0246 44.7116 77.0246 44.0957L 76.0246 44.0957C 76.0246 44.1453 76.0021 44.2095 75.9535 44.2613C 75.9088 44.3089 75.8532 44.3345 75.7894 44.3345L 75.7894 45.3345ZM 77.0246 44.0914C 76.9634 37.0771 77.0245 30.48 76.7178 23.8168L 75.7188 23.8628C 76.0247 30.4983 75.9634 37.0768 76.0247 44.1001L 77.0246 44.0914ZM 76.7175 23.8111C 76.6176 22.0704 75.8754 20.7276 74.6434 19.8334C 73.4281 18.9513 71.7814 18.5375 69.908 18.5375L 69.908 19.5375C 71.6492 19.5375 73.0658 19.924 74.056 20.6427C 75.0296 21.3493 75.6353 22.4076 75.7191 23.8684L 76.7175 23.8111ZM 69.9021 18.5375C 49.0721 18.7838 28.3025 19.0301 7.47175 19.3379L 7.48653 20.3378C 28.3158 20.03 49.0839 19.7837 69.9139 19.5374L 69.9021 18.5375ZM 7.47164 19.3379C 5.35469 19.3697 3.66632 19.8623 2.49129 20.9483C 1.31025 22.0399 0.732821 23.6516 0.669091 25.7331L 1.66862 25.7637C 1.72742 23.8433 2.25276 22.5305 3.17004 21.6827C 4.09333 20.8293 5.49884 20.3676 7.48664 20.3378L 7.47164 19.3379ZM 0.668962 25.7381C 0.546327 31.7206 0.669095 37.6465 0.914336 43.6237L 1.9135 43.5827C 1.66862 37.6156 1.54633 31.7205 1.66875 25.7587L 0.668962 25.7381ZM 0.913916 43.6032C 0.913916 43.9177 1.04457 44.2288 1.19648 44.4869C 1.34853 44.7428 1.57295 45.0249 1.80233 45.2565C 2.24232 45.6987 2.87269 46.1497 3.45838 46.195L 3.53546 45.198C 3.32471 45.1817 2.91358 44.9555 2.51118 44.5511C 2.31936 44.3594 2.17236 44.176 2.05829 43.9797C 1.94408 43.7856 1.91392 43.6581 1.91392 43.6032L 0.913916 43.6032ZM 3.46622 46.1956C 6.49859 46.3812 9.58193 46.1961 12.8187 46.1348L 12.7997 45.135C 9.54235 45.1969 6.49921 45.3812 3.52763 45.1974L 3.46622 46.1956ZM 16.4851 13.8583C 16.0562 13.8583 15.6274 13.8583 15.1985 13.8583L 15.1985 14.8583C 15.6274 14.8583 16.0562 14.8583 16.4851 14.8583L 16.4851 13.8583ZM 15.6985 14.3583C 15.698 13.3957 15.7896 12.3856 15.8132 11.3761C 15.8363 10.3657 15.7829 9.31576 15.4925 8.36177L 14.537 8.65683C 14.7979 9.48833 14.8364 10.3778 14.8135 11.353C 14.7912 12.329 14.699 13.3506 14.6985 14.3583L 15.6985 14.3583ZM 15.4914 8.35838C 15.2631 7.64286 14.8174 6.76874 14.2371 6.08962C 13.6464 5.40396 12.8454 4.82327 11.8675 4.74767L 11.7904 5.7447C 12.4054 5.79224 12.9828 6.16586 13.4795 6.74235C 13.9867 7.32537 14.3375 8.02124 14.538 8.66022L 15.4914 8.35838ZM 11.8675 4.74767C 10.9283 4.67507 9.78238 5.06599 8.85768 5.60739C 7.95568 6.13551 7.07354 6.91956 6.87008 7.77835L 7.84314 8.00889C 7.946 7.57475 8.50358 6.97351 9.36294 6.47036C 10.1996 5.98049 11.1367 5.69416 11.7904 5.7447L 11.8675 4.74767ZM 6.87428 7.76187C 6.00096 10.959 6.17641 14.5365 5.87808 18.1342L 6.87466 18.2168C 7.18898 14.4263 6.99684 11.1082 7.83894 8.02537L 6.87428 7.76187ZM 6.38662 18.6754C 9.38347 18.6139 12.141 18.6139 14.8423 18.5522L 14.8195 17.5525C 12.1296 17.614 9.37322 17.614 6.36612 17.6756L 6.38662 18.6754ZM 14.838 18.5523C 17.0129 18.5215 18.6649 18.4972 19.9108 18.3376C 21.1637 18.1763 22.1149 17.866 22.7858 17.1777C 23.4523 16.4939 23.7615 15.5186 23.9415 14.2343C 24.1205 12.9515 24.1833 11.2531 24.2752 9.02242L 23.276 8.98128C 23.1841 11.2143 23.1244 12.8637 22.9511 14.0956C 22.7788 15.3259 22.5059 16.0322 22.0697 16.4797C 21.6378 16.9228 20.9656 17.1935 19.7831 17.3458C 18.5938 17.4998 16.9987 17.5216 14.8238 17.5524L 14.838 18.5523ZM 24.2752 9.02214C 24.3401 7.4239 23.9518 6.31623 23.1377 5.58276C 22.352 4.87486 21.2547 4.59893 20.1057 4.44289L 19.9711 5.4338C 21.089 5.58561 21.9215 5.833 22.4683 6.32568C 22.9868 6.79279 23.3336 7.56295 23.276 8.98156L 24.2752 9.02214ZM 20.0989 4.44201C 17.6551 4.14434 15.8625 6.50274 15.8625 9.12498L 16.8625 9.12498C 16.8625 6.82177 18.3782 5.23981 19.978 5.43468L 20.0989 4.44201ZM 15.8628 9.14213C 15.9239 10.919 15.9239 12.6433 15.9854 14.376L 16.9848 14.3405C 16.9237 12.6255 16.9237 10.9019 16.8622 9.10784L 15.8628 9.14213ZM 61.0852 13.3192C 61.0863 13.3195 61.0714 13.3151 61.0541 13.2925C 61.0463 13.2823 61.0409 13.2719 61.0377 13.263C 61.0345 13.2541 61.0345 13.2496 61.0345 13.2501L 60.0345 13.2501C 60.0345 13.7179 60.3668 14.1698 60.8415 14.2891L 61.0852 13.3192ZM 61.0345 13.2501C 61.0341 12.3154 61.1106 11.3478 61.1187 10.3835C 61.1262 9.41829 61.0563 8.4159 60.7657 7.49502L 59.8132 7.79967C 60.0739 8.6027 60.1266 9.44736 60.1188 10.3754C 60.1116 11.3043 60.0349 12.2761 60.0345 13.2501L 61.0345 13.2501ZM 60.764 7.48993C 60.5105 6.72571 59.8875 5.94592 59.1968 5.358C 58.5144 4.7771 57.6595 4.29325 56.8837 4.25427L 56.8335 5.25301C 57.283 5.2756 57.9291 5.59213 58.5486 6.11947C 59.1598 6.63977 59.6395 7.27604 59.8149 7.80476L 60.764 7.48993ZM 56.8772 4.25399C 56.0127 4.22181 54.8694 4.32822 53.9725 4.87263C 53.0183 5.45177 52.4181 6.48249 52.6256 8.08111L 53.6173 7.9524C 53.4572 6.71888 53.8985 6.08727 54.4913 5.72749C 55.1413 5.33298 56.0503 5.2239 56.84 5.2533L 56.8772 4.25399ZM 52.6248 8.07489C 52.9919 11.2101 53.2983 14.3506 53.6665 17.4344L 54.6594 17.3158C 54.2924 14.2428 53.9862 11.1034 53.6181 7.95862L 52.6248 8.07489ZM 54.1684 17.8751L 71.1388 17.6904L 71.1279 16.6904L 54.1575 16.8752L 54.1684 17.8751ZM 71.6287 17.1224C 71.1417 13.5808 71.0753 10.2135 70.0781 7.06466L 69.1253 7.36808C 70.0886 10.3761 70.1447 13.6581 70.638 17.2584L 71.6287 17.1224ZM 70.0763 7.05896C 69.7971 6.21745 68.9217 5.53856 68.0374 5.06672C 67.1313 4.58553 66.0312 4.2341 65.187 4.13383L 65.0718 5.12718C 65.8204 5.21161 66.7421 5.50665 67.5667 5.94898C 68.4131 6.40066 68.9774 6.92236 69.1271 7.37378L 70.0763 7.05896ZM 65.1652 4.13179C 64.7672 4.10322 64.3913 4.30521 64.0993 4.52054C 63.8034 4.74056 63.4804 5.06384 63.1975 5.40418C 62.6385 6.08065 62.1064 6.96735 61.8436 7.65482L 62.7787 8.00928C 63.0061 7.40382 63.4543 6.65896 63.9673 6.0425C 64.2205 5.73637 64.4565 5.49785 64.6929 5.32537C 64.9331 5.1482 65.0627 5.127 65.0936 5.12922L 65.1652 4.13179ZM 61.841 7.66192C 61.5736 8.42294 61.5663 9.27827 61.6129 10.0703C 61.6599 10.8614 61.75 11.6272 61.6902 12.3484L 62.6871 12.4278C 62.7498 11.6098 62.6561 10.7748 62.6112 10.0113C 62.5659 9.24875 62.5586 8.59566 62.7813 8.00218L 61.841 7.66192ZM 61.6887 12.3881C 61.695 12.4931 61.662 12.5748 61.5882 12.7347C 61.5147 12.8974 61.4114 13.0746 61.3121 13.2736L 62.2075 13.7191C 62.292 13.5486 62.4031 13.3564 62.4981 13.1497C 62.5928 12.9402 62.6823 12.6525 62.6887 12.3881L 61.6887 12.3881ZM 61.4054 13.1436C 61.3252 13.2242 61.2445 13.2746 61.1796 13.3C 61.1131 13.326 61.0833 13.3188 61.0852 13.3192L 60.8415 14.2891C 61.3263 14.4109 61.8047 14.1601 62.1142 13.849L 61.4054 13.1436ZM 46.0221 2.01361C 44.8084 1.51139 43.408 1.73212 42.3669 2.42963L 42.9235 3.26042C 43.7203 2.72656 44.7704 2.57789 45.6398 2.93762L 46.0221 2.01361ZM 42.3596 2.43459C 41.9752 2.70238 41.5212 2.97568 41.1035 3.28375C 40.6887 3.59035 40.2657 3.96427 40.0128 4.44322C 39.7448 4.95084 39.6891 5.5355 39.9376 6.1911C 40.176 6.81999 40.6871 7.49809 41.5087 8.26018L 42.1888 7.52705C 41.4174 6.81151 41.0325 6.25824 40.8727 5.83663C 40.723 5.44172 40.7669 5.15673 40.8971 4.91013C 41.0424 4.63488 41.3163 4.37003 41.6979 4.08789C 42.0767 3.8072 42.5187 3.54179 42.9307 3.25546L 42.3596 2.43459ZM 41.5354 8.2833C 41.4856 8.24327 41.5079 8.23064 41.5378 8.34317C 41.5678 8.45108 41.5792 8.5599 41.5785 8.7094C 41.5792 8.86005 41.5666 8.98247 41.5348 9.11037C 41.5204 9.17201 41.51 9.20516 41.4906 9.24835C 41.4742 9.28818 41.4507 9.31146 41.4638 9.29837L 42.2336 9.93669C 42.3799 9.76025 42.4608 9.53738 42.5072 9.34354C 42.5521 9.15205 42.5778 8.91276 42.5785 8.7094C 42.5777 8.50487 42.5508 8.26738 42.5043 8.08669C 42.4576 7.91061 42.365 7.66711 42.162 7.50394L 41.5354 8.2833ZM 41.4638 9.29837C 40.1237 10.9145 40.0129 12.4384 40.3761 13.873C 40.5516 14.56 40.8375 15.2382 41.1262 15.8758C 41.4149 16.5133 41.7097 17.1231 41.9303 17.7309L 42.8699 17.3888C 42.631 16.7344 42.3208 16.0898 42.0371 15.4632C 41.7534 14.8367 41.4994 14.2412 41.3455 13.6276C 41.0502 12.461 41.1232 11.2758 42.2336 9.93669L 41.4638 9.29837ZM 42.4063 18.0598L 52.3924 17.9367L 52.3801 16.9367L 42.3939 17.0599L 42.4063 18.0598ZM 52.8862 17.4267C 52.8258 14.3906 52.9053 11.2065 52.1161 8.47811C 51.3106 5.69349 49.599 3.3613 46.0073 2.00774L 45.6546 2.9435C 48.9246 4.1758 50.4293 6.24574 51.1555 8.75598C 51.8979 11.3225 51.8243 14.326 51.8864 17.4466L 52.8862 17.4267ZM 24.7068 18.4907C 27.2125 18.4292 29.3507 18.4292 31.4337 18.4292L 31.4337 17.4292C 29.3507 17.4292 27.2003 17.4293 24.6823 17.491L 24.7068 18.4907ZM 31.4407 18.4292C 33.7859 18.3965 35.5406 17.4049 36.3871 15.7911C 37.2275 14.1891 37.1061 12.1004 35.9792 9.99707L 35.0977 10.4694C 36.115 12.368 36.1468 14.0964 35.5015 15.3266C 34.8624 16.545 33.4925 17.4005 31.4267 17.4293L 31.4407 18.4292ZM 35.9792 9.99707C 35.8283 9.71546 35.7496 9.20908 35.7918 8.6716C 35.8354 8.11738 35.992 7.71569 36.1379 7.56905L 35.4291 6.86369C 35.0236 7.27116 34.8433 7.9777 34.7949 8.59328C 34.7452 9.2256 34.8198 9.95058 35.0977 10.4694L 35.9792 9.99707ZM 36.13 7.57684C 36.8899 6.84635 37.2251 6.14551 37.0783 5.39629C 36.9476 4.72978 36.4406 4.14926 35.9742 3.62199L 35.2252 4.28452C 35.739 4.86547 36.0285 5.23926 36.0969 5.58863C 36.1492 5.85529 36.0862 6.23189 35.437 6.8559L 36.13 7.57684ZM 35.9801 3.62879C 35.0272 2.51157 34.0037 1.77029 32.8644 1.63289C 31.7076 1.49339 30.5727 1.99138 29.4412 3.03096L 30.1178 3.76732C 31.1307 2.83672 31.9869 2.53432 32.7446 2.6257C 33.5198 2.71918 34.3342 3.24005 35.2193 4.27772L 35.9801 3.62879ZM 29.4408 3.0314C 28.7364 3.68248 27.8155 4.28803 26.9927 4.94886C 26.1861 5.59736 25.3906 6.36252 25.1306 7.33325L 26.0965 7.59203C 26.2653 6.96199 26.8177 6.37265 27.6193 5.72822C 28.4046 5.09611 29.3523 4.4703 30.1183 3.76688L 29.4408 3.0314ZM 25.1289 7.33971C 24.3195 10.5539 24.5009 14.0444 24.1961 17.9521L 25.1931 18.0296C 25.5008 14.0565 25.3147 10.6513 26.0982 7.58557L 25.1289 7.33971ZM 41.2137 17.3833C 40.5389 15.5954 39.9866 14.1769 39.4352 12.7608L 38.5033 13.1236C 39.0547 14.5397 39.6052 15.9533 40.2782 17.7364L 41.2137 17.3833ZM 38.8707 12.452C 38.5644 12.5136 38.2581 12.5752 37.9518 12.6367L 38.1488 13.6171C 38.4551 13.5555 38.7615 13.494 39.0678 13.4324L 38.8707 12.452ZM 37.5778 12.9634C 37.0888 14.3762 36.5968 15.7362 36.0424 17.4691L 36.9949 17.7737C 37.5433 16.0587 38.0315 14.7098 38.5228 13.2905L 37.5778 12.9634ZM 36.5187 18.1214C 37.9278 18.1214 38.9779 18.1213 40.7633 18.0595L 40.7286 17.0601C 38.9606 17.1215 37.9278 17.1214 36.5187 17.1214L 36.5187 18.1214ZM 38.915 11.9158C 40.0007 11.043 40.759 10.121 40.8088 9.11905C 40.861 8.06931 40.137 7.19032 38.9309 6.42481L 38.395 7.26911C 39.517 7.98124 39.8344 8.57988 39.8101 9.06935C 39.7833 9.60659 39.347 10.2854 38.2884 11.1365L 38.915 11.9158ZM 38.4267 6.40627C 37.0412 7.14886 36.1471 8.00382 36.1797 9.08618C 36.1956 9.61332 36.4354 10.1056 36.7988 10.5613C 37.1511 11.0002 37.6751 11.4689 38.3072 11.9303L 38.8961 11.122C 38.303 10.6906 37.8774 10.3128 37.5806 9.93782C 37.2951 9.57972 37.1863 9.29081 37.1793 9.05604C 37.166 8.61459 37.5277 8.0227 38.8991 7.28765L 38.4267 6.40627Z"/>
<path id="path2_fill" d="M 0.00100112 7.32745C -0.0602637 3.32551 2.69665 -0.0607416 5.82116 0.000826602C 8.88441 0.0623948 11.5801 3.32551 11.6413 7.08117C 11.7639 11.0215 9.12947 14.3462 5.88243 14.4078C 2.63539 14.4694 0.062266 11.3294 0.00100112 7.32745ZM 10.2935 7.14274C 10.2322 4.18747 8.08796 1.54003 5.7599 1.54003C 3.37057 1.6016 1.34883 4.24903 1.41009 7.26588C 1.47136 10.4674 3.37057 12.807 5.94369 12.7455C 8.45555 12.7455 10.3548 10.3443 10.2935 7.14274Z"/>
<path id="path3_stroke" d="M 5.82116 0.000826602L 5.83121 -0.499072L 5.83101 -0.499076L 5.82116 0.000826602ZM 11.6413 7.08117L 11.1413 7.08933L 11.1416 7.09671L 11.6413 7.08117ZM 10.2935 7.14274L 10.7934 7.13317L 10.7934 7.13238L 10.2935 7.14274ZM 5.7599 1.54003L 5.7599 1.03987L 5.74702 1.0402L 5.7599 1.54003ZM 1.41009 7.26588L 1.91 7.25631L 1.90999 7.25573L 1.41009 7.26588ZM 5.94369 12.7455L 5.94369 12.2453L 5.93173 12.2456L 5.94369 12.7455ZM 0.500943 7.31979C 0.472062 5.43329 1.10833 3.69984 2.10673 2.45282C 3.10702 1.20344 4.44062 0.47372 5.81131 0.50073L 5.83101 -0.499076C 4.0772 -0.533635 2.47008 0.398983 1.3261 1.82782C 0.180239 3.25902 -0.531325 5.21967 -0.49894 7.3351L 0.500943 7.31979ZM 5.81111 0.500726C 8.52209 0.555214 11.083 3.51081 11.1414 7.08933L 12.1413 7.07302C 12.0771 3.14021 9.24672 -0.430424 5.83121 -0.499072L 5.81111 0.500726ZM 11.1416 7.09671C 11.2583 10.8508 8.75751 13.8532 5.87295 13.9079L 5.89191 14.9077C 9.50143 14.8393 12.2694 11.1923 12.1411 7.06563L 11.1416 7.09671ZM 5.87295 13.9079C 3.00188 13.9623 0.559666 11.1557 0.500943 7.31979L -0.49894 7.3351C -0.435134 11.503 2.26891 14.9764 5.89191 14.9077L 5.87295 13.9079ZM 10.7934 7.13238C 10.7531 5.56681 10.1435 4.01263 9.26539 2.91858C 8.36657 1.80814 7.11783 1.04003 5.7599 1.04003L 5.7599 2.04003C 6.73003 2.04003 7.71746 2.59565 8.48811 3.54773C 9.27951 4.51622 9.77262 5.7634 9.79361 7.1531L 10.7934 7.13238ZM 5.74702 1.0402C 4.36433 1.07583 3.13177 1.85697 2.26812 2.99195C 1.42885 4.10526 0.885569 5.67955 0.910198 7.27603L 1.90999 7.25573C 1.87336 5.83536 2.31031 4.57751 3.06392 3.5975C 3.79316 2.63917 4.76614 2.06581 5.77278 2.03987L 5.74702 1.0402ZM 0.910186 7.27544C 0.974488 10.6357 3.00043 13.316 5.95565 13.2453L 5.93173 12.2456C 3.74071 12.298 1.96823 10.2991 1.91 7.25631L 0.910186 7.27544ZM 5.94369 13.2455C 8.83677 13.2455 10.8579 10.5013 10.7934 7.13317L 9.79359 7.15231C 9.85167 10.1872 8.07433 12.2455 5.94369 12.2455L 5.94369 13.2455Z"/>
<path id="path4_fill" d="M 0.00121223 5.78842C -0.0600526 2.71001 2.20675 -0.0605614 4.65734 0.00100686C 6.98541 0.0625751 9.19094 2.83315 9.25221 5.66528C 9.31347 8.86683 7.23047 11.268 4.53481 11.2064C 1.83916 11.2064 0.0624771 9.05153 0.00121223 5.78842ZM 6.37276 8.62056C 7.78185 7.14292 8.14944 4.8649 7.10794 3.14099C 6.61782 2.27903 5.82138 1.78649 4.65734 1.72492C 2.14549 1.66335 1.53283 3.75667 1.53283 5.78842C 1.53283 7.82017 2.32928 10.0366 4.71861 9.72879C 5.26999 9.60565 5.82137 9.17467 6.37276 8.62056Z"/>
<path id="path5_stroke" d="M 0.00121223 5.78842L 0.501124 5.77903L 0.501113 5.77847L 0.00121223 5.78842ZM 4.65734 0.00100686L 4.67056 -0.498819L 4.6699 -0.498835L 4.65734 0.00100686ZM 9.25221 5.66528L 9.75212 5.65572L 9.75209 5.65447L 9.25221 5.66528ZM 4.53481 11.2064L 4.54623 10.7064L 4.53481 10.7064L 4.53481 11.2064ZM 6.37276 8.62056L 6.72726 8.97332L 6.7346 8.96562L 6.37276 8.62056ZM 7.10794 3.14099L 6.67314 3.38822L 6.67998 3.39954L 7.10794 3.14099ZM 4.65734 1.72492L 4.68375 1.22562L 4.67668 1.22524L 4.6696 1.22507L 4.65734 1.72492ZM 4.71861 9.72879L 4.7825 10.2247L 4.80522 10.2218L 4.82759 10.2168L 4.71861 9.72879ZM 0.501113 5.77847C 0.463343 4.33398 0.955779 3.03557 1.77606 2.03168C 2.57387 1.04545 3.61714 0.475031 4.64479 0.500849L 4.6699 -0.498835C 3.24696 -0.534585 1.93152 0.249496 0.998599 1.40276C 0.0881499 2.53836 -0.522183 4.16445 -0.498689 5.79837L 0.501113 5.77847ZM 4.64413 0.500832C 5.61451 0.526495 6.62317 1.12514 7.41558 2.108C 8.22385 3.10195 8.73185 4.35004 8.75233 5.6761L 9.75209 5.65447C 9.71131 4.14839 9.0859 2.59513 8.19408 1.48036C 7.28639 0.354512 6.02825 -0.462913 4.67056 -0.498818L 4.64413 0.500832ZM 8.7523 5.67485C 8.80964 8.67111 6.88433 10.76 4.54623 10.7066L 4.5234 11.7063C 7.5766 11.776 9.81731 9.06255 9.75212 5.65572L 8.7523 5.67485ZM 4.53481 10.7064C 3.33203 10.7064 2.3559 10.2311 1.66424 9.40101C 0.964955 8.56181 0.530169 7.32601 0.501124 5.77903L -0.4987 5.79781C -0.466479 7.51395 0.0177079 8.98715 0.895994 10.0412C 1.7819 11.1043 3.04195 11.7064 4.53481 11.7064L 4.53481 10.7064ZM 6.7346 8.96562C 8.28039 7.34463 8.70769 4.822 7.5359 2.88243L 6.67998 3.39954C 7.59119 4.90779 7.28331 6.94121 6.01091 8.2755L 6.7346 8.96562ZM 7.54259 2.89384C 6.96018 1.86958 6.00099 1.29529 4.68375 1.22562L 4.63094 2.22422C 5.64177 2.27768 6.27546 2.68848 6.67329 3.38813L 7.54259 2.89384ZM 4.6696 1.22507C 3.24226 1.19008 2.28968 1.78312 1.72572 2.71223C 1.18795 3.59819 1.03283 4.73936 1.03283 5.78842L 2.03283 5.78842C 2.03283 4.80572 2.18404 3.88437 2.58056 3.23112C 2.95089 2.62102 3.56057 2.19818 4.64509 2.22477L 4.6696 1.22507ZM 1.03283 5.78842C 1.03283 6.85324 1.23892 8.02473 1.80989 8.9075C 2.40727 9.8311 3.38792 10.4044 4.7825 10.2247L 4.65472 9.23289C 3.65997 9.36105 3.04773 8.98 2.64956 8.3644C 2.22497 7.70796 2.03283 6.75535 2.03283 5.78842L 1.03283 5.78842ZM 4.82759 10.2168C 5.53049 10.0598 6.16948 9.5337 6.72718 8.97324L 6.01833 8.26788C 5.47327 8.81564 5.0095 9.15151 4.60963 9.24081L 4.82759 10.2168Z"/>
<path id="path6_fill" d="M 4.96676 11.2092C 2.57743 11.2708 0.188106 8.80805 0.00431168 6.03748C -0.118218 3.39005 2.39364 0.126931 4.66044 0.00379475C 6.9885 -0.119342 9.4391 2.77437 9.4391 5.72964C 9.50036 8.74648 7.60115 11.0861 4.96676 11.2092ZM 1.5972 5.11396C 1.5972 7.82296 2.51617 9.60844 4.7217 9.73157C 7.11103 9.85471 8.03001 7.82296 8.03001 5.79121C 8.03001 3.82102 7.35609 1.66614 4.9055 1.66614C 2.57744 1.66614 1.71973 3.45162 1.5972 5.11396Z"/>
<path id="path7_stroke" d="M 4.96676 11.2092L 4.97965 11.7092L 4.99011 11.7087L 4.96676 11.2092ZM 0.00431168 6.03748L -0.495253 6.0606L -0.494592 6.07058L 0.00431168 6.03748ZM 4.66044 0.00379475L 4.63403 -0.495508L 4.63332 -0.495469L 4.66044 0.00379475ZM 9.4391 5.72964L 8.939 5.72964L 8.9392 5.73979L 9.4391 5.72964ZM 1.5972 5.11396L 1.09855 5.0772L 1.0972 5.09556L 1.0972 5.11396L 1.5972 5.11396ZM 4.7217 9.73157L 4.69383 10.2308L 4.69597 10.2309L 4.7217 9.73157ZM 4.95388 10.7094C 3.93484 10.7356 2.86778 10.2204 2.01862 9.33857C 1.14881 8.44394 0.579197 7.29345 0.503215 6.00438L -0.494592 6.07058C -0.386779 7.55208 0.330169 9.01824 1.2983 10.0322C 2.28709 11.059 3.60936 11.7444 4.97964 11.709L 4.95388 10.7094ZM 0.503777 6.01436C 0.449563 4.843 0.984652 3.47878 1.83235 2.37933C 2.6887 1.26865 3.76422 0.553216 4.68756 0.503059L 4.63332 -0.495469C 3.28986 -0.42249 1.97605 0.555205 1.04041 1.76873C 0.0961058 2.99348 -0.56347 4.58453 -0.495154 6.0606L 0.503777 6.01436ZM 4.68685 0.503097C 5.63675 0.452855 6.69337 1.02453 7.5397 2.03362C 8.39949 3.04996 8.9489 4.35054 8.9391 5.72964L 9.9391 5.72964C 9.92929 4.15346 9.25341 2.52955 8.30589 1.39101C 7.3449 0.245206 6.0122 -0.568401 4.63403 -0.495507L 4.68685 0.503097ZM 8.9392 5.73979C 8.9963 8.55127 7.24601 10.6021 4.94342 10.7098L 4.99011 11.7087C 7.95629 11.57 10.0044 8.9417 9.939 5.71949L 8.9392 5.73979ZM 1.0972 5.11396C 1.0972 6.5121 1.33212 7.74493 1.90961 8.65943C 2.50591 9.6037 3.43828 10.1607 4.69383 10.2308L 4.74958 9.23235C 3.7996 9.17931 3.16971 8.782 2.75514 8.1255C 2.32177 7.43923 2.0972 6.42482 2.0972 5.11396L 1.0972 5.11396ZM 4.69597 10.2309C 6.06192 10.3013 7.05265 9.74459 7.67996 8.85835C 8.28787 7.99952 8.53001 6.8702 8.53001 5.79121L 7.53001 5.79121C 7.53001 6.74397 7.31265 7.6464 6.86375 8.2806C 6.43424 8.88739 5.77081 9.28498 4.74744 9.23224L 4.69597 10.2309ZM 8.53001 5.79121C 8.53001 4.76362 8.35665 3.62733 7.81456 2.73108C 7.2513 1.79986 6.30985 1.16614 4.9055 1.16614L 4.9055 2.16614C 5.95174 2.16614 6.57254 2.60986 6.9589 3.24862C 7.36641 3.92237 7.53001 4.84862 7.53001 5.79121L 8.53001 5.79121ZM 4.9055 1.16614C 3.59533 1.16614 2.65248 1.67718 2.03309 2.45526C 1.42956 3.2134 1.1644 4.18378 1.09855 5.0772L 2.09584 5.15071C 2.15252 4.38179 2.37748 3.62826 2.81546 3.07808C 3.23757 2.54783 3.88761 2.16614 4.9055 2.16614L 4.9055 1.16614Z"/>
<path id="path8_fill" d="M 0.0612658 0.492546C 12.3142 0.307841 24.5672 0.184703 36.7589 -1.87891e-06C 36.7589 0.184703 36.7589 0.861956 36.7589 1.04666C 24.5059 1.23137 12.253 1.3545 -4.67414e-07 1.5392C 0.0612644 1.3545 0.0612658 0.738819 0.0612658 0.492546Z"/>
<path id="path9_stroke" d="M 0.0612658 0.492546L 0.0537295 -0.00739745L -0.438734 2.60863e-05L -0.438734 0.492546L 0.0612658 0.492546ZM 36.7589 -1.87891e-06L 37.2589 -1.87891e-06L 37.2589 -0.507634L 36.7513 -0.499945L 36.7589 -1.87891e-06ZM 36.7589 1.04666L 36.7665 1.5466L 37.2589 1.53918L 37.2589 1.04666L 36.7589 1.04666ZM -4.67414e-07 1.5392L -0.474575 1.38179L -0.696133 2.04975L 0.00753581 2.03915L -4.67414e-07 1.5392ZM 0.0688021 0.992489C 12.3205 0.807802 24.5735 0.684663 36.7665 0.499941L 36.7513 -0.499945C 24.5609 -0.315258 12.308 -0.192119 0.0537295 -0.00739745L 0.0688021 0.992489ZM 36.2589 -1.87891e-06C 36.2589 0.184703 36.2589 0.861956 36.2589 1.04666L 37.2589 1.04666C 37.2589 0.861956 37.2589 0.184703 37.2589 -1.87891e-06L 36.2589 -1.87891e-06ZM 36.7514 0.546717C 24.4997 0.731405 12.2467 0.854538 -0.00753675 1.03926L 0.00753581 2.03915C 12.2593 1.85446 24.5122 1.73133 36.7665 1.5466L 36.7514 0.546717ZM 0.474574 1.69662C 0.501215 1.61094 0.522778 1.48323 0.533015 1.38134C 0.542545 1.28338 0.549236 1.16613 0.553268 1.05738C 0.561181 0.84038 0.561266 0.615683 0.561266 0.492546L -0.438734 0.492546C -0.438734 0.615682 -0.43865 0.821961 -0.446054 1.02055C -0.45325 1.21846 -0.489585 1.41525 -0.474575 1.38179L 0.474574 1.69662Z"/>
<path id="path10_fill" d="M 4.71739 1.10823L 0.551382 1.10823C 0.245058 1.10823 1.86965e-06 0.861955 1.86965e-06 0.554114C 1.86965e-06 0.246273 0.245058 -4.69728e-07 0.551382 -4.69728e-07L 4.71739 -4.69728e-07C 5.02372 -4.69728e-07 5.26878 0.246273 5.26878 0.554114C 5.26878 0.861955 5.02372 1.10823 4.71739 1.10823Z"/>
<path id="path11_stroke" d="M 4.71739 0.608227L 0.551382 0.608227L 0.551382 1.60823L 4.71739 1.60823L 4.71739 0.608227ZM 0.551382 0.608227C 0.523528 0.608227 0.500002 0.588147 0.500002 0.554114L -0.499998 0.554114C -0.499998 1.13576 -0.0334132 1.60823 0.551382 1.60823L 0.551382 0.608227ZM 0.500002 0.554114C 0.500002 0.520079 0.523531 0.5 0.551382 0.5L 0.551382 -0.5C -0.0334159 -0.5 -0.499998 -0.0275322 -0.499998 0.554114L 0.500002 0.554114ZM 0.551382 0.5L 4.71739 0.5L 4.71739 -0.5L 0.551382 -0.5L 0.551382 0.5ZM 4.71739 0.5C 4.74525 0.5 4.76878 0.520084 4.76878 0.554114L 5.76878 0.554114C 5.76878 -0.0275378 5.30219 -0.5 4.71739 -0.5L 4.71739 0.5ZM 4.76878 0.554114C 4.76878 0.588142 4.74525 0.608227 4.71739 0.608227L 4.71739 1.60823C 5.30218 1.60823 5.76878 1.13577 5.76878 0.554114L 4.76878 0.554114Z"/>
</defs>
</svg>
