<svg width="10" height="17" viewBox="0 0 10 17" version="1.1" xmlns="http://www.w3.org/2000/svg" xmlns:xlink="http://www.w3.org/1999/xlink">
<title>Group</title>
<desc>Created using Figma</desc>
<g id="Canvas" transform="translate(-301 494)">
<g id="Group" opacity="0.6">
<g id="Group">
<g id="Group">
<g id="Vector">
<use xlink:href="#path0_fill" transform="matrix(1 1.60812e-16 -1.60812e-16 1 301 -494)" fill="#B0E519"/>
</g>
</g>
</g>
</g>
</g>
<defs>
<path id="path0_fill" d="M 9.08757 0.00619985L 6.82524 0C 4.2825 0 2.63195 1.64296 2.63195 4.1849L 2.63195 6.11306L 0.356875 6.11306C 0.159319 6.11306 0 6.26805 0 6.46025L 0 9.25638C 0 9.44858 0.159319 9.60357 0.356875 9.60357L 2.63833 9.60357L 2.63833 16.6528C 2.63833 16.845 2.79765 17 2.9952 17L 5.96491 17C 6.16247 17 6.32179 16.845 6.32179 16.6528L 6.32179 9.59737L 8.98561 9.59737C 9.18316 9.59737 9.34248 9.44238 9.34248 9.25018L 9.34248 6.45405C 9.34248 6.36105 9.30424 6.27425 9.24052 6.20605C 9.17679 6.14405 9.0812 6.10686 8.98561 6.10686L 6.32179 6.10686L 6.32179 4.47629C 6.32179 3.68891 6.51297 3.29212 7.56448 3.29212L 9.08757 3.29212C 9.28513 3.29212 9.44444 3.13713 9.44444 2.94493L 9.44444 0.353392C 9.44444 0.161196 9.28513 0.00619985 9.08757 0.00619985Z"/>
</defs>
</svg>
