<svg width="14" height="14" viewBox="0 0 14 14" version="1.1" xmlns="http://www.w3.org/2000/svg" xmlns:xlink="http://www.w3.org/1999/xlink">
<title>Group</title>
<desc>Created using Figma</desc>
<g id="Canvas" transform="translate(-374 493)">
<g id="Group" opacity="0.6">
<g id="Group">
<g id="Vector">
<use xlink:href="#path0_fill" transform="matrix(1 1.60812e-16 -1.60812e-16 1 374.22 -488.501)" fill="#B0E519"/>
</g>
<g id="Vector">
<use xlink:href="#path1_fill" transform="matrix(1 1.60812e-16 -1.60812e-16 1 374 -493)" fill="#B0E519"/>
</g>
<g id="Vector">
<use xlink:href="#path2_fill" transform="matrix(1 1.60812e-16 -1.60812e-16 1 378.793 -488.728)" fill="#B0E519"/>
</g>
</g>
</g>
</g>
<defs>
<path id="path0_fill" d="M 3.0371 0L 0.225806 0C 0.101613 0 5.38365e-09 0.101859 5.38365e-09 0.226354L 5.38365e-09 9.27486C 5.38365e-09 9.39935 0.101613 9.50121 0.225806 9.50121L 3.0371 9.50121C 3.16129 9.50121 3.2629 9.39935 3.2629 9.27486L 3.2629 0.226354C 3.2629 0.101859 3.16129 0 3.0371 0Z"/>
<path id="path1_fill" d="M 1.85726 0C 0.829839 0 0 0.831851 0 1.8561C 0 2.88036 0.829839 3.71221 1.85726 3.71221C 2.87903 3.71221 3.70887 2.88036 3.70887 1.8561C 3.70887 0.831851 2.87903 0 1.85726 0Z"/>
<path id="path2_fill" d="M 5.61693 0C 4.4879 0 3.65242 0.486661 3.15 1.04123L 3.15 0.452708C 3.15 0.328213 3.04839 0.226354 2.92419 0.226354L 0.225807 0.226354C 0.101613 0.226354 8.61383e-08 0.328213 8.61383e-08 0.452708L 8.61383e-08 9.50121C 8.61383e-08 9.62571 0.101613 9.72757 0.225807 9.72757L 3.03145 9.72757C 3.15565 9.72757 3.25726 9.62571 3.25726 9.50121L 3.25726 5.02506C 3.25726 3.51415 3.66371 2.92563 4.71371 2.92563C 5.85403 2.92563 5.95 3.87066 5.95 5.09863L 5.95 9.50121C 5.95 9.62571 6.05161 9.72757 6.17581 9.72757L 8.98145 9.72757C 9.10565 9.72757 9.20726 9.62571 9.20726 9.50121L 9.20726 4.5384C 9.20726 2.29749 8.77822 0 5.61693 0Z"/>
</defs>
</svg>
