<svg width="13" height="18" viewBox="0 0 13 18" version="1.1" xmlns="http://www.w3.org/2000/svg" xmlns:xlink="http://www.w3.org/1999/xlink">
<title>Group</title>
<desc>Created using Figma</desc>
<g id="Canvas" transform="translate(325 -3523)">
<g id="Group" opacity="0.4">
<g id="Rectangle 22">
<use xlink:href="#path0_stroke" transform="matrix(-0.706902 -0.707312 0.706902 -0.707311 -316.382 3539.62)"/>
</g>
<g id="Rectangle 22">
<use xlink:href="#path1_stroke" transform="matrix(-0.706902 -0.707312 0.706902 -0.707311 -313.382 3535.26)"/>
</g>
</g>
</g>
<defs>
<path id="path0_stroke" d="M 0 -1C -0.552285 -1 -1 -0.552285 -1 0C -1 0.552285 -0.552285 1 0 1L 0 -1ZM 10.7763 0L 11.7763 0C 11.7763 -0.552285 11.3286 -1 10.7763 -1L 10.7763 0ZM 9.77633 10.7763C 9.77633 11.3286 10.224 11.7763 10.7763 11.7763C 11.3286 11.7763 11.7763 11.3286 11.7763 10.7763L 9.77633 10.7763ZM 0 1L 10.7763 1L 10.7763 -1L 0 -1L 0 1ZM 9.77633 0L 9.77633 10.7763L 11.7763 10.7763L 11.7763 0L 9.77633 0Z"/>
<path id="path1_stroke" d="M 0 -0.375C -0.207107 -0.375 -0.375 -0.207107 -0.375 0C -0.375 0.207107 -0.207107 0.375 0 0.375L 0 -0.375ZM 4.70659 0L 5.08159 0C 5.08159 -0.207107 4.9137 -0.375 4.70659 -0.375L 4.70659 0ZM 4.33159 4.99209C 4.33159 5.1992 4.49949 5.36709 4.70659 5.36709C 4.9137 5.36709 5.08159 5.1992 5.08159 4.99209L 4.33159 4.99209ZM 0 0.375L 4.70659 0.375L 4.70659 -0.375L 0 -0.375L 0 0.375ZM 4.33159 0L 4.33159 4.99209L 5.08159 4.99209L 5.08159 0L 4.33159 0Z"/>
</defs>
</svg>
