<svg width="33" height="32" viewBox="0 0 33 32" version="1.1" xmlns="http://www.w3.org/2000/svg" xmlns:xlink="http://www.w3.org/1999/xlink">
<title>Group</title>
<desc>Created using Figma</desc>
<g id="Canvas" transform="translate(251 -3636)">
<g id="Group">
<g id="XMLID 15">
<g id="XMLID 29">
<use xlink:href="#path0_fill" transform="translate(-250 3636.99)" fill="#FFFFFF"/>
<use xlink:href="#path1_stroke" transform="translate(-250 3636.99)" fill="#FFFFFF"/>
</g>
<g id="XMLID 28">
<use xlink:href="#path2_fill" transform="translate(-232.031 3649.67)" fill="#FFFFFF"/>
<use xlink:href="#path3_stroke" transform="translate(-232.031 3649.67)" fill="#FFFFFF"/>
</g>
<g id="XMLID 27">
<use xlink:href="#path4_fill" transform="translate(-238.242 3649.67)" fill="#FFFFFF"/>
<use xlink:href="#path5_stroke" transform="translate(-238.242 3649.67)" fill="#FFFFFF"/>
</g>
<g id="XMLID 24">
<use xlink:href="#path6_fill" transform="translate(-237.147 3643.39)" fill="#FFFFFF"/>
<use xlink:href="#path7_stroke" transform="translate(-237.147 3643.39)" fill="#FFFFFF"/>
</g>
<g id="XMLID 23">
<use xlink:href="#path8_fill" transform="translate(-247.642 3654.85)" fill="#FFFFFF"/>
<use xlink:href="#path9_stroke" transform="translate(-247.642 3654.85)" fill="#FFFFFF"/>
</g>
<g id="XMLID 22">
<use xlink:href="#path10_fill" transform="translate(-247.642 3651.07)" fill="#FFFFFF"/>
<use xlink:href="#path11_stroke" transform="translate(-247.642 3651.07)" fill="#FFFFFF"/>
</g>
<g id="XMLID 21">
<use xlink:href="#path12_fill" transform="translate(-247.642 3658.02)" fill="#FFFFFF"/>
<use xlink:href="#path13_stroke" transform="translate(-247.642 3658.02)" fill="#FFFFFF"/>
</g>
<g id="XMLID 20">
<use xlink:href="#path14_fill" transform="translate(-247.642 3661.7)" fill="#FFFFFF"/>
<use xlink:href="#path15_stroke" transform="translate(-247.642 3661.7)" fill="#FFFFFF"/>
</g>
<g id="XMLID 19">
<use xlink:href="#path16_fill" transform="translate(-225.388 3651.11)" fill="#FFFFFF"/>
<use xlink:href="#path17_stroke" transform="translate(-225.388 3651.11)" fill="#FFFFFF"/>
</g>
<g id="XMLID 18">
<use xlink:href="#path18_fill" transform="translate(-225.388 3654.85)" fill="#FFFFFF"/>
<use xlink:href="#path19_stroke" transform="translate(-225.388 3654.85)" fill="#FFFFFF"/>
</g>
<g id="XMLID 17">
<use xlink:href="#path20_fill" transform="translate(-225.388 3658.05)" fill="#FFFFFF"/>
<use xlink:href="#path21_stroke" transform="translate(-225.388 3658.05)" fill="#FFFFFF"/>
</g>
<g id="XMLID 16">
<use xlink:href="#path22_fill" transform="translate(-225.388 3661.8)" fill="#FFFFFF"/>
<use xlink:href="#path23_stroke" transform="translate(-225.388 3661.8)" fill="#FFFFFF"/>
</g>
</g>
</g>
</g>
<defs>
<path id="path0_fill" d="M 31.022 11.235L 31.022 10.8829C 31.022 10.4988 30.6899 10.1787 30.2913 10.1787L 23.0838 10.1787C 23.0838 7.84209 23.0838 5.40944 23.0838 5.40944C 23.0838 5.40944 22.0874 4.67325 21.3899 4.25714C 19.5964 3.16884 18.0021 1.76047 16.2417 0.608162C 16.0092 0.480128 15.3449 0 15.3449 0C 15.3449 0 14.6807 0.416111 14.4482 0.576154C 12.9203 1.53641 7.57283 5.28141 7.57283 5.28141L 7.5064 10.2107C 7.5064 10.2107 6.27748 10.2747 5.64641 10.2107C 3.71999 10.1147 1.79356 10.1787 0 10.1787C 0 14.884 0 27.2393 0 29.6079C 0 29.832 0.199285 29.992 0.39857 29.992C 3.58713 29.992 24.2131 30.024 29.7599 29.96C 30.1585 29.96 30.9224 29.2558 30.9224 28.9037C 31.022 24.0064 31.0552 16.1643 31.022 11.235ZM 7.53962 11.0429C 7.53962 11.0429 7.63926 25.7349 7.63926 28.9677C 5.24784 28.9677 2.25856 28.9997 1.12928 28.9997C 0.863568 28.9997 0.664283 28.8077 0.697497 28.5516C 0.697497 28.4876 0.697497 28.3916 0.697497 28.3596C 0.697497 24.7426 0.763926 16.4844 0.664283 12.8674C 0.631069 12.0672 0.664283 11.0429 0.664283 11.0429L 7.53962 11.0429ZM 8.53604 28.9677C 8.53604 28.7117 8.53604 28.4236 8.53604 28.1675C 8.56925 24.3905 8.50283 11.139 8.60247 7.36196C 8.60247 6.97786 8.56925 5.66551 8.56925 5.66551C 8.56925 5.66551 12.7875 2.91278 14.5478 1.76047C 14.7139 1.63244 15.3117 1.21632 15.3117 1.21632C 15.3117 1.21632 15.9096 1.66444 16.0757 1.79248C 17.5371 2.72073 18.8324 3.87303 20.3271 4.80128C 21.0246 5.21739 22.0542 5.95359 22.0542 5.95359L 22.0874 12.8034C 22.0542 16.2923 22.0874 28.9677 22.0874 28.9677C 22.0874 28.9677 13.4517 28.9677 8.53604 28.9677ZM 29.8927 14.916C 29.8927 19.1411 29.8927 23.3342 29.8927 27.5593C 29.8927 28.2635 29.9592 28.9997 28.8631 28.9997C 27.0031 28.9677 25.1431 28.9997 23.0174 28.9997C 23.0174 28.9997 23.0506 12.6114 23.0506 11.267L 29.8927 11.267C 29.8927 12.4513 29.8927 14.4999 29.8927 14.916Z"/>
<path id="path1_stroke" d="M 31.022 11.235L 30.897 11.235L 30.897 11.2358L 31.022 11.235ZM 23.0838 10.1787L 22.9588 10.1787L 22.9588 10.3037L 23.0838 10.3037L 23.0838 10.1787ZM 23.0838 5.40944L 23.2088 5.40944L 23.2088 5.34638L 23.1581 5.30891L 23.0838 5.40944ZM 21.3899 4.25714L 21.3251 4.364L 21.3259 4.36448L 21.3899 4.25714ZM 16.2417 0.608162L 16.3104 0.503272L 16.302 0.498667L 16.2417 0.608162ZM 15.3449 0L 15.4182 -0.101308L 15.3499 -0.150625L 15.2786 -0.105933L 15.3449 0ZM 14.4482 0.576154L 14.5147 0.682079L 14.519 0.679118L 14.4482 0.576154ZM 7.57283 5.28141L 7.50112 5.17902L 7.4487 5.21573L 7.44784 5.27972L 7.57283 5.28141ZM 7.5064 10.2107L 7.5129 10.3356L 7.62981 10.3295L 7.63139 10.2124L 7.5064 10.2107ZM 5.64641 10.2107L 5.65904 10.0862L 5.65263 10.0859L 5.64641 10.2107ZM 0 10.1787L 0 10.0537L -0.125 10.0537L -0.125 10.1787L 0 10.1787ZM 29.7599 29.96L 29.7599 29.835L 29.7584 29.835L 29.7599 29.96ZM 30.9224 28.9037L 30.7974 28.9012L 30.7974 28.9037L 30.9224 28.9037ZM 7.53962 11.0429L 7.66461 11.0421L 7.66377 10.9179L 7.53962 10.9179L 7.53962 11.0429ZM 7.63926 28.9677L 7.63926 29.0927L 7.76426 29.0927L 7.76426 28.9677L 7.63926 28.9677ZM 0.697497 28.5516L 0.821459 28.5677L 0.822497 28.5597L 0.822497 28.5516L 0.697497 28.5516ZM 0.664283 12.8674L 0.789248 12.864L 0.789176 12.8622L 0.664283 12.8674ZM 0.664283 11.0429L 0.664283 10.9179L 0.543271 10.9179L 0.539349 11.0389L 0.664283 11.0429ZM 8.53604 28.9677L 8.41104 28.9677L 8.41104 29.0927L 8.53604 29.0927L 8.53604 28.9677ZM 8.53604 28.1675L 8.41104 28.1664L 8.41104 28.1675L 8.53604 28.1675ZM 8.60247 7.36196L 8.72747 7.36526L 8.72747 7.36196L 8.60247 7.36196ZM 8.56925 5.66551L 8.50094 5.56083L 8.44253 5.59895L 8.44429 5.66867L 8.56925 5.66551ZM 14.5478 1.76047L 14.6165 1.86537L 14.6241 1.85946L 14.5478 1.76047ZM 15.3117 1.21632L 15.3867 1.1163L 15.3144 1.06214L 15.2403 1.11373L 15.3117 1.21632ZM 16.0757 1.79248L 15.999 1.89188L 16.0086 1.89799L 16.0757 1.79248ZM 20.3271 4.80128L 20.2611 4.90749L 20.263 4.90863L 20.3271 4.80128ZM 22.0542 5.95359L 22.1792 5.95298L 22.1789 5.88908L 22.1269 5.85191L 22.0542 5.95359ZM 22.0874 12.8034L 22.2124 12.8046L 22.2124 12.8028L 22.0874 12.8034ZM 22.0874 28.9677L 22.0874 29.0927L 22.2127 29.0927L 22.2124 28.9674L 22.0874 28.9677ZM 28.8631 28.9997L 28.861 29.1247L 28.8631 29.1247L 28.8631 28.9997ZM 23.0174 28.9997L 22.8924 28.9995L 22.8922 29.1247L 23.0174 29.1247L 23.0174 28.9997ZM 23.0506 11.267L 23.0506 11.142L 22.9256 11.142L 22.9256 11.267L 23.0506 11.267ZM 29.8927 11.267L 30.0177 11.267L 30.0177 11.142L 29.8927 11.142L 29.8927 11.267ZM 31.147 11.235L 31.147 10.8829L 30.897 10.8829L 30.897 11.235L 31.147 11.235ZM 31.147 10.8829C 31.147 10.4254 30.7545 10.0537 30.2913 10.0537L 30.2913 10.3037C 30.6252 10.3037 30.897 10.5722 30.897 10.8829L 31.147 10.8829ZM 30.2913 10.0537L 23.0838 10.0537L 23.0838 10.3037L 30.2913 10.3037L 30.2913 10.0537ZM 23.2088 10.1787C 23.2088 9.0104 23.2088 7.81808 23.2088 6.91784C 23.2088 6.46772 23.2088 6.09062 23.2088 5.82605C 23.2088 5.69377 23.2088 5.58962 23.2088 5.51853C 23.2088 5.48299 23.2088 5.45572 23.2088 5.43733C 23.2088 5.42814 23.2088 5.42117 23.2088 5.41649C 23.2088 5.41416 23.2088 5.41239 23.2088 5.41121C 23.2088 5.41063 23.2088 5.41018 23.2088 5.40989C 23.2088 5.40974 23.2088 5.40963 23.2088 5.40955C 23.2088 5.40952 23.2088 5.40949 23.2088 5.40947C 23.2088 5.40945 23.2088 5.40944 23.0838 5.40944C 22.9588 5.40944 22.9588 5.40945 22.9588 5.40947C 22.9588 5.40949 22.9588 5.40952 22.9588 5.40955C 22.9588 5.40963 22.9588 5.40974 22.9588 5.40989C 22.9588 5.41018 22.9588 5.41063 22.9588 5.41121C 22.9588 5.41239 22.9588 5.41416 22.9588 5.41649C 22.9588 5.42117 22.9588 5.42814 22.9588 5.43733C 22.9588 5.45572 22.9588 5.48299 22.9588 5.51853C 22.9588 5.58962 22.9588 5.69377 22.9588 5.82605C 22.9588 6.09062 22.9588 6.46772 22.9588 6.91784C 22.9588 7.81808 22.9588 9.0104 22.9588 10.1787L 23.2088 10.1787ZM 23.0838 5.40944C 23.1581 5.30891 23.1581 5.3089 23.1581 5.30889C 23.1581 5.30889 23.1581 5.30888 23.1581 5.30886C 23.158 5.30884 23.158 5.3088 23.1579 5.30875C 23.1578 5.30866 23.1576 5.30852 23.1573 5.30833C 23.1569 5.30797 23.1561 5.30742 23.1551 5.30671C 23.1532 5.30529 23.1503 5.30315 23.1466 5.30038C 23.139 5.29486 23.1279 5.28666 23.1135 5.27613C 23.0848 5.25513 23.0429 5.22455 22.9906 5.18666C 22.886 5.11099 22.7389 5.00543 22.5703 4.88702C 22.2332 4.65043 21.8059 4.35979 21.454 4.14979L 21.3259 4.36448C 21.6715 4.57059 22.0911 4.8561 22.4266 5.09164C 22.5942 5.2093 22.7398 5.31379 22.844 5.38916C 22.8959 5.42679 22.9373 5.45698 22.9658 5.47786C 22.9801 5.48827 22.991 5.4963 22.9984 5.50176C 23.0021 5.50449 23.0049 5.50654 23.0068 5.50793C 23.0077 5.50862 23.0084 5.50913 23.0089 5.50948C 23.0091 5.50965 23.0093 5.50978 23.0094 5.50986C 23.0095 5.5099 23.0095 5.50993 23.0095 5.50995C 23.0095 5.50996 23.0096 5.50997 23.0096 5.50997C 23.0096 5.50998 23.0096 5.50998 23.0838 5.40944ZM 21.4548 4.15027C 19.6705 3.06817 18.0779 1.66108 16.3102 0.503577L 16.1733 0.712748C 17.9263 1.85986 19.5223 3.26952 21.3251 4.364L 21.4548 4.15027ZM 16.302 0.498667C 16.1908 0.437556 15.9721 0.289105 15.7776 0.153527C 15.6805 0.0857915 15.5907 0.0221635 15.525 -0.024744C 15.4921 -0.0481622 15.4654 -0.0672901 15.4469 -0.0806296C 15.4376 -0.0872828 15.4305 -0.0924497 15.4256 -0.0959804C 15.4231 -0.0977379 15.4213 -0.0990692 15.42 -0.0999735C 15.4194 -0.100422 15.4189 -0.100755 15.4186 -0.100983C 15.4185 -0.101095 15.4184 -0.101176 15.4183 -0.101232C 15.4182 -0.101259 15.4182 -0.101278 15.4182 -0.101292C 15.4182 -0.101298 15.4182 -0.101302 15.4182 -0.101306C 15.4182 -0.101308 15.4182 -0.101308 15.3449 0C 15.2717 0.101308 15.2717 0.101312 15.2717 0.101317C 15.2717 0.101321 15.2717 0.101328 15.2718 0.101336C 15.2718 0.101351 15.2718 0.101376 15.2719 0.101407C 15.2719 0.101467 15.2721 0.10156 15.2722 0.10168C 15.2726 0.101915 15.2731 0.102272 15.2737 0.102736C 15.275 0.103656 15.2769 0.105037 15.2794 0.106827C 15.2843 0.110392 15.2916 0.115665 15.301 0.122391C 15.3197 0.135808 15.3467 0.155191 15.3798 0.178785C 15.4458 0.225903 15.5367 0.290309 15.6347 0.35861C 15.8305 0.495104 16.0602 0.650734 16.1814 0.717657L 16.302 0.498667ZM 15.3449 0C 15.2786 -0.105933 15.2786 -0.105931 15.2786 -0.105927C 15.2786 -0.105924 15.2786 -0.105918 15.2786 -0.105912C 15.2785 -0.105899 15.2785 -0.105879 15.2785 -0.105853C 15.2784 -0.105802 15.2783 -0.105724 15.2781 -0.105622C 15.2778 -0.10542 15.2773 -0.105117 15.2766 -0.104718C 15.2754 -0.103923 15.2735 -0.102736 15.271 -0.101187C 15.2661 -0.0980937 15.2588 -0.0935266 15.2495 -0.0876684C 15.2308 -0.0759639 15.2039 -0.059039 15.1709 -0.038252C 15.1049 0.00329649 15.0144 0.0604503 14.9167 0.122568C 14.7213 0.246764 14.4952 0.392054 14.3773 0.47319L 14.519 0.679118C 14.6336 0.60021 14.8559 0.457423 15.0508 0.333553C 15.1482 0.271638 15.2383 0.214762 15.3041 0.173288C 15.337 0.152564 15.3638 0.13573 15.3824 0.124053C 15.3917 0.118221 15.3989 0.113692 15.4038 0.110611C 15.4063 0.109073 15.4082 0.107904 15.4094 0.107115C 15.41 0.106722 15.4105 0.106426 15.4108 0.106227C 15.411 0.106128 15.4111 0.106054 15.4112 0.106005C 15.4112 0.10598 15.4113 0.105962 15.4113 0.10595C 15.4113 0.105944 15.4113 0.10594 15.4113 0.105937C 15.4113 0.105934 15.4113 0.105933 15.3449 0ZM 14.3816 0.470321C 13.6157 0.951767 11.8946 2.12961 10.3665 3.18606C 9.6024 3.7143 8.88602 4.21257 8.36077 4.5787C 8.09812 4.76178 7.8832 4.91187 7.73398 5.01616C 7.65936 5.06831 7.60115 5.10903 7.5616 5.13669C 7.54182 5.15053 7.5267 5.16111 7.51653 5.16823C 7.51145 5.17179 7.50759 5.17449 7.50502 5.17629C 7.50373 5.1772 7.50275 5.17788 7.5021 5.17833C 7.50178 5.17856 7.50153 5.17873 7.50137 5.17885C 7.50129 5.1789 7.50123 5.17895 7.50119 5.17898C 7.50114 5.17901 7.50112 5.17902 7.57283 5.28141C 7.64453 5.3838 7.64455 5.38378 7.64459 5.38375C 7.64463 5.38373 7.6447 5.38368 7.64478 5.38363C 7.64494 5.38351 7.64518 5.38334 7.6455 5.38312C 7.64615 5.38266 7.64712 5.38199 7.64841 5.38109C 7.65098 5.37928 7.65482 5.37659 7.6599 5.37304C 7.67006 5.36593 7.68515 5.35536 7.70492 5.34154C 7.74445 5.31388 7.80261 5.2732 7.87719 5.22107C 8.02638 5.11681 8.24117 4.96681 8.50373 4.78379C 9.02887 4.41773 9.74485 3.91974 10.5086 3.3917C 12.0362 2.33558 13.7528 1.1608 14.5147 0.681987L 14.3816 0.470321ZM 7.44784 5.27972L 7.38141 10.209L 7.63139 10.2124L 7.69782 5.28309L 7.44784 5.27972ZM 7.5064 10.2107C 7.4999 10.0859 7.4999 10.0859 7.49989 10.0859C 7.49989 10.0859 7.49988 10.0859 7.49986 10.0859C 7.49983 10.0859 7.49978 10.0859 7.49971 10.0859C 7.49957 10.0859 7.49937 10.0859 7.49908 10.0859C 7.4985 10.086 7.49766 10.086 7.49651 10.0861C 7.49419 10.0862 7.49079 10.0864 7.48626 10.0866C 7.47717 10.087 7.46383 10.0877 7.44654 10.0885C 7.41183 10.0901 7.36178 10.0923 7.29953 10.0948C 7.17479 10.0998 7.00266 10.1058 6.81047 10.1098C 6.42565 10.1177 5.96826 10.1179 5.65902 10.0864L 5.63379 10.3351C 5.95563 10.3676 6.42824 10.3677 6.81565 10.3597C 7.00957 10.3557 7.18411 10.3496 7.30952 10.3446C 7.37234 10.3421 7.42322 10.3398 7.45819 10.3382C 7.47573 10.3374 7.48941 10.3367 7.49863 10.3363C 7.50326 10.336 7.50683 10.3359 7.5092 10.3357C 7.5104 10.3357 7.51133 10.3356 7.51193 10.3356C 7.51224 10.3356 7.51249 10.3356 7.51264 10.3356C 7.51272 10.3356 7.51279 10.3356 7.51283 10.3356C 7.51285 10.3356 7.51287 10.3356 7.51288 10.3356C 7.51289 10.3356 7.5129 10.3356 7.5064 10.2107ZM 5.65263 10.0859C 3.72102 9.9897 1.79149 10.0537 0 10.0537L 0 10.3037C 1.79564 10.3037 3.71895 10.2397 5.64018 10.3356L 5.65263 10.0859ZM -0.125 10.1787C -0.125 14.884 -0.125 27.2393 -0.125 29.6079L 0.125 29.6079C 0.125 27.2393 0.125 14.884 0.125 10.1787L -0.125 10.1787ZM -0.125 29.6079C -0.125 29.9118 0.141583 30.117 0.39857 30.117L 0.39857 29.867C 0.256987 29.867 0.125 29.7521 0.125 29.6079L -0.125 29.6079ZM 0.39857 30.117C 3.58703 30.117 24.2137 30.149 29.7613 30.085L 29.7584 29.835C 24.2125 29.899 3.58723 29.867 0.39857 29.867L 0.39857 30.117ZM 29.7599 30.085C 29.8914 30.085 30.0364 30.0288 30.1708 29.9535C 30.3054 29.8778 30.4498 29.7703 30.5749 29.6562C 30.6999 29.5417 30.8176 29.4095 30.9005 29.2871C 30.9819 29.1662 31.0474 29.0302 31.0474 28.9037L 30.7974 28.9037C 30.7974 28.9533 30.7674 29.0373 30.6931 29.1474C 30.6202 29.2561 30.5221 29.366 30.4063 29.4716C 30.2906 29.5775 30.1693 29.6681 30.0486 29.7354C 29.9276 29.8032 29.8277 29.835 29.7599 29.835L 29.7599 30.085ZM 31.0474 28.9062C 31.147 24.0079 31.1802 16.1642 31.147 11.2342L 30.897 11.2358C 30.9302 16.1645 30.897 24.0049 30.7974 28.9012L 31.0474 28.9062ZM 7.53962 11.0429C 7.41462 11.0438 7.41462 11.0438 7.41462 11.044C 7.41462 11.0441 7.41462 11.0442 7.41462 11.0445C 7.41463 11.0449 7.41463 11.0456 7.41464 11.0465C 7.41465 11.0483 7.41467 11.0509 7.41469 11.0545C 7.41474 11.0615 7.41481 11.0721 7.4149 11.086C 7.41509 11.1139 7.41537 11.1554 7.41574 11.2096C 7.41647 11.318 7.41754 11.4774 7.4189 11.6814C 7.42162 12.0894 7.42552 12.676 7.43019 13.3899C 7.43953 14.8178 7.45198 16.7553 7.46444 18.7938C 7.48935 22.8708 7.51426 27.3516 7.51426 28.9677L 7.76426 28.9677C 7.76426 27.3509 7.73935 22.8694 7.71443 18.7922C 7.70198 16.7537 7.68952 14.8161 7.68018 13.3883C 7.67551 12.6743 7.67162 12.0878 7.66889 11.6797C 7.66753 11.4757 7.66646 11.3163 7.66573 11.2079C 7.66537 11.1537 7.66509 11.1122 7.6649 11.0843C 7.6648 11.0704 7.66473 11.0598 7.66468 11.0528C 7.66466 11.0492 7.66464 11.0466 7.66463 11.0448C 7.66462 11.0439 7.66462 11.0432 7.66462 11.0428C 7.66462 11.0425 7.66461 11.0424 7.66461 11.0423C 7.66461 11.0422 7.66461 11.0421 7.53962 11.0429ZM 7.63926 28.8427C 5.24717 28.8427 2.25789 28.8747 1.12928 28.8747L 1.12928 29.1247C 2.25923 29.1247 5.24851 29.0927 7.63926 29.0927L 7.63926 28.8427ZM 1.12928 28.8747C 0.924155 28.8747 0.79976 28.735 0.821459 28.5677L 0.573536 28.5355C 0.528806 28.8804 0.802982 29.1247 1.12928 29.1247L 1.12928 28.8747ZM 0.822497 28.5516C 0.822497 28.4876 0.822497 28.3916 0.822497 28.3596L 0.572497 28.3596C 0.572497 28.3916 0.572497 28.4876 0.572497 28.5516L 0.822497 28.5516ZM 0.822497 28.3596C 0.822496 24.7431 0.88892 16.4832 0.789236 12.864L 0.539331 12.8709C 0.638932 16.4856 0.572498 24.7421 0.572497 28.3596L 0.822497 28.3596ZM 0.789176 12.8622C 0.772649 12.4647 0.772674 12.0119 0.776819 11.6566C 0.778888 11.4791 0.781987 11.3268 0.784577 11.2185C 0.785869 11.1644 0.787029 11.1216 0.78787 11.0921C 0.788289 11.0774 0.788626 11.0661 0.78886 11.0585C 0.788976 11.0547 0.789066 11.0518 0.789127 11.0498C 0.789157 11.0489 0.78918 11.0482 0.789195 11.0477C 0.789203 11.0474 0.789209 11.0473 0.789212 11.0472C 0.789214 11.0471 0.789216 11.0471 0.789217 11.047C 0.789217 11.047 0.789217 11.047 0.789217 11.047C 0.789218 11.047 0.789218 11.047 0.664283 11.0429C 0.539349 11.0389 0.539349 11.0389 0.539348 11.0389C 0.539348 11.0389 0.539348 11.0389 0.539347 11.039C 0.539346 11.039 0.539344 11.039 0.539342 11.0391C 0.539338 11.0392 0.539331 11.0394 0.539323 11.0397C 0.539307 11.0402 0.539283 11.041 0.539251 11.042C 0.539189 11.044 0.539095 11.0469 0.538977 11.0508C 0.53874 11.0586 0.538396 11.0701 0.537972 11.085C 0.537126 11.1146 0.535951 11.158 0.534648 11.2125C 0.532048 11.3213 0.52892 11.4751 0.526836 11.6537C 0.522678 12.0105 0.522703 12.4699 0.539391 12.8726L 0.789176 12.8622ZM 0.664283 11.1679L 7.53962 11.1679L 7.53962 10.9179L 0.664283 10.9179L 0.664283 11.1679ZM 8.66104 28.9677C 8.66104 28.7117 8.66104 28.4236 8.66104 28.1675L 8.41104 28.1675C 8.41104 28.4236 8.41104 28.7117 8.41104 28.9677L 8.66104 28.9677ZM 8.66104 28.1686C 8.69425 24.3907 8.62782 11.1403 8.72742 7.36526L 8.47751 7.35867C 8.37783 11.1376 8.44425 24.3903 8.41105 28.1664L 8.66104 28.1686ZM 8.72747 7.36196C 8.72746 7.16869 8.71914 6.7432 8.71083 6.36694C 8.70668 6.1788 8.70252 6.00262 8.69941 5.87355C 8.69785 5.80901 8.69655 5.7562 8.69564 5.71955C 8.69519 5.70122 8.69483 5.68692 8.69459 5.67721C 8.69447 5.67235 8.69437 5.66864 8.69431 5.66614C 8.69428 5.66489 8.69425 5.66394 8.69424 5.66331C 8.69423 5.66299 8.69422 5.66275 8.69422 5.66259C 8.69422 5.66251 8.69422 5.66245 8.69422 5.66241C 8.69421 5.66239 8.69421 5.66237 8.69421 5.66236C 8.69421 5.66235 8.69421 5.66235 8.56925 5.66551C 8.44429 5.66867 8.44429 5.66868 8.44429 5.66869C 8.44429 5.6687 8.44429 5.66871 8.4443 5.66873C 8.4443 5.66877 8.4443 5.66883 8.4443 5.66891C 8.4443 5.66907 8.44431 5.6693 8.44432 5.66962C 8.44433 5.67025 8.44436 5.67119 8.44439 5.67243C 8.44445 5.67493 8.44454 5.67863 8.44467 5.68348C 8.44491 5.69318 8.44527 5.70744 8.44572 5.72575C 8.44663 5.76237 8.44792 5.81509 8.44948 5.87958C 8.45259 6.00858 8.45674 6.1845 8.46089 6.37246C 8.46919 6.7484 8.47747 7.17114 8.47747 7.36196L 8.72747 7.36196ZM 8.56925 5.66551C 8.63757 5.77019 8.63758 5.77018 8.63762 5.77016C 8.63765 5.77014 8.6377 5.77011 8.63776 5.77007C 8.63789 5.76998 8.63808 5.76986 8.63834 5.76969C 8.63885 5.76936 8.63962 5.76886 8.64063 5.76819C 8.64267 5.76687 8.64571 5.76488 8.64972 5.76226C 8.65776 5.75702 8.66971 5.74922 8.68537 5.739C 8.7167 5.71855 8.76287 5.68842 8.82226 5.64966C 8.94104 5.57214 9.11269 5.4601 9.32418 5.32207C 9.74714 5.04599 10.3294 4.66588 10.9667 4.24977C 12.2413 3.41754 13.736 2.44124 14.6163 1.86505L 14.4793 1.65588C 13.5992 2.232 12.1046 3.20822 10.8301 4.04044C 10.1928 4.45655 9.61049 4.83664 9.18753 5.11272C 8.97605 5.25075 8.8044 5.36278 8.68563 5.4403C 8.62624 5.47906 8.58006 5.50919 8.54874 5.52963C 8.53308 5.53986 8.52113 5.54765 8.51309 5.5529C 8.50908 5.55552 8.50604 5.5575 8.504 5.55883C 8.50299 5.55949 8.50222 5.55999 8.50171 5.56033C 8.50145 5.56049 8.50126 5.56062 8.50113 5.5607C 8.50107 5.56075 8.50102 5.56078 8.50099 5.5608C 8.50096 5.56082 8.50094 5.56083 8.56925 5.66551ZM 14.6241 1.85946C 14.7053 1.79687 14.8941 1.6624 15.0641 1.54254C 15.149 1.48263 15.2288 1.42675 15.2874 1.38578C 15.3166 1.3653 15.3406 1.34859 15.3572 1.33698C 15.3655 1.33118 15.372 1.32666 15.3764 1.32359C 15.3786 1.32206 15.3803 1.32089 15.3814 1.3201C 15.382 1.31971 15.3824 1.31941 15.3827 1.31921C 15.3829 1.31912 15.383 1.31904 15.383 1.31899C 15.3831 1.31897 15.3831 1.31895 15.3831 1.31894C 15.3831 1.31893 15.3831 1.31893 15.3831 1.31892C 15.3831 1.31892 15.3831 1.31892 15.3117 1.21632C 15.2403 1.11373 15.2403 1.11373 15.2403 1.11373C 15.2403 1.11374 15.2403 1.11374 15.2403 1.11375C 15.2403 1.11376 15.2402 1.11378 15.2402 1.11381C 15.2401 1.11386 15.24 1.11394 15.2399 1.11404C 15.2396 1.11424 15.2392 1.11454 15.2386 1.11494C 15.2374 1.11574 15.2357 1.11692 15.2335 1.11847C 15.2291 1.12155 15.2226 1.1261 15.2142 1.13193C 15.1975 1.14357 15.1734 1.16037 15.1441 1.18091C 15.0854 1.22195 15.0053 1.27811 14.92 1.33823C 14.7495 1.45843 14.5564 1.59603 14.4715 1.66147L 14.6241 1.85946ZM 15.3117 1.21632C 15.2368 1.31635 15.2368 1.31635 15.2368 1.31635C 15.2368 1.31635 15.2368 1.31636 15.2368 1.31637C 15.2368 1.31638 15.2368 1.3164 15.2369 1.31643C 15.2369 1.31648 15.237 1.31656 15.2372 1.31667C 15.2375 1.31688 15.2379 1.31721 15.2385 1.31763C 15.2396 1.31848 15.2413 1.31975 15.2435 1.3214C 15.2479 1.32471 15.2544 1.32958 15.2627 1.33583C 15.2794 1.34833 15.3034 1.36632 15.3327 1.38832C 15.3913 1.43232 15.4712 1.4923 15.5563 1.55628C 15.7264 1.68427 15.9168 1.82786 15.9993 1.89147L 16.152 1.69348C 16.0684 1.62906 15.8768 1.48457 15.7066 1.35649C 15.6214 1.29245 15.5414 1.23239 15.4828 1.18837C 15.4534 1.16635 15.4294 1.14833 15.4127 1.13583C 15.4044 1.12957 15.3979 1.12469 15.3935 1.12138C 15.3913 1.11972 15.3896 1.11845 15.3884 1.1176C 15.3879 1.11717 15.3874 1.11685 15.3871 1.11663C 15.387 1.11652 15.3869 1.11644 15.3868 1.11639C 15.3868 1.11636 15.3867 1.11634 15.3867 1.11632C 15.3867 1.11632 15.3867 1.11631 15.3867 1.11631C 15.3867 1.1163 15.3867 1.1163 15.3117 1.21632ZM 16.0086 1.89799C 17.4618 2.8205 18.7576 3.97319 20.2611 4.90747L 20.393 4.69509C 18.9072 3.77287 17.6124 2.62095 16.1427 1.68696L 16.0086 1.89799ZM 20.263 4.90863C 20.6091 5.11503 21.0376 5.40097 21.3816 5.6366C 21.5534 5.75432 21.7033 5.85892 21.8105 5.93432C 21.8641 5.97197 21.9068 6.00219 21.9363 6.02309C 21.951 6.03351 21.9623 6.04155 21.9699 6.04703C 21.9738 6.04975 21.9767 6.05181 21.9786 6.05321C 21.9796 6.0539 21.9803 6.05441 21.9808 6.05476C 21.981 6.05494 21.9812 6.05506 21.9813 6.05515C 21.9814 6.05519 21.9814 6.05522 21.9815 6.05524C 21.9815 6.05525 21.9815 6.05526 21.9815 6.05526C 21.9815 6.05527 21.9815 6.05527 22.0542 5.95359C 22.1269 5.85191 22.1269 5.8519 22.1269 5.85189C 22.1269 5.85189 22.1269 5.85188 22.1269 5.85186C 22.1268 5.85184 22.1268 5.8518 22.1267 5.85176C 22.1266 5.85166 22.1264 5.85152 22.1261 5.85134C 22.1256 5.85098 22.1248 5.85043 22.1238 5.84972C 22.1219 5.8483 22.1189 5.84618 22.115 5.84341C 22.1073 5.83789 22.0958 5.82971 22.0809 5.8192C 22.0513 5.7982 22.0082 5.76766 21.9543 5.72979C 21.8467 5.65415 21.6956 5.54869 21.5228 5.43035C 21.1776 5.19386 20.7425 4.90364 20.3911 4.69393L 20.263 4.90863ZM 21.9292 5.95419L 21.9624 12.804L 22.2124 12.8028L 22.1792 5.95298L 21.9292 5.95419ZM 21.9624 12.8022C 21.9458 14.5473 21.9458 18.589 21.95 22.1941C 21.952 23.9966 21.9552 25.6901 21.9577 26.9329C 21.959 27.5544 21.9602 28.0632 21.9611 28.4166C 21.9615 28.5933 21.9618 28.7311 21.9621 28.8248C 21.9622 28.8717 21.9623 28.9075 21.9623 28.9316C 21.9624 28.9436 21.9624 28.9527 21.9624 28.9588C 21.9624 28.9619 21.9624 28.9642 21.9624 28.9657C 21.9624 28.9665 21.9624 28.9671 21.9624 28.9675C 21.9624 28.9677 21.9624 28.9678 21.9624 28.9679C 21.9624 28.968 21.9624 28.9681 22.0874 28.9677C 22.2124 28.9674 22.2124 28.9673 22.2124 28.9673C 22.2124 28.9672 22.2124 28.967 22.2124 28.9668C 22.2124 28.9664 22.2124 28.9659 22.2124 28.9651C 22.2124 28.9636 22.2124 28.9613 22.2124 28.9582C 22.2124 28.9521 22.2124 28.943 22.2123 28.9309C 22.2123 28.9068 22.2122 28.871 22.2121 28.8242C 22.2118 28.7305 22.2115 28.5927 22.2111 28.416C 22.2102 28.0626 22.209 27.5538 22.2077 26.9324C 22.2052 25.6896 22.202 23.9962 22.2 22.1938C 22.1958 18.5889 22.1958 14.5485 22.2124 12.8046L 21.9624 12.8022ZM 22.0874 28.9677C 22.0874 28.8427 22.0874 28.8427 22.0873 28.8427C 22.0873 28.8427 22.0872 28.8427 22.087 28.8427C 22.0868 28.8427 22.0864 28.8427 22.0858 28.8427C 22.0848 28.8427 22.0832 28.8427 22.0811 28.8427C 22.077 28.8427 22.0707 28.8427 22.0625 28.8427C 22.046 28.8427 22.0215 28.8427 21.9892 28.8427C 21.9248 28.8427 21.8296 28.8427 21.7068 28.8427C 21.461 28.8427 21.1045 28.8427 20.6613 28.8427C 19.7749 28.8427 18.5418 28.8427 17.1551 28.8427C 14.3817 28.8427 10.9939 28.8427 8.53604 28.8427L 8.53604 29.0927C 10.9939 29.0927 14.3817 29.0927 17.1551 29.0927C 18.5418 29.0927 19.7749 29.0927 20.6613 29.0927C 21.1045 29.0927 21.461 29.0927 21.7068 29.0927C 21.8296 29.0927 21.9248 29.0927 21.9892 29.0927C 22.0215 29.0927 22.046 29.0927 22.0625 29.0927C 22.0707 29.0927 22.077 29.0927 22.0811 29.0927C 22.0832 29.0927 22.0848 29.0927 22.0858 29.0927C 22.0864 29.0927 22.0868 29.0927 22.087 29.0927C 22.0872 29.0927 22.0873 29.0927 22.0873 29.0927C 22.0874 29.0927 22.0874 29.0927 22.0874 28.9677ZM 29.7677 14.916C 29.7677 19.1411 29.7677 23.3342 29.7677 27.5593L 30.0177 27.5593C 30.0177 23.3342 30.0177 19.1411 30.0177 14.916L 29.7677 14.916ZM 29.7677 27.5593C 29.7677 27.9267 29.7815 28.2516 29.6746 28.493C 29.6225 28.6139 29.555 28.6971 29.4269 28.7638C 29.3031 28.8307 29.1242 28.8747 28.8631 28.8747L 28.8631 29.1247C 29.15 29.1247 29.3738 29.0767 29.5459 28.9836C 29.7136 28.8903 29.835 28.7454 29.9033 28.5942C 30.0372 28.2915 30.0177 27.8962 30.0177 27.5593L 29.7677 27.5593ZM 28.8653 28.8748C 27.0031 28.8427 25.142 28.8747 23.0174 28.8747L 23.0174 29.1247C 25.1442 29.1247 27.0031 29.0927 28.861 29.1247L 28.8653 28.8748ZM 23.0174 28.9997C 23.1424 29 23.1424 28.9999 23.1424 28.9998C 23.1424 28.9997 23.1424 28.9995 23.1424 28.9992C 23.1424 28.9987 23.1424 28.998 23.1424 28.997C 23.1424 28.995 23.1424 28.992 23.1424 28.9881C 23.1425 28.9802 23.1425 28.9685 23.1425 28.9529C 23.1426 28.9219 23.1427 28.8758 23.1428 28.8156C 23.143 28.6952 23.1434 28.5185 23.1438 28.2932C 23.1448 27.8424 23.146 27.197 23.1476 26.4183C 23.1507 24.8609 23.1549 22.7703 23.159 20.6377C 23.1673 16.3726 23.1756 11.9393 23.1756 11.267L 22.9256 11.267C 22.9256 11.9391 22.9173 16.3721 22.909 20.6373C 22.9049 22.7698 22.9007 24.8604 22.8976 26.4178C 22.896 27.1965 22.8948 27.8419 22.8938 28.2927C 22.8934 28.518 22.893 28.6947 22.8928 28.8151C 22.8927 28.8753 22.8926 28.9214 22.8925 28.9524C 22.8925 28.968 22.8925 28.9797 22.8924 28.9876C 22.8924 28.9915 22.8924 28.9945 22.8924 28.9965C 22.8924 28.9975 22.8924 28.9982 22.8924 28.9987C 22.8924 28.999 22.8924 28.9992 22.8924 28.9993C 22.8924 28.9994 22.8924 28.9995 23.0174 28.9997ZM 23.0506 11.392L 29.8927 11.392L 29.8927 11.142L 23.0506 11.142L 23.0506 11.392ZM 29.7677 11.267C 29.7677 12.4513 29.7677 14.4999 29.7677 14.916L 30.0177 14.916C 30.0177 14.4999 30.0177 12.4513 30.0177 11.267L 29.7677 11.267Z"/>
<path id="path2_fill" d="M 0.431785 -4.88412e-07C 0.199285 -4.88412e-07 -5.06808e-07 0.0960254 -5.06808e-07 0.22406L -5.06808e-07 14.4679C -5.06808e-07 14.5959 0.199285 14.6919 0.431785 14.6919C 0.664284 14.6919 0.863569 14.5959 0.863569 14.4679L 0.863569 0.22406C 0.863569 0.0960254 0.664284 -4.88412e-07 0.431785 -4.88412e-07Z"/>
<path id="path3_stroke" d="M 0.863569 0.22406L 0.738569 0.22406L 0.863569 0.22406ZM 0.431785 -0.125C 0.301885 -0.124253 0.165418 -0.0936658 0.0721611 -0.0474633C -0.0216257 0.000106325 -0.125001 0.0887984 -0.125001 0.22406L 0.124999 0.22406C 0.124999 0.231286 0.121268 0.207949 0.185249 0.175497C 0.249759 0.141678 0.329185 0.124252 0.431785 0.125L 0.431785 -0.125ZM -0.125001 0.22406L -0.125001 14.4679L 0.124999 14.4679L 0.124999 0.22406L -0.125001 0.22406ZM -0.125001 14.4679C -0.125001 14.6031 -0.0216254 14.6918 0.0721614 14.7394C 0.165419 14.7856 0.301886 14.8162 0.431785 14.8169L 0.431785 14.5669C 0.329185 14.5677 0.249759 14.5502 0.185248 14.5164C 0.121267 14.484 0.124999 14.4606 0.124999 14.4679L -0.125001 14.4679ZM 0.431785 14.8169C 0.561684 14.8162 0.69815 14.7856 0.791407 14.7394C 0.885194 14.6918 0.988569 14.6031 0.988569 14.4679L 0.738569 14.4679C 0.738569 14.4606 0.7423 14.484 0.67832 14.5164C 0.61381 14.5502 0.534385 14.5677 0.431785 14.5669L 0.431785 14.8169ZM 0.988569 14.4679L 0.988569 0.22406L 0.738569 0.22406L 0.738569 14.4679L 0.988569 14.4679ZM 0.988569 0.22406C 0.988569 0.0887987 0.885195 0.000106595 0.791408 -0.0474632C 0.698151 -0.0936658 0.561684 -0.124253 0.431785 -0.125L 0.431785 0.125C 0.534384 0.124252 0.61381 0.141678 0.67832 0.175497C 0.7423 0.207948 0.738569 0.231286 0.738569 0.22406L 0.988569 0.22406Z"/>
<path id="path4_fill" d="M 0.431784 -4.88412e-07C 0.39857 -4.88412e-07 0.365356 -4.88412e-07 0.332142 -4.88412e-07C 0.298928 -4.88412e-07 0.298928 -4.88412e-07 0.265714 -4.88412e-07C 0.166071 -4.88412e-07 0.099642 0.0640171 0.0664278 0.128034C 0.0332137 0.160043 5.06808e-07 0.192051 5.06808e-07 0.22406L 5.06808e-07 14.4679C 5.06808e-07 14.4999 0.0332137 14.5319 0.0664278 14.5639C 0.099642 14.6279 0.166071 14.6919 0.265714 14.6919C 0.298928 14.6919 0.39857 14.6919 0.431784 14.6919C 0.664284 14.6919 0.863568 14.5959 0.863568 14.4679L 0.863568 0.22406C 0.863568 0.0960254 0.664284 -4.88412e-07 0.431784 -4.88412e-07Z"/>
<path id="path5_stroke" d="M 0.0664278 0.128034L 0.153168 0.218041L 0.167937 0.203808L 0.177383 0.185601L 0.0664278 0.128034ZM 0.0664278 14.5639L 0.177383 14.5063L 0.167937 14.4881L 0.153168 14.4739L 0.0664278 14.5639ZM 0.431784 -0.125C 0.39857 -0.125 0.365356 -0.125 0.332142 -0.125L 0.332142 0.125C 0.365356 0.125 0.39857 0.125 0.431784 0.125L 0.431784 -0.125ZM 0.332142 -0.125C 0.298928 -0.125 0.298928 -0.125 0.265714 -0.125L 0.265714 0.125C 0.298928 0.125 0.298928 0.125 0.332142 0.125L 0.332142 -0.125ZM 0.265714 -0.125C 0.10488 -0.125 0.00255667 -0.0202826 -0.0445272 0.070467L 0.177383 0.185601C 0.196727 0.148317 0.227262 0.125 0.265714 0.125L 0.265714 -0.125ZM -0.0203119 0.0380273C -0.0369192 0.0540319 -0.0597157 0.0764418 -0.0778882 0.0992761C -0.0956686 0.122123 -0.124999 0.165784 -0.124999 0.22406L 0.125001 0.22406C 0.125001 0.237971 0.121362 0.247687 0.11953 0.251724C 0.117831 0.255466 0.116955 0.255966 0.119406 0.252818C 0.121734 0.249827 0.125541 0.245466 0.131635 0.239202C 0.138001 0.232634 0.144864 0.226043 0.153168 0.218041L -0.0203119 0.0380273ZM -0.124999 0.22406L -0.124999 14.4679L 0.125001 14.4679L 0.125001 0.22406L -0.124999 0.22406ZM -0.124999 14.4679C -0.124999 14.5261 -0.0956681 14.5698 -0.0778875 14.5926C -0.0597149 14.6155 -0.0369188 14.6379 -0.0203119 14.6539L 0.153168 14.4739C 0.144864 14.4659 0.138001 14.4593 0.131634 14.4527C 0.12554 14.4465 0.121733 14.4421 0.119405 14.4391C 0.116955 14.436 0.117831 14.4365 0.119529 14.4402C 0.121362 14.4442 0.125001 14.4539 0.125001 14.4679L -0.124999 14.4679ZM -0.0445272 14.6215C 0.00255667 14.7122 0.10488 14.8169 0.265714 14.8169L 0.265714 14.5669C 0.227262 14.5669 0.196727 14.5436 0.177383 14.5063L -0.0445272 14.6215ZM 0.265714 14.8169C 0.298928 14.8169 0.39857 14.8169 0.431784 14.8169L 0.431784 14.5669C 0.39857 14.5669 0.298928 14.5669 0.265714 14.5669L 0.265714 14.8169ZM 0.431784 14.8169C 0.561684 14.8162 0.69815 14.7856 0.791407 14.7394C 0.885194 14.6918 0.988568 14.6031 0.988568 14.4679L 0.738568 14.4679C 0.738568 14.4606 0.7423 14.484 0.67832 14.5164C 0.61381 14.5502 0.534384 14.5677 0.431784 14.5669L 0.431784 14.8169ZM 0.988568 14.4679L 0.988568 0.22406L 0.738568 0.22406L 0.738568 14.4679L 0.988568 14.4679ZM 0.988568 0.22406C 0.988568 0.0887988 0.885194 0.000106613 0.791408 -0.0474632C 0.698151 -0.0936658 0.561684 -0.124253 0.431784 -0.125L 0.431784 0.125C 0.534384 0.124252 0.613809 0.141678 0.678319 0.175497C 0.7423 0.207948 0.738568 0.231286 0.738568 0.22406L 0.988568 0.22406Z"/>
<path id="path6_fill" d="M 2.52501 0.00075266C 1.06359 -0.0312559 -0.0324788 0.961008 0.000735367 2.33738C 0.0339495 3.64973 1.03037 4.60998 2.42537 4.60998C 3.78715 4.60998 4.81679 3.64973 4.85 2.33738C 4.91643 1.05703 3.92001 0.0327612 2.52501 0.00075266ZM 3.32215 3.1696C 2.99001 3.42567 2.7243 3.61772 2.42537 3.61772C 2.0268 3.64973 1.22966 2.8175 1.22966 2.33738C 1.22966 1.85725 1.92716 0.993017 2.35894 0.993017C 2.65787 0.993017 2.92358 1.15306 3.28894 1.37712C 3.88679 1.82524 3.92001 2.72148 3.32215 3.1696Z"/>
<path id="path7_stroke" d="M 2.52501 0.00075266L 2.52788 -0.124215L 2.52775 -0.124217L 2.52501 0.00075266ZM 0.000735367 2.33738L -0.124228 2.34039L -0.124225 2.34054L 0.000735367 2.33738ZM 4.85 2.33738L 4.72513 2.3309L 4.72504 2.33421L 4.85 2.33738ZM 3.32215 3.1696L 3.24717 3.06957L 3.24583 3.0706L 3.32215 3.1696ZM 2.42537 3.61772L 2.42537 3.49231L 2.41536 3.49312L 2.42537 3.61772ZM 3.28894 1.37712L 3.36423 1.27666L 3.35429 1.27056L 3.28894 1.37712ZM 2.52775 -0.124217C 1.00564 -0.157555 -0.159408 0.882587 -0.124228 2.34039L 0.125699 2.33436C 0.09445 1.03943 1.12154 0.0950433 2.52227 0.125723L 2.52775 -0.124217ZM -0.124225 2.34054C -0.0892037 3.72428 0.966237 4.73498 2.42537 4.73498L 2.42537 4.48498C 1.09451 4.48498 0.157103 3.57517 0.125695 2.33421L -0.124225 2.34054ZM 2.42537 4.73498C 3.85014 4.73498 4.93991 3.72538 4.97496 2.34054L 4.72504 2.33421C 4.69366 3.57407 3.72416 4.48498 2.42537 4.48498L 2.42537 4.73498ZM 4.97484 2.34385C 5.0453 0.985752 3.98566 -0.0907652 2.52788 -0.124214L 2.52214 0.12572C 3.85435 0.156288 4.78757 1.12832 4.72517 2.3309L 4.97484 2.34385ZM 3.24583 3.0706C 2.90503 3.33334 2.67392 3.49272 2.42537 3.49272L 2.42537 3.74272C 2.77467 3.74272 3.07499 3.51799 3.39847 3.26859L 3.24583 3.0706ZM 2.41536 3.49312C 2.3564 3.49785 2.26037 3.46934 2.13622 3.39243C 2.01312 3.31656 1.88859 3.21091 1.76898 3.08382C 1.64893 2.95683 1.54605 2.82117 1.46959 2.68356C 1.39308 2.5465 1.35466 2.42653 1.35466 2.33738L 1.10466 2.33738C 1.10466 2.48829 1.16588 2.65239 1.25129 2.80541C 1.33675 2.95788 1.45807 3.1183 1.58712 3.25537C 1.71661 3.39236 1.8661 3.51877 2.00456 3.60495C 2.14197 3.69008 2.29505 3.75359 2.43538 3.74232L 2.41536 3.49312ZM 1.35466 2.33738C 1.35466 2.14245 1.5051 1.83515 1.7287 1.56482C 1.83823 1.43209 1.95374 1.32053 2.07215 1.23787C 2.19016 1.15502 2.28894 1.11802 2.35894 1.11802L 2.35894 0.868017C 2.21305 0.868017 2.06272 0.939039 1.92851 1.03325C 1.79471 1.12763 1.65488 1.26214 1.53606 1.40548C 1.30296 1.6873 1.10466 2.05218 1.10466 2.33738L 1.35466 2.33738ZM 2.35894 1.11802C 2.61565 1.11802 2.84951 1.25427 3.22359 1.48368L 3.35429 1.27056C 2.99765 1.05185 2.70008 0.868017 2.35894 0.868017L 2.35894 1.11802ZM 3.21397 1.47714C 3.75066 1.87942 3.77289 2.67553 3.24718 3.06958L 3.39712 3.26962C 4.06712 2.76742 4.02293 1.77106 3.36391 1.2771L 3.21397 1.47714Z"/>
<path id="path8_fill" d="M 0.0332141 0.416111C 0.0664283 0.512136 0.166071 0.544145 0.232499 0.544145L 3.35463 0.544145C 3.45427 0.544145 3.5207 0.480128 3.55392 0.416111C 3.58713 0.384102 3.58713 0.352094 3.58713 0.288077C 3.58713 0.128034 3.48749 -2.44206e-07 3.35463 -2.44206e-07L 0.232499 -2.44206e-07C 0.0996425 -2.44206e-07 -3.16755e-08 0.128034 -3.16755e-08 0.288077C -3.16755e-08 0.352094 -6.43409e-08 0.384102 0.0332141 0.416111Z"/>
<path id="path9_stroke" d="M 0.0332141 0.416111L 0.151347 0.37525L 0.141545 0.346911L 0.119954 0.326104L 0.0332141 0.416111ZM 3.55392 0.416111L 3.46718 0.326104L 3.45241 0.340337L 3.44296 0.358543L 3.55392 0.416111ZM -0.0849188 0.456971C -0.0265523 0.625715 0.141095 0.669145 0.232499 0.669145L 0.232499 0.419145C 0.217121 0.419145 0.196341 0.415007 0.179401 0.405938C 0.164306 0.397856 0.15581 0.388152 0.151347 0.37525L -0.0849188 0.456971ZM 0.232499 0.669145L 3.35463 0.669145L 3.35463 0.419145L 0.232499 0.419145L 0.232499 0.669145ZM 3.35463 0.669145C 3.51547 0.669145 3.61779 0.564426 3.66487 0.473678L 3.44296 0.358543C 3.42362 0.395829 3.39308 0.419145 3.35463 0.419145L 3.35463 0.669145ZM 3.64065 0.506117C 3.67069 0.47488 3.6966 0.425979 3.70537 0.389498C 3.71148 0.356859 3.71213 0.320086 3.71213 0.288077L 3.46213 0.288077C 3.46213 0.304081 3.46216 0.315492 3.46172 0.325404C 3.46134 0.334554 3.46072 0.33804 3.46059 0.338696C 3.46039 0.33992 3.4611 0.336682 3.46124 0.336556C 3.46177 0.335068 3.46253 0.333291 3.46356 0.331418C 3.46579 0.327362 3.46776 0.32554 3.46718 0.326104L 3.64065 0.506117ZM 3.71213 0.288077C 3.71213 0.0867553 3.58134 -0.125 3.35463 -0.125L 3.35463 0.125C 3.39364 0.125 3.46213 0.169313 3.46213 0.288077L 3.71213 0.288077ZM 3.35463 -0.125L 0.232499 -0.125L 0.232499 0.125L 3.35463 0.125L 3.35463 -0.125ZM 0.232499 -0.125C 0.0057914 -0.125 -0.125 0.086755 -0.125 0.288077L 0.125 0.288077C 0.125 0.169314 0.193494 0.125 0.232499 0.125L 0.232499 -0.125ZM -0.125 0.288077C -0.125 0.320086 -0.124346 0.356859 -0.11824 0.389498C -0.109473 0.425979 -0.0835621 0.47488 -0.0535256 0.506117L 0.119954 0.326104C 0.119369 0.32554 0.121341 0.327362 0.123569 0.331418C 0.124598 0.333291 0.125364 0.335068 0.125893 0.336557C 0.12603 0.336682 0.126736 0.33992 0.126544 0.338696C 0.126408 0.33804 0.125791 0.334554 0.125411 0.325404C 0.124973 0.315493 0.125 0.304081 0.125 0.288077L -0.125 0.288077Z"/>
<path id="path10_fill" d="M 0.232499 0.576153L 3.35463 0.576153C 3.48749 0.576153 3.58713 0.44812 3.58713 0.288077C 3.58713 0.128035 3.48749 0 3.35463 0L 0.232499 0C 0.0996425 0 -3.16755e-08 0.128035 -3.16755e-08 0.288077C -3.16755e-08 0.44812 0.0996425 0.576153 0.232499 0.576153Z"/>
<path id="path11_stroke" d="M 0.232499 0.701153L 3.35463 0.701153L 3.35463 0.451153L 0.232499 0.451153L 0.232499 0.701153ZM 3.35463 0.701153C 3.58134 0.701153 3.71213 0.4894 3.71213 0.288077L 3.46213 0.288077C 3.46213 0.40684 3.39364 0.451153 3.35463 0.451153L 3.35463 0.701153ZM 3.71213 0.288077C 3.71213 0.0867556 3.58134 -0.125 3.35463 -0.125L 3.35463 0.125C 3.39364 0.125 3.46213 0.169314 3.46213 0.288077L 3.71213 0.288077ZM 3.35463 -0.125L 0.232499 -0.125L 0.232499 0.125L 3.35463 0.125L 3.35463 -0.125ZM 0.232499 -0.125C 0.0057914 -0.125 -0.125 0.0867552 -0.125 0.288077L 0.125 0.288077C 0.125 0.169314 0.193494 0.125 0.232499 0.125L 0.232499 -0.125ZM -0.125 0.288077C -0.125 0.4894 0.00579199 0.701153 0.232499 0.701153L 0.232499 0.451153C 0.193493 0.451153 0.125 0.40684 0.125 0.288077L -0.125 0.288077Z"/>
<path id="path12_fill" d="M 0.232499 0.576154L 3.35463 0.576154C 3.48749 0.576154 3.58713 0.448119 3.58713 0.288076C 3.58713 0.128034 3.48749 -9.76823e-07 3.35463 -9.76823e-07L 0.232499 -9.76823e-07C 0.0996425 -9.76823e-07 -3.16755e-08 0.128034 -3.16755e-08 0.288076C -3.16755e-08 0.448119 0.0996425 0.576154 0.232499 0.576154Z"/>
<path id="path13_stroke" d="M 0.232499 0.701154L 3.35463 0.701154L 3.35463 0.451154L 0.232499 0.451154L 0.232499 0.701154ZM 3.35463 0.701154C 3.58134 0.701154 3.71213 0.489398 3.71213 0.288076L 3.46213 0.288076C 3.46213 0.40684 3.39364 0.451154 3.35463 0.451154L 3.35463 0.701154ZM 3.71213 0.288076C 3.71213 0.0867546 3.58134 -0.125001 3.35463 -0.125001L 3.35463 0.124999C 3.39364 0.124999 3.46213 0.169313 3.46213 0.288076L 3.71213 0.288076ZM 3.35463 -0.125001L 0.232499 -0.125001L 0.232499 0.124999L 3.35463 0.124999L 3.35463 -0.125001ZM 0.232499 -0.125001C 0.00579139 -0.125001 -0.125 0.0867542 -0.125 0.288076L 0.125 0.288076C 0.125 0.169313 0.193494 0.124999 0.232499 0.124999L 0.232499 -0.125001ZM -0.125 0.288076C -0.125 0.489398 0.00579141 0.701154 0.232499 0.701154L 0.232499 0.451154C 0.193494 0.451154 0.125 0.40684 0.125 0.288076L -0.125 0.288076Z"/>
<path id="path14_fill" d="M 0.232499 0.576154L 3.35463 0.576154C 3.48749 0.576154 3.58713 0.480129 3.58713 0.352095C 3.58713 0.352095 3.58713 0.352093 3.58713 0.320084C 3.58713 0.320084 3.58713 0.320085 3.58713 0.288076C 3.58713 0.128034 3.48749 -9.76823e-07 3.35463 -9.76823e-07L 0.232499 -9.76823e-07C 0.0996425 -9.76823e-07 -3.16755e-08 0.128034 -3.16755e-08 0.288076C -3.16755e-08 0.288076 -3.16755e-08 0.288076 -3.16755e-08 0.320084C -3.16755e-08 0.320084 -3.16755e-08 0.320086 -3.16755e-08 0.352095C -3.16755e-08 0.448121 0.0996425 0.576154 0.232499 0.576154Z"/>
<path id="path15_stroke" d="M 0.232499 0.701154L 3.35463 0.701154L 3.35463 0.451154L 0.232499 0.451154L 0.232499 0.701154ZM 3.35463 0.701154C 3.55213 0.701154 3.71213 0.553481 3.71213 0.352095L 3.46213 0.352095C 3.46213 0.406777 3.42285 0.451154 3.35463 0.451154L 3.35463 0.701154ZM 3.58713 0.352095C 3.71213 0.352095 3.71213 0.352095 3.71213 0.352095C 3.71213 0.352095 3.71213 0.352095 3.71213 0.352095C 3.71213 0.352095 3.71213 0.352095 3.71213 0.352095C 3.71213 0.352095 3.71213 0.352094 3.71213 0.352094C 3.71213 0.352093 3.71213 0.352091 3.71213 0.352087C 3.71213 0.352079 3.71213 0.352064 3.71213 0.352032C 3.71213 0.35197 3.71213 0.351845 3.71213 0.351594C 3.71213 0.351094 3.71213 0.350094 3.71213 0.348093C 3.71213 0.344091 3.71213 0.336089 3.71213 0.320084L 3.46213 0.320084C 3.46213 0.336089 3.46213 0.344091 3.46213 0.348093C 3.46213 0.350094 3.46213 0.351094 3.46213 0.351594C 3.46213 0.351845 3.46213 0.35197 3.46213 0.352032C 3.46213 0.352064 3.46213 0.352079 3.46213 0.352087C 3.46213 0.352091 3.46213 0.352093 3.46213 0.352094C 3.46213 0.352094 3.46213 0.352095 3.46213 0.352095C 3.46213 0.352095 3.46213 0.352095 3.46213 0.352095C 3.46213 0.352095 3.46213 0.352095 3.46213 0.352095C 3.46213 0.352095 3.46213 0.352095 3.58713 0.352095ZM 3.58713 0.320084C 3.46213 0.320084 3.58713 0.320084 3.71213 0.320084C 3.71213 0.320084 3.71213 0.320084 3.71213 0.320084C 3.71213 0.320084 3.71213 0.320084 3.71213 0.320083C 3.71213 0.320082 3.71213 0.32008 3.71213 0.320077C 3.71213 0.320069 3.71213 0.320053 3.71213 0.320022C 3.71213 0.319959 3.71213 0.319834 3.71213 0.319584C 3.71213 0.319084 3.71213 0.318084 3.71213 0.316084C 3.71213 0.312083 3.71213 0.304081 3.71213 0.288076L 3.46213 0.288076C 3.46213 0.304081 3.46213 0.312083 3.46213 0.316084C 3.46213 0.318084 3.46213 0.319084 3.46213 0.319584C 3.46213 0.319834 3.46213 0.319959 3.46213 0.320022C 3.46213 0.320053 3.46213 0.320069 3.46213 0.320077C 3.46213 0.32008 3.46213 0.320082 3.46213 0.320083C 3.46213 0.320084 3.46213 0.320084 3.46213 0.320084C 3.46213 0.320084 3.46213 0.320084 3.46213 0.320084C 3.58713 0.320084 3.71213 0.320084 3.58713 0.320084ZM 3.71213 0.288076C 3.71213 0.0867546 3.58134 -0.125001 3.35463 -0.125001L 3.35463 0.124999C 3.39364 0.124999 3.46213 0.169313 3.46213 0.288076L 3.71213 0.288076ZM 3.35463 -0.125001L 0.232499 -0.125001L 0.232499 0.124999L 3.35463 0.124999L 3.35463 -0.125001ZM 0.232499 -0.125001C 0.00579139 -0.125001 -0.125 0.0867542 -0.125 0.288076L 0.125 0.288076C 0.125 0.169313 0.193494 0.124999 0.232499 0.124999L 0.232499 -0.125001ZM -3.16755e-08 0.288076C 0.125 0.288076 -3.16755e-08 0.288076 -0.125 0.288076C -0.125 0.288076 -0.125 0.288076 -0.125 0.288076C -0.125 0.288076 -0.125 0.288076 -0.125 0.288076C -0.125 0.288077 -0.125 0.288077 -0.125 0.288077C -0.125 0.288078 -0.125 0.28808 -0.125 0.288084C -0.125 0.288092 -0.125 0.288108 -0.125 0.288139C -0.125 0.288201 -0.125 0.288326 -0.125 0.288576C -0.125 0.289077 -0.125 0.290077 -0.125 0.292077C -0.125 0.296078 -0.125 0.30408 -0.125 0.320084L 0.125 0.320084C 0.125 0.30408 0.125 0.296078 0.125 0.292077C 0.125 0.290077 0.125 0.289077 0.125 0.288576C 0.125 0.288326 0.125 0.288201 0.125 0.288139C 0.125 0.288108 0.125 0.288092 0.125 0.288084C 0.125 0.28808 0.125 0.288078 0.125 0.288077C 0.125 0.288077 0.125 0.288077 0.125 0.288076C 0.125 0.288076 0.125 0.288076 0.125 0.288076C 0.125 0.288076 0.125 0.288076 0.125 0.288076C -3.16755e-08 0.288076 -0.125 0.288076 -3.16755e-08 0.288076ZM -3.16755e-08 0.320084C -0.125 0.320084 -0.125 0.320084 -0.125 0.320084L -0.125 0.320084C -0.125 0.320084 -0.125 0.320084 -0.125 0.320085C -0.125 0.320085 -0.125 0.320085 -0.125 0.320085C -0.125 0.320086 -0.125 0.320088 -0.125 0.320092C -0.125 0.3201 -0.125 0.320116 -0.125 0.320147C -0.125 0.32021 -0.125 0.320335 -0.125 0.320585C -0.125 0.321085 -0.125 0.322086 -0.125 0.324086C -0.125 0.328088 -0.125 0.336091 -0.125 0.352095L 0.125 0.352095C 0.125 0.336091 0.125 0.328088 0.125 0.324086C 0.125 0.322086 0.125 0.321085 0.125 0.320585C 0.125 0.320335 0.125 0.32021 0.125 0.320147C 0.125 0.320116 0.125 0.3201 0.125 0.320092C 0.125 0.320088 0.125 0.320086 0.125 0.320085C 0.125 0.320085 0.125 0.320085 0.125 0.320085C 0.125 0.320084 0.125 0.320084 0.125 0.320084L 0.125 0.320084C 0.125 0.320084 0.125 0.320084 -3.16755e-08 0.320084ZM -0.125 0.352095C -0.125 0.439251 -0.0823577 0.524574 -0.0244985 0.585909C 0.035186 0.649178 0.124446 0.701154 0.232499 0.701154L 0.232499 0.451154C 0.207696 0.451154 0.180706 0.439113 0.157355 0.414359C 0.132179 0.387671 0.125 0.360965 0.125 0.352095L -0.125 0.352095Z"/>
<path id="path16_fill" d="M 3.35463 -4.88412e-07L 0.2325 -4.88412e-07C 0.0996435 -4.88412e-07 -5.06808e-07 0.128034 -5.06808e-07 0.288077C -5.06808e-07 0.44812 0.0996435 0.576154 0.2325 0.576154L 3.35463 0.576154C 3.48749 0.576154 3.58713 0.44812 3.58713 0.288077C 3.58713 0.128034 3.48749 -4.88412e-07 3.35463 -4.88412e-07Z"/>
<path id="path17_stroke" d="M 3.35463 -0.125L 0.2325 -0.125L 0.2325 0.125L 3.35463 0.125L 3.35463 -0.125ZM 0.2325 -0.125C 0.00579322 -0.125 -0.125001 0.0867536 -0.125001 0.288077L 0.124999 0.288077C 0.124999 0.169315 0.193494 0.125 0.2325 0.125L 0.2325 -0.125ZM -0.125001 0.288077C -0.125001 0.4894 0.00579322 0.701154 0.2325 0.701154L 0.2325 0.451154C 0.193494 0.451154 0.124999 0.406839 0.124999 0.288077L -0.125001 0.288077ZM 0.2325 0.701154L 3.35463 0.701154L 3.35463 0.451154L 0.2325 0.451154L 0.2325 0.701154ZM 3.35463 0.701154C 3.58134 0.701154 3.71213 0.4894 3.71213 0.288077L 3.46213 0.288077C 3.46213 0.406839 3.39364 0.451154 3.35463 0.451154L 3.35463 0.701154ZM 3.71213 0.288077C 3.71213 0.0867536 3.58134 -0.125 3.35463 -0.125L 3.35463 0.125C 3.39364 0.125 3.46213 0.169315 3.46213 0.288077L 3.71213 0.288077Z"/>
<path id="path18_fill" d="M 3.35463 -2.44206e-07L 0.2325 -2.44206e-07C 0.0996435 -2.44206e-07 -5.06808e-07 0.128034 -5.06808e-07 0.288077C -5.06808e-07 0.44812 0.0996435 0.576153 0.2325 0.576153L 0.298927 0.576153C 0.332142 0.576153 0.365355 0.576153 0.365355 0.576153L 3.22177 0.576153C 3.25499 0.576153 3.2882 0.576153 3.2882 0.576153L 3.35463 0.576153C 3.48749 0.576153 3.58713 0.44812 3.58713 0.288077C 3.58713 0.128034 3.48749 -2.44206e-07 3.35463 -2.44206e-07Z"/>
<path id="path19_stroke" d="M 3.35463 -0.125L 0.2325 -0.125L 0.2325 0.125L 3.35463 0.125L 3.35463 -0.125ZM 0.2325 -0.125C 0.00579322 -0.125 -0.125001 0.0867539 -0.125001 0.288077L 0.124999 0.288077C 0.124999 0.169315 0.193494 0.125 0.2325 0.125L 0.2325 -0.125ZM -0.125001 0.288077C -0.125001 0.489401 0.0057938 0.701153 0.2325 0.701153L 0.2325 0.451153C 0.193493 0.451153 0.124999 0.406839 0.124999 0.288077L -0.125001 0.288077ZM 0.2325 0.701153L 0.298927 0.701153L 0.298927 0.451153L 0.2325 0.451153L 0.2325 0.701153ZM 0.298927 0.701153C 0.315535 0.701153 0.332141 0.701153 0.344596 0.701153C 0.350824 0.701153 0.356014 0.701153 0.359646 0.701153C 0.361463 0.701153 0.36289 0.701153 0.363863 0.701153C 0.364349 0.701153 0.364722 0.701153 0.364974 0.701153C 0.365099 0.701153 0.365195 0.701153 0.365258 0.701153C 0.36529 0.701153 0.365314 0.701153 0.365331 0.701153C 0.365339 0.701153 0.365345 0.701153 0.365349 0.701153C 0.365351 0.701153 0.365352 0.701153 0.365353 0.701153C 0.365354 0.701153 0.365354 0.701153 0.365354 0.701153C 0.365355 0.701153 0.365355 0.701153 0.365355 0.576153C 0.365355 0.451153 0.365355 0.451153 0.365354 0.451153C 0.365354 0.451153 0.365354 0.451153 0.365353 0.451153C 0.365352 0.451153 0.365351 0.451153 0.365349 0.451153C 0.365345 0.451153 0.365339 0.451153 0.365331 0.451153C 0.365314 0.451153 0.36529 0.451153 0.365258 0.451153C 0.365195 0.451153 0.365099 0.451153 0.364974 0.451153C 0.364722 0.451153 0.364349 0.451153 0.363863 0.451153C 0.36289 0.451153 0.361463 0.451153 0.359646 0.451153C 0.356014 0.451153 0.350824 0.451153 0.344596 0.451153C 0.332141 0.451153 0.315535 0.451153 0.298927 0.451153L 0.298927 0.701153ZM 0.365355 0.701153L 3.22177 0.701153L 3.22177 0.451153L 0.365355 0.451153L 0.365355 0.701153ZM 3.22177 0.701153C 3.23838 0.701153 3.25499 0.701153 3.26744 0.701153C 3.27367 0.701153 3.27886 0.701153 3.28249 0.701153C 3.28431 0.701153 3.28574 0.701153 3.28671 0.701153C 3.2872 0.701153 3.28757 0.701153 3.28782 0.701153C 3.28795 0.701153 3.28804 0.701153 3.28811 0.701153C 3.28814 0.701153 3.28816 0.701153 3.28818 0.701153C 3.28819 0.701153 3.28819 0.701153 3.2882 0.701153C 3.2882 0.701153 3.2882 0.701153 3.2882 0.701153C 3.2882 0.701153 3.2882 0.701153 3.2882 0.701153C 3.2882 0.701153 3.2882 0.701153 3.2882 0.576153C 3.2882 0.451153 3.2882 0.451153 3.2882 0.451153C 3.2882 0.451153 3.2882 0.451153 3.2882 0.451153C 3.2882 0.451153 3.2882 0.451153 3.2882 0.451153C 3.28819 0.451153 3.28819 0.451153 3.28818 0.451153C 3.28816 0.451153 3.28814 0.451153 3.28811 0.451153C 3.28804 0.451153 3.28795 0.451153 3.28782 0.451153C 3.28757 0.451153 3.2872 0.451153 3.28671 0.451153C 3.28574 0.451153 3.28431 0.451153 3.28249 0.451153C 3.27886 0.451153 3.27367 0.451153 3.26744 0.451153C 3.25499 0.451153 3.23838 0.451153 3.22177 0.451153L 3.22177 0.701153ZM 3.2882 0.701153L 3.35463 0.701153L 3.35463 0.451153L 3.2882 0.451153L 3.2882 0.701153ZM 3.35463 0.701153C 3.58134 0.701153 3.71213 0.489401 3.71213 0.288077L 3.46213 0.288077C 3.46213 0.406839 3.39364 0.451153 3.35463 0.451153L 3.35463 0.701153ZM 3.71213 0.288077C 3.71213 0.0867539 3.58134 -0.125 3.35463 -0.125L 3.35463 0.125C 3.39364 0.125 3.46213 0.169315 3.46213 0.288077L 3.71213 0.288077Z"/>
<path id="path20_fill" d="M 3.35463 9.76823e-07L 0.2325 9.76823e-07C 0.0996435 9.76823e-07 -5.06808e-07 0.128033 -5.06808e-07 0.288076C -5.06808e-07 0.448119 0.0996435 0.576153 0.2325 0.576153L 3.35463 0.576153C 3.48749 0.576153 3.58713 0.448119 3.58713 0.288076C 3.58713 0.128033 3.48749 9.76823e-07 3.35463 9.76823e-07Z"/>
<path id="path21_stroke" d="M 3.35463 -0.124999L 0.2325 -0.124999L 0.2325 0.125001L 3.35463 0.125001L 3.35463 -0.124999ZM 0.2325 -0.124999C 0.00579441 -0.124999 -0.125001 0.0867512 -0.125001 0.288076L 0.124999 0.288076C 0.124999 0.169315 0.193493 0.125001 0.2325 0.125001L 0.2325 -0.124999ZM -0.125001 0.288076C -0.125001 0.489399 0.00579321 0.701153 0.2325 0.701153L 0.2325 0.451153C 0.193494 0.451153 0.124999 0.406838 0.124999 0.288076L -0.125001 0.288076ZM 0.2325 0.701153L 3.35463 0.701153L 3.35463 0.451153L 0.2325 0.451153L 0.2325 0.701153ZM 3.35463 0.701153C 3.58134 0.701153 3.71213 0.489399 3.71213 0.288076L 3.46213 0.288076C 3.46213 0.406838 3.39364 0.451153 3.35463 0.451153L 3.35463 0.701153ZM 3.71213 0.288076C 3.71213 0.0867511 3.58134 -0.124999 3.35463 -0.124999L 3.35463 0.125001C 3.39364 0.125001 3.46213 0.169315 3.46213 0.288076L 3.71213 0.288076Z"/>
<path id="path22_fill" d="M 3.35463 0L 0.2325 0C 0.0996435 0 -5.06808e-07 0.0960246 -5.06808e-07 0.224059C -5.06808e-07 0.352093 0.0996435 0.44812 0.2325 0.44812L 3.35463 0.44812C 3.48749 0.44812 3.58713 0.352093 3.58713 0.224059C 3.58713 0.0960246 3.48749 0 3.35463 0Z"/>
<path id="path23_stroke" d="M 3.35463 -0.125L 0.2325 -0.125L 0.2325 0.125L 3.35463 0.125L 3.35463 -0.125ZM 0.2325 -0.125C 0.0350061 -0.125 -0.125001 0.0226714 -0.125001 0.224059L 0.124999 0.224059C 0.124999 0.169378 0.164281 0.125 0.2325 0.125L 0.2325 -0.125ZM -0.125001 0.224059C -0.125001 0.425444 0.0350043 0.57312 0.2325 0.57312L 0.2325 0.32312C 0.164283 0.32312 0.124999 0.278741 0.124999 0.224059L -0.125001 0.224059ZM 0.2325 0.57312L 3.35463 0.57312L 3.35463 0.32312L 0.2325 0.32312L 0.2325 0.57312ZM 3.35463 0.57312C 3.55213 0.57312 3.71213 0.425444 3.71213 0.224059L 3.46213 0.224059C 3.46213 0.278741 3.42285 0.32312 3.35463 0.32312L 3.35463 0.57312ZM 3.71213 0.224059C 3.71213 0.0226714 3.55212 -0.125 3.35463 -0.125L 3.35463 0.125C 3.42285 0.125 3.46213 0.169378 3.46213 0.224059L 3.71213 0.224059Z"/>
</defs>
</svg>
