<svg width="14" height="15" viewBox="0 0 14 15" version="1.1" xmlns="http://www.w3.org/2000/svg" xmlns:xlink="http://www.w3.org/1999/xlink">
<title>Group 5</title>
<desc>Created using Figma</desc>
<g id="Canvas" transform="translate(1632 -85)">
<g id="Group 5">
<g id="Group">
<g id="XMLID 19">
<use xlink:href="#path0_fill" transform="translate(-1631.96 93.3037)" fill="#FFFFFF"/>
</g>
<g id="Rectangle 13">
<use xlink:href="#path1_fill" transform="translate(-1631.55 98.6298)" fill="#FFFFFF"/>
</g>
<g id="XMLID 16">
<use xlink:href="#path2_fill" transform="translate(-1628.51 85.6787)" fill="#FFFFFF"/>
</g>
<g id="XMLID 15">
<use xlink:href="#path3_fill" transform="translate(-1623.36 97.4513)" fill="#FFFFFF"/>
</g>
</g>
</g>
</g>
<defs>
<path id="path0_fill" d="M 7.03246 0.8377C 6.78962 0.8377 6.50454 0.8377 6.27226 0.8377C 6.34617 1.40991 6.5151 1.98212 6.45175 2.52255C 6.34617 3.47623 6.10332 4.42992 5.90271 5.37301C 5.87104 5.50016 5.74434 5.60613 5.65987 5.73329C 5.55428 5.61673 5.37479 5.51076 5.34312 5.3836C 5.12139 4.44051 4.93134 3.49742 4.73073 2.54374C 4.60403 1.92914 4.46677 1.31454 4.32951 0.678752C 3.24199 0.986051 2.18614 1.26156 1.14086 1.57946C 0.665731 1.71721 0.422887 2.07749 0.486237 2.58612C 0.549588 3.20072 0.644614 3.81532 0.707964 4.41932C 0.73964 4.73722 0.781873 5.05511 0.781873 5.36241C 0.781873 5.47897 0.644614 5.59553 0.570705 5.7121C 0.475679 5.62732 0.306744 5.54255 0.296185 5.44718C 0.180043 4.35574 0.0427831 3.2537 0.000549417 2.15167C -0.0205674 1.62184 0.570705 1.1344 1.14086 0.975455C 2.18614 0.678752 3.22087 0.371453 4.2556 0.0429614C 4.75184 -0.115986 4.82575 0.191313 4.89966 0.551594C 5.12139 1.64303 5.34312 2.73448 5.58596 3.90009C 6.16667 2.6709 5.99774 1.53707 5.38535 0.318471C 6.23002 0.318471 6.90576 0.307874 7.59206 0.329067C 7.66597 0.329067 7.80323 0.509208 7.80323 0.604577C 7.80323 0.774121 7.75044 0.954261 7.66597 1.10261C 7.13805 2.02451 7.46536 2.92521 7.761 3.83651C 7.98272 2.77686 8.21501 1.70661 8.42618 0.646962C 8.56344 -0.0524075 8.67958 -0.0736004 9.3342 0.159523C 10.2422 0.488015 11.1714 0.731734 12.1005 0.964858C 12.9346 1.17679 13.4203 1.7384 13.3675 2.58612C 13.3042 3.48683 13.2197 4.37694 13.1036 5.26704C 13.0824 5.43659 12.8924 5.57434 12.7763 5.73329C 12.7023 5.56374 12.544 5.3836 12.5545 5.22466C 12.6284 4.41932 12.7657 3.61399 12.829 2.80865C 12.903 1.96093 12.6812 1.67482 11.8577 1.4523C 11.2453 1.28275 10.6329 1.145 10.0205 0.986051C 9.70375 0.901279 9.39755 0.784718 8.99633 0.657559C 8.79572 1.56886 8.59511 2.46956 8.3945 3.37027C 8.25724 4.02725 8.13054 4.68423 7.97217 5.33062C 7.92993 5.48957 7.761 5.60613 7.64485 5.74389C 7.56039 5.61673 7.42313 5.48957 7.39145 5.34122C 7.19084 4.40872 6.948 3.48683 6.84241 2.54374C 6.77906 1.99272 6.95856 1.42051 7.03246 0.8377Z"/>
<path id="path1_fill" d="M 0 0L 12.5357 0L 12.5357 0.417778L 0 0.417778L 0 0Z"/>
<path id="path2_fill" d="M 6.16856 3.52474C 6.12632 3.92741 6.21079 4.36187 6.0313 4.5738C 5.345 5.37913 4.9649 6.45998 3.95129 7.02159C 2.93768 7.58321 1.98742 7.0004 1.36447 6.27984C 1.18498 6.06791 1.07939 5.7924 0.910458 5.58047C 0.773199 5.40033 0.583147 5.25198 0.42477 5.09303C 0.371978 5.04005 0.308627 5.00826 0.266394 4.96587C 0.0341082 4.72215 -0.0820343 3.47176 0.0657838 3.15387C 0.171368 2.94194 0.276952 2.69822 0.266394 2.47569C 0.213602 1.44783 0.794315 0.557722 2.01909 0.186845C 2.96935 -0.0992612 3.78235 -0.0674716 4.62703 0.356389C 5.30277 0.695477 5.77789 1.19351 5.83069 2.00944C 5.86236 2.4333 5.73566 2.88895 6.11576 3.23864C 6.17911 3.30222 6.158 3.47176 6.16856 3.52474ZM 5.33444 2.42271C 5.35556 1.70215 5.07048 1.17232 4.41586 0.854425C 3.74012 0.50474 3.12773 0.451757 2.3464 0.695477C 1.16386 1.06635 0.646497 1.58558 0.836549 2.81478C 0.878783 3.09029 0.688731 3.25983 0.646497 3.43997C 0.56203 3.80025 0.688731 4.23471 0.815432 4.60559C 0.889341 4.81752 1.18498 4.94468 1.3328 5.14601C 1.61787 5.51689 1.81848 5.96194 2.14579 6.27984C 2.73707 6.85205 3.36001 6.87324 3.9724 6.34342C 4.33139 6.03612 4.56367 5.59106 4.84875 5.19899C 4.97545 5.01885 5.05992 4.78573 5.2183 4.64797C 5.42947 4.45724 5.78845 3.6731 5.60896 3.54594C 5.13383 3.22804 5.345 2.81478 5.33444 2.42271Z"/>
<path id="path3_fill" d="M 1.18254 0.00692049C 1.47818 0.00692049 1.78438 -0.0142727 2.06945 0.0175168C 2.16448 0.0281134 2.32286 0.165868 2.32286 0.25064C 2.32286 0.346008 2.1856 0.526149 2.10113 0.526149C 1.48874 0.547342 0.87635 0.547342 0.263961 0.526149C 0.168935 0.526149 0.0844675 0.356605 -3.00089e-15 0.261236C 0.0950259 0.176464 0.179493 0.0387097 0.285077 0.0281132C 0.591272 -0.0142729 0.886908 0.00692049 1.18254 0.00692049Z"/>
</defs>
</svg>
