<svg width="33" height="33" viewBox="0 0 33 33" version="1.1" xmlns="http://www.w3.org/2000/svg" xmlns:xlink="http://www.w3.org/1999/xlink">
<title>Group</title>
<desc>Created using Figma</desc>
<g id="Canvas" transform="translate(1404 6)">
<g id="Group">
<g id="XMLID 16">
<use xlink:href="#path0_fill" transform="translate(-1403.69 -5.03887)" fill="#FFFFFF"/>
<use xlink:href="#path1_stroke" transform="translate(-1403.69 -5.03887)" fill="#FFFFFF"/>
</g>
<g id="XMLID 15">
<use xlink:href="#path2_fill" transform="translate(-1393.14 3.74259)" fill="#FFFFFF"/>
<use xlink:href="#path3_stroke" transform="translate(-1393.14 3.74259)" fill="#FFFFFF"/>
</g>
</g>
</g>
<defs>
<path id="path0_fill" d="M 0.00359019 15.7771C -0.185622 7.14281 7.13059 -0.020962 15.6872 4.60883e-05C 24.391 0.0210542 31.4339 6.93273 31.5179 15.7141C 31.581 24.3275 24.433 31.4702 15.8764 31.5122C 7.08854 31.5542 -0.143575 24.3905 0.00359019 15.7771ZM 2.00083 16.6175C 1.58036 22.8569 8.30791 29.7475 14.615 29.4955C 14.615 28.5501 14.5309 27.6047 14.657 26.6804C 14.7201 26.3022 15.2036 25.756 15.5821 25.672C 16.1707 25.5459 16.4651 26.0291 16.444 26.6804C 16.402 27.6467 16.444 28.6131 16.444 29.5795C 23.2767 29.6425 29.5838 23.193 29.5628 16.6175C 28.6587 16.6175 27.7547 16.5965 26.8507 16.6175C 26.178 16.6385 25.4632 16.5755 25.4211 15.7561C 25.4001 14.9368 26.1149 14.8528 26.7876 14.8528C 27.7127 14.8738 28.6377 14.8528 29.5628 14.8528C 29.9622 8.57136 21.8051 0.693314 16.402 2.03783C 16.402 2.81513 16.402 3.61344 16.402 4.41175C 16.402 5.08401 16.4861 5.88232 15.498 5.8193C 14.615 5.75627 14.5729 5.042 14.5729 4.32772C 14.594 3.52941 14.5729 2.7311 14.5729 1.9538C 8.01358 1.91179 1.64343 8.76044 1.97981 14.8738C 2.79973 14.8738 3.64067 14.8738 4.46059 14.8738C 5.07028 14.8738 5.72201 14.9368 5.70098 15.7771C 5.67996 16.5544 5.07027 16.5965 4.50264 16.5965C 3.64067 16.6385 2.82075 16.6175 2.00083 16.6175Z"/>
<path id="path1_stroke" d="M 0.00359019 15.7771L 0.253744 15.7814L 0.25353 15.7717L 0.00359019 15.7771ZM 15.6872 4.60883e-05L 15.6866 0.250045L 15.6866 0.250045L 15.6872 4.60883e-05ZM 31.5179 15.7141L 31.7679 15.7123L 31.7679 15.7117L 31.5179 15.7141ZM 15.8764 31.5122L 15.8776 31.7622L 15.8776 31.7622L 15.8764 31.5122ZM 2.00083 16.6175L 2.00083 16.3675L 1.76711 16.3675L 1.7514 16.6007L 2.00083 16.6175ZM 14.615 29.4955L 14.625 29.7453L 14.865 29.7357L 14.865 29.4955L 14.615 29.4955ZM 14.657 26.6804L 14.4103 26.6392L 14.4093 26.6466L 14.657 26.6804ZM 15.5821 25.672L 15.5297 25.4275L 15.5279 25.4279L 15.5821 25.672ZM 16.444 26.6804L 16.6938 26.6912L 16.6939 26.6884L 16.444 26.6804ZM 16.444 29.5795L 16.194 29.5795L 16.194 29.8272L 16.4417 29.8295L 16.444 29.5795ZM 29.5628 16.6175L 29.8128 16.6167L 29.812 16.3675L 29.5628 16.3675L 29.5628 16.6175ZM 26.8507 16.6175L 26.8449 16.3675L 26.8429 16.3676L 26.8507 16.6175ZM 25.4211 15.7561L 25.1711 15.7626L 25.1714 15.769L 25.4211 15.7561ZM 26.7876 14.8528L 26.7933 14.6028L 26.7876 14.6028L 26.7876 14.8528ZM 29.5628 14.8528L 29.5628 15.1028L 29.7974 15.1028L 29.8123 14.8687L 29.5628 14.8528ZM 16.402 2.03783L 16.3416 1.79523L 16.152 1.84242L 16.152 2.03783L 16.402 2.03783ZM 15.498 5.8193L 15.4802 6.06867L 15.4821 6.06879L 15.498 5.8193ZM 14.5729 4.32772L 14.3229 4.32114L 14.3229 4.32772L 14.5729 4.32772ZM 14.5729 1.9538L 14.8229 1.9538L 14.8229 1.7054L 14.5745 1.70381L 14.5729 1.9538ZM 1.97981 14.8738L 1.73019 14.8875L 1.74319 15.1238L 1.97981 15.1238L 1.97981 14.8738ZM 5.70098 15.7771L 5.95089 15.7839L 5.9509 15.7834L 5.70098 15.7771ZM 4.50264 16.5965L 4.50264 16.3462L 4.49047 16.3468L 4.50264 16.5965ZM 0.25353 15.7717C 0.0675096 7.28298 7.26514 0.229369 15.6866 0.250045L 15.6878 -0.249953C 6.99603 -0.271293 -0.438754 7.00264 -0.24635 15.7826L 0.25353 15.7717ZM 15.6866 0.250045C 24.2543 0.270725 31.1852 7.07289 31.268 15.7165L 31.7679 15.7117C 31.6825 6.79256 24.5276 -0.228617 15.6878 -0.249953L 15.6866 0.250045ZM 31.268 15.716C 31.33 24.1897 24.2948 31.2209 15.8752 31.2622L 15.8776 31.7622C 24.5712 31.7195 31.832 24.4653 31.7679 15.7123L 31.268 15.716ZM 15.8752 31.2622C 7.22246 31.3036 0.10887 24.2495 0.253554 15.7814L -0.246373 15.7729C -0.39602 24.5314 6.95462 31.8049 15.8776 31.7622L 15.8752 31.2622ZM 1.7514 16.6007C 1.53496 19.8124 3.15573 23.1609 5.60638 25.6656C 8.05722 28.1706 11.3804 29.8749 14.625 29.7453L 14.605 29.2457C 11.5425 29.3681 8.34836 27.7532 5.96377 25.3159C 3.579 22.8785 2.04623 19.662 2.25027 16.6343L 1.7514 16.6007ZM 14.865 29.4955C 14.8647 28.539 14.7808 27.6106 14.9047 26.7142L 14.4093 26.6466C 14.281 27.5989 14.3652 28.5612 14.365 29.4955L 14.865 29.4955ZM 14.9036 26.7215C 14.9239 26.5998 15.0254 26.4116 15.1866 26.2337C 15.3488 26.0547 15.5212 25.9416 15.6363 25.916L 15.5279 25.4279C 15.2645 25.4864 15.006 25.6884 14.816 25.898C 14.625 26.1088 14.4532 26.3828 14.4104 26.6392L 14.9036 26.7215ZM 15.6344 25.9164C 15.8425 25.8719 15.9631 25.9334 16.0441 26.0379C 16.1396 26.1611 16.2036 26.3786 16.1942 26.6723L 16.6939 26.6884C 16.7054 26.3309 16.6328 25.9812 16.4393 25.7315C 16.2312 25.4631 15.9103 25.346 15.5297 25.4275L 15.6344 25.9164ZM 16.1943 26.6695C 16.152 27.6467 16.1941 28.6185 16.194 29.5795L 16.694 29.5795C 16.694 28.6077 16.652 27.6467 16.6938 26.6912L 16.1943 26.6695ZM 16.4417 29.8295C 23.4149 29.8938 29.8342 23.3302 29.8128 16.6167L 29.3128 16.6183C 29.3333 23.0558 23.1385 29.3912 16.4463 29.3295L 16.4417 29.8295ZM 29.5628 16.3675C 28.6616 16.3675 27.7547 16.3465 26.8449 16.3675L 26.8565 16.8674C 27.7547 16.8465 28.6558 16.8675 29.5628 16.8675L 29.5628 16.3675ZM 26.8429 16.3676C 26.5058 16.3781 26.2101 16.3636 25.9984 16.2723C 25.8188 16.195 25.687 16.0591 25.6708 15.7433L 25.1714 15.769C 25.1973 16.2725 25.4439 16.5778 25.8004 16.7315C 26.1248 16.8713 26.5229 16.8778 26.8585 16.8674L 26.8429 16.3676ZM 25.671 15.7497C 25.6667 15.5817 25.7003 15.4726 25.745 15.3989C 25.7939 15.3108 25.847 15.2707 25.9514 15.2231C 26.1551 15.1264 26.4496 15.1028 26.7876 15.1028L 26.7876 14.6028C 26.4529 14.6028 26.0536 14.6212 25.7371 14.7713C 25.5812 14.8472 25.4176 14.9816 25.3173 15.1398C 25.2128 15.3123 25.165 15.5209 25.1712 15.7626L 25.671 15.7497ZM 26.782 15.1027C 27.7127 15.1238 28.6406 15.1028 29.5628 15.1028L 29.5628 14.6028C 28.6349 14.6028 27.7127 14.6238 26.7933 14.6029L 26.782 15.1027ZM 29.8123 14.8687C 30.0185 11.6248 28.0232 8.01806 25.3324 5.40619C 22.6487 2.80109 19.1721 1.09089 16.3416 1.79523L 16.4624 2.28044C 19.035 1.64026 22.3385 3.19682 24.9842 5.76497C 27.6229 8.32635 29.5064 11.7993 29.3133 14.8369L 29.8123 14.8687ZM 16.152 2.03783C 16.152 2.81513 16.152 3.61344 16.152 4.41175L 16.652 4.41175C 16.652 3.61344 16.652 2.81513 16.652 2.03783L 16.152 2.03783ZM 16.152 4.41175C 16.152 4.77975 16.1685 5.08281 16.0862 5.30415C 16.0485 5.41185 16.0187 5.45926 15.9301 5.50457C 15.8555 5.54811 15.7297 5.58357 15.5139 5.5698L 15.4821 6.06879C 15.7603 6.08654 15.9946 6.04584 16.1821 5.93642C 16.3556 5.82876 16.4901 5.64639 16.5549 5.47836C 16.6776 5.14824 16.652 4.71601 16.652 4.41175L 16.152 4.41175ZM 15.5158 5.56993C 15.1598 5.54452 15.0141 5.40176 14.9333 5.21735C 14.8368 4.99723 14.8229 4.69324 14.8229 4.32772L 14.3229 4.32772C 14.3229 4.67647 14.3301 5.08676 14.4754 5.41811C 14.6363 5.78516 14.9532 6.03105 15.4802 6.06866L 15.5158 5.56993ZM 14.8229 4.3343C 14.844 3.52941 14.8229 2.72781 14.8229 1.9538L 14.3229 1.9538C 14.323 2.73439 14.344 3.52941 14.323 4.32114L 14.8229 4.3343ZM 14.5745 1.70381C 11.2091 1.68225 7.91466 3.42574 5.51006 5.93247C 3.10645 8.43816 1.55716 11.743 1.73019 14.8875L 2.22943 14.8601C 2.06608 11.8913 3.53368 8.71507 5.87088 6.2786C 8.2071 3.84316 11.3775 2.18334 14.5713 2.2038L 14.5745 1.70381ZM 1.97981 15.1238C 2.79973 15.1238 3.64067 15.1238 4.46059 15.1238L 4.46059 14.6238C 3.64067 14.6238 2.79973 14.6238 1.97981 14.6238L 1.97981 15.1238ZM 4.46059 15.1238C 4.7706 15.1238 5.02761 15.1431 5.20359 15.233C 5.29507 15.2775 5.33884 15.3135 5.3823 15.4012C 5.4238 15.4773 5.45552 15.5926 5.45106 15.7709L 5.9509 15.7834C 5.95696 15.5415 5.9151 15.3338 5.82126 15.1618C 5.72938 15.0013 5.57605 14.864 5.43101 14.7877C 5.13396 14.636 4.76026 14.6238 4.46059 14.6238L 4.46059 15.1238ZM 5.45107 15.7704C 5.44669 15.9324 5.41229 16.0356 5.37119 16.103C 5.3273 16.182 5.28614 16.2132 5.19927 16.2526C 5.03178 16.3324 4.79374 16.3465 4.50264 16.3465L 4.50264 16.8465C 4.77917 16.8465 5.12979 16.8395 5.41431 16.704C 5.55344 16.6357 5.70412 16.5107 5.7982 16.3631C 5.89507 16.2041 5.94476 16.0106 5.95089 15.7839L 5.45107 15.7704ZM 4.49047 16.3468C 3.63778 16.3885 2.82395 16.3675 2.00083 16.3675L 2.00083 16.8675C 2.81755 16.8675 3.64356 16.8885 4.51481 16.8462L 4.49047 16.3468Z"/>
<path id="path2_fill" d="M 5.15078 9.39063C 3.40582 7.66797 1.70291 5.98732 1.60397e-07 4.32767C 0.840944 2.87811 1.03016 2.85711 2.14441 3.99154C 3.09047 4.95792 4.05755 5.92429 5.10873 6.9747C 7.37928 4.62179 9.58676 2.31089 11.8153 -1.60279e-07C 12.0675 0.252097 12.1306 0.294114 12.1937 0.357138C 13.2028 1.38654 13.2238 1.38654 12.2147 2.39493C 9.86006 4.72683 7.4844 7.05873 5.15078 9.39063Z"/>
<path id="path3_stroke" d="M 5.15078 9.39063L 4.97514 9.56854L 5.15185 9.74299L 5.32749 9.56747L 5.15078 9.39063ZM 1.60397e-07 4.32767L -0.216245 4.20222L -0.314006 4.37074L -0.174487 4.50671L 1.60397e-07 4.32767ZM 2.14441 3.99154L 2.32305 3.81665L 2.32276 3.81636L 2.14441 3.99154ZM 5.10873 6.9747L 4.93202 7.15154L 5.11197 7.33136L 5.28863 7.1483L 5.10873 6.9747ZM 11.8153 -1.60279e-07L 11.992 -0.176842L 11.812 -0.356724L 11.6353 -0.17354L 11.8153 -1.60279e-07ZM 12.1937 0.357138L 12.3722 0.182118L 12.3704 0.180296L 12.1937 0.357138ZM 12.2147 2.39493L 12.3906 2.57256L 12.3914 2.57177L 12.2147 2.39493ZM 5.32642 9.21272C 3.58144 7.49004 1.87796 5.80883 0.174488 4.14864L -0.174487 4.50671C 1.52786 6.1658 3.2302 7.84589 4.97514 9.56854L 5.32642 9.21272ZM 0.216245 4.45313C 0.424589 4.09394 0.583234 3.8374 0.726879 3.6621C 0.869077 3.48775 0.955766 3.44565 1.00753 3.43773C 1.05559 3.43038 1.14168 3.4424 1.31155 3.56458C 1.48526 3.68877 1.69019 3.88583 1.96605 4.16673L 2.32276 3.81636C 2.0415 3.53004 1.80493 3.30431 1.6035 3.15867C 1.39823 3.01103 1.17554 2.9062 0.931893 2.94349C 0.691958 2.98021 0.504027 3.14425 0.339412 3.34608C 0.176244 3.54696 -0.00411715 3.83663 -0.216245 4.20222L 0.216245 4.45313ZM 1.96576 4.16643C 2.91279 5.13379 3.88084 6.10113 4.93202 7.15154L 5.28544 6.79786C 4.23426 5.74745 3.26815 4.78205 2.32305 3.81665L 1.96576 4.16643ZM 5.28863 7.1483C 7.55962 4.79493 9.76712 2.48401 11.9952 0.173539L 11.6353 -0.17354C 9.40639 2.13778 7.19894 4.44864 4.92883 6.8011L 5.28863 7.1483ZM 11.6385 0.176842C 11.7678 0.305909 11.8511 0.383718 11.9078 0.434916C 11.9668 0.488184 11.9936 0.510293 12.017 0.53398L 12.3704 0.180296C 12.3307 0.140959 12.2945 0.110548 12.2431 0.0640265C 12.1893 0.0154361 12.115 -0.053812 11.992 -0.176842L 11.6385 0.176842ZM 12.0152 0.532149C 12.2677 0.789807 12.4496 0.973519 12.5692 1.12397C 12.6888 1.27379 12.7102 1.34702 12.7111 1.38907C 12.7119 1.42822 12.6959 1.49722 12.5825 1.64132C 12.4677 1.78809 12.29 1.9663 12.038 2.21808L 12.3914 2.57177C 12.644 2.31936 12.8421 2.11942 12.9756 1.95041C 13.1106 1.77874 13.2154 1.59432 13.211 1.37875C 13.2066 1.16608 13.0966 0.983266 12.96 0.812064C 12.8234 0.64148 12.6242 0.439168 12.3722 0.182128L 12.0152 0.532149ZM 12.0388 2.21729C 9.68454 4.54881 7.30848 6.8811 4.97407 9.21379L 5.32749 9.56747C 7.66032 7.23636 10.0356 4.90485 12.3906 2.57256L 12.0388 2.21729Z"/>
</defs>
</svg>
