<svg width="33" height="31" viewBox="0 0 33 31" version="1.1" xmlns="http://www.w3.org/2000/svg" xmlns:xlink="http://www.w3.org/1999/xlink">
<title>horario</title>
<desc>Created using Figma</desc>
<g id="Canvas" transform="translate(1404 -53)">
<g id="horario">
<g id="Group">
<g id="Vector">
<use xlink:href="#path0_fill" transform="translate(-1403.69 53.2114)" fill="#FFFFFF"/>
</g>
<g id="Vector">
<use xlink:href="#path1_fill" transform="translate(-1397.31 66.4994)" fill="#FFFFFF"/>
</g>
<g id="Vector">
<use xlink:href="#path2_fill" transform="translate(-1395.93 62.7981)" fill="#FFFFFF"/>
</g>
</g>
</g>
</g>
<defs>
<path id="path0_fill" d="M 31.3609 2.00316L 25.7769 2.00316L 25.7769 1.08529C 25.7769 0.485922 25.2788 -1.65602e-08 24.6643 -1.65602e-08C 24.0499 -1.65602e-08 23.5518 0.485922 23.5518 1.08529L 23.5518 2.00331L 17.3491 2.00331L 17.3491 1.08529C 17.3491 0.485922 16.851 -1.65602e-08 16.2366 -1.65602e-08C 15.6222 -1.65602e-08 15.124 0.485922 15.124 1.08529L 15.124 2.00331L 8.92141 2.00331L 8.92141 1.08529C 8.92141 0.485922 8.42328 -1.65602e-08 7.80885 -1.65602e-08C 7.19442 -1.65602e-08 6.69629 0.485922 6.69629 1.08529L 6.69629 2.00331L 1.11256 2.00331C 0.498131 2.00331 0 2.48923 0 3.0886L 0 29.4722C 0 30.0716 0.498131 30.5575 1.11256 30.5575L 31.3609 30.5575C 31.9753 30.5575 32.4735 30.0716 32.4735 29.4722L 32.4735 3.08845C 32.4735 2.48908 31.9753 2.00316 31.3609 2.00316ZM 30.2483 28.3869L 2.22512 28.3869L 2.22512 4.17375L 6.69629 4.17375L 6.69629 5.88243C 6.69629 6.4818 7.19442 6.96772 7.80885 6.96772C 8.42328 6.96772 8.92141 6.4818 8.92141 5.88243L 8.92141 4.17375L 15.1242 4.17375L 15.1242 5.88243C 15.1242 6.4818 15.6223 6.96772 16.2367 6.96772C 16.8512 6.96772 17.3493 6.4818 17.3493 5.88243L 17.3493 4.17375L 23.5519 4.17375L 23.5519 5.88243C 23.5519 6.4818 24.05 6.96772 24.6645 6.96772C 25.2789 6.96772 25.777 6.4818 25.777 5.88243L 25.777 4.17375L 30.2485 4.17375L 30.2485 28.3869L 30.2483 28.3869Z"/>
<path id="path1_fill" d="M 18.82 5.10261C 19.3114 5.10261 19.71 4.71379 19.71 4.23438C 19.71 3.75497 19.3114 3.36614 18.82 3.36614L 16.3164 3.36614L 16.3164 0.868234C 16.3164 0.388824 15.9178 -2.82628e-07 15.4263 -2.82628e-07C 14.9349 -2.82628e-07 14.5363 0.388824 14.5363 0.868234L 14.5363 3.36614L 10.7453 3.36614L 10.7453 0.868234C 10.7453 0.388824 10.3468 -2.82628e-07 9.85523 -2.82628e-07C 9.36377 -2.82628e-07 8.96518 0.388824 8.96518 0.868234L 8.96518 3.36614L 5.17416 3.36614L 5.17416 0.868234C 5.17416 0.388824 4.77571 -2.82628e-07 4.28411 -2.82628e-07C 3.79265 -2.82628e-07 3.39406 0.388824 3.39406 0.868234L 3.39406 3.36614L 0.89005 3.36614C 0.398594 3.36614 6.79054e-08 3.75497 6.79054e-08 4.23438C 6.79054e-08 4.71379 0.398594 5.10261 0.89005 5.10261L 3.39406 5.10261L 3.39406 7.81165L 0.89005 7.81165C 0.398594 7.81165 6.79054e-08 8.20047 6.79054e-08 8.67988C 6.79054e-08 9.15943 0.398594 9.54811 0.89005 9.54811L 3.39406 9.54811L 3.39406 12.046C 3.39406 12.5256 3.79265 12.9143 4.28411 12.9143C 4.77571 12.9143 5.17416 12.5256 5.17416 12.046L 5.17416 9.54797L 8.96518 9.54797L 8.96518 12.0459C 8.96518 12.5254 9.36377 12.9141 9.85523 12.9141C 10.3468 12.9141 10.7453 12.5254 10.7453 12.0459L 10.7453 9.54797L 14.5363 9.54797L 14.5363 12.0459C 14.5363 12.5254 14.9349 12.9141 15.4263 12.9141C 15.9178 12.9141 16.3164 12.5254 16.3164 12.0459L 16.3164 9.54797L 18.82 9.54797C 19.3114 9.54797 19.71 9.15929 19.71 8.67973C 19.71 8.20032 19.3114 7.8115 18.82 7.8115L 16.3164 7.8115L 16.3164 5.10261L 18.82 5.10261ZM 5.17416 7.8115L 5.17416 5.10261L 8.96518 5.10261L 8.96518 7.81165L 5.17416 7.81165L 5.17416 7.8115ZM 14.5361 7.8115L 10.7451 7.8115L 10.7451 5.10261L 14.5361 5.10261L 14.5361 7.8115Z"/>
<path id="path2_fill" d="M 0.89005 1.73647L 16.0602 1.73647C 16.5518 1.73647 16.9503 1.34779 16.9503 0.868235C 16.9503 0.38868 16.5518 3.97446e-07 16.0602 3.97446e-07L 0.89005 3.97446e-07C 0.398445 3.97446e-07 -2.08243e-07 0.38868 -2.08243e-07 0.868235C -2.08243e-07 1.34779 0.398445 1.73647 0.89005 1.73647Z"/>
</defs>
</svg>
