<svg width="18" height="14" viewBox="0 0 18 14" version="1.1" xmlns="http://www.w3.org/2000/svg" xmlns:xlink="http://www.w3.org/1999/xlink">
<title>01</title>
<desc>Created using Figma</desc>
<g id="Canvas" transform="translate(685 -243)">
<g id="01">
<use xlink:href="#path0_fill" transform="translate(-695 237.777)" fill="#FFFFFF"/>
</g>
</g>
<defs>
<path id="path0_fill" d="M 19.3496 12.5752C 19.3496 14.8193 18.9805 16.4805 18.2422 17.5586C 17.5098 18.6367 16.3789 19.1758 14.8496 19.1758C 13.3672 19.1758 12.248 18.6191 11.4922 17.5059C 10.7422 16.3926 10.3672 14.749 10.3672 12.5752C 10.3672 10.3076 10.7334 8.6377 11.4658 7.56543C 12.1982 6.48731 13.3262 5.94824 14.8496 5.94824C 16.332 5.94824 17.4512 6.51074 18.207 7.63574C 18.9687 8.76074 19.3496 10.4072 19.3496 12.5752ZM 13.0654 12.5752C 13.0654 14.1514 13.2002 15.2822 13.4697 15.9678C 13.7451 16.6475 14.2051 16.9873 14.8496 16.9873C 15.4824 16.9873 15.9395 16.6416 16.2207 15.9502C 16.502 15.2588 16.6426 14.1338 16.6426 12.5752C 16.6426 10.999 16.499 9.86816 16.2119 9.18262C 15.9307 8.49121 15.4766 8.14551 14.8496 8.14551C 14.2109 8.14551 13.7539 8.49121 13.4785 9.18262C 13.2031 9.86816 13.0654 10.999 13.0654 12.5752ZM 27.4355 19L 24.7197 19L 24.7197 11.5645L 24.7461 10.3428L 24.79 9.00684C 24.3389 9.45801 24.0254 9.75391 23.8496 9.89453L 22.373 11.0811L 21.0635 9.44629L 25.2031 6.15039L 27.4355 6.15039L 27.4355 19Z"/>
</defs>
</svg>
