<svg width="87" height="58" viewBox="0 0 87 58" version="1.1" xmlns="http://www.w3.org/2000/svg" xmlns:xlink="http://www.w3.org/1999/xlink">
<title>Group</title>
<desc>Created using Figma</desc>
<g id="Canvas" transform="translate(123 -1731)">
<g id="Group" opacity="0.85">
<g id="XMLID 17">
<g id="XMLID 31">
<use xlink:href="#path0_fill" transform="translate(-108.885 1761.29)" fill="#B0E519"/>
<use xlink:href="#path1_stroke" transform="translate(-108.885 1761.29)" fill="#B0E519"/>
</g>
<g id="XMLID 28">
<use xlink:href="#path2_fill" transform="translate(-122 1732.01)" fill="#B0E519"/>
<use xlink:href="#path3_stroke" transform="translate(-122 1732.01)" fill="#B0E519"/>
</g>
<g id="XMLID 21">
<use xlink:href="#path4_fill" transform="translate(-96.3693 1732)" fill="#B0E519"/>
<use xlink:href="#path5_stroke" transform="translate(-96.3693 1732)" fill="#B0E519"/>
</g>
<g id="XMLID 20">
<use xlink:href="#path6_fill" transform="translate(-101.739 1736.52)" fill="#B0E519"/>
<use xlink:href="#path7_stroke" transform="translate(-101.739 1736.52)" fill="#B0E519"/>
</g>
<g id="XMLID 19">
<use xlink:href="#path8_fill" transform="translate(-52.7363 1760.24)" fill="#B0E519"/>
<use xlink:href="#path9_stroke" transform="translate(-52.7363 1760.24)" fill="#B0E519"/>
</g>
<g id="XMLID 18">
<use xlink:href="#path10_fill" transform="translate(-111.281 1760.23)" fill="#B0E519"/>
<use xlink:href="#path11_stroke" transform="translate(-111.281 1760.23)" fill="#B0E519"/>
</g>
</g>
</g>
</g>
<defs>
<path id="path0_fill" d="M 29.6578 18.9595C 30.0795 17.6867 30.0725 16.3992 29.461 15.1853C 28.716 13.6992 27.5422 12.8311 25.9116 12.706C 25.4969 12.6766 25.0822 12.6986 24.6394 12.6986C 25.0752 10.9256 24.7097 9.3806 23.5219 8.12989C 22.327 6.87184 20.844 6.47455 19.1642 6.93069C 19.1501 6.82033 19.1291 6.73941 19.1291 6.65112C 19.1291 5.24592 18.6792 4.03936 17.6812 3.09766C 16.5144 1.98674 15.1509 1.64832 13.6187 2.02353C 12.965 2.18538 12.3746 2.48702 11.8615 2.95787C 11.6999 3.10502 11.5734 3.09766 11.482 2.87695C 11.4047 2.70038 11.3274 2.52381 11.229 2.3546C 10.484 1.10389 9.41561 0.360832 8.03802 0.081263C 6.24574 -0.279233 4.46752 0.581542 3.5749 2.22953C 2.60496 4.03201 1.64205 5.84185 0.643996 7.62961C -0.00262976 8.79939 -0.185372 10.0059 0.201198 11.2934C 0.86188 13.5079 3.21644 14.9646 5.38826 14.5085C 6.04191 14.3687 6.02083 14.376 6.08409 15.0602C 6.18951 17.2527 8.6987 18.6431 9.31721 18.8344C 10.1396 19.0846 11.0041 19.0551 11.8405 18.7535C 12.0794 18.6652 12.3887 18.4592 12.5363 18.5475C 12.705 18.6431 12.7331 19.011 12.8104 19.2685C 13.3516 21.0489 14.9963 22.2628 16.7183 22.3437C 17.4703 22.3805 18.1802 22.226 18.869 21.917C 19.0728 21.8214 19.122 21.8803 19.1712 22.0936C 19.2415 22.41 19.3259 22.741 19.4594 23.0353C 20.0779 24.3596 21.0619 25.1983 22.4395 25.5882C 24.1263 26.0664 26.2982 25.2204 27.1767 23.6386C 27.8304 22.4615 28.4419 21.2549 29.0744 20.0704C 29.2572 19.6952 29.5243 19.3494 29.6578 18.9595ZM 6.87831 11.5436C 6.37928 12.4485 5.61317 12.912 4.60809 12.9341C 3.04776 12.9561 1.43119 11.5141 1.62799 9.73374C 1.68422 9.24817 1.89508 8.74789 2.12702 8.31382C 3.07587 6.51134 4.06689 4.73829 5.03683 2.94316C 5.53586 2.00881 6.73774 1.48646 7.82013 1.75132C 9.25396 2.10445 10.3153 3.36251 10.238 4.73093C 10.2169 5.18707 10.0412 5.66528 9.82327 6.06992C 8.86739 7.90918 7.87636 9.72638 6.87831 11.5436ZM 13.4008 14.891C 13.1829 15.2883 12.9791 15.693 12.7261 16.0682C 12.4168 16.5243 10.3012 17.5102 9.06419 16.9437C 7.88339 16.4066 7.56711 14.3393 7.65848 13.9052C 7.76391 13.3828 8.00288 12.8752 8.2559 12.4043C 9.55618 9.98387 10.8705 7.57076 12.1849 5.15764C 12.8455 3.94372 14.0474 3.34044 15.2423 3.62001C 17.154 4.06143 18.0818 6.17291 17.1329 7.99011C 16.4512 9.29231 15.7272 10.5724 15.0314 11.8673C 14.4902 12.8752 13.949 13.8831 13.4008 14.891ZM 19.1923 19.4892C 18.6792 20.2911 17.892 20.6516 17.2103 20.681C 15.3618 20.7105 13.9912 19.2096 14.1107 17.5175C 14.1599 16.8407 14.4902 16.2668 14.7995 15.693C 15.6218 14.1774 16.4371 12.6618 17.2595 11.1463C 17.5265 10.6607 17.7725 10.1604 18.0818 9.70431C 19.3118 7.88711 21.8772 8.05632 22.8753 10.028C 23.4235 11.1095 23.2478 12.1616 22.6644 13.1916C 21.9616 14.4275 21.3009 15.6856 20.6191 16.9363C 20.1482 17.7897 19.7124 18.6726 19.1923 19.4892ZM 27.9499 18.8344C 27.2822 20.0778 26.6074 21.3138 25.9186 22.5424C 25.3774 23.5135 24.5551 24.0138 23.4727 24.0285C 21.336 24.0359 19.9655 21.6963 20.9846 19.7173C 21.6664 18.3856 22.3833 17.0761 23.1213 15.7812C 23.7257 14.7218 24.6675 14.2363 25.8343 14.3687C 26.9448 14.4938 27.732 15.1485 28.1467 16.23C 28.4981 17.1202 28.3927 18.0031 27.9499 18.8344Z"/>
<path id="path1_stroke" d="M 29.6578 18.9595L 30.3674 19.2025L 30.3697 19.1954L 29.6578 18.9595ZM 29.461 15.1853L 28.7905 15.5214L 28.7912 15.5227L 29.461 15.1853ZM 25.9116 12.706L 25.969 11.9582L 25.9647 11.9579L 25.9116 12.706ZM 24.6394 12.6986L 23.9111 12.5196L 23.6828 13.4486L 24.6394 13.4486L 24.6394 12.6986ZM 23.5219 8.12989L 24.0657 7.61341L 24.0657 7.6134L 23.5219 8.12989ZM 19.1642 6.93069L 18.4202 7.02546L 18.5291 7.8803L 19.3607 7.65448L 19.1642 6.93069ZM 17.6812 3.09766L 17.164 3.64083L 17.1665 3.64317L 17.6812 3.09766ZM 13.6187 2.02353L 13.4403 1.29505L 13.4384 1.29551L 13.6187 2.02353ZM 11.8615 2.95787L 12.3664 3.51252L 12.3686 3.51046L 11.8615 2.95787ZM 11.482 2.87695L 12.175 2.59007L 12.1721 2.58307L 12.169 2.57612L 11.482 2.87695ZM 11.229 2.3546L 11.8774 1.97755L 11.8733 1.97077L 11.229 2.3546ZM 8.03802 0.081263L 8.18718 -0.653755L 8.18591 -0.654011L 8.03802 0.081263ZM 3.5749 2.22953L 2.91542 1.87232L 2.91445 1.87413L 3.5749 2.22953ZM 0.643996 7.62961L -0.0108725 7.26402L -0.0123945 7.26677L 0.643996 7.62961ZM 0.201198 11.2934L 0.919895 11.079L 0.919518 11.0778L 0.201198 11.2934ZM 5.38826 14.5085L 5.54242 15.2425L 5.5451 15.2419L 5.38826 14.5085ZM 6.08409 15.0602L 6.83322 15.0242L 6.83243 15.0077L 6.8309 14.9912L 6.08409 15.0602ZM 9.31721 18.8344L 9.09562 19.5509L 9.09895 19.552L 9.31721 18.8344ZM 11.8405 18.7535L 12.0949 19.459L 12.1004 19.457L 11.8405 18.7535ZM 12.5363 18.5475L 12.1513 19.1911L 12.1588 19.1956L 12.1664 19.1999L 12.5363 18.5475ZM 12.8104 19.2685L 12.0921 19.4842L 12.0928 19.4866L 12.8104 19.2685ZM 16.7183 22.3437L 16.7549 21.5946L 16.7535 21.5946L 16.7183 22.3437ZM 18.869 21.917L 19.176 22.6014L 19.1876 22.596L 18.869 21.917ZM 19.1712 22.0936L 19.9034 21.9309L 19.902 21.9251L 19.1712 22.0936ZM 19.4594 23.0353L 18.7764 23.3453L 18.7799 23.3527L 19.4594 23.0353ZM 22.4395 25.5882L 22.6441 24.8666L 22.6438 24.8666L 22.4395 25.5882ZM 27.1767 23.6386L 27.8324 24.0028L 27.8324 24.0027L 27.1767 23.6386ZM 29.0744 20.0704L 29.736 20.4237L 29.7426 20.4114L 29.7487 20.3988L 29.0744 20.0704ZM 6.87831 11.5436L 7.53507 11.9057L 7.53569 11.9046L 6.87831 11.5436ZM 4.60809 12.9341L 4.6187 13.684L 4.62456 13.6839L 4.60809 12.9341ZM 1.62799 9.73374L 0.88296 9.64746L 0.882532 9.65134L 1.62799 9.73374ZM 2.12702 8.31382L 2.78852 8.66729L 2.79068 8.66318L 2.12702 8.31382ZM 5.03683 2.94316L 5.69668 3.29969L 5.69839 3.29649L 5.03683 2.94316ZM 7.82013 1.75132L 7.99949 1.02308L 7.99839 1.02281L 7.82013 1.75132ZM 10.238 4.73093L 9.48911 4.68862L 9.48875 4.6963L 10.238 4.73093ZM 9.82327 6.06992L 9.16284 5.7143L 9.15778 5.72405L 9.82327 6.06992ZM 13.4008 14.891L 14.0584 15.2517L 14.0596 15.2494L 13.4008 14.891ZM 12.7261 16.0682L 13.3468 16.489L 13.3479 16.4875L 12.7261 16.0682ZM 9.06419 16.9437L 9.37646 16.2618L 9.3747 16.261L 9.06419 16.9437ZM 7.65848 13.9052L 8.39242 14.0597L 8.39365 14.0536L 7.65848 13.9052ZM 8.2559 12.4043L 8.91656 12.7594L 8.9166 12.7593L 8.2559 12.4043ZM 12.1849 5.15764L 12.8435 5.51638L 12.8436 5.51617L 12.1849 5.15764ZM 15.2423 3.62001L 15.0714 4.35029L 15.0735 4.35078L 15.2423 3.62001ZM 17.1329 7.99011L 17.7974 8.33798L 17.7978 8.33725L 17.1329 7.99011ZM 15.0314 11.8673L 14.3708 11.5123L 14.3706 11.5125L 15.0314 11.8673ZM 19.1923 19.4892L 19.8241 19.8934L 19.8249 19.8921L 19.1923 19.4892ZM 17.2103 20.681L 17.2222 21.431L 17.2324 21.4308L 17.2426 21.4304L 17.2103 20.681ZM 14.1107 17.5175L 13.3626 17.4631L 13.3625 17.4647L 14.1107 17.5175ZM 14.7995 15.693L 14.1403 15.3353L 14.1392 15.3372L 14.7995 15.693ZM 17.2595 11.1463L 16.6023 10.7848L 16.6003 10.7886L 17.2595 11.1463ZM 18.0818 9.70431L 18.7026 10.1252L 18.7029 10.1247L 18.0818 9.70431ZM 22.8753 10.028L 22.2061 10.3667L 22.2063 10.3671L 22.8753 10.028ZM 22.6644 13.1916L 23.3164 13.5623L 23.317 13.5612L 22.6644 13.1916ZM 20.6191 16.9363L 21.2758 17.2986L 21.2776 17.2953L 20.6191 16.9363ZM 27.9499 18.8344L 28.6106 19.1893L 28.6118 19.187L 27.9499 18.8344ZM 25.9186 22.5424L 25.2644 22.1756L 25.2635 22.1773L 25.9186 22.5424ZM 23.4727 24.0285L 23.4753 24.7785L 23.4829 24.7784L 23.4727 24.0285ZM 20.9846 19.7173L 21.6514 20.0606L 21.6522 20.0591L 20.9846 19.7173ZM 23.1213 15.7812L 22.4698 15.4096L 22.4697 15.4099L 23.1213 15.7812ZM 25.8343 14.3687L 25.7497 15.1139L 25.7503 15.114L 25.8343 14.3687ZM 28.1467 16.23L 27.4464 16.4986L 27.4491 16.5054L 28.1467 16.23ZM 30.3697 19.1954C 30.8424 17.7689 30.8474 16.2705 30.1308 14.8479L 28.7912 15.5227C 29.2976 16.528 29.3166 17.6046 28.9459 18.7236L 30.3697 19.1954ZM 30.1315 14.8492C 29.2818 13.1543 27.8903 12.1056 25.969 11.9582L 25.8542 13.4538C 27.1941 13.5566 28.1502 14.2441 28.7905 15.5214L 30.1315 14.8492ZM 25.9647 11.9579C 25.5157 11.926 25.0283 11.9486 24.6394 11.9486L 24.6394 13.4486C 25.1362 13.4486 25.4781 13.4271 25.8585 13.4541L 25.9647 11.9579ZM 25.3678 12.8776C 25.8586 10.8805 25.4459 9.06666 24.0657 7.61341L 22.9781 8.64638C 23.9735 9.69453 24.2918 10.9706 23.9111 12.5196L 25.3678 12.8776ZM 24.0657 7.6134C 22.676 6.15019 20.9066 5.6804 18.9677 6.2069L 19.3607 7.65448C 20.7814 7.26871 21.9781 7.59348 22.9781 8.64639L 24.0657 7.6134ZM 19.9082 6.83592C 19.9032 6.79658 19.8978 6.76165 19.8932 6.73331C 19.8876 6.69871 19.8857 6.68855 19.8824 6.66705C 19.8772 6.63355 19.8791 6.63665 19.8791 6.65112L 18.3791 6.65112C 18.3791 6.75388 18.3915 6.84159 18.4003 6.89821C 18.4113 6.96872 18.4148 6.98317 18.4202 7.02546L 19.9082 6.83592ZM 19.8791 6.65112C 19.8791 5.07076 19.3655 3.6557 18.1959 2.55215L 17.1665 3.64317C 17.993 4.42303 18.3791 5.42108 18.3791 6.65112L 19.8791 6.65112ZM 18.1984 2.5545C 16.8418 1.26286 15.2145 0.860593 13.4403 1.29505L 13.7971 2.752C 15.0873 2.43604 16.1871 2.71063 17.164 3.64082L 18.1984 2.5545ZM 13.4384 1.29551C 12.671 1.48554 11.966 1.84403 11.3544 2.40529L 12.3686 3.51046C 12.7832 3.13002 13.2591 2.88522 13.7989 2.75154L 13.4384 1.29551ZM 11.3567 2.40323C 11.3498 2.4095 11.3758 2.38349 11.4337 2.35686C 11.4961 2.3282 11.6182 2.28928 11.7743 2.31651C 12.108 2.37472 12.1958 2.64034 12.175 2.59007L 10.789 3.16382C 10.8596 3.33427 11.0564 3.71392 11.5165 3.7942C 11.9454 3.86901 12.2538 3.61496 12.3664 3.51252L 11.3567 2.40323ZM 12.169 2.57612C 12.0944 2.40569 12.0007 2.18981 11.8773 1.97757L 10.5806 2.73162C 10.654 2.85781 10.715 2.99506 10.795 3.17777L 12.169 2.57612ZM 11.8733 1.97077C 11.0197 0.537806 9.77122 -0.33229 8.18718 -0.653754L 7.88885 0.81628C 9.06001 1.05395 9.94818 1.66998 10.5846 2.73842L 11.8733 1.97077ZM 8.18591 -0.654011C 6.05703 -1.08221 3.9582 -0.0528794 2.91542 1.87232L 4.23437 2.58673C 4.97684 1.21596 6.43445 0.523744 7.89013 0.816537L 8.18591 -0.654011ZM 2.91445 1.87413C 1.9422 3.6809 0.98348 5.48289 -0.0108667 7.26402L 1.29886 7.9952C 2.30062 6.2008 3.26772 4.38311 4.23535 2.58492L 2.91445 1.87413ZM -0.0123945 7.26677C -0.745319 8.59266 -0.968151 10.0069 -0.517122 11.5091L 0.919518 11.0778C 0.597407 10.005 0.740059 9.00611 1.30039 7.99245L -0.0123945 7.26677ZM -0.517498 11.5079C 0.247783 14.0729 2.9655 15.7837 5.54242 15.2425L 5.2341 13.7745C 3.46738 14.1455 1.47598 12.9429 0.919894 11.079L -0.517498 11.5079ZM 5.5451 15.2419C 5.62884 15.224 5.69138 15.2107 5.74369 15.2007C 5.79709 15.1905 5.82236 15.1873 5.83183 15.1864C 5.84387 15.1853 5.80806 15.1903 5.74816 15.1797C 5.67853 15.1674 5.57679 15.1339 5.47903 15.0529C 5.38437 14.9744 5.33816 14.8884 5.31827 14.8416C 5.30066 14.8002 5.2987 14.7778 5.30257 14.7992C 5.30598 14.8181 5.31061 14.8514 5.3168 14.9114C 5.32301 14.9715 5.32889 15.0386 5.33727 15.1293L 6.8309 14.9912C 6.81723 14.8434 6.80324 14.6684 6.77862 14.5322C 6.75817 14.4191 6.70006 14.1166 6.43612 13.8979C 6.15307 13.6633 5.82916 13.6805 5.69586 13.6926C 5.54929 13.7059 5.37568 13.7442 5.23142 13.7751L 5.5451 15.2419ZM 5.33495 15.0963C 5.40139 16.4779 6.21877 17.5467 7.0067 18.2554C 7.7911 18.9609 8.66593 19.4181 9.09562 19.5509L 9.53881 18.1179C 9.34999 18.0595 8.66097 17.7258 8.00978 17.1401C 7.36214 16.5576 6.87221 15.835 6.83322 15.0242L 5.33495 15.0963ZM 9.09895 19.552C 10.0832 19.8513 11.1135 19.8129 12.0949 19.459L 11.586 18.048C 10.8946 18.2973 10.1959 18.3178 9.53548 18.1169L 9.09895 19.552ZM 12.1004 19.457C 12.1934 19.4227 12.284 19.3804 12.3469 19.351C 12.4205 19.3166 12.4654 19.2953 12.5071 19.2782C 12.5257 19.2706 12.536 19.2671 12.5398 19.2659C 12.5443 19.2645 12.5345 19.268 12.5136 19.2712C 12.4857 19.2755 12.3283 19.297 12.1513 19.1911L 12.9213 17.9039C 12.6705 17.7538 12.4191 17.768 12.2842 17.7889C 12.1434 17.8106 12.0191 17.8572 11.9382 17.8903C 11.8542 17.9247 11.7678 17.966 11.7116 17.9923C 11.6446 18.0236 11.607 18.0402 11.5806 18.05L 12.1004 19.457ZM 12.1664 19.1999C 12.0371 19.1266 11.9851 19.0314 11.9769 19.0158C 11.9672 18.9976 11.9718 19.0006 11.9849 19.0479C 11.9976 19.0934 12.009 19.1451 12.0267 19.2243C 12.0422 19.2936 12.0639 19.3902 12.0921 19.4842L 13.5287 19.0528C 13.5183 19.018 13.5074 18.9721 13.4906 18.897C 13.476 18.8318 13.4554 18.7373 13.4303 18.6467C 13.4056 18.5578 13.3667 18.4349 13.3019 18.3128C 13.2386 18.1933 13.1198 18.0162 12.9062 17.8951L 12.1664 19.1999ZM 12.0928 19.4866C 12.7276 21.5747 14.6486 22.9973 16.6831 23.0929L 16.7535 21.5946C 15.3439 21.5283 13.9756 20.5231 13.528 19.0504L 12.0928 19.4866ZM 16.6816 23.0928C 17.5657 23.1361 18.3929 22.9526 19.176 22.6013L 18.562 21.2327C 17.9675 21.4994 17.3749 21.625 16.7549 21.5946L 16.6816 23.0928ZM 19.1876 22.596C 19.2126 22.5843 19.1731 22.6071 19.0957 22.6175C 18.9993 22.6305 18.8288 22.6252 18.6607 22.5125C 18.5127 22.4134 18.456 22.2892 18.4435 22.2603C 18.4302 22.2294 18.4304 22.2186 18.4404 22.2621L 19.902 21.9251C 19.8875 21.8619 19.8631 21.7638 19.8203 21.6648C 19.7784 21.5679 19.6874 21.3949 19.4955 21.2663C 19.2835 21.1243 19.0594 21.1088 18.8949 21.131C 18.7493 21.1507 18.6273 21.202 18.5504 21.2381L 19.1876 22.596ZM 18.4391 22.2563C 18.5109 22.5797 18.6087 22.9755 18.7764 23.3452L 20.1424 22.7254C 20.0431 22.5065 19.9721 22.2402 19.9034 21.9309L 18.4391 22.2563ZM 18.7799 23.3527C 19.4892 24.8715 20.645 25.8597 22.2352 26.3099L 22.6438 24.8666C 21.4788 24.5368 20.6666 23.8477 20.1389 22.7179L 18.7799 23.3527ZM 22.2349 26.3098C 23.2648 26.6017 24.4015 26.4822 25.3925 26.0811C 26.3845 25.6798 27.2951 24.9701 27.8324 24.0028L 26.5211 23.2744C 26.1798 23.8888 25.5652 24.3931 24.8299 24.6907C 24.0937 24.9886 23.3011 25.0529 22.6441 24.8666L 22.2349 26.3098ZM 27.8324 24.0027C 28.4887 22.8208 29.1148 21.5868 29.736 20.4237L 28.4129 19.7171C 27.7689 20.923 27.172 22.1022 26.521 23.2745L 27.8324 24.0027ZM 29.7487 20.3988C 29.8237 20.2449 29.9107 20.1068 30.0323 19.8986C 30.1425 19.7099 30.275 19.4721 30.3673 19.2025L 28.9483 18.7165C 28.9071 18.8368 28.8393 18.9669 28.7369 19.1423C 28.6458 19.2983 28.5079 19.5208 28.4002 19.742L 29.7487 20.3988ZM 6.22155 11.1814C 5.8495 11.8561 5.32509 12.1681 4.59163 12.1842L 4.62456 13.6839C 5.90125 13.6558 6.90906 13.0409 7.53507 11.9057L 6.22155 11.1814ZM 4.59748 12.1841C 3.42196 12.2008 2.23322 11.0848 2.37345 9.81614L 0.882532 9.65134C 0.629168 11.9435 2.67355 13.7115 4.6187 13.684L 4.59748 12.1841ZM 2.37301 9.82001C 2.41324 9.47265 2.57313 9.07034 2.7885 8.66728L 1.46553 7.96036C 1.21702 8.42544 0.955203 9.02369 0.88297 9.64746L 2.37301 9.82001ZM 2.79068 8.66318C 3.73785 6.86389 4.71909 5.10895 5.69667 3.29969L 4.37699 2.58664C 3.4147 4.36762 2.41389 6.15879 1.46336 7.96446L 2.79068 8.66318ZM 5.69839 3.29649C 6.02779 2.67973 6.87498 2.29217 7.64187 2.47982L 7.99839 1.02281C 6.60049 0.680752 5.04392 1.33789 4.37528 2.58983L 5.69839 3.29649ZM 7.64077 2.47955C 8.79036 2.76269 9.54247 3.74472 9.48915 4.68862L 10.9868 4.77323C 11.0881 2.98031 9.71756 1.44622 7.99949 1.02308L 7.64077 2.47955ZM 9.48875 4.6963C 9.47474 4.99938 9.351 5.36504 9.16292 5.71434L 10.4836 6.42549C 10.7313 5.96551 10.959 5.37475 10.9872 4.76556L 9.48875 4.6963ZM 9.15778 5.72405C 8.20614 7.55515 7.21865 9.36594 6.22093 11.1825L 7.53569 11.9046C 8.53408 10.0868 9.52863 8.26321 10.4888 6.41578L 9.15778 5.72405ZM 12.7432 14.5304C 12.5083 14.9588 12.3318 15.3114 12.1042 15.6488L 13.3479 16.4875C 13.6264 16.0745 13.8576 15.6179 14.0584 15.2517L 12.7432 14.5304ZM 12.1053 15.6473C 12.1315 15.6086 12.1362 15.6169 12.0718 15.6667C 12.017 15.7091 11.9357 15.7634 11.8281 15.8243C 11.6131 15.9459 11.3279 16.0741 11.013 16.1755C 10.3392 16.3926 9.73157 16.4244 9.37646 16.2618L 8.75191 17.6256C 9.63382 18.0294 10.7025 17.8515 11.473 17.6033C 11.8803 17.472 12.2593 17.3037 12.5666 17.1299C 12.7202 17.043 12.8646 16.9498 12.9895 16.8532C 13.1048 16.764 13.2433 16.6418 13.3468 16.489L 12.1053 15.6473ZM 9.3747 16.261C 9.07663 16.1254 8.79199 15.7304 8.59494 15.1461C 8.50383 14.876 8.44625 14.6073 8.41689 14.388C 8.38358 14.1392 8.39741 14.0359 8.3924 14.0597L 6.92456 13.7507C 6.87386 13.9915 6.89297 14.3094 6.93016 14.5871C 6.9713 14.8943 7.04947 15.2574 7.1736 15.6255C 7.40705 16.3177 7.87095 17.2249 8.75367 17.6264L 9.3747 16.261ZM 8.39365 14.0536C 8.47641 13.6435 8.6714 13.2156 8.91656 12.7594L 7.59525 12.0493C 7.33435 12.5348 7.0514 13.1221 6.9233 13.7568L 8.39365 14.0536ZM 8.9166 12.7593C 10.2157 10.341 11.529 7.92981 12.8435 5.51638L 11.5262 4.7989C 10.2121 7.2117 8.89668 9.62672 7.5952 12.0494L 8.9166 12.7593ZM 12.8436 5.51617C 13.3704 4.5482 14.2581 4.15999 15.0714 4.35029L 15.4131 2.88973C 13.8367 2.52089 12.3206 3.33925 11.5261 4.79911L 12.8436 5.51617ZM 15.0735 4.35078C 16.4736 4.67407 17.2059 6.22994 16.4681 7.64297L 17.7978 8.33725C 18.9577 6.11589 17.8344 3.4488 15.411 2.88924L 15.0735 4.35078ZM 16.4685 7.64224C 15.7864 8.94504 15.0797 10.1931 14.3708 11.5123L 15.6921 12.2223C 16.3748 10.9518 17.1159 9.63959 17.7974 8.33798L 16.4685 7.64224ZM 14.3706 11.5125C 13.8293 12.5207 13.289 13.5268 12.7419 14.5327L 14.0596 15.2494C 14.609 14.2394 15.1511 13.2297 15.6922 12.2221L 14.3706 11.5125ZM 18.5606 19.085C 18.186 19.6704 17.6286 19.9123 17.1779 19.9317L 17.2426 21.4304C 18.1554 21.391 19.1724 20.9119 19.8241 19.8934L 18.5606 19.085ZM 17.1983 19.9311C 15.7806 19.9537 14.7709 18.8149 14.8588 17.5703L 13.3625 17.4647C 13.2115 19.6043 14.9429 21.4672 17.2222 21.431L 17.1983 19.9311ZM 14.8587 17.5719C 14.8939 17.0877 15.1275 16.6652 15.4597 16.0488L 14.1392 15.3372C 13.8529 15.8684 13.4259 16.5936 13.3626 17.4631L 14.8587 17.5719ZM 15.4587 16.0506C 15.8702 15.2922 16.28 14.5338 16.6893 13.7761C 17.0988 13.0183 17.5079 12.2611 17.9187 11.504L 16.6003 10.7886C 16.1887 11.5471 15.779 12.3054 15.3696 13.0631C 14.9602 13.821 14.5511 14.5782 14.1403 15.3353L 15.4587 16.0506ZM 17.9166 11.5078C 18.2061 10.9814 18.4194 10.5428 18.7026 10.1252L 17.461 9.28343C 17.1257 9.77805 16.847 10.34 16.6023 10.7848L 17.9166 11.5078ZM 18.7029 10.1247C 19.6083 8.78709 21.4631 8.89884 22.2061 10.3667L 23.5444 9.6893C 22.2914 7.21381 19.0153 6.98713 17.4607 9.28391L 18.7029 10.1247ZM 22.2063 10.3671C 22.6081 11.1598 22.512 11.9388 22.0118 12.8219L 23.317 13.5612C 23.9835 12.3843 24.2388 11.0592 23.5442 9.68891L 22.2063 10.3671ZM 22.0125 12.8208C 21.3054 14.0641 20.6347 15.3408 19.9606 16.5773L 21.2776 17.2953C 21.9671 16.0304 22.6177 14.791 23.3164 13.5623L 22.0125 12.8208ZM 19.9624 16.574C 19.4687 17.4687 19.0634 18.2955 18.5597 19.0863L 19.8249 19.8921C 20.3614 19.0497 20.8277 18.1107 21.2758 17.2986L 19.9624 16.574ZM 27.2891 18.4796C 26.623 19.72 25.9505 20.9519 25.2644 22.1756L 26.5728 22.9091C 27.2644 21.6757 27.9413 20.4356 28.6106 19.1893L 27.2891 18.4796ZM 25.2635 22.1773C 24.8483 22.9223 24.2672 23.2676 23.4625 23.2786L 23.4829 24.7784C 24.843 24.76 25.9065 24.1048 26.5738 22.9075L 25.2635 22.1773ZM 23.4701 23.2785C 21.9412 23.2838 20.8688 21.5803 21.6514 20.0606L 20.3178 19.3739C 19.0621 21.8124 20.7308 24.788 23.4753 24.7785L 23.4701 23.2785ZM 21.6522 20.0591C 22.3277 18.7396 23.039 17.4401 23.7729 16.1526L 22.4697 15.4099C 21.7275 16.712 21.005 18.0317 20.317 19.3755L 21.6522 20.0591ZM 23.7727 16.1529C 24.0152 15.7278 24.3035 15.4541 24.6126 15.2936C 24.9205 15.1337 25.2946 15.0623 25.7497 15.1139L 25.9189 13.6235C 25.2072 13.5427 24.5271 13.6478 23.9212 13.9624C 23.3166 14.2764 22.8317 14.7753 22.4698 15.4096L 23.7727 16.1529ZM 25.7503 15.114C 26.5557 15.2047 27.122 15.6525 27.4464 16.4985L 28.847 15.9615C 28.342 14.6446 27.3339 13.7828 25.9182 13.6234L 25.7503 15.114ZM 27.4491 16.5054C 27.7081 17.1617 27.6433 17.8146 27.2879 18.4818L 28.6118 19.187C 29.1421 18.1915 29.288 17.0788 28.8443 15.9546L 27.4491 16.5054Z"/>
<path id="path2_fill" d="M 16.142 15.5018C 16.7464 14.2217 17.3438 12.9489 17.9553 11.6688C 18.4895 10.5432 19.0307 9.42488 19.5649 8.29925C 19.8882 7.60768 20.2185 6.92347 20.5137 6.2172C 20.7316 5.69484 20.5278 5.20928 20.0428 4.92235C 19.4875 4.59128 18.9323 4.26021 18.377 3.91443C 16.3809 2.66373 14.3848 1.40567 12.3817 0.154971C 11.8967 -0.146669 11.3766 0.000472299 11.1165 0.522824C 10.8495 1.05253 10.5964 1.5896 10.3434 2.11931C 9.39456 4.12779 8.45976 6.14362 7.51091 8.1521C 6.548 10.1827 5.57806 12.2132 4.61515 14.2438C 3.79281 15.9727 1.43825 20.9608 0.622937 22.697C 0.60888 22.7191 0.601852 22.7412 0.594823 22.7706C 0.531566 22.8957 0.475338 23.0134 0.41911 23.1311C 0.327739 23.3297 -0.431344 24.8747 0.348824 25.4339C 2.1903 26.5816 4.02475 27.7293 5.86623 28.8843C 6.58314 29.3331 7.30708 29.7966 8.02399 30.2527C 8.53707 30.5764 9.11341 30.4882 9.36644 29.8628C 9.48593 29.5685 9.63353 29.289 9.76707 29.0094C 10.9338 26.5521 12.1076 24.1022 13.2743 21.645C 14.2302 19.5923 15.1861 17.5471 16.142 15.5018ZM 8.42462 28.1118C 8.31216 28.3473 8.18565 28.3914 7.98182 28.2663C 7.76393 28.1265 7.54605 27.9868 7.32114 27.847C 5.64132 26.7949 3.96149 25.7502 2.28167 24.6908C 1.74048 24.3524 1.70533 24.3156 1.8459 23.8153C 2.50659 22.388 4.03881 19.1803 4.69949 17.7825C 5.85217 15.3473 7.01188 12.9121 8.16456 10.4696C 8.8393 9.04967 9.50701 7.62975 10.1818 6.20984C 10.7932 4.91499 11.4117 3.61279 12.0232 2.31059C 12.1287 2.08252 12.213 1.95745 12.4941 2.14138C 14.3567 3.33322 18.6722 5.86406 18.7566 6.13627C 18.7777 6.20248 18.7285 6.29812 18.6933 6.37169C 18.377 7.03383 18.0537 7.69597 17.7374 8.36546C 16.7886 10.3739 15.8468 12.3971 14.8979 14.4056C 13.7382 16.8482 12.5715 19.2907 11.4188 21.7333C 10.4067 23.8594 9.41564 25.9856 8.42462 28.1118Z"/>
<path id="path3_stroke" d="M 16.142 15.5018L 15.4638 15.1816L 15.4625 15.1843L 16.142 15.5018ZM 17.9553 11.6688L 18.6321 11.9921L 18.6329 11.9903L 17.9553 11.6688ZM 19.5649 8.29925L 20.2424 8.6208L 20.2443 8.61688L 19.5649 8.29925ZM 20.5137 6.2172L 21.2057 6.50642L 21.2059 6.50593L 20.5137 6.2172ZM 20.0428 4.92235L 19.6587 5.56654L 19.6609 5.56784L 20.0428 4.92235ZM 18.377 3.91443L 17.9788 4.54998L 17.9806 4.55108L 18.377 3.91443ZM 12.3817 0.154971L 12.7789 -0.481208L 12.7778 -0.481892L 12.3817 0.154971ZM 11.1165 0.522824L 11.7862 0.860492L 11.7879 0.857082L 11.1165 0.522824ZM 10.3434 2.11931L 9.66665 1.79604L 9.66527 1.79894L 10.3434 2.11931ZM 7.51091 8.1521L 8.18857 8.47346L 8.18904 8.47247L 7.51091 8.1521ZM 4.61515 14.2438L 5.29244 14.5659L 5.29281 14.5651L 4.61515 14.2438ZM 0.622937 22.697L 1.25553 23.0999L 1.28137 23.0594L 1.30182 23.0158L 0.622937 22.697ZM 0.594823 22.7706L 1.26409 23.1091L 1.30384 23.0305L 1.32431 22.9448L 0.594823 22.7706ZM 0.41911 23.1311L -0.257717 22.8078L -0.262263 22.8177L 0.41911 23.1311ZM 0.348824 25.4339L -0.0880734 26.0435L -0.0684075 26.0576L -0.0478739 26.0704L 0.348824 25.4339ZM 5.86623 28.8843L 5.4677 29.5197L 5.46828 29.52L 5.86623 28.8843ZM 8.02399 30.2527L 7.62138 30.8855L 7.6238 30.887L 8.02399 30.2527ZM 9.36644 29.8628L 8.67154 29.5807L 8.6712 29.5815L 9.36644 29.8628ZM 9.76707 29.0094L 10.4438 29.3327L 10.4446 29.3311L 9.76707 29.0094ZM 13.2743 21.645L 13.9518 21.9667L 13.9542 21.9616L 13.2743 21.645ZM 8.42462 28.1118L 9.1014 28.4351L 9.1044 28.4287L 8.42462 28.1118ZM 7.98182 28.2663L 7.57683 28.8976L 7.58316 28.9016L 7.58957 28.9056L 7.98182 28.2663ZM 7.32114 27.847L 6.92304 28.4826L 6.92524 28.484L 7.32114 27.847ZM 2.28167 24.6908L 2.68176 24.0564L 2.67932 24.0549L 2.28167 24.6908ZM 1.8459 23.8153L 1.16529 23.5002L 1.14009 23.5547L 1.12387 23.6124L 1.8459 23.8153ZM 4.69949 17.7825L 4.0216 17.4616L 4.02142 17.462L 4.69949 17.7825ZM 8.16456 10.4696L 7.48715 10.1477L 7.48629 10.1495L 8.16456 10.4696ZM 10.1818 6.20984L 10.8592 6.53174L 10.8599 6.53011L 10.1818 6.20984ZM 12.0232 2.31059L 12.7021 2.62938L 12.704 2.62529L 12.0232 2.31059ZM 12.4941 2.14138L 12.0835 2.76903L 12.0899 2.77311L 12.4941 2.14138ZM 18.7566 6.13627L 18.0401 6.35824L 18.0419 6.36384L 18.7566 6.13627ZM 17.7374 8.36546L 18.4156 8.68583L 17.7374 8.36546ZM 14.8979 14.4056L 15.5754 14.7273L 15.576 14.726L 14.8979 14.4056ZM 11.4188 21.7333L 12.096 22.0556L 12.097 22.0533L 11.4188 21.7333ZM 16.8202 15.822C 17.4256 14.5399 18.0216 13.2702 18.6321 11.9921L 17.2786 11.3455C 16.6661 12.6277 16.0672 13.9035 15.4638 15.1816L 16.8202 15.822ZM 18.6329 11.9903C 18.8993 11.429 19.1675 10.8693 19.4364 10.3081C 19.7052 9.74738 19.9746 9.18511 20.2424 8.62079L 18.8873 7.9777C 18.6209 8.53901 18.3527 9.09869 18.0837 9.65988C 17.815 10.2206 17.5455 10.7829 17.2777 11.3472L 18.6329 11.9903ZM 20.2443 8.61688C 20.5622 7.93689 20.9027 7.23142 21.2057 6.50642L 19.8217 5.92797C 19.5343 6.61552 19.2142 7.27847 18.8854 7.98161L 20.2443 8.61688ZM 21.2059 6.50593C 21.3821 6.08361 21.4012 5.63281 21.2431 5.2157C 21.088 4.80634 20.786 4.49061 20.4247 4.27686L 19.6609 5.56784C 19.7846 5.64101 19.827 5.71153 19.8405 5.74728C 19.8511 5.77527 19.8632 5.82842 19.8215 5.92846L 21.2059 6.50593ZM 20.4269 4.27817C 19.8706 3.94651 19.3216 3.61911 18.7735 3.27779L 17.9806 4.55108C 18.543 4.90132 19.1044 5.23605 19.6587 5.56653L 20.4269 4.27817ZM 18.7752 3.27888C 16.7818 2.02987 14.7822 0.769625 12.7789 -0.481207L 11.9845 0.791149C 13.9874 2.04172 15.98 3.29759 17.9788 4.54998L 18.7752 3.27888ZM 12.7778 -0.481892C 12.3835 -0.727165 11.9143 -0.822677 11.4569 -0.690715C 11.0001 -0.558939 10.6529 -0.228717 10.4452 0.188566L 11.7879 0.857082C 11.8148 0.803177 11.8399 0.775617 11.8538 0.763263C 11.8609 0.757001 11.8659 0.75385 11.8685 0.75241C 11.871 0.750995 11.8723 0.75061 11.8727 0.750516C 11.873 0.750423 11.8739 0.750162 11.8761 0.75005C 11.8782 0.749935 11.8831 0.74991 11.8909 0.751242C 11.9064 0.753853 11.9386 0.762649 11.9856 0.791833L 12.7778 -0.481892ZM 10.4469 0.18516C 10.1751 0.724117 9.91724 1.27145 9.66665 1.79604L 11.0202 2.44258C 11.2756 1.90775 11.5238 1.38095 11.7862 0.860488L 10.4469 0.18516ZM 9.66527 1.79894C 9.19018 2.80459 8.7187 3.81188 8.24788 4.81776C 7.77688 5.82404 7.30653 6.82891 6.83277 7.83174L 8.18904 8.47247C 8.66413 7.46682 9.13561 6.45953 9.60643 5.45365C 10.0774 4.44737 10.5478 3.4425 11.0215 2.43967L 9.66527 1.79894ZM 6.83324 7.83075C 6.35205 8.84546 5.86907 9.86026 5.38582 10.8756C 4.90264 11.8908 4.4192 12.9066 3.93748 13.9224L 5.29281 14.5651C 5.774 13.5504 6.25699 12.5356 6.74024 11.5202C 7.22341 10.505 7.70685 9.48929 8.18857 8.47346L 6.83324 7.83075ZM 3.93786 13.9216C 3.11485 15.6519 0.759739 20.6412 -0.055941 22.3782L 1.30182 23.0158C 2.11676 21.2803 4.47077 16.2934 5.29244 14.5659L 3.93786 13.9216ZM -0.00965586 22.2941C -0.0911437 22.4221 -0.121382 22.5408 -0.134659 22.5964L 1.32431 22.9448C 1.32513 22.9414 1.32069 22.9613 1.31023 22.9897C 1.29823 23.0224 1.2806 23.0606 1.25553 23.0999L -0.00965586 22.2941ZM -0.074445 22.4321C -0.142098 22.5659 -0.201828 22.691 -0.257646 22.8078L 1.09587 23.4544C 1.1525 23.3358 1.20523 23.2255 1.26409 23.1091L -0.074445 22.4321ZM -0.262263 22.8177C -0.301887 22.9038 -0.55207 23.4142 -0.676022 23.9893C -0.737963 24.2766 -0.780607 24.6315 -0.722309 24.9874C -0.661489 25.3586 -0.483313 25.7602 -0.0880734 26.0435L 0.785722 24.8243C 0.781434 24.8212 0.780936 24.8205 0.778805 24.8166C 0.775136 24.8101 0.765211 24.7891 0.757957 24.7448C 0.742016 24.6475 0.748572 24.4989 0.790302 24.3053C 0.873692 23.9184 1.04874 23.557 1.10048 23.4445L -0.262263 22.8177ZM -0.0478739 26.0704C 1.79288 27.2176 3.62671 28.3649 5.4677 29.5197L 6.26475 28.249C 4.42279 27.0936 2.58772 25.9455 0.745523 24.7974L -0.0478739 26.0704ZM 5.46828 29.52C 6.18209 29.9669 6.90202 30.4278 7.62138 30.8855L 8.4266 29.62C 7.71214 29.1654 6.98419 28.6993 6.26418 28.2486L 5.46828 29.52ZM 7.6238 30.887C 8.00595 31.1282 8.48728 31.2627 8.97411 31.1414C 9.48446 31.0142 9.86078 30.6407 10.0617 30.1441L 8.6712 29.5815C 8.64283 29.6516 8.61698 29.6786 8.61024 29.6849C 8.60512 29.6897 8.60686 29.6871 8.61137 29.6859C 8.61849 29.6842 8.55511 29.701 8.42418 29.6184L 7.6238 30.887ZM 10.0613 30.145C 10.1697 29.8781 10.2928 29.6488 10.4438 29.3327L 9.09031 28.6861C 8.97422 28.9292 8.80214 29.259 8.67154 29.5807L 10.0613 30.145ZM 10.4446 29.3311C 11.0276 28.1031 11.6125 26.8769 12.1976 25.6501C 12.7827 24.4234 13.3681 23.196 13.9518 21.9667L 12.5968 21.3233C 12.0138 22.5512 11.4289 23.7774 10.8437 25.0043C 10.2587 26.231 9.67326 27.4584 9.08956 28.6877L 10.4446 29.3311ZM 13.9542 21.9616C 14.9098 19.9095 15.8655 17.8647 16.8214 15.8194L 15.4625 15.1843C 14.5067 17.2295 13.5506 19.2752 12.5944 21.3284L 13.9542 21.9616ZM 7.74786 27.7886C 7.73712 27.8111 7.74262 27.7929 7.77206 27.7592C 7.8047 27.7219 7.87527 27.6563 7.9904 27.6161C 8.24098 27.5287 8.41101 27.6497 8.37407 27.6271L 7.58957 28.9056C 7.75646 29.008 8.09165 29.1695 8.48456 29.0324C 8.85065 28.9047 9.02402 28.597 9.10137 28.4351L 7.74786 27.7886ZM 8.3868 27.6351C 8.16959 27.4957 7.94724 27.3531 7.71703 27.21L 6.92524 28.484C 7.14486 28.6205 7.35828 28.7574 7.57683 28.8976L 8.3868 27.6351ZM 7.71923 27.2113C 6.03657 26.1575 4.36042 25.1151 2.68176 24.0564L 1.88159 25.3252C 3.56257 26.3853 5.24606 27.4323 6.92305 28.4826L 7.71923 27.2113ZM 2.67932 24.0549C 2.61152 24.0125 2.55786 23.9787 2.51271 23.9491C 2.46731 23.9194 2.43866 23.8992 2.4202 23.8851C 2.40147 23.8709 2.4029 23.8701 2.4135 23.8813C 2.42556 23.894 2.45067 23.9234 2.47457 23.9697C 2.49963 24.0183 2.51483 24.0689 2.52158 24.1155C 2.52781 24.1586 2.52519 24.1869 2.52476 24.1912C 2.52444 24.1943 2.52535 24.1839 2.53286 24.1513C 2.54027 24.1192 2.55131 24.0774 2.56794 24.0182L 1.12387 23.6124C 1.09013 23.7325 1.04786 23.8874 1.03241 24.0399C 1.0147 24.2146 1.02606 24.4338 1.14168 24.6578C 1.24659 24.861 1.4007 24.9941 1.5108 25.078C 1.62102 25.1621 1.7564 25.2469 1.88402 25.3267L 2.67932 24.0549ZM 2.52652 24.1304C 3.18566 22.7064 4.71365 19.5077 5.37757 18.103L 4.02142 17.462C 3.36397 18.853 1.82751 22.0696 1.16529 23.5002L 2.52652 24.1304ZM 5.37738 18.1034C 6.52877 15.6709 7.69019 13.2321 8.84283 10.7897L 7.48629 10.1495C 6.33358 12.5921 5.17557 15.0237 4.0216 17.4616L 5.37738 18.1034ZM 8.84197 10.7915C 9.17972 10.0807 9.51565 9.37008 9.85121 8.66024C 10.1869 7.95017 10.5222 7.2409 10.8592 6.53174L 9.50434 5.88794C 9.1666 6.59869 8.83066 7.30933 8.4951 8.01918C 8.15943 8.72925 7.82415 9.43852 7.48715 10.1477L 8.84197 10.7915ZM 10.8599 6.53011C 11.4704 5.23742 12.0902 3.93243 12.7021 2.62938L 11.3444 1.99181C 10.7333 3.29315 10.1161 4.59257 9.50357 5.88957L 10.8599 6.53011ZM 12.704 2.62529C 12.7292 2.57077 12.734 2.56569 12.7269 2.57644C 12.72 2.58683 12.665 2.67003 12.544 2.73417C 12.4014 2.80974 12.2575 2.81259 12.1588 2.79133C 12.0816 2.77469 12.0514 2.748 12.0835 2.769L 12.9047 1.51376C 12.719 1.39226 12.2982 1.16682 11.8416 1.40881C 11.6512 1.50973 11.5378 1.65546 11.4766 1.7477C 11.4152 1.8403 11.37 1.93638 11.3424 1.99589L 12.704 2.62529ZM 12.0899 2.77311C 13.0276 3.37316 14.589 4.31418 15.8984 5.12199C 16.559 5.52954 17.1561 5.90343 17.5912 6.19072C 17.8102 6.33532 17.9777 6.45112 18.0888 6.53468C 18.1458 6.57755 18.1748 6.60217 18.1848 6.61143C 18.1904 6.61651 18.179 6.60682 18.1608 6.58497C 18.1556 6.5788 18.0829 6.49618 18.0402 6.35824L 19.473 5.9143C 19.425 5.75934 19.3387 5.65529 19.3121 5.62351C 19.2725 5.57605 19.2319 5.53654 19.2008 5.50784C 19.1374 5.44954 19.0633 5.39072 18.9905 5.336C 18.8422 5.2244 18.6442 5.08851 18.4176 4.93894C 17.9617 4.63789 17.3476 4.25355 16.686 3.84538C 15.3509 3.02176 13.8232 2.10145 12.8984 1.50965L 12.0899 2.77311ZM 18.0419 6.36384C 18.0061 6.2513 18.0095 6.15748 18.0153 6.10639C 18.0211 6.05488 18.0324 6.02028 18.0359 6.01C 18.0399 5.99824 18.042 5.99445 18.0379 6.00349C 18.0328 6.01476 18.0292 6.02204 18.0166 6.04843L 19.3701 6.69496C 19.3779 6.67856 19.4242 6.58664 19.4562 6.49244C 19.4815 6.41784 19.5581 6.18151 19.4712 5.90869L 18.0419 6.36384ZM 18.0166 6.04843C 17.705 6.70061 17.3755 7.37586 17.0593 8.04509L 18.4156 8.68583C 18.732 8.01607 19.049 7.36705 19.3701 6.69496L 18.0166 6.04843ZM 17.0593 8.04509C 16.5843 9.05046 16.1112 10.0593 15.6386 11.0671C 15.1659 12.0752 14.6937 13.0821 14.2198 14.0852L 15.576 14.726C 16.051 13.7206 16.5241 12.7117 16.9967 11.704C 17.4695 10.6959 17.9417 9.68894 18.4156 8.68583L 17.0593 8.04509ZM 14.2204 14.0839C 13.0618 16.5242 11.8936 18.9697 10.7405 21.4132L 12.097 22.0533C 13.2493 19.6117 14.4146 17.1721 15.5754 14.7273L 14.2204 14.0839ZM 10.7416 21.4109C 9.72795 23.5403 8.73565 25.6692 7.74483 27.795L 9.1044 28.4287C 10.0956 26.302 11.0854 24.1786 12.096 22.0556L 10.7416 21.4109Z"/>
<path id="path4_fill" d="M 59.1871 24.1963C 58.7373 23.1663 58.2593 22.151 57.7814 21.1358C 56.9801 19.4436 56.1648 17.7589 55.3636 16.0594C 54.4218 14.0583 53.494 12.0498 52.5522 10.0487C 51.5893 8.00341 50.6193 5.9655 49.6494 3.92759C 49.1011 2.77253 48.5529 1.61747 47.9906 0.469768C 47.7657 0.0136295 47.2245 -0.133512 46.8098 0.131343L 38.9098 5.03851L 38.9238 5.06794C 38.6567 5.25922 38.5443 5.56086 38.5373 5.89928C 38.5373 5.92871 38.5373 5.95814 38.5443 5.98757L 38.5373 5.98757C 38.5373 5.98757 38.6146 6.27449 38.8887 6.92192C 38.8887 6.94399 38.8957 6.97342 38.8957 6.99549C 38.9027 7.00284 38.9168 7.00284 38.9238 7.0102C 38.959 7.09113 38.9941 7.17941 39.0363 7.2677C 38.6567 7.54727 37.0402 8.6729 35.1846 9.03339C 35.1214 9.03339 35.0581 9.04075 34.9878 9.04811C 33.6524 9.23204 32.3521 8.99661 31.1995 8.29033C 30.0187 7.56198 28.8941 6.73063 27.7766 5.89193C 26.413 4.88401 24.937 4.25866 23.2572 4.24394C 20.7761 4.22187 18.288 4.22923 15.807 4.24394C 14.598 4.2513 13.5156 4.67801 12.5879 5.48729C 10.5426 7.27506 8.51133 9.07754 6.47305 10.8727C 4.65969 12.4765 2.83227 14.073 1.01891 15.6768C -0.30246 16.8466 -0.344633 18.6564 0.927533 19.863C 1.6093 20.5104 2.47381 20.7826 3.36644 20.8562C 4.245 20.9298 5.13763 20.9592 6.0162 20.9224C 7.45002 20.8562 8.86276 20.6134 10.156 19.9292C 11.2665 19.348 12.3489 18.6932 13.4243 18.0384C 13.7827 17.8177 14.0779 17.7957 14.4223 18.0311C 15.0619 18.4578 15.7156 18.8624 16.3622 19.2671C 18.8784 20.8415 21.4017 22.4159 23.9179 23.9903C 26.1038 25.3587 28.2896 26.7345 30.4755 28.1103C 32.6614 29.4787 34.8543 30.8471 37.0402 32.2155C 38.7622 33.2896 40.4771 34.3638 42.1991 35.4379C 42.8317 35.8278 43.3096 36.3502 43.5556 37.0933C 43.9422 38.2557 43.64 39.5284 42.7684 40.2936C 41.8055 41.147 40.5685 41.3015 39.5072 40.6541C 37.8133 39.6094 36.1335 38.5426 34.4466 37.4832C 33.7789 37.0638 33.1182 36.6445 32.4224 36.2178C 30.2225 35.4011 30.8972 37.211 31.2065 37.4022C 32.3662 38.1306 33.5189 38.8663 34.6786 39.5873C 35.3814 40.0214 36.0421 40.4701 36.4076 41.3088C 37.1948 43.104 36.0351 45.2964 34.032 45.4582C 33.3572 45.5097 32.7598 45.2817 32.1834 44.9138C 30.4615 43.8029 28.7184 42.7214 26.9753 41.6473C 26.7644 41.5148 25.1057 42.4418 25.4431 42.6552C 26.2865 43.1923 27.137 43.722 27.9944 44.237C 28.7606 44.6931 29.3088 45.3332 29.5196 46.2381C 29.8078 47.4667 29.372 48.6291 28.3178 49.3943C 27.4673 50.0123 26.2865 50.0785 25.2744 49.4384C 24.7683 49.1147 24.2553 48.8057 23.7492 48.482C 22.709 47.8272 21.6758 47.1724 20.6356 46.5177C 20.242 46.2749 19.7078 46.3852 19.4899 46.7531C 19.2509 47.1651 19.3774 47.6874 19.7921 47.9523C 20.1717 48.1877 20.5512 48.4231 20.9308 48.6586C 21.6898 49.1294 22.2592 49.7474 22.456 50.6891C 22.709 51.881 22.3716 52.8815 21.493 53.6393C 20.5864 54.4191 19.5391 54.5589 18.4778 53.9998C 17.7468 53.6172 17.0651 53.1464 16.3692 52.6976C 16.1514 52.5578 16.0248 52.5504 15.8913 52.8006C 15.7437 53.0875 15.6031 53.3965 15.3993 53.6393C 15.1744 53.9115 15.315 54.0145 15.5118 54.1396C 16.06 54.4854 16.6152 54.8164 17.1564 55.1696C 18.6113 56.1186 20.1295 56.2952 21.6828 55.4859C 23.2221 54.6914 24.0444 53.3671 24.1147 51.5499C 24.1217 51.285 24.1147 51.0275 24.1147 50.6891C 25.7523 51.7338 27.39 51.903 29.0136 50.9098C 30.6512 49.9093 31.2768 48.3128 31.2065 46.2969C 32.8582 47.2975 34.4958 47.4814 36.1124 46.4662C 37.7219 45.4509 38.3826 43.8838 38.235 41.8753C 38.4248 41.971 38.5724 42.0372 38.713 42.1108C 40.1819 42.9127 41.6579 42.9348 43.0988 42.0813C 44.2725 41.3898 45.0035 40.3156 45.2355 38.9031C 45.5025 37.2477 45.0949 35.791 43.893 34.6875C 43.2042 34.0548 42.3608 33.5986 41.5666 33.091C 39.4088 31.7152 37.237 30.3615 35.0722 29.0005C 32.8933 27.6321 30.7075 26.2784 28.5286 24.9173C 26.2514 23.49 23.9882 22.048 21.7109 20.6208C 19.3774 19.1567 17.0299 17.7 14.6964 16.2286C 14.1763 15.8975 13.7054 15.8828 13.1853 16.2065C 12.3208 16.751 11.4563 17.3101 10.5637 17.8104C 9.88892 18.1856 9.1931 18.5608 8.46916 18.7962C 6.99316 19.2818 5.45391 19.3848 3.92169 19.2376C 3.37347 19.1861 2.81821 19.0243 2.30513 18.8109C 1.5109 18.4799 1.3633 17.6412 1.98884 17.0379C 2.72684 16.3316 3.51404 15.6768 4.27312 15C 7.22511 12.3956 10.1841 9.79853 13.1291 7.17206C 14.6262 5.64179 21.3244 5.914 23.2572 5.92135C 24.445 5.92871 25.5134 6.33335 26.4974 7.03227C 27.8539 7.99605 29.2104 8.97454 30.6161 9.85739C 31.2557 10.2547 32.0288 10.4312 32.6825 10.6887C 32.6895 10.674 32.6895 10.6593 32.6965 10.6519C 33.561 10.8727 36.3233 11.2994 39.9219 9.07018C 40.5334 10.365 41.1519 11.6672 41.7634 12.9621C 42.2764 14.0436 42.7895 15.125 43.2956 16.2065C 43.9563 17.6117 44.6169 19.0243 45.2847 20.4368C 46.1 22.1658 46.9153 23.8873 47.7306 25.6089C 48.4124 27.0361 49.0871 28.4708 49.7829 29.8907C 50.0641 30.4572 50.5561 30.5896 51.0621 30.2659C 51.9899 29.6773 52.9177 29.0888 53.8454 28.5076C 55.469 27.4849 57.0996 26.4623 58.7303 25.4397C 59.2082 25.1527 59.398 24.6892 59.1871 24.1963ZM 57.3878 24.3435C 56.3897 24.9762 55.3987 25.6015 54.4007 26.2342C 53.3183 26.9111 52.2359 27.5879 51.1605 28.2648C 50.9637 28.3898 50.8231 28.3898 50.7107 28.1397C 50.3663 27.3893 50.0149 26.6536 49.6634 25.9105C 48.8692 24.2184 48.075 22.5189 47.2737 20.8268C 46.0508 18.2371 44.8208 15.6548 43.5978 13.0651C 42.916 11.6231 42.2343 10.1811 41.5525 8.73911C 41.3206 8.25355 41.1167 7.75326 40.8426 7.29713C 40.681 6.77477 40.6036 6.05378 41.1589 5.64914C 41.2784 5.56086 41.3557 5.48729 41.4119 5.42843L 42.67 4.64858C 42.67 4.64858 42.6771 4.64858 42.6771 4.64122L 43.1901 4.32487C 43.2323 4.3028 43.2675 4.28073 43.3026 4.25866C 43.6962 4.02323 44.0898 3.77309 44.4975 3.51559L 46.845 2.05889C 46.9785 2.05154 47.0629 2.18396 47.1332 2.38996C 47.1964 2.57389 47.2878 2.7431 47.3721 2.91967C 48.3421 4.95758 49.312 6.99549 50.2819 9.04075C 51.2378 11.0639 52.1937 13.0871 53.1496 15.1103C 53.5994 16.0594 54.0563 17.0085 54.5061 17.9575C 55.2511 19.5319 55.9891 21.1063 56.7341 22.6808C 56.9872 23.2105 57.2332 23.7475 57.4792 24.2625C 57.4229 24.3067 57.4089 24.3287 57.3878 24.3435Z"/>
<path id="path5_stroke" d="M 59.1871 24.1963L 59.8767 23.9013L 59.8744 23.8961L 59.1871 24.1963ZM 57.7814 21.1358L 58.46 20.8163L 58.4592 20.8148L 57.7814 21.1358ZM 55.3636 16.0594L 54.685 16.3788L 54.6852 16.3792L 55.3636 16.0594ZM 52.5522 10.0487L 53.2308 9.72929L 53.2307 9.72921L 52.5522 10.0487ZM 49.6494 3.92759L 48.9718 4.24918L 48.9722 4.24991L 49.6494 3.92759ZM 47.9906 0.469768L 48.6642 0.139798L 48.6633 0.138086L 47.9906 0.469768ZM 46.8098 0.131343L 47.2056 0.76849L 47.2135 0.763422L 46.8098 0.131343ZM 38.9098 5.03851L 38.514 4.40141L 37.9435 4.75578L 38.233 5.36179L 38.9098 5.03851ZM 38.9238 5.06794L 39.3605 5.67769L 39.8715 5.31175L 39.6006 4.74465L 38.9238 5.06794ZM 38.5373 5.89928L 37.7874 5.88371L 37.7873 5.8915L 37.7873 5.89928L 38.5373 5.89928ZM 38.5443 5.98757L 38.5443 6.73757L 39.4945 6.73757L 39.2738 5.81334L 38.5443 5.98757ZM 38.5373 5.98757L 38.5373 5.23757L 37.5584 5.23757L 37.8131 6.1827L 38.5373 5.98757ZM 38.8887 6.92192L 39.6387 6.92192L 39.6387 6.76969L 39.5793 6.6295L 38.8887 6.92192ZM 38.8957 6.99549L 38.1457 6.99549L 38.1457 7.29616L 38.3534 7.51357L 38.8957 6.99549ZM 38.9238 7.0102L 39.6118 6.71147L 39.5585 6.58881L 39.4661 6.49212L 38.9238 7.0102ZM 39.0363 7.2677L 39.4811 7.87156L 39.9803 7.50387L 39.713 6.94443L 39.0363 7.2677ZM 35.1846 9.03339L 35.1846 9.78339L 35.2568 9.78339L 35.3277 9.76963L 35.1846 9.03339ZM 34.9878 9.04811L 34.9098 8.30218L 34.8976 8.30346L 34.8855 8.30512L 34.9878 9.04811ZM 31.1995 8.29033L 30.8057 8.92867L 30.8076 8.92983L 31.1995 8.29033ZM 27.7766 5.89193L 28.2268 5.29205L 28.2224 5.28881L 27.7766 5.89193ZM 23.2572 4.24394L 23.2505 4.99391L 23.2506 4.99391L 23.2572 4.24394ZM 15.807 4.24394L 15.8025 3.49396L 15.8024 3.49396L 15.807 4.24394ZM 12.5879 5.48729L 12.0949 4.9221L 12.0943 4.9226L 12.5879 5.48729ZM 6.47305 10.8727L 5.97735 10.3098L 5.97617 10.3109L 6.47305 10.8727ZM 1.01891 15.6768L 0.522025 15.115L 0.521767 15.1153L 1.01891 15.6768ZM 0.927533 19.863L 1.44399 19.3191L 1.44365 19.3188L 0.927533 19.863ZM 3.36644 20.8562L 3.42902 20.1088L 3.42804 20.1087L 3.36644 20.8562ZM 6.0162 20.9224L 6.04757 21.6718L 6.05079 21.6716L 6.0162 20.9224ZM 10.156 19.9292L 9.80823 19.2647L 9.80527 19.2663L 10.156 19.9292ZM 13.4243 18.0384L 13.8143 18.679L 13.8175 18.6771L 13.4243 18.0384ZM 14.4223 18.0311L 13.9991 18.6503L 14.0061 18.655L 14.4223 18.0311ZM 16.3622 19.2671L 15.9644 19.9029L 15.9644 19.9029L 16.3622 19.2671ZM 23.9179 23.9903L 24.3159 23.3546L 24.3157 23.3545L 23.9179 23.9903ZM 30.4755 28.1103L 30.076 28.745L 30.0775 28.746L 30.4755 28.1103ZM 37.0402 32.2155L 36.6422 32.8512L 36.6432 32.8519L 37.0402 32.2155ZM 42.1991 35.4379L 41.8022 36.0743L 41.8056 36.0764L 42.1991 35.4379ZM 43.5556 37.0933L 42.8436 37.329L 42.844 37.3299L 43.5556 37.0933ZM 42.7684 40.2936L 42.2736 39.7299L 42.271 39.7323L 42.7684 40.2936ZM 39.5072 40.6541L 39.1135 41.2924L 39.1166 41.2943L 39.5072 40.6541ZM 34.4466 37.4832L 34.8455 36.848L 34.4466 37.4832ZM 32.4224 36.2178L 32.8145 35.5784L 32.7521 35.5401L 32.6834 35.5146L 32.4224 36.2178ZM 31.2065 37.4022L 31.6054 36.7671L 31.601 36.7644L 31.2065 37.4022ZM 34.6786 39.5873L 34.2826 40.2242L 34.2845 40.2254L 34.6786 39.5873ZM 36.4076 41.3088L 35.7201 41.6085L 35.7207 41.6101L 36.4076 41.3088ZM 34.032 45.4582L 34.089 46.2061L 34.0924 46.2058L 34.032 45.4582ZM 32.1834 44.9138L 31.7769 45.544L 31.7799 45.546L 32.1834 44.9138ZM 26.9753 41.6473L 26.5764 42.2824L 26.5818 42.2858L 26.9753 41.6473ZM 25.4431 42.6552L 25.8459 42.0226L 25.844 42.0213L 25.4431 42.6552ZM 27.9944 44.237L 27.6083 44.8799L 27.6108 44.8814L 27.9944 44.237ZM 29.5196 46.2381L 28.7892 46.4083L 28.7894 46.4093L 29.5196 46.2381ZM 28.3178 49.3943L 27.8772 48.7873L 27.8769 48.7875L 28.3178 49.3943ZM 25.2744 49.4384L 24.8702 50.0702L 24.8735 50.0723L 25.2744 49.4384ZM 23.7492 48.482L 24.1534 47.8502L 24.1487 47.8473L 23.7492 48.482ZM 20.6356 46.5177L 21.0351 45.8829L 21.0293 45.8793L 20.6356 46.5177ZM 19.4899 46.7531L 18.8446 46.3708L 18.8411 46.3768L 19.4899 46.7531ZM 19.7921 47.9523L 19.3884 48.5844L 19.3968 48.5896L 19.7921 47.9523ZM 22.456 50.6891L 21.7218 50.8425L 21.7223 50.8449L 22.456 50.6891ZM 21.493 53.6393L 21.9821 54.2079L 21.9829 54.2072L 21.493 53.6393ZM 18.4778 53.9998L 18.8274 53.3362L 18.8256 53.3353L 18.4778 53.9998ZM 16.3692 52.6976L 16.7757 52.0673L 16.7742 52.0663L 16.3692 52.6976ZM 15.8913 52.8006L 15.2296 52.4473L 15.2244 52.4575L 15.8913 52.8006ZM 15.3993 53.6393L 14.8249 53.157L 14.8211 53.1616L 15.3993 53.6393ZM 15.5118 54.1396L 15.1095 54.7726L 15.1116 54.7739L 15.5118 54.1396ZM 17.1564 55.1696L 16.7466 55.7977L 16.7467 55.7977L 17.1564 55.1696ZM 21.6828 55.4859L 21.3388 54.8195L 21.3363 54.8208L 21.6828 55.4859ZM 24.1147 51.5499L 24.8642 51.5789L 24.8644 51.5698L 24.1147 51.5499ZM 24.1147 50.6891L 24.518 50.0568L 23.3647 49.321L 23.3647 50.6891L 24.1147 50.6891ZM 29.0136 50.9098L 28.6226 50.2698L 28.6222 50.27L 29.0136 50.9098ZM 31.2065 46.2969L 31.5951 45.6555L 30.4086 44.9367L 30.4569 46.3231L 31.2065 46.2969ZM 36.1124 46.4662L 36.5113 47.1013L 36.5125 47.1005L 36.1124 46.4662ZM 38.235 41.8753L 38.5726 41.2056L 37.39 40.6096L 37.487 41.9303L 38.235 41.8753ZM 38.713 42.1108L 39.0724 41.4524L 39.0607 41.4463L 38.713 42.1108ZM 43.0988 42.0813L 42.7181 41.4352L 42.7166 41.436L 43.0988 42.0813ZM 45.2355 38.9031L 45.9755 39.0246L 45.9759 39.0226L 45.2355 38.9031ZM 43.893 34.6875L 43.3856 35.2398L 43.3857 35.2399L 43.893 34.6875ZM 41.5666 33.091L 41.9705 32.4591L 41.9698 32.4586L 41.5666 33.091ZM 35.0722 29.0005L 35.4714 28.3655L 35.4711 28.3653L 35.0722 29.0005ZM 28.5286 24.9173L 28.1303 25.5528L 28.1313 25.5534L 28.5286 24.9173ZM 21.7109 20.6208L 21.3123 21.2561L 21.3126 21.2563L 21.7109 20.6208ZM 14.6964 16.2286L 14.2937 16.8613L 14.2964 16.863L 14.6964 16.2286ZM 13.1853 16.2065L 12.789 15.5698L 12.7856 15.5719L 13.1853 16.2065ZM 10.5637 17.8104L 10.9282 18.4659L 10.9303 18.4646L 10.5637 17.8104ZM 8.46916 18.7962L 8.23721 18.083L 8.23478 18.0838L 8.46916 18.7962ZM 3.92169 19.2376L 3.99339 18.4911L 3.99184 18.4909L 3.92169 19.2376ZM 2.30513 18.8109L 2.01656 19.5032L 2.01716 19.5035L 2.30513 18.8109ZM 1.98884 17.0379L 1.47028 16.496L 1.46821 16.498L 1.98884 17.0379ZM 4.27312 15L 3.77693 14.4376L 3.77398 14.4402L 4.27312 15ZM 13.1291 7.17206L 13.6283 7.73179L 13.6473 7.71479L 13.6652 7.69654L 13.1291 7.17206ZM 23.2572 5.92135L 23.2618 5.17137L 23.2601 5.17136L 23.2572 5.92135ZM 26.4974 7.03227L 26.9318 6.42087L 26.9317 6.42082L 26.4974 7.03227ZM 30.6161 9.85739L 30.2172 10.4925L 30.2204 10.4945L 30.6161 9.85739ZM 32.6825 10.6887L 32.4076 11.3865L 33.0579 11.6427L 33.3592 11.012L 32.6825 10.6887ZM 32.6965 10.6519L 32.8821 9.92526L 32.4572 9.81678L 32.1542 10.1339L 32.6965 10.6519ZM 39.9219 9.07018L 40.6001 8.74991L 40.2412 7.99011L 39.5269 8.4326L 39.9219 9.07018ZM 41.7634 12.9621L 41.0852 13.2823L 41.0857 13.2835L 41.7634 12.9621ZM 43.2956 16.2065L 42.6163 16.5244L 42.6169 16.5257L 43.2956 16.2065ZM 45.2847 20.4368L 45.963 20.117L 45.9627 20.1163L 45.2847 20.4368ZM 47.7306 25.6089L 47.0528 25.9299L 47.0538 25.9321L 47.7306 25.6089ZM 49.7829 29.8907L 49.1094 30.2207L 49.1111 30.2241L 49.7829 29.8907ZM 51.0621 30.2659L 50.6603 29.6326L 50.658 29.6341L 51.0621 30.2659ZM 53.8454 28.5076L 54.2436 29.1431L 54.2451 29.1422L 53.8454 28.5076ZM 58.7303 25.4397L 58.3442 24.7966L 58.338 24.8004L 58.3318 24.8043L 58.7303 25.4397ZM 57.3878 24.3435L 57.7894 24.9769L 57.8034 24.968L 57.817 24.9585L 57.3878 24.3435ZM 54.4007 26.2342L 54.7983 26.8701L 54.8022 26.8677L 54.4007 26.2342ZM 51.1605 28.2648L 50.761 27.63L 50.7582 27.6318L 51.1605 28.2648ZM 50.7107 28.1397L 51.3948 27.8322L 51.3923 27.8269L 50.7107 28.1397ZM 49.6634 25.9105L 48.9845 26.2292L 48.9854 26.2312L 49.6634 25.9105ZM 47.2737 20.8268L 46.5956 21.147L 46.5959 21.1477L 47.2737 20.8268ZM 43.5978 13.0651L 44.276 12.7448L 44.2758 12.7445L 43.5978 13.0651ZM 41.5525 8.73911L 42.2305 8.41854L 42.2293 8.41584L 41.5525 8.73911ZM 40.8426 7.29713L 40.1261 7.51886L 40.153 7.60561L 40.1998 7.68344L 40.8426 7.29713ZM 41.1589 5.64914L 41.6006 6.25528L 41.6046 6.25235L 41.1589 5.64914ZM 41.4119 5.42843L 41.0168 4.79096L 40.9356 4.84129L 40.8696 4.91035L 41.4119 5.42843ZM 42.67 4.64858L 42.67 3.89858L 42.4564 3.89859L 42.2749 4.01112L 42.67 4.64858ZM 42.6771 4.64122L 42.2834 4.00282L 41.9271 4.22255L 41.9271 4.64122L 42.6771 4.64122ZM 43.1901 4.32487L 42.8424 3.66038L 42.819 3.67262L 42.7965 3.68647L 43.1901 4.32487ZM 43.3026 4.25866L 42.9176 3.61501L 42.9106 3.61919L 42.9037 3.62353L 43.3026 4.25866ZM 44.4975 3.51559L 44.102 2.8783L 44.0969 2.8815L 44.4975 3.51559ZM 46.845 2.05889L 46.8037 1.31003L 46.6124 1.32057L 46.4495 1.42162L 46.845 2.05889ZM 47.1332 2.38996L 46.4233 2.63215L 46.4239 2.63388L 47.1332 2.38996ZM 47.3721 2.91967L 48.0493 2.59735L 48.0489 2.5964L 47.3721 2.91967ZM 50.2819 9.04075L 50.9601 8.72036L 50.9596 8.71938L 50.2819 9.04075ZM 53.1496 15.1103L 52.4715 15.4307L 52.4719 15.4316L 53.1496 15.1103ZM 54.5061 17.9575L 55.184 17.6367L 55.1838 17.6363L 54.5061 17.9575ZM 56.7341 22.6808L 56.0562 23.0016L 56.0574 23.004L 56.7341 22.6808ZM 57.4792 24.2625L 57.9423 24.8525L 58.4149 24.4814L 58.1559 23.9393L 57.4792 24.2625ZM 59.8744 23.8961C 59.4197 22.8548 58.9372 21.83 58.46 20.8163L 57.1028 21.4552C 57.5815 22.4721 58.0549 23.4778 58.4998 24.4965L 59.8744 23.8961ZM 58.4592 20.8148C 57.6507 19.1072 56.8466 17.4461 56.042 15.7396L 54.6852 16.3792C 55.4831 18.0716 56.3096 19.7801 57.1036 21.4567L 58.4592 20.8148ZM 56.0422 15.74C 55.5719 14.7409 55.1051 13.7397 54.6376 12.7371C 54.1703 11.7349 53.7023 10.7313 53.2308 9.72929L 51.8736 10.3681C 52.3438 11.3672 52.8106 12.3684 53.2781 13.371C 53.7454 14.3732 54.2134 15.3768 54.685 16.3788L 56.0422 15.74ZM 53.2307 9.72921C 52.267 7.68228 51.2964 5.64294 50.3266 3.60527L 48.9722 4.24991C 49.9422 6.28805 50.9115 8.32454 51.8736 10.3681L 53.2307 9.72921ZM 50.3269 3.606C 49.779 2.45164 49.2288 1.29238 48.6642 0.139799L 47.3171 0.799736C 47.877 1.94256 48.4233 3.09342 48.9718 4.24918L 50.3269 3.606ZM 48.6633 0.138086C 48.2425 -0.715259 47.2008 -1.00831 46.4061 -0.500737L 47.2135 0.763422C 47.238 0.747801 47.2556 0.748589 47.2679 0.752034C 47.275 0.75406 47.2827 0.757788 47.2903 0.764133C 47.2975 0.770107 47.3079 0.78104 47.318 0.80145L 48.6633 0.138086ZM 46.4141 -0.505755L 38.514 4.40141L 39.3055 5.6756L 47.2056 0.76844L 46.4141 -0.505755ZM 38.233 5.36179L 38.2471 5.39122L 39.6006 4.74465L 39.5865 4.71522L 38.233 5.36179ZM 38.4871 4.45819C 37.9686 4.82955 37.7976 5.3928 37.7874 5.88371L 39.2871 5.91486C 39.289 5.82166 39.3051 5.76313 39.3194 5.73075C 39.3314 5.70347 39.3437 5.68974 39.3605 5.67769L 38.4871 4.45819ZM 37.7873 5.89928C 37.7873 5.91522 37.784 6.0327 37.8148 6.1618L 39.2738 5.81334C 39.2833 5.85334 39.2859 5.88437 39.2868 5.89875C 39.287 5.90246 39.2871 5.90536 39.2872 5.90724C 39.2873 5.9091 39.2873 5.91017 39.2873 5.91018C 39.2873 5.91019 39.2873 5.91 39.2873 5.90955C 39.2873 5.9091 39.2873 5.90845 39.2873 5.90753C 39.2873 5.90548 39.2873 5.9032 39.2873 5.89928L 37.7873 5.89928ZM 38.5443 5.23757L 38.5373 5.23757L 38.5373 6.73757L 38.5443 6.73757L 38.5443 5.23757ZM 38.5373 5.98757C 37.8131 6.1827 37.8131 6.18282 37.8131 6.18293C 37.8132 6.18297 37.8132 6.18309 37.8132 6.18317C 37.8133 6.18333 37.8133 6.1835 37.8133 6.18367C 37.8134 6.18401 37.8135 6.18436 37.8136 6.18474C 37.8138 6.18549 37.8141 6.1863 37.8143 6.18719C 37.8148 6.18896 37.8154 6.191 37.816 6.19332C 37.8173 6.19797 37.8189 6.20372 37.8209 6.2106C 37.825 6.22437 37.8304 6.24265 37.8376 6.26559C 37.8518 6.31146 37.8729 6.37602 37.9025 6.46039C 37.9617 6.62909 38.0554 6.87736 38.198 7.21433L 39.5793 6.6295C 39.4479 6.31905 39.3658 6.10015 39.3178 5.96353C 39.2939 5.89524 39.2784 5.8476 39.2697 5.81945C 39.2653 5.80537 39.2626 5.79618 39.2613 5.79172C 39.2606 5.78949 39.2603 5.78845 39.2604 5.78858C 39.2604 5.78864 39.2605 5.78899 39.2607 5.78964C 39.2608 5.78996 39.2609 5.79035 39.261 5.79082C 39.2611 5.79105 39.2611 5.7913 39.2612 5.79157C 39.2612 5.79171 39.2613 5.79185 39.2613 5.79199C 39.2613 5.79206 39.2614 5.79217 39.2614 5.79221C 39.2614 5.79232 39.2614 5.79244 38.5373 5.98757ZM 38.1387 6.92192C 38.1387 6.96449 38.1419 6.99952 38.144 7.01877C 38.146 7.03808 38.1485 7.05584 38.1491 7.0601C 38.1503 7.06872 38.1495 7.06383 38.1488 7.05693C 38.1481 7.0501 38.1457 7.02703 38.1457 6.99549L 39.6457 6.99549C 39.6457 6.95291 39.6425 6.91788 39.6404 6.89864C 39.6384 6.87932 39.6359 6.86156 39.6353 6.85731C 39.6341 6.84869 39.6349 6.85357 39.6356 6.86047C 39.6363 6.8673 39.6387 6.89038 39.6387 6.92192L 38.1387 6.92192ZM 38.3534 7.51357C 38.3975 7.55977 38.442 7.59469 38.4808 7.62073C 38.5192 7.64649 38.5538 7.66472 38.5799 7.67711C 38.6058 7.68943 38.6274 7.69797 38.6403 7.70285C 38.647 7.70539 38.6525 7.70739 38.6561 7.70867C 38.6595 7.70985 38.6624 7.71089 38.6627 7.71098C 38.6637 7.71135 38.6621 7.71077 38.6601 7.71005C 38.6578 7.70925 38.6535 7.70771 38.6481 7.70567C 38.6378 7.70177 38.6187 7.69426 38.5952 7.68309C 38.5716 7.67185 38.5393 7.65488 38.503 7.63056C 38.4663 7.60596 38.4239 7.57264 38.3815 7.52829L 39.4661 6.49212C 39.422 6.44592 39.3776 6.411 39.3388 6.38496C 39.3004 6.3592 39.2657 6.34097 39.2397 6.32858C 39.2138 6.31626 39.1921 6.30771 39.1792 6.30284C 39.1725 6.3003 39.167 6.2983 39.1634 6.29702C 39.1601 6.29583 39.1571 6.2948 39.1568 6.29471C 39.1558 6.29434 39.1574 6.29491 39.1595 6.29564C 39.1617 6.29644 39.166 6.29797 39.1714 6.30002C 39.1817 6.30392 39.2008 6.31143 39.2243 6.3226C 39.2479 6.33384 39.2803 6.35081 39.3165 6.37513C 39.3532 6.39973 39.3956 6.43304 39.438 6.4774L 38.3534 7.51357ZM 38.2359 7.30894C 38.2585 7.36093 38.3101 7.48744 38.3595 7.59097L 39.713 6.94443C 39.6781 6.87139 39.6595 6.82133 39.6118 6.71147L 38.2359 7.30894ZM 38.5915 6.66384C 38.2315 6.92899 36.7265 7.96982 35.0416 8.29716L 35.3277 9.76963C 37.3539 9.37598 39.082 8.16555 39.4811 7.87156L 38.5915 6.66384ZM 35.1846 8.28339C 35.0729 8.28339 34.9635 8.29656 34.9098 8.30218L 35.0659 9.79403C 35.1527 9.78495 35.1699 9.78339 35.1846 9.78339L 35.1846 8.28339ZM 34.8855 8.30512C 33.7072 8.46742 32.584 8.2591 31.5913 7.65083L 30.8076 8.92983C 32.1203 9.73412 33.5977 9.99666 35.0902 9.79109L 34.8855 8.30512ZM 31.5932 7.652C 30.4448 6.94361 29.3448 6.13115 28.2267 5.29207L 27.3264 6.49178C 28.4434 7.33011 29.5926 8.18036 30.8057 8.92866L 31.5932 7.652ZM 28.2224 5.28881C 26.7673 4.2132 25.1411 3.51042 23.2638 3.49397L 23.2506 4.99391C 24.733 5.0069 26.0588 5.55481 27.3307 6.49504L 28.2224 5.28881ZM 23.2639 3.49397C 20.7772 3.47185 18.2847 3.47924 15.8025 3.49396L 15.8114 4.99393C 18.2913 4.97922 20.7751 4.97189 23.2505 4.99391L 23.2639 3.49397ZM 15.8024 3.49396C 14.4047 3.50246 13.151 4.00083 12.0949 4.9221L 13.0809 6.05248C 13.8803 5.35519 14.7914 5.00014 15.8115 4.99393L 15.8024 3.49396ZM 12.0943 4.9226C 10.0478 6.71144 8.01265 8.51733 5.97736 10.3098L 6.96875 11.4355C 9.01001 9.63775 11.0374 7.83867 13.0815 6.05198L 12.0943 4.9226ZM 5.97617 10.3109C 5.07049 11.1119 4.16116 11.9112 3.25082 12.7114C 2.34077 13.5114 1.42971 14.3122 0.522025 15.115L 1.51579 16.2386C 2.42146 15.4376 3.3308 14.6383 4.24114 13.8381C 5.15119 13.0381 6.06225 12.2373 6.96993 11.4345L 5.97617 10.3109ZM 0.521767 15.1153C -1.12337 16.5717 -1.18547 18.8926 0.41142 20.4072L 1.44365 19.3188C 0.496207 18.4202 0.518453 17.1215 1.51604 16.2384L 0.521767 15.1153ZM 0.411079 20.4069C 1.25584 21.2091 2.30453 21.5212 3.30483 21.6037L 3.42804 20.1087C 2.64309 20.044 1.96277 19.8118 1.44399 19.3191L 0.411079 20.4069ZM 3.30385 21.6036C 4.20723 21.6792 5.13182 21.7101 6.04757 21.6718L 5.98482 20.1731C 5.14343 20.2083 4.28278 20.1803 3.42902 20.1088L 3.30385 21.6036ZM 6.05079 21.6716C 7.54148 21.6028 9.07741 21.3483 10.5067 20.5921L 9.80527 19.2663C 8.6481 19.8785 7.35856 20.1096 5.9816 20.1732L 6.05079 21.6716ZM 10.5038 20.5937C 11.6388 19.9997 12.7407 19.3328 13.8143 18.679L 13.0342 17.3979C 11.9571 18.0537 10.8943 18.6963 9.80823 19.2647L 10.5038 20.5937ZM 13.8175 18.6771C 13.9333 18.6058 13.9654 18.6131 13.9456 18.6135C 13.9354 18.6138 13.929 18.6116 13.9316 18.6125C 13.9364 18.6141 13.9582 18.6223 13.9991 18.6502L 14.8456 17.4119C 14.578 17.229 14.2668 17.1058 13.9115 17.1139C 13.5685 17.1217 13.2737 17.2504 13.031 17.3998L 13.8175 18.6771ZM 14.0061 18.655C 14.6572 19.0893 15.3225 19.5012 15.9644 19.9029L 16.7601 18.6313C 16.1086 18.2237 15.4667 17.8263 14.8386 17.4072L 14.0061 18.655ZM 15.9644 19.9029C 17.2227 20.6902 18.4828 21.4776 19.7426 22.2647C 21.0025 23.052 22.2622 23.8391 23.5201 24.6261L 24.3157 23.3545C 23.0574 22.5672 21.7973 21.7798 20.5375 20.9926C 19.2776 20.2054 18.0179 19.4183 16.76 18.6313L 15.9644 19.9029ZM 23.5199 24.626C 25.7049 25.9939 27.89 27.3692 30.076 28.745L 30.875 27.4755C 28.6893 26.0998 26.5026 24.7236 24.3159 23.3546L 23.5199 24.626ZM 30.0775 28.746C 31.1708 29.4304 32.2657 30.1147 33.3603 30.7989C 34.4551 31.4831 35.5495 32.1672 36.6422 32.8512L 37.4381 31.5798C 36.3449 30.8954 35.25 30.2111 34.1554 29.5269C 33.0606 28.8427 31.9662 28.1586 30.8735 27.4746L 30.0775 28.746ZM 36.6432 32.8519C 37.5039 33.3887 38.3628 33.9256 39.2221 34.4627C 40.0813 34.9997 40.9408 35.537 41.8022 36.0743L 42.5961 34.8016C 41.7354 34.2647 40.8765 33.7278 40.0172 33.1907C 39.158 32.6537 38.2985 32.1164 37.4371 31.5792L 36.6432 32.8519ZM 41.8056 36.0764C 42.3172 36.3917 42.663 36.7834 42.8436 37.329L 44.2676 36.8575C 43.9562 35.917 43.3462 35.2639 42.5927 34.7995L 41.8056 36.0764ZM 42.844 37.3299C 43.1453 38.2361 42.8958 39.1837 42.2736 39.73L 43.2632 40.8572C 44.3841 39.8732 44.7391 38.2752 44.2673 36.8566L 42.844 37.3299ZM 42.271 39.7323C 41.5307 40.3884 40.6515 40.4736 39.8978 40.0138L 39.1166 41.2943C 40.4855 42.1294 42.0804 41.9056 43.2659 40.8549L 42.271 39.7323ZM 39.9009 40.0157C 38.2105 38.9731 36.5366 37.9101 34.8455 36.848L 34.0478 38.1183C 35.7303 39.175 37.4162 40.2456 39.1135 41.2924L 39.9009 40.0157ZM 34.8455 36.848C 34.1817 36.4311 33.5149 36.0079 32.8145 35.5784L 32.0303 36.8571C 32.7216 37.281 33.3762 37.6965 34.0478 38.1183L 34.8455 36.848ZM 32.6834 35.5146C 32.0908 35.2946 31.5474 35.1915 31.0861 35.3021C 30.8373 35.3617 30.6083 35.4851 30.4314 35.6821C 30.2576 35.8756 30.1717 36.098 30.1355 36.2986C 30.0671 36.6767 30.16 37.0454 30.2588 37.2964C 30.3118 37.431 30.3781 37.5616 30.454 37.6765C 30.5168 37.7715 30.6338 37.9299 30.812 38.0401L 31.601 36.7644C 31.6614 36.8018 31.6938 36.8371 31.7003 36.8443C 31.71 36.855 31.7111 36.858 31.7054 36.8494C 31.6938 36.8319 31.6739 36.7961 31.6545 36.7469C 31.6354 36.6983 31.6223 36.6507 31.6161 36.611C 31.6095 36.5693 31.6133 36.5556 31.6115 36.5654C 31.6091 36.5789 31.5963 36.6299 31.5474 36.6844C 31.4954 36.7423 31.4431 36.759 31.4356 36.7608C 31.4349 36.7609 31.4478 36.7578 31.4784 36.7573C 31.509 36.7569 31.5541 36.7591 31.6162 36.7683C 31.7423 36.7869 31.9203 36.8314 32.1614 36.9209L 32.6834 35.5146ZM 30.8076 38.0374C 31.96 38.7611 33.1221 39.5028 34.2826 40.2242L 35.0746 38.9504C 33.9156 38.2298 32.7724 37.5001 31.6054 36.7671L 30.8076 38.0374ZM 34.2845 40.2254C 34.9836 40.6571 35.4559 41.0023 35.7201 41.6085L 37.0952 41.0092C 36.6283 39.938 35.7793 39.3856 35.0727 38.9492L 34.2845 40.2254ZM 35.7207 41.6101C 36.3219 42.9809 35.4102 44.5944 33.9716 44.7107L 34.0924 46.2058C 36.66 45.9983 38.0677 43.2271 37.0945 41.0076L 35.7207 41.6101ZM 33.9749 44.7104C 33.5195 44.7452 33.0844 44.5991 32.587 44.2816L 31.7799 45.546C 32.4352 45.9642 33.195 46.2743 34.089 46.2061L 33.9749 44.7104ZM 32.59 44.2836C 30.8612 43.1682 29.1126 42.0834 27.3688 41.0088L 26.5818 42.2858C 28.3242 43.3594 30.0617 44.4376 31.7769 45.544L 32.59 44.2836ZM 27.3742 41.0121C 27.1948 40.8995 27.0177 40.8861 26.9334 40.8845C 26.8361 40.8828 26.7497 40.8959 26.6867 40.9086C 26.5597 40.9343 26.4322 40.9782 26.3221 41.0221C 26.0964 41.1119 25.8424 41.2422 25.6147 41.3803C 25.3964 41.5127 25.1499 41.6836 24.9721 41.867C 24.8959 41.9456 24.7511 42.1065 24.6843 42.3322C 24.6463 42.4603 24.623 42.6464 24.6929 42.8504C 24.765 43.061 24.9066 43.2033 25.0422 43.2891L 25.844 42.0213C 25.9374 42.0804 26.0524 42.1905 26.1119 42.3641C 26.1691 42.5312 26.147 42.6756 26.1225 42.7582C 26.0992 42.837 26.067 42.8852 26.0576 42.8988C 26.0461 42.9154 26.0408 42.9196 26.0489 42.9112C 26.0938 42.8649 26.212 42.7723 26.3925 42.6629C 26.5637 42.5591 26.7428 42.4691 26.8769 42.4157C 26.9091 42.4029 26.9352 42.3936 26.9553 42.3871C 26.9763 42.3804 26.9851 42.3787 26.9834 42.379C 26.9822 42.3792 26.9755 42.3806 26.9641 42.3818C 26.9532 42.3831 26.9331 42.3848 26.9059 42.3843C 26.8689 42.3836 26.7295 42.3785 26.5764 42.2824L 27.3742 41.0121ZM 25.0402 43.2878C 25.8878 43.8275 26.7439 44.3608 27.6083 44.8799L 28.3806 43.594C 27.53 43.0831 26.6852 42.557 25.8459 42.0226L 25.0402 43.2878ZM 27.6108 44.8814C 28.2348 45.2529 28.6327 45.7368 28.7892 46.4083L 30.2501 46.0679C 29.9848 44.9296 29.2863 44.1332 28.3781 43.5925L 27.6108 44.8814ZM 28.7894 46.4093C 29.007 47.3367 28.693 48.1952 27.8772 48.7873L 28.7583 50.0013C 30.051 49.0631 30.6086 47.5967 30.2498 46.0668L 28.7894 46.4093ZM 27.8769 48.7875C 27.2809 49.2206 26.434 49.2844 25.6753 48.8045L 24.8735 50.0723C 26.139 50.8726 27.6537 50.8039 28.7586 50.001L 27.8769 48.7875ZM 25.6785 48.8066C 25.4205 48.6416 25.1615 48.4807 24.9074 48.323C 24.6519 48.1644 24.4014 48.0089 24.1533 47.8502L 23.3451 49.1138C 23.6031 49.2788 23.8621 49.4397 24.1162 49.5974C 24.3717 49.756 24.6222 49.9115 24.8703 50.0702L 25.6785 48.8066ZM 24.1487 47.8473C 23.6292 47.5202 23.1113 47.1931 22.5929 46.8657C 22.0746 46.5384 21.5558 46.2107 21.0351 45.8829L 20.236 47.1524C 20.7556 47.4794 21.2734 47.8065 21.7919 48.1339C 22.3102 48.4613 22.829 48.789 23.3497 49.1167L 24.1487 47.8473ZM 21.0293 45.8793C 20.3265 45.4458 19.3039 45.5955 18.8446 46.3709L 20.1352 47.1353C 20.121 47.1592 20.1135 47.1481 20.1481 47.141C 20.182 47.134 20.2173 47.1408 20.2418 47.156L 21.0293 45.8793ZM 18.8411 46.3768C 18.3967 47.1431 18.6418 48.1075 19.3884 48.5844L 20.1958 47.3202C 20.1512 47.2917 20.1312 47.2568 20.1237 47.2266C 20.1161 47.1961 20.1192 47.163 20.1387 47.1294L 18.8411 46.3768ZM 19.3968 48.5896C 19.5866 48.7073 19.7763 48.8251 19.9661 48.9428C 20.1559 49.0605 20.3456 49.1782 20.5354 49.2959L 21.3261 48.0212C 21.1363 47.9035 20.9466 47.7858 20.7568 47.6681C 20.567 47.5504 20.3772 47.4326 20.1875 47.3149L 19.3968 48.5896ZM 20.5354 49.2959C 21.1777 49.6943 21.5791 50.1595 21.7218 50.8425L 23.1901 50.5357C 22.9392 49.3353 22.202 48.5645 21.3261 48.0212L 20.5354 49.2959ZM 21.7223 50.8449C 21.9202 51.7771 21.6685 52.4976 21.0032 53.0714L 21.9829 54.2072C 23.0748 53.2655 23.4978 51.9849 23.1896 50.5334L 21.7223 50.8449ZM 21.004 53.0707C 20.6435 53.3807 20.2892 53.5357 19.9517 53.5773C 19.6159 53.6186 19.2417 53.5545 18.8274 53.3362L 18.1282 54.6633C 18.7752 55.0042 19.4553 55.1498 20.1351 55.066C 20.8132 54.9825 21.4359 54.6777 21.9821 54.2079L 21.004 53.0707ZM 18.8256 53.3353C 18.1343 52.9735 17.4987 52.5336 16.7757 52.0673L 15.9627 53.3279C 16.6314 53.7591 17.3593 54.2609 18.13 54.6643L 18.8256 53.3353ZM 16.7742 52.0663C 16.6673 51.9977 16.3631 51.8017 15.9814 51.8621C 15.5411 51.9318 15.3231 52.2724 15.2297 52.4474L 16.5529 53.1538C 16.566 53.1293 16.5543 53.1594 16.5079 53.2034C 16.452 53.2564 16.3531 53.3219 16.2159 53.3437C 16.0883 53.3638 15.9947 53.3353 15.962 53.3232C 15.9328 53.3125 15.9291 53.3063 15.9642 53.3288L 16.7742 52.0663ZM 15.2244 52.4575C 15.05 52.7964 14.959 52.9973 14.8249 53.1571L 15.9737 54.1215C 16.2472 53.7957 16.4374 53.3786 16.5582 53.1437L 15.2244 52.4575ZM 14.8211 53.1616C 14.6582 53.3588 14.4064 53.7594 14.6058 54.2347C 14.6865 54.4271 14.8147 54.5516 14.8959 54.6202C 14.977 54.6886 15.0632 54.7432 15.1095 54.7726L 15.914 53.5066C 15.8619 53.4734 15.8567 53.4683 15.8631 53.4736C 15.8697 53.4792 15.9399 53.5375 15.989 53.6545C 16.0476 53.7942 16.0423 53.934 16.011 54.0356C 15.9864 54.1156 15.9542 54.1452 15.9775 54.117L 14.8211 53.1616ZM 15.1116 54.7739C 15.6852 55.1357 16.2078 55.4461 16.7466 55.7977L 17.5663 54.5415C 17.0227 54.1868 16.4348 53.835 15.9119 53.5052L 15.1116 54.7739ZM 16.7467 55.7977C 18.3961 56.8737 20.2033 57.1024 22.0294 56.1511L 21.3363 54.8208C 20.0557 55.488 18.8266 55.3636 17.5662 54.5414L 16.7467 55.7977ZM 22.0268 56.1524C 23.8189 55.2273 24.784 53.6515 24.8641 51.5789L 23.3652 51.5209C 23.3048 53.0827 22.6253 54.1554 21.3388 54.8195L 22.0268 56.1524ZM 24.8644 51.5698C 24.8718 51.2932 24.8647 51.0002 24.8647 50.6891L 23.3647 50.6891C 23.3647 51.0549 23.3717 51.2769 23.365 51.53L 24.8644 51.5698ZM 23.7113 51.3214C 24.6085 51.8938 25.5494 52.2542 26.5247 52.3124C 27.5084 52.371 28.4744 52.1188 29.405 51.5496L 28.6222 50.27C 27.9291 50.694 27.2645 50.8538 26.6141 50.815C 25.9552 50.7757 25.2585 50.5292 24.518 50.0568L 23.7113 51.3214ZM 29.4046 51.5498C 31.3361 50.3697 32.0329 48.4743 31.956 46.2708L 30.4569 46.3231C 30.5207 48.1512 29.9663 49.4488 28.6226 50.2698L 29.4046 51.5498ZM 30.8179 46.9384C 31.7177 47.4835 32.659 47.8339 33.6322 47.8864C 34.6156 47.9395 35.5813 47.6853 36.5113 47.1013L 35.7135 45.831C 35.0269 46.2622 34.3655 46.4238 33.713 46.3886C 33.0504 46.3528 32.347 46.1109 31.5951 45.6555L 30.8179 46.9384ZM 36.5125 47.1005C 38.3972 45.9117 39.1471 44.0537 38.983 41.8204L 37.487 41.9303C 37.6181 43.714 37.0467 44.9901 35.7123 45.8318L 36.5125 47.1005ZM 37.8975 42.5451C 38.1432 42.669 38.2137 42.696 38.3652 42.7753L 39.0607 41.4463C 38.9311 41.3784 38.7063 41.273 38.5726 41.2056L 37.8975 42.5451ZM 38.3536 42.7691C 40.0381 43.6886 41.7967 43.7243 43.481 42.7266L 42.7166 41.436C 41.5192 42.1452 40.3258 42.1367 39.0723 41.4525L 38.3536 42.7691ZM 43.4795 42.7275C 44.8518 41.919 45.7089 40.6487 45.9755 39.0246L 44.4954 38.7816C 44.2982 39.9825 43.6933 40.8606 42.7181 41.4352L 43.4795 42.7275ZM 45.9759 39.0226C 46.2766 37.1585 45.816 35.435 44.4003 34.135L 43.3857 35.2399C 44.3738 36.1471 44.7284 37.337 44.495 38.7836L 45.9759 39.0226ZM 44.4004 34.1351C 43.6474 33.4435 42.7009 32.9259 41.9705 32.4591L 41.1626 33.7229C 42.0206 34.2714 42.761 34.6661 43.3856 35.2398L 44.4004 34.1351ZM 41.9698 32.4586C 39.8093 31.0811 37.6329 29.7245 35.4714 28.3655L 34.673 29.6354C 36.8411 30.9986 39.0082 32.3493 41.1633 33.7234L 41.9698 32.4586ZM 35.4711 28.3653C 33.2918 26.9967 31.1009 25.6398 28.926 24.2812L 28.1313 25.5534C 30.314 26.9169 32.4949 28.2674 34.6733 29.6356L 35.4711 28.3653ZM 28.9269 24.2818C 27.7897 23.569 26.6557 22.8525 25.5204 22.135C 24.3855 21.4178 23.2492 20.6998 22.1092 19.9853L 21.3126 21.2563C 22.4499 21.969 23.5838 22.6856 24.7191 23.4031C 25.854 24.1202 26.9903 24.8383 28.1303 25.5528L 28.9269 24.2818ZM 22.1095 19.9855C 19.7705 18.5179 17.4304 17.0659 15.0965 15.5942L 14.2964 16.863C 16.6295 18.3342 18.9844 19.7955 21.3123 21.2561L 22.1095 19.9855ZM 15.0992 15.5959C 14.757 15.3781 14.3761 15.23 13.9548 15.2222C 13.5305 15.2143 13.142 15.3501 12.789 15.5698L 13.5816 16.8433C 13.7488 16.7393 13.8557 16.7206 13.927 16.7219C 14.0012 16.7233 14.1157 16.748 14.2937 16.8613L 15.0992 15.5959ZM 12.7856 15.5719C 11.9101 16.1233 11.068 16.6679 10.197 17.1561L 10.9303 18.4646C 11.8445 17.9523 12.7315 17.3786 13.585 16.8412L 12.7856 15.5719ZM 10.1992 17.1549C 9.52069 17.5322 8.88333 17.8729 8.23721 18.083L 8.7011 19.5095C 9.50286 19.2487 10.2572 18.839 10.9282 18.4658L 10.1992 17.1549ZM 8.23478 18.0838C 6.87744 18.5303 5.44568 18.6305 3.99339 18.4911L 3.85 19.9842C 5.46214 20.139 7.10889 20.0333 8.70353 19.5087L 8.23478 18.0838ZM 3.99184 18.4909C 3.53801 18.4483 3.05743 18.3115 2.59309 18.1184L 2.01716 19.5035C 2.57899 19.7371 3.20892 19.924 3.85155 19.9844L 3.99184 18.4909ZM 2.59369 18.1187C 2.39498 18.0358 2.35971 17.933 2.35302 17.8953C 2.34579 17.8547 2.34534 17.736 2.50948 17.5777L 1.46821 16.498C 1.00681 16.943 0.767382 17.5454 0.87613 18.1576C 0.985409 18.7729 1.42105 19.255 2.01656 19.5032L 2.59369 18.1187ZM 2.5074 17.5797C 3.23412 16.8842 3.98596 16.2609 4.77226 15.5598L 3.77398 14.4402C 3.04211 15.0928 2.21956 15.779 1.47028 16.496L 2.5074 17.5797ZM 4.7693 15.5624C 7.71936 12.9597 10.6813 10.36 13.6283 7.73179L 12.6299 6.61232C 9.68693 9.23701 6.73085 11.8315 3.77693 14.4376L 4.7693 15.5624ZM 13.6652 7.69654C 13.873 7.48414 14.377 7.24919 15.2313 7.06277C 16.0448 6.88524 17.0387 6.77899 18.0733 6.71883C 20.1457 6.59832 22.2588 6.66756 23.2543 6.67135L 23.2601 5.17136C 22.3227 5.16779 20.1204 5.09725 17.9862 5.22136C 16.9175 5.28351 15.8353 5.39567 14.9115 5.59726C 14.0284 5.78996 13.1337 6.09484 12.593 6.64757L 13.6652 7.69654ZM 23.2526 6.67134C 24.2599 6.67758 25.1812 7.01735 26.0631 7.64373L 26.9317 6.42082C 25.8455 5.64935 24.6302 5.17984 23.2618 5.17137L 23.2526 6.67134ZM 26.063 7.64367C 27.4119 8.60206 28.789 9.59556 30.2172 10.4925L 31.015 9.22226C 29.6317 8.35351 28.2958 7.39003 26.9318 6.42087L 26.063 7.64367ZM 30.2204 10.4945C 30.6088 10.7358 31.0219 10.9005 31.3931 11.0323C 31.7987 11.1762 32.0905 11.2616 32.4076 11.3865L 32.9574 9.99093C 32.6208 9.85833 32.1992 9.72671 31.8949 9.61869C 31.5563 9.49848 31.2629 9.37626 31.0118 9.22029L 30.2204 10.4945ZM 33.3592 11.012C 33.3818 10.9649 33.3955 10.9243 33.4034 10.8987C 33.4093 10.8796 33.4164 10.8526 33.413 10.8651C 33.4125 10.8669 33.41 10.8763 33.4061 10.8885C 33.4022 10.9009 33.3953 10.9215 33.385 10.9464C 33.3652 10.994 33.3228 11.0821 33.2388 11.17L 32.1542 10.1339C 32.0667 10.2255 32.0217 10.3181 31.9997 10.371C 31.9788 10.4214 31.9675 10.4645 31.966 10.4701C 31.9608 10.489 31.9662 10.4689 31.9699 10.4569C 31.9756 10.4385 31.9867 10.4053 32.0057 10.3655L 33.3592 11.012ZM 32.511 11.3786C 33.5322 11.6394 36.512 12.0647 40.3168 9.70776L 39.5269 8.4326C 36.1345 10.5341 33.5899 10.106 32.8821 9.92526L 32.511 11.3786ZM 39.2437 9.39045C 39.5496 10.0383 39.8573 10.688 40.1648 11.3371C 40.4723 11.9865 40.7796 12.6354 41.0852 13.2823L 42.4415 12.6418C 42.1356 11.9939 41.8279 11.3443 41.5204 10.6951C 41.2129 10.0458 40.9056 9.39689 40.6001 8.74991L 39.2437 9.39045ZM 41.0857 13.2835C 41.599 14.3653 42.1112 15.445 42.6163 16.5244L 43.9749 15.8887C 43.4678 14.8051 42.9539 13.7218 42.441 12.6406L 41.0857 13.2835ZM 42.6169 16.5257C 43.2766 17.9289 43.9385 19.344 44.6066 20.7574L 45.9627 20.1163C 45.2954 18.7046 44.6359 17.2945 43.9743 15.8874L 42.6169 16.5257ZM 44.6063 20.7567C 45.4219 22.4863 46.2375 24.2084 47.0528 25.9299L 48.4084 25.2879C 47.5931 23.5662 46.778 21.8452 45.963 20.117L 44.6063 20.7567ZM 47.0538 25.9321C 47.733 27.354 48.4114 28.7963 49.1094 30.2207L 50.4564 29.5606C 49.7628 28.1452 49.0917 26.7183 48.4073 25.2856L 47.0538 25.9321ZM 49.1111 30.2241C 49.3173 30.6395 49.6538 30.9962 50.1315 31.1331C 50.6113 31.2706 51.0824 31.1432 51.4663 30.8977L 50.658 29.6341C 50.5966 29.6733 50.5573 29.6848 50.5417 29.688C 50.5285 29.6906 50.5323 29.6876 50.5448 29.6911C 50.5798 29.7012 50.5297 29.7084 50.4547 29.5573L 49.1111 30.2241ZM 51.4639 30.8992C 52.3919 30.3104 53.3179 29.723 54.2436 29.1431L 53.4473 27.872C 52.5174 28.4545 51.5878 29.0442 50.6603 29.6326L 51.4639 30.8992ZM 54.2451 29.1422C 55.868 28.12 57.498 27.0977 59.1287 26.075L 58.3318 24.8043C 56.7013 25.8268 55.07 26.8499 53.4457 27.8729L 54.2451 29.1422ZM 59.1163 26.0827C 59.4686 25.8711 59.7661 25.5628 59.9183 25.1609C 60.074 24.75 60.0513 24.3095 59.8767 23.9013L 58.4975 24.4913C 58.5338 24.576 58.5216 24.6138 58.5156 24.6295C 58.5062 24.6544 58.4698 24.7212 58.3442 24.7966L 59.1163 26.0827ZM 56.9862 23.71C 56.4876 24.0261 55.9907 24.3404 55.4933 24.655C 54.9961 24.9695 54.4985 25.2842 53.9991 25.6008L 54.8022 26.8677C 55.3009 26.5515 55.7978 26.2372 56.2951 25.9227C 56.7924 25.6082 57.2899 25.2935 57.7894 24.9769L 56.9862 23.71ZM 54.003 25.5983C 52.9208 26.2751 51.8375 26.9525 50.761 27.63L 51.56 28.8995C 52.6343 28.2233 53.7158 27.5471 54.7983 26.8701L 54.003 25.5983ZM 50.7582 27.6318C 50.7383 27.6445 50.7528 27.6322 50.7938 27.6191C 50.8386 27.6047 50.9354 27.5829 51.0594 27.6092C 51.3393 27.6685 51.417 27.8816 51.3947 27.8322L 50.0266 28.4472C 50.1168 28.6479 50.3211 28.9861 50.7485 29.0767C 51.1308 29.1576 51.4382 28.977 51.5628 28.8978L 50.7582 27.6318ZM 51.3923 27.8269C 51.0456 27.0713 50.6912 26.3294 50.3414 25.5899L 48.9854 26.2312C 49.3385 26.9777 49.687 27.7073 50.029 28.4525L 51.3923 27.8269ZM 50.3424 25.5918C 49.5489 23.9012 48.7536 22.1995 47.9516 20.5058L 46.5959 21.1477C 47.3964 22.8383 48.1896 24.5355 48.9845 26.2292L 50.3424 25.5918ZM 47.9519 20.5065C 47.3401 19.211 46.7266 17.9174 46.1134 16.6245C 45.5001 15.3314 44.8872 14.039 44.276 12.7448L 42.9196 13.3853C 43.5314 14.6808 44.1449 15.9744 44.7581 17.2673C 45.3714 18.5604 45.9844 19.8529 46.5956 21.147L 47.9519 20.5065ZM 44.2758 12.7445C 43.935 12.0235 43.5941 11.3025 43.2532 10.5815C 42.9123 9.86052 42.5714 9.13953 42.2305 8.41854L 40.8745 9.05969C 41.2153 9.78068 41.5562 10.5017 41.8971 11.2227C 42.238 11.9437 42.5789 12.6646 42.9198 13.3856L 44.2758 12.7445ZM 42.2293 8.41584C 42.0232 7.98438 41.784 7.40759 41.4855 6.91081L 40.1998 7.68344C 40.4495 8.09894 40.618 8.52271 40.8757 9.06238L 42.2293 8.41584ZM 41.5591 7.07539C 41.4933 6.86297 41.4623 6.66075 41.4781 6.50427C 41.4918 6.36853 41.5334 6.30427 41.6006 6.25527L 40.7172 5.04302C 40.2292 5.39866 40.0317 5.89721 39.9857 6.35372C 39.9417 6.78948 40.0302 7.20893 40.1261 7.51886L 41.5591 7.07539ZM 41.6046 6.25235C 41.7629 6.13537 41.8722 6.03239 41.9542 5.94652L 40.8696 4.91035C 40.8392 4.94218 40.7939 4.98635 40.7132 5.04594L 41.6046 6.25235ZM 41.8071 6.0659L 43.0652 5.28605L 42.2749 4.01112L 41.0168 4.79096L 41.8071 6.0659ZM 42.67 4.64858C 42.6701 5.39858 42.6704 5.39858 42.6708 5.39858C 42.6709 5.39858 42.6713 5.39858 42.6716 5.39858C 42.6721 5.39858 42.6726 5.39858 42.6731 5.39858C 42.6742 5.39857 42.6752 5.39856 42.6763 5.39856C 42.6784 5.39854 42.6805 5.39851 42.6827 5.39847C 42.6871 5.3984 42.6916 5.39829 42.6963 5.39812C 42.7056 5.3978 42.7156 5.39728 42.7263 5.39648C 42.7473 5.39491 42.7722 5.39216 42.8 5.38731C 42.8522 5.37821 42.9325 5.35865 43.0212 5.3122C 43.1136 5.26386 43.2238 5.18141 43.3085 5.04848C 43.3951 4.91247 43.4271 4.76753 43.4271 4.64122L 41.9271 4.64122C 41.9271 4.5186 41.9581 4.37642 42.0434 4.24248C 42.1268 4.11162 42.2352 4.03054 42.3259 3.98312C 42.4129 3.9376 42.4914 3.91849 42.5423 3.90962C 42.5694 3.90489 42.5938 3.9022 42.6144 3.90066C 42.6249 3.89987 42.6348 3.89936 42.644 3.89904C 42.6486 3.89888 42.653 3.89876 42.6574 3.89869C 42.6595 3.89865 42.6617 3.89863 42.6638 3.89861C 42.6648 3.8986 42.6659 3.89859 42.6669 3.89859C 42.6674 3.89859 42.668 3.89858 42.6685 3.89858C 42.6687 3.89858 42.6691 3.89858 42.6693 3.89858C 42.6696 3.89858 42.67 3.89858 42.67 4.64858ZM 43.0707 5.27963L 43.5838 4.96328L 42.7965 3.68647L 42.2834 4.00282L 43.0707 5.27963ZM 43.5379 4.98936C 43.6096 4.95184 43.6679 4.91486 43.7015 4.89379L 42.9037 3.62353C 42.867 3.64659 42.855 3.65376 42.8424 3.66038L 43.5379 4.98936ZM 43.6876 4.90231C 44.0909 4.66108 44.4936 4.40512 44.898 4.14969L 44.0969 2.8815C 43.686 3.14106 43.3015 3.38538 42.9176 3.61501L 43.6876 4.90231ZM 44.8929 4.15287L 47.2404 2.69617L 46.4495 1.42162L 44.102 2.87832L 44.8929 4.15287ZM 46.8862 2.80776C 46.784 2.81339 46.6795 2.79078 46.5876 2.74248C 46.5023 2.69765 46.4517 2.64347 46.4282 2.61427C 46.4053 2.58571 46.398 2.5683 46.4016 2.57576C 46.4046 2.58199 46.4121 2.59921 46.4233 2.63215L 47.843 2.14778C 47.8001 2.02204 47.7277 1.8367 47.5974 1.67457C 47.4475 1.48813 47.1796 1.28932 46.8037 1.31003L 46.8862 2.80776ZM 46.4239 2.63388C 46.5058 2.87181 46.6322 3.11073 46.6954 3.24294L 48.0489 2.5964C 47.9433 2.37547 47.8871 2.27597 47.8424 2.14604L 46.4239 2.63388ZM 46.6949 3.24199C 47.6649 5.27997 48.6346 7.31741 49.6043 9.36212L 50.9596 8.71938C 49.9894 6.67356 49.0192 4.63518 48.0493 2.59735L 46.6949 3.24199ZM 49.6038 9.36114C 50.0818 10.3727 50.5597 11.3843 51.0376 12.3959C 51.5156 13.4075 51.9935 14.4191 52.4715 15.4307L 53.8277 14.7899C 53.3498 13.7783 52.8718 12.7668 52.3939 11.7552C 51.9159 10.7436 51.438 9.73196 50.9601 8.72036L 49.6038 9.36114ZM 52.4719 15.4316C 52.6973 15.9073 52.9245 16.3828 53.1511 16.8572C 53.3778 17.3319 53.604 17.8054 53.8284 18.2787L 55.1838 17.6363C 54.9583 17.1606 54.7312 16.685 54.5046 16.2107C 54.2778 15.736 54.0517 15.2624 53.8273 14.7891L 52.4719 15.4316ZM 53.8282 18.2783C 54.2003 19.0648 54.5708 19.8514 54.9416 20.6387C 55.3123 21.4258 55.6834 22.2136 56.0562 23.0016L 57.4121 22.36C 57.0399 21.5735 56.6694 20.7869 56.2986 19.9996C 55.9279 19.2125 55.5569 18.4246 55.184 17.6367L 53.8282 18.2783ZM 56.0574 23.004C 56.1824 23.2657 56.3059 23.5296 56.4299 23.7949C 56.5536 24.0592 56.6779 24.3251 56.8024 24.5858L 58.1559 23.9393C 58.0345 23.685 57.9128 23.4248 57.7887 23.1594C 57.665 22.895 57.5389 22.6255 57.4109 22.3575L 56.0574 23.004ZM 57.016 23.6726C 56.9898 23.6932 56.9665 23.7128 56.9454 23.7316C 56.9242 23.7504 56.9076 23.7664 56.8962 23.7775C 56.8935 23.7801 56.8912 23.7825 56.8895 23.7841C 56.8875 23.7861 56.8868 23.7868 56.8859 23.7876C 56.8842 23.7893 56.8867 23.7869 56.8907 23.7831C 56.8994 23.775 56.9235 23.7529 56.9586 23.7284L 57.817 24.9585C 57.8627 24.9266 57.8964 24.8963 57.9154 24.8786C 57.9246 24.8699 57.9324 24.8623 57.9364 24.8584C 57.9432 24.8517 57.9409 24.8539 57.9444 24.8505C 57.9462 24.8488 57.9449 24.85 57.9429 24.8519C 57.9409 24.8536 57.9404 24.8539 57.9423 24.8525L 57.016 23.6726Z"/>
<path id="path6_fill" d="M 3.09959 6.11277C 3.99924 6.28199 4.90592 6.2967 5.82666 6.15692C 6.9934 5.97299 8.06876 5.57571 9.04573 4.90621C 10.3671 3.99394 11.6674 3.05223 12.9677 2.10317C 13.5932 1.64703 14.275 1.60289 14.9778 1.79418C 15.2168 1.86039 15.3855 1.81625 15.5542 1.6691C 15.8915 1.37482 16.2289 1.07318 16.5592 0.764186C 16.6155 0.712686 16.6366 0.631759 16.6858 0.550831C 16.3414 0.440475 16.0251 0.344833 15.7158 0.249191C 14.5631 -0.103948 13.4175 -0.140734 12.3562 0.528759C 11.4143 1.13204 10.5147 1.80889 9.60801 2.47103C 8.47642 3.28766 7.37294 4.14844 5.97426 4.43536C 4.83563 4.67079 3.71107 4.64136 2.62165 4.24408C 2.04531 4.03072 1.49708 3.71437 0.948852 3.4348C 0.780167 3.34652 0.681769 3.33916 0.590398 3.5378C 0.407656 3.94244 0.203827 4.34708 -8.57976e-07 4.77379C 0.934795 5.47271 1.98205 5.90678 3.09959 6.11277Z"/>
<path id="path7_stroke" d="M 3.09959 6.11277L 3.23822 5.37569L 3.23554 5.3752L 3.09959 6.11277ZM 5.82666 6.15692L 5.93923 6.89843L 5.94345 6.89777L 5.82666 6.15692ZM 9.04573 4.90621L 9.4697 5.52489L 9.47184 5.52341L 9.04573 4.90621ZM 12.9677 2.10317L 12.5258 1.49717L 12.5255 1.49738L 12.9677 2.10317ZM 14.9778 1.79418L 15.1781 1.0714L 15.1748 1.0705L 14.9778 1.79418ZM 16.5592 0.764186L 16.0527 0.211078L 16.0469 0.216456L 16.5592 0.764186ZM 16.6858 0.550831L 17.3266 0.940441L 17.8211 0.127069L 16.9146 -0.163398L 16.6858 0.550831ZM 15.7158 0.249191L 15.9374 -0.467328L 15.9355 -0.46791L 15.7158 0.249191ZM 12.3562 0.528759L 11.956 -0.10559L 11.9516 -0.102788L 12.3562 0.528759ZM 9.60801 2.47103L 10.0469 3.0792L 10.0503 3.07671L 9.60801 2.47103ZM 5.97426 4.43536L 5.82354 3.70066L 5.8224 3.7009L 5.97426 4.43536ZM 2.62165 4.24408L 2.36127 4.94744L 2.36469 4.94869L 2.62165 4.24408ZM 0.948852 3.4348L 0.601056 4.09933L 0.608133 4.10294L 0.948852 3.4348ZM 0.590398 3.5378L -0.0909909 3.22437L -0.0931286 3.22911L 0.590398 3.5378ZM -8.57976e-07 4.77379L -0.676756 4.45052L -0.942046 5.0059L -0.449106 5.37446L -8.57976e-07 4.77379ZM 2.96095 6.84985C 3.94491 7.03492 4.93654 7.05065 5.93923 6.89842L 5.71409 5.41541C 4.8753 5.54276 4.05356 5.52905 3.23822 5.3757L 2.96095 6.84985ZM 5.94345 6.89777C 7.20776 6.69846 8.3907 6.2643 9.46969 5.52489L 8.62177 4.28754C 7.74683 4.88712 6.77904 5.24752 5.70987 5.41607L 5.94345 6.89777ZM 9.47184 5.52341C 10.8018 4.6052 12.1087 3.65862 13.4098 2.70897L 12.5255 1.49738C 11.226 2.44585 9.9324 3.38267 8.61962 4.28902L 9.47184 5.52341ZM 13.4095 2.70917C 13.8072 2.4192 14.2395 2.37051 14.7809 2.51785L 15.1748 1.0705C 14.3105 0.835277 13.3792 0.874864 12.5258 1.49717L 13.4095 2.70917ZM 14.7776 2.51694C 14.9831 2.5739 15.2145 2.59842 15.4585 2.54302C 15.7032 2.48744 15.8962 2.36602 16.0472 2.2343L 15.0611 1.10391C 15.0513 1.11249 15.0528 1.10964 15.0651 1.10285C 15.0787 1.09539 15.0997 1.08629 15.1262 1.08027C 15.1526 1.07428 15.174 1.07372 15.1863 1.0744C 15.1973 1.075 15.1957 1.07629 15.1781 1.07141L 14.7776 2.51694ZM 16.0472 2.2343C 16.389 1.93608 16.7332 1.62844 17.0716 1.31192L 16.0469 0.216456C 15.7246 0.517922 15.394 0.81356 15.0611 1.10391L 16.0472 2.2343ZM 17.0658 1.31726C 17.2001 1.19426 17.2694 1.05698 17.2955 1.00479C 17.3031 0.989683 17.31 0.975386 17.3146 0.965945C 17.3198 0.955002 17.3226 0.949169 17.3255 0.943424C 17.3307 0.932779 17.3304 0.934244 17.3266 0.940441L 16.0449 0.161221C 16.0165 0.207882 15.9951 0.249811 15.9808 0.278709C 15.9739 0.292736 15.9673 0.306446 15.9633 0.3147C 15.9586 0.324457 15.9564 0.329012 15.9547 0.332303C 15.9533 0.335225 15.9539 0.333758 15.9562 0.329764C 15.9585 0.325664 15.9632 0.317406 15.9704 0.306539C 15.9849 0.284586 16.0114 0.24893 16.0527 0.211109L 17.0658 1.31726ZM 16.9146 -0.163398C 16.5654 -0.2753 16.2411 -0.373399 15.9374 -0.467326L 15.4942 0.965708C 15.809 1.06307 16.1173 1.15625 16.4569 1.26506L 16.9146 -0.163398ZM 15.9355 -0.46791C 14.6641 -0.857433 13.2691 -0.933873 11.956 -0.105575L 12.7563 1.16309C 13.5659 0.652405 14.4622 0.649536 15.4961 0.966293L 15.9355 -0.46791ZM 11.9516 -0.102788C 10.985 0.516391 10.0599 1.21234 9.16569 1.86534L 10.0503 3.07671C 10.9695 2.40544 11.8437 1.74769 12.7607 1.16031L 11.9516 -0.102788ZM 9.16912 1.86286C 7.99128 2.71286 7.03022 3.45312 5.82354 3.70066L 6.12497 5.17006C 7.71566 4.84375 8.96155 3.86246 10.0469 3.07919L 9.16912 1.86286ZM 5.8224 3.7009C 4.79511 3.9133 3.81504 3.88096 2.8786 3.53947L 2.36469 4.94869C 3.6071 5.40176 4.87616 5.42827 6.12612 5.16983L 5.8224 3.7009ZM 2.88202 3.54073C 2.36057 3.34769 1.88558 3.0706 1.28957 2.76666L 0.608133 4.10294C 1.10857 4.35814 1.73004 4.71376 2.36127 4.94743L 2.88202 3.54073ZM 1.29663 2.77031C 1.2221 2.7313 0.934175 2.57193 0.586951 2.64462C 0.169353 2.73204 -0.0175301 3.06471 -0.0909746 3.22438L 1.27177 3.85122C 1.2897 3.81225 1.1977 4.04928 0.894314 4.11279C 0.764074 4.14006 0.664204 4.11726 0.625005 4.10585C 0.588825 4.09533 0.575403 4.08586 0.601075 4.09929L 1.29663 2.77031ZM -0.0931286 3.22911C -0.271984 3.62514 -0.463262 4.00357 -0.676756 4.45052L 0.676755 5.09706C 0.870916 4.69058 1.0873 4.25974 1.27392 3.84649L -0.0931286 3.22911ZM -0.449106 5.37446C 0.584696 6.1474 1.74089 6.62496 2.96363 6.85035L 3.23554 5.3752C 2.22321 5.18859 1.28489 4.79802 0.449104 4.17312L -0.449106 5.37446Z"/>
<path id="path8_fill" d="M 3.4229 0.303079C 2.53027 0.840145 1.67982 1.42135 1.05428 2.3042C 0.548226 3.02519 0.203828 3.8124 0 4.74675C 0.0421712 4.81296 0.0984004 4.93067 0.189771 5.0116C 0.463885 5.25439 0.752052 5.48246 1.02617 5.72524C 1.23702 5.91652 1.34245 5.88709 1.43382 5.59281C 1.63765 4.94539 1.82039 4.28325 2.12262 3.68733C 2.55839 2.8192 3.33152 2.29684 4.12575 1.81864C 4.95512 1.31835 4.89187 1.51699 4.52638 0.670932C 4.17495 -0.15306 4.18198 -0.145702 3.4229 0.303079Z"/>
<path id="path9_stroke" d="M 3.4229 0.303079L 3.04119 -0.342549L 3.03623 -0.339567L 3.4229 0.303079ZM 1.05428 2.3042L 0.442319 1.8706L 0.440402 1.87333L 1.05428 2.3042ZM 0 4.74675L -0.732767 4.58689L -0.798652 4.88891L -0.632593 5.14964L 0 4.74675ZM 0.189771 5.0116L -0.307502 5.57305L -0.307502 5.57305L 0.189771 5.0116ZM 1.02617 5.72524L 1.53012 5.16971L 1.52344 5.16379L 1.02617 5.72524ZM 1.43382 5.59281L 0.718434 5.36758L 0.717555 5.37042L 1.43382 5.59281ZM 2.12262 3.68733L 2.79152 4.02657L 2.79291 4.02379L 2.12262 3.68733ZM 4.12575 1.81864L 4.51262 2.46116L 4.51313 2.46084L 4.12575 1.81864ZM 4.52638 0.670932L 3.8365 0.965163L 3.83788 0.968354L 4.52638 0.670932ZM 3.03623 -0.339567C 2.12861 0.206527 1.16288 0.853658 0.442325 1.8706L 1.66624 2.7378C 2.19676 1.98905 2.93194 1.47376 3.80956 0.945724L 3.03623 -0.339567ZM 0.440402 1.87333C -0.125617 2.67975 -0.50874 3.55995 -0.732767 4.58689L 0.732767 4.9066C 0.916395 4.06484 1.22207 3.37064 1.66816 2.73508L 0.440402 1.87333ZM -0.632593 5.14964C -0.633607 5.14805 -0.632794 5.14926 -0.628831 5.15596C -0.624545 5.1632 -0.620554 5.17007 -0.612943 5.1831C -0.599699 5.20576 -0.579032 5.24099 -0.5544 5.2793C -0.506959 5.35308 -0.426857 5.46733 -0.307502 5.57305L 0.687045 4.45016C 0.702664 4.46399 0.711048 4.47424 0.712924 4.47658C 0.714822 4.47895 0.713084 4.47705 0.707272 4.46801C 0.701153 4.4585 0.694145 4.44683 0.68213 4.42627C 0.677112 4.41768 0.669077 4.40387 0.661859 4.39168C 0.654319 4.37895 0.64415 4.362 0.632593 4.34385L -0.632593 5.14964ZM -0.307502 5.57305C -0.161361 5.70248 -0.0127805 5.82684 0.126452 5.94343C 0.26836 6.06227 0.40092 6.17334 0.528892 6.28668L 1.52344 5.16379C 1.3773 5.03436 1.22872 4.91 1.08948 4.79341C 0.947577 4.67457 0.815017 4.5635 0.687045 4.45016L -0.307502 5.57305ZM 0.522243 6.28072C 0.596427 6.34802 0.705618 6.43799 0.843038 6.50354C 0.987737 6.57257 1.22658 6.64276 1.50043 6.55637C 1.76536 6.47279 1.91776 6.28773 1.9951 6.16544C 2.07228 6.04341 2.11921 5.91468 2.15009 5.8152L 0.717555 5.37042C 0.702755 5.41808 0.702243 5.40338 0.727366 5.36366C 0.752651 5.32368 0.848381 5.1892 1.04917 5.12586C 1.25889 5.0597 1.42613 5.11977 1.4889 5.14971C 1.54439 5.17618 1.56133 5.1981 1.53009 5.16975L 0.522243 6.28072ZM 2.14921 5.81803C 2.36532 5.13161 2.52517 4.55173 2.79151 4.02657L 1.45373 3.34809C 1.11561 4.01478 0.909988 4.75917 0.71844 5.36759L 2.14921 5.81803ZM 2.79291 4.02379C 3.12274 3.36672 3.71995 2.93842 4.51262 2.46116L 3.73888 1.17611C 2.94309 1.65526 1.99404 2.27167 1.45233 3.35087L 2.79291 4.02379ZM 4.51313 2.46084C 4.60928 2.40285 4.69298 2.35468 4.76907 2.31106C 4.84078 2.26995 4.91835 2.22579 4.98421 2.18505C 5.06703 2.13381 5.36039 1.96442 5.48081 1.62567C 5.60801 1.26784 5.46724 0.946686 5.4285 0.852235C 5.3992 0.780803 5.36255 0.701305 5.32986 0.63002C 5.29487 0.553727 5.25697 0.470928 5.21489 0.37351L 3.83788 0.968354C 3.88716 1.08245 3.93119 1.17852 3.96638 1.25526C 4.00387 1.33701 4.02563 1.38471 4.0407 1.42145C 4.04749 1.438 4.04971 1.44467 4.04966 1.44455C 4.04953 1.44413 4.04844 1.44078 4.0469 1.43495C 4.04537 1.42912 4.04314 1.41989 4.04094 1.40775C 4.03166 1.35657 4.02248 1.24977 4.06746 1.12324C 4.11109 1.00051 4.18106 0.929084 4.20829 0.904278C 4.23022 0.884302 4.23678 0.883602 4.19506 0.909409C 4.15593 0.933617 4.10523 0.962621 4.02308 1.00971C 3.94531 1.05429 3.84956 1.10935 3.73836 1.17643L 4.51313 2.46084ZM 5.21626 0.376704C 5.13602 0.188573 5.05206 -0.0116507 4.96671 -0.163938C 4.8909 -0.299223 4.71596 -0.586309 4.36176 -0.702764C 4.00634 -0.819618 3.69507 -0.690994 3.55473 -0.626944C 3.39761 -0.555232 3.21291 -0.444046 3.0412 -0.34253L 3.80459 0.948687C 3.85279 0.920191 3.89581 0.894712 3.93629 0.870944C 3.97657 0.847288 4.01212 0.826633 4.04424 0.808392C 4.0764 0.790125 4.10331 0.775313 4.12623 0.763231C 4.14926 0.75109 4.16589 0.742965 4.17754 0.737649C 4.18934 0.73226 4.19273 0.731278 4.18939 0.732431C 4.18614 0.733555 4.17173 0.738377 4.14834 0.742669C 4.12451 0.747043 4.08859 0.751376 4.04362 0.749586C 3.99753 0.747752 3.94631 0.739637 3.89326 0.722195C 3.84023 0.704759 3.79438 0.680966 3.75651 0.655347C 3.71957 0.630356 3.69354 0.605888 3.67726 0.588621C 3.66127 0.571668 3.65279 0.559627 3.65107 0.557148C 3.6493 0.554589 3.65166 0.557735 3.65819 0.569385C 3.66463 0.580881 3.67343 0.597609 3.68501 0.62135C 3.69654 0.644979 3.70968 0.673211 3.725 0.707344C 3.74031 0.741426 3.75697 0.779566 3.77567 0.822937C 3.79441 0.866425 3.81433 0.913164 3.8365 0.96516L 5.21626 0.376704Z"/>
<path id="path10_fill" d="M 3.3848 5.73415C 3.49023 5.60172 3.55349 5.53551 3.59566 5.45458C 3.75732 5.1603 4.28446 4.21123 4.44611 3.90959C 4.88891 2.96789 2.14075 0.790198 1.26218 0.245775C 0.678815 -0.107365 0.664758 -0.12208 0.369559 0.481199C -0.136496 1.50383 -0.21381 1.29783 0.720986 1.84961C 1.8807 2.53382 2.76629 3.43874 3.14583 4.81451C 3.21612 5.1088 3.29343 5.38101 3.3848 5.73415Z"/>
<path id="path11_stroke" d="M 3.3848 5.73415L 2.65871 5.92202L 3.03527 7.37735L 3.97156 6.20128L 3.3848 5.73415ZM 3.59566 5.45458L 2.93831 5.09348L 2.93435 5.10069L 2.93055 5.10799L 3.59566 5.45458ZM 4.44611 3.90959L 5.10716 4.26387L 5.11646 4.24653L 5.12483 4.22873L 4.44611 3.90959ZM 1.26218 0.245775L 1.65726 -0.391781L 1.65057 -0.395827L 1.26218 0.245775ZM 0.369559 0.481199L 1.04176 0.813843L 1.04323 0.810843L 0.369559 0.481199ZM 0.720986 1.84961L 0.339746 2.49549L 0.339883 2.49557L 0.720986 1.84961ZM 3.14583 4.81451L 3.87532 4.64029L 3.87229 4.62762L 3.86882 4.61506L 3.14583 4.81451ZM 3.97156 6.20128C 3.99422 6.17282 4.01495 6.14749 4.03606 6.12177C 4.05576 6.09776 4.07966 6.06874 4.10168 6.04096C 4.14644 5.9845 4.20707 5.90423 4.26077 5.80117L 2.93055 5.10799C 2.94208 5.08585 2.94999 5.07916 2.92622 5.10914C 2.91398 5.12459 2.89967 5.142 2.87654 5.17019C 2.85481 5.19666 2.8281 5.22926 2.79804 5.26702L 3.97156 6.20128ZM 4.25301 5.81568C 4.40968 5.53046 4.94331 4.56961 5.10716 4.26387L 3.78506 3.55532C 3.6256 3.85286 3.10495 4.79013 2.93831 5.09348L 4.25301 5.81568ZM 5.12483 4.22873C 5.41184 3.61833 5.12263 2.99448 4.90042 2.62774C 4.64418 2.20485 4.26418 1.77667 3.8759 1.39431C 3.09607 0.626387 2.14563 -0.0891028 1.65724 -0.391746L 0.86713 0.883295C 1.2573 1.12507 2.12023 1.77064 2.82343 2.4631C 3.17665 2.81093 3.45558 3.13776 3.61754 3.40506C 3.81352 3.72851 3.70179 3.73 3.7674 3.59046L 5.12483 4.22873ZM 1.65057 -0.395827C 1.52096 -0.474292 1.3704 -0.566987 1.23883 -0.629224C 1.12039 -0.685254 0.851387 -0.802022 0.530419 -0.72389C 0.192692 -0.641679 0.00935393 -0.398601 -0.0725566 -0.275703C -0.157888 -0.147671 -0.236895 0.0141844 -0.304113 0.151556L 1.04323 0.810843C 1.08023 0.735225 1.10845 0.678326 1.13261 0.63236C 1.1573 0.585395 1.17051 0.563861 1.17562 0.556193C 1.18175 0.547005 1.16494 0.575013 1.1228 0.612021C 1.07441 0.654516 0.994736 0.706885 0.885197 0.73355C 0.778168 0.759604 0.69041 0.749438 0.641874 0.738885C 0.599003 0.729563 0.580045 0.718502 0.597395 0.72671C 0.612968 0.734076 0.641276 0.748946 0.691459 0.778125C 0.741144 0.807014 0.798444 0.841764 0.873793 0.887376L 1.65057 -0.395827ZM -0.302639 0.148559C -0.362052 0.268621 -0.415414 0.371158 -0.463815 0.463861C -0.509923 0.552175 -0.558007 0.643737 -0.596799 0.724667C -0.648077 0.831647 -0.810824 1.15027 -0.725025 1.51411C -0.631631 1.91016 -0.311998 2.10941 -0.203083 2.17895C -0.0779 2.25888 0.154066 2.38589 0.339746 2.49549L 1.10223 1.20374C 0.979164 1.1311 0.872218 1.07062 0.787837 1.02258C 0.698542 0.971738 0.643579 0.93986 0.604172 0.914698C 0.561521 0.887464 0.573448 0.890535 0.600997 0.918622C 0.637269 0.955603 0.704184 1.03945 0.734932 1.16984C 0.764186 1.29389 0.743115 1.38701 0.736088 1.4131C 0.730616 1.43342 0.729473 1.42803 0.755843 1.37302C 0.780858 1.32083 0.814535 1.2564 0.865865 1.15809C 0.914904 1.06416 0.974657 0.949436 1.04176 0.81384L -0.302639 0.148559ZM 0.339883 2.49557C 1.38571 3.11259 2.10953 3.87827 2.42284 5.01397L 3.86882 4.61506C 3.42305 2.99921 2.37569 1.95506 1.10209 1.20366L 0.339883 2.49557ZM 2.41635 4.98874C 2.48834 5.29014 2.57331 5.59196 2.65871 5.92202L 4.11089 5.54628C 4.01355 5.17006 3.9439 4.92745 3.87532 4.64029L 2.41635 4.98874Z"/>
</defs>
</svg>
