<svg width="36" height="30" viewBox="0 0 36 30" version="1.1" xmlns="http://www.w3.org/2000/svg" xmlns:xlink="http://www.w3.org/1999/xlink">
<g id="Canvas" fill="none">
<g id="Group">
<rect width="35.7352" height="30" fill="white" fill-opacity="0.9"/>
<g id="XMLID 32">
<path d="M 10.9987 1.78106C 8.99642 2.99164 7.18616 4.09217 5.36219 5.20646C 4.22393 5.89429 3.08566 6.59588 1.91997 7.26995C 1.52226 7.50382 1.38512 7.77895 1.39883 8.24667C 1.41255 12.2086 1.41255 16.1842 1.41255 20.1462C 1.41255 22.2509 1.39883 24.3694 1.41255 26.4742C 1.41255 27.0245 1.28912 27.4922 0.671988 27.4784C 0.0822843 27.4647 0.0137136 26.9694 0.0137136 26.4742C 0.0137136 20.1737 0.0274279 13.8731 -2.0926e-07 7.55884C -2.0926e-07 6.99482 0.260567 6.67842 0.699416 6.41704C 3.27766 4.86254 5.8559 3.29429 8.43414 1.73979C 9.2707 1.2308 10.0798 0.694288 10.9301 0.226562C 11.2318 0.0614829 11.6981 -0.0760833 11.9861 0.0477263C 12.2055 0.144023 12.3564 0.653018 12.3289 0.96942C 12.2878 1.64349 12.3426 4.80752 12.3426 5.45408C 12.3701 12.4012 12.3564 19.3483 12.3564 26.2954C 12.3564 26.8181 12.4524 27.4784 11.6844 27.4784C 10.9301 27.4784 10.9987 26.8319 10.9987 26.2954C 10.9987 18.4541 10.9987 10.6128 10.9987 2.77154C 10.9987 2.49641 10.9987 2.22127 10.9987 1.78106Z" transform="translate(11.6665 0)" fill="#B0B0B0"/>
</g>
<g id="XMLID 31">
<path d="M 17.8378 0.0148576C 23.4331 0.0148576 29.0422 0.0148576 34.6375 0.0148576C 34.8707 0.0148576 35.1449 -0.0401698 35.3095 0.0698832C 35.5152 0.221206 35.7209 0.510095 35.7346 0.757714C 35.7484 0.950307 35.5015 1.21168 35.3095 1.33549C 35.1312 1.44555 34.8707 1.40428 34.6375 1.40428C 23.5291 1.40428 12.4208 1.40428 1.31237 1.39052C 0.983234 1.39052 0.612954 1.2392 0.324959 1.06036C 0.146676 0.950307 -0.0453203 0.510096 0.00953585 0.468827C 0.215247 0.262477 0.503242 0.0561262 0.777523 0.0286129C 1.51808 -0.0264136 2.27235 0.0148576 3.02663 0.0148576C 7.96369 0.00110095 12.9007 0.0148576 17.8378 0.0148576Z" transform="translate(0 28.5881)" fill="#B0B0B0"/>
</g>
<g id="XMLID 30">
<path d="M 7.64269 10.1628C 7.64269 11.8961 7.62898 13.6432 7.64269 15.3766C 7.64269 15.9131 7.64269 16.4633 6.94327 16.4633C 6.285 16.4633 6.285 15.8993 6.285 15.4041C 6.285 12.1575 6.27128 8.89719 6.29871 5.65062C 6.29871 5.07284 6.10672 4.74268 5.62672 4.46755C 3.95361 3.49083 2.29421 2.45908 0.621097 1.45485C 0.195961 1.20723 -0.188033 0.904586 0.0999622 0.368078C 0.387957 -0.182187 0.854236 -0.0171077 1.27937 0.230512C 3.25419 1.42734 5.22902 2.61041 7.17641 3.8485C 7.42327 3.99983 7.61526 4.42628 7.62897 4.72893C 7.6564 6.5448 7.64269 8.36068 7.64269 10.1628Z" transform="translate(25.0146 10.9876)" fill="#B0B0B0"/>
</g>
<g id="XMLID 29">
<path d="M 1.41255 9.92708C 1.11084 9.98211 0.918841 10.0096 0.713131 10.0509C 0.795415 10.2435 0.863985 10.4361 0.94627 10.6149C 1.09712 10.9176 1.31655 11.1927 1.38512 11.5091C 1.48112 11.8943 1.42626 12.2244 0.863985 12.2519C 0.452564 12.2657 0.260567 12.5271 0.425135 12.9535C 1.35769 12.6509 1.39883 12.6922 1.39883 13.7101C 1.39883 14.1366 1.39883 14.5631 1.39883 15.1821C 1.01484 14.8244 0.767987 14.6043 0.479992 14.3292C 0.191997 14.962 0.57599 15.2784 0.918841 15.6361C 1.05598 15.7874 1.17941 15.9662 1.24798 16.1588C 1.26169 16.2001 1.00113 16.434 0.905127 16.4064C 0.699416 16.3514 0.452564 16.2276 0.370279 16.0625C 0.164569 15.6498 -0.0685702 15.3059 0.178283 14.7006C 0.43885 14.0816 0.233139 13.2699 0.191997 12.5546C 0.178283 12.2519 0.0137139 11.9493 0.0137139 11.6467C -1.05243e-07 9.41808 0.0137142 7.20327 1.0463e-07 4.97469C 1.0463e-07 4.42443 0.13714 4.02549 0.64456 3.7366C 2.57824 2.5948 4.48449 1.41173 6.39075 0.242418C 6.43189 0.214904 6.47303 0.214904 6.51417 0.187391C 6.95302 -0.101498 7.33702 -0.073985 7.6113 0.39374C 7.89929 0.902735 7.50159 1.16411 7.17245 1.38422C 6.4456 1.85194 5.69133 2.26464 4.95077 2.70485C 3.94965 3.31014 2.94852 3.95671 1.93368 4.53448C 1.52226 4.76835 1.38512 5.05723 1.38512 5.52496C 1.42626 7.01067 1.41255 8.46888 1.41255 9.92708Z" transform="translate(2.68018 10.7206)" fill="#B0B0B0"/>
</g>
<g id="XMLID 28">
<path d="M 1.33712 1.55778C 1.33712 1.86043 1.4194 2.19059 1.30969 2.4382C 1.19998 2.68582 0.911984 2.98847 0.692559 3.00223C 0.486848 3.01598 0.0891411 2.69958 0.061713 2.49323C -0.0205713 1.84667 -0.0205713 1.1726 0.061713 0.526035C 0.0891411 0.319685 0.500563 -0.0379874 0.678845 0.00328251C 0.925698 0.0445524 1.21369 0.360955 1.32341 0.622331C 1.4194 0.883706 1.33712 1.22762 1.33712 1.55778Z" transform="translate(15.4446 21.7799)" fill="#B0B0B0"/>
</g>
<g id="XMLID 27">
<path d="M 0.0806461 0.622447C 0.204073 0.361071 0.478354 0.0446687 0.738921 0.00339885C 0.917204 -0.037871 1.34234 0.306045 1.36977 0.526151C 1.45205 1.15896 1.43834 1.80552 1.39719 2.43832C 1.36977 2.82351 1.09548 3.12615 0.711491 2.97483C 0.450924 2.87853 0.204071 2.58964 0.0943589 2.31451C -0.0290675 2.06689 -0.0290663 0.842553 0.0806461 0.622447Z" transform="translate(27.2693 16.0845)" fill="#B0B0B0"/>
</g>
<g id="XMLID 26">
<path d="M 0.0822847 0.606845C 0.205711 0.345469 0.479993 0.0428245 0.74056 0.00155466C 0.918842 -0.0259586 1.33026 0.317956 1.3714 0.538062C 1.45369 1.15711 1.4674 1.81743 1.3714 2.43648C 1.34398 2.67034 0.932555 3.01426 0.71313 3.0005C 0.479991 2.98674 0.205711 2.62907 0.0822847 2.36769C -0.0274277 2.10632 -0.0274277 0.840708 0.0822847 0.606845Z" transform="translate(27.2677 21.7816)" fill="#B0B0B0"/>
</g>
<g id="XMLID 25">
<path d="M 1.32184 2.445C 1.19841 2.70638 0.910415 2.99527 0.663562 3.03654C 0.485279 3.06405 0.0875714 2.70638 0.0601433 2.48627C -0.022141 1.86722 -0.00842651 1.22066 0.0327156 0.587858C 0.0601438 0.216429 0.306996 -0.11373 0.704703 0.0375927C 0.951556 0.120132 1.19841 0.422779 1.29441 0.684155C 1.40412 0.94553 1.44526 2.19738 1.32184 2.445Z" transform="translate(15.4326 10.3551)" fill="#B0B0B0"/>
</g>
<g id="XMLID 24">
<path d="M 1.34741 2.36651C 1.23769 2.62789 0.949698 2.99932 0.730274 2.99932C 0.510849 3.01307 0.0994269 2.6554 0.0719988 2.42154C -0.0239996 1.80249 -0.0239996 1.14217 0.0719988 0.523123C 0.113141 0.303017 0.524563 0.0141272 0.771416 0.000370592C 0.949699 -0.013386 1.23769 0.358044 1.33369 0.605663C 1.4434 0.867039 1.45712 2.11889 1.34741 2.36651Z" transform="translate(18.9178 21.7691)" fill="#B0B0B0"/>
</g>
<g id="XMLID 23">
<path d="M 1.30283 2.42162C 1.19312 2.65548 0.918841 2.9031 0.671988 2.98564C 0.315423 3.10945 0.0411424 2.84807 0.0274283 2.47664C 2.08442e-07 1.81633 -0.0274283 1.14225 0.054856 0.495691C 0.0822841 0.289342 0.493706 -0.0133037 0.699417 0.000452918C 0.932556 0.0279662 1.22055 0.330611 1.31655 0.578231C 1.41255 0.880876 1.41255 2.174 1.30283 2.42162Z" transform="translate(15.4515 16.0737)" fill="#B0B0B0"/>
</g>
<g id="XMLID 22">
<path d="M 1.32257 2.43531C 1.22657 2.68293 0.924861 2.95806 0.678009 2.98557C 0.486012 3.01309 0.102019 2.69668 0.0745912 2.49033C -0.0076931 1.84377 -0.035122 1.1697 0.0608763 0.50938C 0.0883044 0.289274 0.51344 0.0141423 0.774006 0.000385662C 0.952289 -0.013371 1.24029 0.344301 1.33628 0.59192C 1.43228 0.867052 1.43228 2.16018 1.32257 2.43531Z" transform="translate(18.929 10.4061)" fill="#B0B0B0"/>
</g>
<g id="XMLID 21">
<path d="M 1.34236 2.38145C 1.24636 2.62907 0.944655 2.97299 0.766372 2.95923C 0.505805 2.93172 0.108097 2.65658 0.0669546 2.43648C -0.0290437 1.81743 -0.0153297 1.15711 0.0669546 0.538063C 0.0943827 0.317957 0.519519 -0.0259588 0.697802 0.00155445C 0.944655 0.0428243 1.21893 0.359226 1.32865 0.634359C 1.45207 0.881978 1.43836 2.13383 1.34236 2.38145Z" transform="translate(18.9229 16.0864)" fill="#B0B0B0"/>
</g>
<g id="XMLID 20">
<path d="M 1.29332 1.54989C 1.29332 1.82503 1.29332 2.10016 1.29332 2.37529C 1.29332 2.80175 1.08761 3.0081 0.676187 3.02185C 0.264765 3.02185 0.0179121 2.85677 0.0179121 2.41656C 0.0179121 1.79751 -0.036944 1.17846 0.0453403 0.573173C 0.0727684 0.353067 0.401906 0.050422 0.635044 0.00915209C 0.977896 -0.0458744 1.29332 0.146719 1.29332 0.600687C 1.29332 0.903333 1.29332 1.23349 1.29332 1.54989Z" transform="translate(6.72156 15.8099)" fill="#B0B0B0"/>
</g>
<g id="XMLID 19">
<path d="M 1.29332 1.54989C 1.29332 1.82503 1.29332 2.10016 1.29332 2.37529C 1.29332 2.80175 1.08761 3.0081 0.676187 3.02185C 0.264765 3.02185 0.0179121 2.85677 0.0179121 2.41656C 0.0179121 1.79751 -0.036944 1.17847 0.0453403 0.573175C 0.0727684 0.353069 0.401906 0.0504222 0.635044 0.0091523C 0.977896 -0.0458742 1.29332 0.146719 1.29332 0.600688C 1.29332 0.903333 1.29332 1.21973 1.29332 1.54989Z" transform="translate(6.72156 21.5052)" fill="#B0B0B0"/>
</g>
<g id="XMLID 18">
<path d="M 0.109748 8.39638e-07C 0.452599 8.39638e-07 0.781736 8.39638e-07 1.1383 8.39638e-07C 1.44001 0.825398 1.37144 1.19683 0.754308 1.58201C 0.562312 1.05926 -0.301674 0.852911 0.109748 8.39638e-07Z" transform="translate(6.73938 23.2414)" fill="#B0B0B0"/>
</g>
<g id="XMLID 17">
<path d="M 0.713131 8.37778C 1.09712 8.37778 1.42626 8.06138 1.42626 7.66244L 1.42626 0.715344C 1.42626 0.330159 1.11084 0 0.713131 0C 0.329137 0 1.0463e-07 0.316402 1.0463e-07 0.715344L 1.0463e-07 7.66244C 1.0463e-07 8.06138 0.315423 8.37778 0.713131 8.37778Z" transform="translate(2.68018 19.0319)" fill="#B0B0B0"/>
</g>
</g>
</g>
</svg>

