<svg width="31" height="28" viewBox="0 0 31 28" version="1.1" xmlns="http://www.w3.org/2000/svg" xmlns:xlink="http://www.w3.org/1999/xlink">
<g id="Canvas" fill="none">
<g id="Group">
<g id="XMLID 19">
<g id="XMLID 42">
<path d="M 10.6342 2.21988C 10.6342 0.736946 9.86111 0.031648 8.29615 0.0135634C 6.3541 -0.00452115 4.39319 -0.00452115 2.45114 0.0135634C 0.716486 0.031648 0.0188549 0.700777 0 2.38264C 0 6.1804 0 9.97816 0 13.7759C 0 17.6641 0 21.5523 0 25.4405C 0 26.9053 0.735341 27.5925 2.24373 27.5925C 4.28006 27.5925 6.33524 27.5925 8.37157 27.5925C 9.89881 27.5925 10.6153 26.9234 10.6153 25.4405C 10.6342 17.7003 10.6342 9.96007 10.6342 2.21988ZM 8.01333 26.0192C 6.31639 26.0192 4.61945 26.0192 2.92251 26.0192C 1.50839 26.0192 1.50839 26.0192 1.50839 24.7171C 1.50839 18.7311 1.50839 12.727 1.50839 6.74102C 1.50839 5.33043 1.52725 3.90174 1.50839 2.49115C 1.48954 1.78585 1.77236 1.55075 2.5077 1.56884C 4.4309 1.605 6.33524 1.605 8.25844 1.56884C 8.88065 1.55075 9.12577 1.76777 9.10691 2.34647C 9.08806 3.16028 9.10691 3.956 9.10691 4.84214C 7.40997 4.84214 5.93929 4.84214 4.46861 4.84214C 3.2996 4.84214 3.07335 5.1315 3.2619 6.36125C 5.41135 6.46975 7.71165 6.34316 9.20119 8.80266C 7.97562 8.80266 6.97631 8.80266 5.99585 8.80266C 5.48677 8.80266 4.99655 8.78458 4.48746 8.80266C 3.39388 8.83883 3.14877 9.1101 3.22419 10.1047C 4.4309 10.3398 5.63761 10.5026 6.80661 10.792C 8.56012 11.2622 9.14462 12.0398 9.14462 13.7759C 9.14462 16.0727 9.14462 18.3513 9.14462 20.6481C 9.14462 20.9736 9.14462 21.2991 9.14462 21.7331C 7.57966 21.7331 6.10898 21.7331 4.6383 21.7331C 3.45045 21.7331 3.16762 22.0586 3.24304 23.2341C 5.52448 23.3969 7.93791 23.2884 9.2766 25.9468C 8.65439 25.983 8.33386 26.0192 8.01333 26.0192Z" transform="translate(20.366 0.407501)" fill="#474A4F"/>
</g>
<g id="XMLID 37">
<path d="M 18.4615 0.638057C 16.6326 0.638057 14.8225 0.619973 12.9936 0.656142C 12.5411 0.674226 12.0508 1.01783 11.6172 0.963579C 10.0334 0.782734 8.46841 0.511465 6.8846 0.222112C 4.84827 -0.157664 4.52774 -0.193833 4.28262 1.2891L 2.69881 10.1144C 2.67996 10.1505 2.6611 10.1686 2.6611 10.2048C 2.51026 11.0548 2.37828 11.8867 2.22744 12.7366L 2.20859 12.809C 1.88805 14.744 1.54866 16.6971 1.22813 18.6322C 0.851034 20.8928 0.455081 23.1353 0.0402735 25.3958C -0.110566 26.1915 0.153403 26.7341 0.983018 26.8607C 2.81194 27.1681 4.64087 27.4394 6.46979 27.6745C 7.12971 27.7649 7.60108 27.5479 7.71421 26.8064C 8.07246 24.582 8.46841 22.3576 8.86436 20.1332C 9.43001 16.9684 10.0145 13.7855 10.5802 10.6207L 11.6737 4.67091C 11.7114 4.689 11.768 4.689 11.8057 4.70708C 11.8057 7.02191 11.8057 9.33673 11.8057 11.6516C 11.8057 16.5706 11.8057 21.4715 11.8057 26.3905C 11.8057 27.566 12.032 27.783 13.2387 27.783C 14.9356 27.8011 16.6326 27.783 18.3295 27.783C 19.1591 27.783 19.6116 27.4936 19.6116 26.6256C 19.5928 18.3428 19.5928 10.0601 19.6116 1.7593C 19.6305 0.999748 19.2723 0.638057 18.4615 0.638057ZM 6.52635 26.499C 4.86712 26.2639 3.32102 26.0469 1.79378 25.7756C 1.62408 25.7394 1.39783 25.2873 1.43554 25.0341C 1.64294 23.4789 1.90691 21.9417 2.17088 20.4045C 2.56683 17.9992 2.98164 15.594 3.39644 13.2068L 5.56476 1.59654C 5.69674 1.45186 5.86643 1.30719 5.97956 1.32527C 7.54452 1.50612 9.10947 1.7593 10.7498 1.9944C 10.6367 2.68161 10.5613 3.31457 10.4482 3.92945L 10.2973 4.85176C 10.2785 4.96027 10.2596 5.05069 10.2408 5.14111C 10.2219 5.23154 10.2031 5.32196 10.2031 5.41238L 9.33573 10.4037C 8.41184 15.7568 7.4691 21.0917 6.52635 26.499ZM 13.0313 2.98905C 13.0313 2.04865 13.333 1.79547 14.2569 1.83164C 15.5956 1.90398 16.9531 1.84972 18.3672 1.84972C 18.3672 8.52293 18.3672 15.0153 18.3672 21.6523C 16.708 21.6523 15.0865 21.6704 13.465 21.6161C 13.3141 21.6161 13.069 21.1821 13.0501 20.947C 12.9936 20.1151 13.0313 19.2652 13.0313 18.4152C 13.0501 13.2792 13.0879 8.12507 13.0313 2.98905ZM 17.4245 26.6617C 16.2366 26.6075 15.0488 26.6437 13.8421 26.6437C 13.3895 26.6437 13.0313 26.5894 13.0501 26.0288C 13.0501 25.4862 13.3518 25.3777 13.8421 25.3777C 15.3316 25.3958 16.84 25.3777 18.2729 25.3777C 18.6123 26.3362 18.3861 26.6979 17.4245 26.6617Z" fill="#474A4F"/>
</g>
<g id="XMLID 36">
<path d="M 1.36106 1.37974e-07C 1.32335 0.614875 0.738844 3.90627 0.60686 4.46689C 0.380602 5.46154 0.229763 6.47427 0.0600685 7.48701C -0.0342059 8.04763 -0.109626 8.66251 0.588005 8.82527C 1.37991 9.00611 1.47419 8.3189 1.56846 7.79445C 1.85128 6.31151 2.02098 4.81049 2.39807 3.36373C 2.73746 2.09781 2.37922 1.10316 1.36106 1.37974e-07Z" transform="translate(5.12756 6.64212)" fill="#474A4F"/>
</g>
<g id="XMLID 35">
<path d="M 1.15015 -2.75949e-07C 0.84847 -2.75949e-07 0.546792 0.379776 0 0.777637C 0.584501 1.15741 0.961599 1.57336 1.18786 1.5191C 1.50839 1.42868 1.84778 0.994652 1.90434 0.669129C 1.94205 0.470199 1.43297 -2.75949e-07 1.15015 -2.75949e-07Z" transform="translate(3.30212 22.0863)" fill="#474A4F"/>
</g>
<g id="XMLID 34">
<path d="M 0.400666 2.96587C 0.53265 2.6946 0.721198 2.42333 0.815473 2.13398C 0.872037 1.95313 0.834329 1.71803 0.834329 1.5191C 0.834329 1.24784 0.890892 0.976566 0.815473 0.723383C 0.758908 0.470199 0.570359 0.235099 0.438375 0C 0.306391 0.235099 0.0801338 0.452115 0.0424241 0.687214C -0.0141406 1.19358 -0.0141406 1.69995 0.0424241 2.20632C 0.0801338 2.44142 0.268682 2.6946 0.400666 2.96587Z" transform="translate(26.0366 17.5471)" fill="#474A4F"/>
</g>
<g id="XMLID 33">
<path d="M 0.283934 2.96587C 0.397063 2.9297 0.566757 2.78502 0.566757 2.6946C 0.585612 1.80846 0.585613 0.922313 0.585613 5.51897e-07C 0.283935 0.0361697 0.170806 0.0361691 0.170806 0.0361691C 0.114241 0.958482 0.0388201 1.89888 0.00111028 2.82119C -0.0177446 2.87545 0.208514 3.00204 0.283934 2.96587Z" transform="translate(24.6825 17.511)" fill="#474A4F"/>
</g>
<g id="XMLID 21">
<path d="M 0.725914 2.75949e-07C 0.4808 0.289353 0.0659915 0.578706 0.0471366 0.886143C -0.0282829 1.9893 0.00942744 3.11054 0.00942744 4.2137C 0.00942744 5.31686 0.00942744 6.4381 0.00942744 7.54126C 0.00942744 8.06571 0.216831 8.51783 0.782478 8.42741C 1.08416 8.37315 1.49896 7.88487 1.49896 7.57743C 1.55553 5.33495 1.55553 3.07438 1.49896 0.83189C 1.48011 0.542537 0.989882 0.271269 0.725914 2.75949e-07Z" transform="translate(14.9828 9.75266)" fill="#474A4F"/>
</g>
<g id="XMLID 20">
<path d="M 0.527937 1.39805C 1.50839 1.47039 2.52655 1.48847 3.50701 1.41613C 3.73327 1.39805 4.11037 0.927849 4.09151 0.69275C 4.07266 0.45765 3.6767 0.132128 3.39388 0.0597899C 2.99793 -0.0487175 2.52655 0.0236207 2.09289 0.0236207L 2.09289 0.0417053C 1.60266 0.0417053 1.07473 -0.0306332 0.603357 0.0778742C 0.358243 0.132128 -2.87703e-07 0.475735 -2.87703e-07 0.69275C -2.87703e-07 0.945933 0.320533 1.37996 0.527937 1.39805Z" transform="translate(13.6912 4.59305)" fill="#474A4F"/>
</g>
</g>
</g>
</g>
</svg>

