<svg width="30" height="30" viewBox="0 0 30 30" version="1.1" xmlns="http://www.w3.org/2000/svg" xmlns:xlink="http://www.w3.org/1999/xlink">
<g id="Canvas" fill="none">
<g id="Group">
<rect width="30" height="30" fill="white" fill-opacity="0.9"/>
<g id="XMLID 16">
<path d="M 0.00341724 15.0199C -0.17668 6.79999 6.78708 -0.019956 14.9315 4.38763e-05C 23.2159 0.0200437 29.9196 6.6 29.9996 14.9599C 30.0596 23.1599 23.256 29.9598 15.1116 29.9998C 6.74706 30.0398 -0.136658 23.2199 0.00341724 15.0199ZM 1.90444 15.8199C 1.50423 21.7599 7.90768 28.3198 13.9109 28.0798C 13.9109 27.1798 13.8309 26.2799 13.9509 25.3999C 14.011 25.0399 14.4712 24.5199 14.8314 24.4399C 15.3917 24.3199 15.6719 24.7799 15.6519 25.3999C 15.6118 26.3199 15.6519 27.2398 15.6519 28.1598C 22.1554 28.2198 28.1586 22.0799 28.1386 15.8199C 27.2781 15.8199 26.4177 15.7999 25.5572 15.8199C 24.9169 15.8399 24.2365 15.7799 24.1965 14.9999C 24.1765 14.2199 24.8568 14.1399 25.4972 14.1399C 26.3777 14.1599 27.2581 14.1399 28.1386 14.1399C 28.5188 8.15998 20.7546 0.660039 15.6118 1.94003C 15.6118 2.68002 15.6118 3.44002 15.6118 4.20001C 15.6118 4.84001 15.6919 5.6 14.7514 5.54C 13.9109 5.48 13.8709 4.80001 13.8709 4.12001C 13.8909 3.36002 13.8709 2.60002 13.8709 1.86003C 7.62753 1.82003 1.56426 8.33998 1.88443 14.1599C 2.66485 14.1599 3.46529 14.1599 4.24571 14.1599C 4.82602 14.1599 5.44635 14.2199 5.42634 15.0199C 5.40633 15.7599 4.82602 15.7999 4.28573 15.7999C 3.46529 15.8399 2.68486 15.8199 1.90444 15.8199Z" fill="#B0B0B0"/>
</g>
<g id="XMLID 15">
<path d="M 4.90264 8.93993C 3.24175 7.29995 1.62087 5.69996 1.5267e-07 4.11997C 0.800432 2.73998 0.980529 2.71998 2.0411 3.79997C 2.94159 4.71997 3.86208 5.63996 4.86262 6.63995C 7.02379 4.39997 9.12492 2.19998 11.2461 -1.52587e-07C 11.4862 0.239998 11.5462 0.279998 11.6063 0.339998C 12.5668 1.31999 12.5868 1.31999 11.6263 2.27998C 9.38507 4.49997 7.12384 6.71995 4.90264 8.93993Z" transform="translate(10.0488 8.36002)" fill="#B0B0B0"/>
</g>
</g>
</g>
</svg>

