<svg width="32" height="30" viewBox="0 0 32 30" version="1.1" xmlns="http://www.w3.org/2000/svg" xmlns:xlink="http://www.w3.org/1999/xlink">
<g id="Canvas" fill="none">
<g id="horario">
<g id="Group">
<g id="Vector">
<path d="M 30.9037 1.96661L 25.4011 1.96661L 25.4011 1.06549C 25.4011 0.477056 24.9102 -1.62581e-08 24.3047 -1.62581e-08C 23.6992 -1.62581e-08 23.2084 0.477056 23.2084 1.06549L 23.2084 1.96676L 17.0962 1.96676L 17.0962 1.06549C 17.0962 0.477056 16.6053 -1.62581e-08 15.9999 -1.62581e-08C 15.3944 -1.62581e-08 14.9035 0.477056 14.9035 1.06549L 14.9035 1.96676L 8.79134 1.96676L 8.79134 1.06549C 8.79134 0.477056 8.30047 -1.62581e-08 7.695 -1.62581e-08C 7.08953 -1.62581e-08 6.59866 0.477056 6.59866 1.06549L 6.59866 1.96676L 1.09634 1.96676C 0.490868 1.96676 0 2.44381 0 3.03225L 0 28.9345C 0 29.5229 0.490868 30 1.09634 30L 30.9037 30C 31.5091 30 32 29.5229 32 28.9345L 32 3.03211C 32 2.44367 31.5091 1.96661 30.9037 1.96661ZM 29.8073 27.869L 2.19268 27.869L 2.19268 4.0976L 6.59866 4.0976L 6.59866 5.77511C 6.59866 6.36355 7.08953 6.8406 7.695 6.8406C 8.30047 6.8406 8.79134 6.36355 8.79134 5.77511L 8.79134 4.0976L 14.9037 4.0976L 14.9037 5.77511C 14.9037 6.36355 15.3945 6.8406 16 6.8406C 16.6055 6.8406 17.0963 6.36355 17.0963 5.77511L 17.0963 4.0976L 23.2085 4.0976L 23.2085 5.77511C 23.2085 6.36355 23.6994 6.8406 24.3049 6.8406C 24.9103 6.8406 25.4012 6.36355 25.4012 5.77511L 25.4012 4.0976L 29.8075 4.0976L 29.8075 27.869L 29.8073 27.869Z" fill="#C0C0C0"/>
</g>
<g id="Vector_2">
<path d="M 18.5456 5.00952C 19.0299 5.00952 19.4226 4.62779 19.4226 4.15712C 19.4226 3.68646 19.0299 3.30473 18.5456 3.30473L 16.0785 3.30473L 16.0785 0.852394C 16.0785 0.38173 15.6857 -2.77472e-07 15.2014 -2.77472e-07C 14.7171 -2.77472e-07 14.3244 0.38173 14.3244 0.852394L 14.3244 3.30473L 10.5886 3.30473L 10.5886 0.852394C 10.5886 0.38173 10.196 -2.77472e-07 9.71154 -2.77472e-07C 9.22725 -2.77472e-07 8.83446 0.38173 8.83446 0.852394L 8.83446 3.30473L 5.09872 3.30473L 5.09872 0.852394C 5.09872 0.38173 4.70608 -2.77472e-07 4.22164 -2.77472e-07C 3.73735 -2.77472e-07 3.34457 0.38173 3.34457 0.852394L 3.34457 3.30473L 0.877073 3.30473C 0.392783 3.30473 6.69153e-08 3.68646 6.69153e-08 4.15712C 6.69153e-08 4.62779 0.392783 5.00952 0.877073 5.00952L 3.34457 5.00952L 3.34457 7.66913L 0.877073 7.66913C 0.392783 7.66913 6.69153e-08 8.05086 6.69153e-08 8.52152C 6.69153e-08 8.99233 0.392783 9.37392 0.877073 9.37392L 3.34457 9.37392L 3.34457 11.8263C 3.34457 12.2971 3.73735 12.6786 4.22164 12.6786C 4.70608 12.6786 5.09872 12.2971 5.09872 11.8263L 5.09872 9.37377L 8.83446 9.37377L 8.83446 11.8261C 8.83446 12.2969 9.22725 12.6785 9.71154 12.6785C 10.196 12.6785 10.5886 12.2969 10.5886 11.8261L 10.5886 9.37377L 14.3244 9.37377L 14.3244 11.8261C 14.3244 12.2969 14.7171 12.6785 15.2014 12.6785C 15.6857 12.6785 16.0785 12.2969 16.0785 11.8261L 16.0785 9.37377L 18.5456 9.37377C 19.0299 9.37377 19.4226 8.99218 19.4226 8.52138C 19.4226 8.05072 19.0299 7.66899 18.5456 7.66899L 16.0785 7.66899L 16.0785 5.00952L 18.5456 5.00952ZM 5.09872 7.66899L 5.09872 5.00952L 8.83446 5.00952L 8.83446 7.66913L 5.09872 7.66913L 5.09872 7.66899ZM 14.3242 7.66899L 10.5885 7.66899L 10.5885 5.00952L 14.3242 5.00952L 14.3242 7.66899Z" transform="translate(6.28833 13.0456)" fill="#C0C0C0"/>
</g>
<g id="Vector_3">
<path d="M 0.877072 1.70479L 15.826 1.70479C 16.3105 1.70479 16.7031 1.3232 16.7031 0.852394C 16.7031 0.381589 16.3105 3.90195e-07 15.826 3.90195e-07L 0.877072 3.90195e-07C 0.392636 3.90195e-07 -2.05207e-07 0.381589 -2.05207e-07 0.852394C -2.05207e-07 1.3232 0.392636 1.70479 0.877072 1.70479Z" transform="translate(7.64819 9.41187)" fill="#C0C0C0"/>
</g>
</g>
</g>
</g>
</svg>

