<svg width="27" height="29" viewBox="0 0 27 29" version="1.1" xmlns="http://www.w3.org/2000/svg" xmlns:xlink="http://www.w3.org/1999/xlink">
<g id="Canvas" fill="none">
<g id="002-calendario-pixel">
<g id="Group">
<g id="Group_2">
<g id="Vector">
<path d="M 2.07692 0L 0 0L 0 2.07143L 2.07692 2.07143L 2.07692 0Z" transform="translate(6.23083 16.5714)" fill="#BFBFBF"/>
</g>
<g id="Vector_2">
<path d="M 2.07692 0L 0 0L 0 2.07143L 2.07692 2.07143L 2.07692 0Z" transform="translate(10.3848 16.5714)" fill="#BFBFBF"/>
</g>
<g id="Vector_3">
<path d="M 2.07692 0L 0 0L 0 2.07143L 2.07692 2.07143L 2.07692 0Z" transform="translate(14.5382 16.5714)" fill="#BFBFBF"/>
</g>
<g id="Vector_4">
<path d="M 2.07692 0L 0 0L 0 2.07143L 2.07692 2.07143L 2.07692 0Z" transform="translate(18.6921 20.7143)" fill="#BFBFBF"/>
</g>
<g id="Vector_5">
<path d="M 2.07692 0L 0 0L 0 2.07143L 2.07692 2.07143L 2.07692 0Z" transform="translate(6.23083 20.7143)" fill="#BFBFBF"/>
</g>
<g id="Vector_6">
<path d="M 2.07692 0L 0 0L 0 2.07143L 2.07692 2.07143L 2.07692 0Z" transform="translate(10.3848 20.7143)" fill="#BFBFBF"/>
</g>
<g id="Vector_7">
<path d="M 2.07692 0L 0 0L 0 2.07143L 2.07692 2.07143L 2.07692 0Z" transform="translate(14.5382 20.7143)" fill="#BFBFBF"/>
</g>
<g id="Vector_8">
<path d="M 2.07692 0L 0 0L 0 2.07143L 2.07692 2.07143L 2.07692 0Z" transform="translate(18.6921 16.5714)" fill="#BFBFBF"/>
</g>
<g id="Vector_9">
<path d="M 20.7692 2.07143L 20.7692 0L 18.6923 0L 18.6923 2.07143L 8.30769 2.07143L 8.30769 0L 6.23077 0L 6.23077 2.07143L 0 2.07143L 0 29L 27 29L 27 2.07143L 20.7692 2.07143ZM 24.9231 26.9286L 2.07692 26.9286L 2.07692 12.4286L 24.9231 12.4286L 24.9231 26.9286ZM 24.9231 10.3571L 2.07692 10.3571L 2.07692 4.14286L 6.23077 4.14286L 6.23077 6.21429L 8.30769 6.21429L 8.30769 4.14286L 18.6923 4.14286L 18.6923 6.21429L 20.7692 6.21429L 20.7692 4.14286L 24.9231 4.14286L 24.9231 10.3571Z" fill="#BFBFBF"/>
</g>
</g>
</g>
</g>
</g>
</svg>

