<svg width="35" height="34" viewBox="0 0 35 34" version="1.1" xmlns="http://www.w3.org/2000/svg" xmlns:xlink="http://www.w3.org/1999/xlink">
<g id="Canvas" fill="none">
<g id="diploma-de-posgrado-y-gorro">
<g id="Group">
<g id="Group_2">
<g id="Vector">
<path d="M 1.35246 16.2937L 1.35246 1.35836L 16.2571 1.35836L 15.3767 -1.60217e-07L 0 -1.60217e-07L 0 17.6521L 11.1499 17.6521L 13.1406 16.2937L 1.35246 16.2937Z" transform="translate(0 9.64999)" fill="#B0B0B0"/>
</g>
<g id="Vector_2">
<path d="M 0.659175 8.95592L -8.73167e-07 8.95592L 1.21381 10.3143L 2.01164 10.3143L 2.01164 0.478577L 0.659175 -2.27676e-07L 0.659175 8.95592Z" transform="translate(25.098 16.9878)" fill="#B0B0B0"/>
</g>
<g id="Vector_3">
<path d="M 8.06967 0L 0 0L 0 1.03342L 8.06967 1.03342L 8.06967 0Z" transform="translate(10.0096 14.0081)" fill="#B0B0B0"/>
</g>
<g id="Vector_4">
<path d="M 14.0793 0L 0 0L 0 1.13952L 14.0793 1.13952L 14.0793 0Z" transform="translate(7.00659 16.6574)" fill="#B0B0B0"/>
</g>
<g id="Vector_5">
<path d="M 14.0793 0L 0 0L 0 1.13952L 14.0793 1.13952L 14.0793 0Z" transform="translate(7.00659 19.0447)" fill="#B0B0B0"/>
</g>
<g id="Vector_6">
<path d="M 14.0793 0L 0 0L 0 1.13952L 14.0793 1.13952L 14.0793 0Z" transform="translate(7.00659 21.3028)" fill="#B0B0B0"/>
</g>
<g id="Vector_7">
<path d="M 6.09325 3.06157C 6.09325 1.36942 4.72867 -6.74597e-07 3.04497 -6.74597e-07C 1.36457 -6.74597e-07 8.39584e-08 1.36831 8.39584e-08 3.06157C 8.39584e-08 4.7493 1.36347 6.11982 3.04497 6.11982C 4.72867 6.11872 6.09325 4.7493 6.09325 3.06157Z" transform="translate(16.6938 23.2038)" fill="#B0B0B0"/>
</g>
<g id="Vector_8">
<path d="M -9.06751e-07 3.53462L 2.46833 6.66803L 3.64362 3.56336L 6.92299 3.13231L 4.45576 0L -9.06751e-07 3.53462Z" transform="translate(19.7411 27.332)" fill="#B0B0B0"/>
</g>
<g id="Vector_9">
<path d="M -1.76313e-07 2.4791L 3.09339 3.66062L 3.52147 6.95319L 6.64237 4.4763L 3.122 -4.55353e-07L -1.76313e-07 2.4791Z" transform="translate(11.9049 26.2621)" fill="#B0B0B0"/>
</g>
<g id="Vector_10">
<path d="M 1.09826 3.05677e-08L 0.168371 1.31194L 3.03287 3.3622L 3.77813e-07 7.63955L 5.20077 14.2921L 12.773 16.7789L 15.8059 12.5027L 17.2002 13.4985L 15.0477 16.5325L 14.3522 16.0329L 12.5309 18.5993L 14.6999 20.15L 16.5179 17.5847L 16.0546 17.2509L 18.206 14.2203L 19.0567 14.8293L 19.9898 13.5162L 1.09826 3.05677e-08Z" transform="translate(15.0103 0)" fill="#B0B0B0"/>
</g>
</g>
</g>
</g>
</g>
</svg>

