<svg width="29" height="28" viewBox="0 0 29 28" version="1.1" xmlns="http://www.w3.org/2000/svg" xmlns:xlink="http://www.w3.org/1999/xlink">
<title>Group</title>
<desc>Created using Figma</desc>
<g id="Canvas" transform="translate(-230 -3638)">
<g id="Group">
<g id="XMLID 15">
<g id="XMLID 20">
<use xlink:href="#path0_stroke" transform="translate(231 3640.99)" fill="#FFFFFF"/>
</g>
<g id="XMLID 18">
<use xlink:href="#path1_fill" transform="translate(244.376 3638.99)" fill="#FFFFFF"/>
</g>
<g id="XMLID 17">
<use xlink:href="#path2_fill" transform="translate(244.916 3642.61)" fill="#FFFFFF"/>
</g>
<g id="XMLID 16">
<use xlink:href="#path3_fill" transform="translate(245.485 3646.54)" fill="#FFFFFF"/>
</g>
</g>
</g>
</g>
<defs>
<path id="path0_stroke" d="M 0 5.21549L -0.75 5.21218L -0.75 5.21549L 0 5.21549ZM 0.744187 2.20193L 1.38412 2.59307L 1.38501 2.5916L 0.744187 2.20193ZM 3.66477 0.0924403L 3.84118 0.821399L 3.84179 0.82125L 3.66477 0.0924403ZM 6.97851 1.32935L 6.3644 1.75989L 6.36518 1.76101L 6.97851 1.32935ZM 9.29064 4.5678L 8.67856 5.00123L 8.67929 5.00225L 9.29064 4.5678ZM 8.98641 8.22905L 8.4554 7.6994L 8.45521 7.69959L 8.98641 8.22905ZM 8.01756 10.8693L 8.76073 10.7682L 8.76029 10.7651L 8.01756 10.8693ZM 8.93961 12.6369L 9.49137 12.1289L 9.48852 12.1259L 8.93961 12.6369ZM 12.1972 15.691L 12.6507 15.0936L 12.6503 15.0934L 12.1972 15.691ZM 16.2645 15.4661L 16.7784 16.0124L 16.7792 16.0116L 16.2645 15.4661ZM 19.04 14.607L 18.9393 15.3502L 18.9428 15.3507L 19.04 14.607ZM 20.6032 15.3087L 21.0224 14.6868L 21.0214 14.6861L 20.6032 15.3087ZM 23.5846 17.2832L 23.9905 16.6525L 23.9899 16.6521L 23.5846 17.2832ZM 24.8718 20.4272L 24.1451 20.2417L 24.1449 20.2425L 24.8718 20.4272ZM 21.9559 23.6072L 22.2219 24.3084L 22.2232 24.3079L 21.9559 23.6072ZM 18.5485 23.94L 18.4692 24.6858L 18.4705 24.686L 18.5485 23.94ZM 12.7635 22.0599L 12.415 22.7241L 12.4154 22.7243L 12.7635 22.0599ZM 5.00337 15.8889L 5.56502 15.3918L 5.56496 15.3918L 5.00337 15.8889ZM 1.83004 11.4L 1.17112 11.7583L 1.1719 11.7597L 1.83004 11.4ZM 0.407197 7.95918L 1.12911 7.75584L 1.12879 7.75473L 0.407197 7.95918ZM 0.749993 5.2188C 0.754336 4.23375 0.915222 3.36022 1.38412 2.59307L 0.104257 1.81079C -0.55951 2.89676 -0.744975 4.07424 -0.749993 5.21218L 0.749993 5.2188ZM 1.38501 2.5916C 1.94332 1.67346 2.74728 1.08612 3.84118 0.821398L 3.48836 -0.636518C 2.01739 -0.28054 0.874299 0.544444 0.103364 1.81226L 1.38501 2.5916ZM 3.84179 0.82125C 4.82265 0.583011 5.79922 0.95373 6.3644 1.75989L 7.59262 0.898809C 6.66943 -0.418017 5.0624 -1.01883 3.48775 -0.63637L 3.84179 0.82125ZM 6.36518 1.76101C 7.12038 2.83403 7.92794 3.94121 8.67856 5.00123L 9.90272 4.13437C 9.11816 3.02643 8.36246 1.99263 7.59184 0.897688L 6.36518 1.76101ZM 8.67929 5.00225C 9.25605 5.81385 9.16806 6.98491 8.4554 7.6994L 9.51742 8.7587C 10.7518 7.52113 10.8979 5.53469 9.90199 4.13335L 8.67929 5.00225ZM 8.45521 7.69959C 7.58064 8.57705 7.0907 9.66062 7.27483 10.9735L 8.76029 10.7651C 8.65424 10.0089 8.9038 9.37434 9.51761 8.7585L 8.45521 7.69959ZM 7.27441 10.9704C 7.3962 11.8657 7.85201 12.5694 8.39069 13.148L 9.48852 12.1259C 9.0724 11.6789 8.82615 11.2492 8.76072 10.7682L 7.27441 10.9704ZM 8.38785 13.1449C 9.40626 14.2511 10.4941 15.3408 11.744 16.2886L 12.6503 15.0934C 11.5039 14.224 10.4855 13.2088 9.49137 12.1289L 8.38785 13.1449ZM 11.7436 16.2883C 13.2672 17.4451 15.4075 17.302 16.7784 16.0124L 15.7506 14.9198C 14.9029 15.7172 13.5797 15.799 12.6507 15.0936L 11.7436 16.2883ZM 16.7792 16.0116C 17.379 15.4456 18.0839 15.2343 18.9393 15.3502L 19.1406 13.8638C 17.8711 13.6918 16.7038 14.0203 15.7497 14.9206L 16.7792 16.0116ZM 18.9428 15.3507C 19.3373 15.4022 19.7049 15.6087 20.185 15.9312L 21.0214 14.6861C 20.5374 14.3609 19.9127 13.9647 19.1372 13.8633L 18.9428 15.3507ZM 20.184 15.9306C 21.1717 16.5964 22.1701 17.2662 23.1794 17.9143L 23.9899 16.6521C 22.996 16.0139 22.0098 15.3523 21.0224 14.6868L 20.184 15.9306ZM 23.1788 17.9139C 24.0009 18.4429 24.3692 19.3637 24.1451 20.2417L 25.5985 20.6127C 25.9921 19.0709 25.3214 17.5089 23.9905 16.6525L 23.1788 17.9139ZM 24.1449 20.2425C 23.817 21.5327 23.0022 22.4054 21.6886 22.9064L 22.2232 24.3079C 23.9518 23.6486 25.1402 22.4163 25.5987 20.6119L 24.1449 20.2425ZM 21.6898 22.906C 20.75 23.2626 19.7242 23.3089 18.6266 23.1941L 18.4705 24.686C 19.6943 24.814 20.9806 24.7794 22.2219 24.3084L 21.6898 22.906ZM 18.6278 23.1942C 16.677 22.9869 14.8693 22.3166 13.1116 21.3956L 12.4154 22.7243C 14.2803 23.7014 16.2732 24.4524 18.4692 24.6858L 18.6278 23.1942ZM 13.112 21.3958C 10.2023 19.869 7.7217 17.8288 5.56502 15.3918L 4.44172 16.3859C 6.70336 18.9415 9.32442 21.1023 12.415 22.7241L 13.112 21.3958ZM 5.56496 15.3918C 4.373 14.0452 3.33914 12.5976 2.48819 11.0404L 1.1719 11.7597C 2.08079 13.4229 3.1812 14.9619 4.44178 16.386L 5.56496 15.3918ZM 2.48896 11.0418C 1.91233 9.98114 1.4487 8.89052 1.12911 7.75584L -0.314714 8.16251C 0.0396704 9.4207 0.549576 10.615 1.17113 11.7583L 2.48896 11.0418ZM 1.12879 7.75473C 0.886383 6.89915 0.75 6.06014 0.75 5.21549L -0.75 5.21549C -0.75 6.22395 -0.586836 7.20207 -0.314399 8.16363L 1.12879 7.75473Z"/>
<path id="path1_fill" d="M 0.378198 0.154862C 0.522524 0.0347233 0.844853 -0.0114838 0.955503 0.00237833C 1.19124 0.0347233 1.43178 0.0716889 1.6627 0.131758C 2.97126 0.459828 4.23652 0.894175 5.42962 1.51797C 7.15192 2.41901 8.66735 3.57418 9.96629 4.98812C 11.0824 6.20799 11.9869 7.56185 12.6652 9.04972C 13.1078 10.0293 13.4494 11.0412 13.6466 12.0948C 13.7284 12.5476 13.5167 12.8988 13.0789 13.0651C 12.7037 13.2037 12.2803 13.0605 12.0494 12.7001C 11.9869 12.5984 11.9532 12.4737 11.9291 12.3535C 11.4769 10.2372 10.534 8.33813 9.134 6.65157C 7.87836 5.1406 6.36775 3.9115 4.58772 2.9966C 3.563 2.46984 2.49499 2.07708 1.37405 1.79983C 1.14313 1.74438 0.907395 1.69818 0.671662 1.64735C 0.306035 1.56418 0.0943555 1.3239 0.0173814 0.991209C -0.0547818 0.649277 0.103977 0.376655 0.378198 0.154862Z"/>
<path id="path2_fill" d="M 9.35915 8.10568C 9.36396 8.53079 9.08011 8.8912 8.71449 8.95589C 8.21897 9.04368 7.81966 8.85424 7.68015 8.43375C 6.96814 6.37292 5.71731 4.68174 3.9469 3.33711C 2.94624 2.5747 1.83012 2.01559 0.622587 1.62745C 0.122256 1.46573 -0.103856 1.02676 0.0452814 0.546207C 0.175175 0.130343 0.680317 -0.100692 1.1614 0.0425503C 2.21018 0.352138 3.18679 0.809587 4.10566 1.38255C 5.72212 2.38987 7.0403 3.68367 8.06021 5.25471C 8.59903 6.08181 9.02238 6.95975 9.32066 7.89313C 9.34471 7.98092 9.34952 8.0641 9.35915 8.10568Z"/>
<path id="path3_fill" d="M 4.71984 3.66065C 4.69579 4.0303 4.44562 4.38148 4.1281 4.46927C 3.69512 4.58479 3.29101 4.45541 3.08414 4.12272C 2.41543 3.05533 1.52541 2.20512 0.418911 1.55823C 0.02923 1.33181 -0.119907 0.791188 0.106204 0.435393C 0.370803 0.0195299 0.890378 -0.123712 1.30892 0.116565C 2.66559 0.892844 3.75766 1.9325 4.56589 3.24016C 4.63805 3.36492 4.66692 3.52203 4.71984 3.66065Z"/>
</defs>
</svg>
