<svg width="37" height="28" viewBox="0 0 37 28" version="1.1" xmlns="http://www.w3.org/2000/svg" xmlns:xlink="http://www.w3.org/1999/xlink">
<g id="Canvas" fill="none">
<g id="equipo">
<g id="Group">
<g id="Group_2">
<g id="Vector">
<path d="M 4.26143 0.65637C 3.00242 0.0075235 0.641864 3.81929e-07 0.541993 3.81929e-07C 0.242668 3.81929e-07 5.11646e-07 0.250153 5.11646e-07 0.558709C 5.11646e-07 0.867265 0.242668 1.11742 0.541993 1.11742C 1.15112 1.11749 2.91968 1.21418 3.77667 1.65586C 3.8545 1.69602 3.93717 1.71494 4.01862 1.71494C 4.21742 1.71494 4.40885 1.6017 4.50381 1.40601C 4.63772 1.13001 4.52918 0.794408 4.26143 0.65637Z" transform="translate(28.3823 11.9477)" fill="#B0B0B0"/>
</g>
</g>
</g>
<g id="Group_3">
<g id="Group_4">
<g id="Vector_2">
<path d="M 35.346 20.5586L 33.1076 19.8993C 33.0109 19.8709 32.9434 19.7786 32.9434 19.675L 32.9434 18.9048C 33.1255 18.7748 33.2993 18.6292 33.4617 18.4667C 34.2486 17.6795 34.682 16.6235 34.682 15.4933L 34.682 14.4305L 34.8984 13.9843C 35.136 13.4945 35.2615 12.9462 35.2615 12.3986L 35.2615 9.51942C 35.2615 9.21086 35.0188 8.96071 34.7195 8.96071L 29.5039 8.96071C 27.6073 8.96071 26.0643 10.5513 26.0643 12.5064L 26.0643 12.5396C 26.0643 12.995 26.1688 13.4509 26.3663 13.8581L 26.6438 14.4304L 26.6438 15.3429C 26.6438 16.7892 27.3352 18.0868 28.3824 18.8677L 28.3825 19.6749C 28.3825 19.7994 28.3825 19.8509 27.935 19.9828L 26.8428 20.3044L 23.6833 19.1201C 23.6946 18.9664 23.6443 18.8101 23.5355 18.6924L 22.5259 17.5989L 22.5259 15.7634C 22.6327 15.6727 22.7379 15.5796 22.8398 15.4811C 24.1135 14.2505 24.844 12.513 24.844 10.7142L 24.844 9.24826C 25.2286 8.38554 25.4235 7.47261 25.4235 6.53242L 25.4235 0.558708C 25.4235 0.250152 25.1808 1.4095e-07 24.8815 1.4095e-07L 16.7683 1.4095e-07C 13.9131 1.4095e-07 11.5903 2.39455 11.5903 5.33775L 11.5903 6.53257C 11.5903 7.47276 11.7852 8.38569 12.1697 9.24841L 12.1697 10.5097C 12.1697 12.5982 13.0706 14.4798 14.4878 15.7203L 14.4878 17.599L 13.4782 18.6924C 13.3694 18.8102 13.3191 18.9665 13.3305 19.1202L 9.99578 20.3701C 9.75413 20.4607 9.5296 20.5834 9.32574 20.732L 8.8021 20.4621C 10.3609 19.7627 10.8547 18.779 10.8784 18.7301C 10.9547 18.5729 10.9547 18.3877 10.8784 18.2304C 10.4876 17.4248 10.4403 15.9483 10.4023 14.7619C 10.3896 14.3669 10.3776 13.9938 10.3547 13.6615C 10.1699 10.9817 8.19362 8.96071 5.75755 8.96071C 3.32147 8.96071 1.34508 10.9816 1.16037 13.6615C 1.13746 13.9939 1.12546 14.367 1.11282 14.762C 1.07481 15.9484 1.0274 17.4248 0.636732 18.2304C 0.56042 18.3876 0.56042 18.5728 0.636732 18.7301C 0.660436 18.7789 1.15321 19.7606 2.71509 20.4609L 1.2606 21.2105C 0.483023 21.6116 0 22.4172 0 23.3133L 0 27.441C 0 27.7495 0.242668 27.9997 0.541992 27.9997C 0.841316 27.9997 1.08398 27.7495 1.08398 27.441L 1.08398 23.3133C 1.08398 22.8431 1.33742 22.4204 1.74536 22.2101L 3.55655 21.2766L 4.18656 21.8938C 4.6271 22.3253 5.19221 22.541 5.75755 22.541C 6.32274 22.541 6.88814 22.3252 7.32853 21.8938L 7.95847 21.2767L 8.54902 21.581C 8.27095 22.0397 8.11312 22.5775 8.11312 23.141L 8.11312 27.4411C 8.11312 27.7497 8.35579 27.9999 8.65511 27.9999C 8.95443 27.9999 9.1971 27.7497 9.1971 27.4411L 9.1971 23.141C 9.1971 22.374 9.6669 21.6825 10.3662 21.4204L 13.8821 20.1025L 15.3457 22.3657C 15.5328 22.655 15.8326 22.8406 16.1683 22.8749C 16.2057 22.8787 16.2429 22.8805 16.2801 22.8805C 16.5762 22.8805 16.8599 22.7604 17.0719 22.5419L 17.9648 21.6214L 17.9648 27.4412C 17.9648 27.7498 18.2075 27.9999 18.5068 27.9999C 18.8061 27.9999 19.0488 27.7498 19.0488 27.4412L 19.0488 21.6214L 19.9417 22.5419C 20.1537 22.7604 20.4373 22.8806 20.7335 22.8806C 20.7706 22.8806 20.8079 22.8787 20.8452 22.8749C 21.181 22.8407 21.4808 22.6551 21.6679 22.3658L 23.1316 20.1026L 26.6474 21.4205C 27.3466 21.6826 27.8165 22.3741 27.8165 23.1411L 27.8165 27.4413C 27.8165 27.7498 28.0592 28 28.3585 28C 28.6578 28 28.9005 27.7498 28.9005 27.4413L 28.9005 23.1411C 28.9005 22.3643 28.6011 21.6357 28.0988 21.0969L 28.2327 21.0575C 28.3678 21.0177 28.5521 20.9633 28.7371 20.8698L 30.1209 22.2963L 30.1209 27.4413C 30.1209 27.7498 30.3636 28 30.6629 28C 30.9622 28 31.2049 27.7498 31.2049 27.4413L 31.2049 22.2963L 32.5791 20.8797C 32.6521 20.918 32.7289 20.9503 32.8097 20.9741L 35.0482 21.6333C 35.5591 21.7838 35.916 22.2715 35.916 22.8194L 35.916 27.4413C 35.916 27.7498 36.1587 28 36.458 28C 36.7573 28 37 27.7498 37 27.4413L 37 22.8194C 37 21.7751 36.3198 20.8455 35.346 20.5586ZM 3.47706 19.5718C 2.46325 19.1957 1.95471 18.6944 1.73763 18.4206C 1.88563 18.0218 1.9816 17.565 2.04656 17.0828C 2.34545 17.8215 2.84604 18.4522 3.47706 18.9021L 3.47706 19.5718ZM 6.58195 21.0839C 6.11967 21.5366 5.3955 21.5366 4.93336 21.0838L 4.4293 20.59C 4.51436 20.4258 4.56112 20.2395 4.56112 20.0444L 4.56112 19.4489C 4.93921 19.5707 5.34115 19.6364 5.75769 19.6364C 6.17372 19.6364 6.57545 19.5704 6.95419 19.4493L 6.95412 20.0444C 6.95412 20.2395 7.0008 20.4259 7.08593 20.5902L 6.58195 21.0839ZM 5.75784 18.519C 4.13938 18.519 2.82277 17.1617 2.82277 15.4934C 2.82277 15.1849 2.5801 14.9347 2.28078 14.9347C 2.25042 14.9347 2.22079 14.9379 2.19182 14.9429C 2.19341 14.8949 2.19492 14.8467 2.19651 14.7991C 2.20858 14.415 2.22022 14.0521 2.24168 13.7409C 2.31091 12.737 2.70006 11.8119 3.33744 11.136C 3.98054 10.4539 4.84006 10.0783 5.75769 10.0783C 6.67532 10.0783 7.53478 10.4539 8.17794 11.136C 8.81532 11.8119 9.20447 12.737 9.2737 13.7409C 9.29509 14.052 9.3068 14.4148 9.31909 14.7989C 9.32017 14.8319 9.32125 14.8654 9.32234 14.8986C 8.73265 13.962 7.82196 13.2719 6.64526 12.8821C 5.55817 12.5221 4.62319 12.5443 4.58374 12.5454C 4.44181 12.5495 4.3071 12.6107 4.20861 12.7161L 3.23071 13.7615C 3.02294 13.9836 3.02916 14.3373 3.24465 14.5515C 3.46015 14.7657 3.80327 14.7592 4.01103 14.5371L 4.82474 13.6673C 5.5255 13.7026 7.77997 13.9728 8.65677 15.9631C 8.43614 17.4298 7.21327 18.519 5.75784 18.519ZM 8.03803 19.5736L 8.03811 18.9073C 8.66862 18.4598 9.16993 17.8303 9.46904 17.086C 9.534 17.5671 9.6299 18.0228 9.77761 18.4208C 9.56175 18.6919 9.05084 19.1977 8.03803 19.5736ZM 13.2537 10.5096L 13.2537 9.12341C 13.2537 9.0393 13.2353 8.95624 13.1998 8.88048C 12.8511 8.13598 12.6742 7.34605 12.6742 6.53257L 12.6742 5.33782C 12.6742 3.01069 14.5109 1.11749 16.7683 1.11749L 24.3395 1.11749L 24.3395 6.53264C 24.3395 7.34612 24.1627 8.13606 23.8139 8.88056C 23.7784 8.95632 23.76 9.03938 23.76 9.12348L 23.76 10.7143C 23.76 12.2274 23.1699 13.6308 22.0985 14.666C 21.9648 14.7952 21.826 14.9163 21.6824 15.0292C 21.6793 15.0314 21.6762 15.0339 21.6731 15.0362C 20.6694 15.8217 19.44 16.2035 18.1562 16.1178C 15.4071 15.9343 13.2537 13.4709 13.2537 10.5096ZM 16.3054 21.7516C 16.3017 21.7555 16.2929 21.7647 16.2752 21.7627C 16.2576 21.7609 16.2507 21.7503 16.2477 21.7457L 14.5621 19.1393L 15.1045 18.5517L 17.6616 20.3535L 16.3054 21.7516ZM 18.5069 19.5955L 15.5718 17.5274L 15.5718 16.4845C 16.3312 16.9077 17.1816 17.1724 18.086 17.2327C 18.2289 17.2423 18.3709 17.247 18.5124 17.247C 19.5488 17.247 20.5462 16.9916 21.4419 16.5068L 21.4419 17.5274L 18.5069 19.5955ZM 20.766 21.7458C 20.7631 21.7504 20.7561 21.7611 20.7385 21.7629C 20.7208 21.7652 20.7121 21.7556 20.7083 21.7518L 19.3521 20.3537L 21.9092 18.5519L 22.4517 19.1394L 20.766 21.7458ZM 30.6629 21.2744L 29.4329 20.0066C 29.4544 19.9061 29.4665 19.7961 29.4665 19.6747L 29.4664 19.4389C 29.8077 19.5544 30.1674 19.623 30.5397 19.6344C 30.5814 19.6358 30.6228 19.6364 30.6645 19.6364C 31.0758 19.6364 31.4773 19.5723 31.8595 19.4501L 31.8595 19.675C 31.8595 19.7865 31.873 19.8957 31.8986 20.0006L 30.6629 21.2744ZM 32.7068 17.6649C 32.1323 18.2395 31.3735 18.543 30.5723 18.5175C 29.0038 18.469 27.7278 17.0449 27.7278 15.3431L 27.7278 14.2986C 27.7278 14.2118 27.7082 14.1263 27.6706 14.0488L 27.3358 13.3585C 27.2131 13.1056 27.1483 12.8225 27.1483 12.5397L 27.1483 12.5064C 27.1483 11.1675 28.2051 10.0782 29.5039 10.0782L 34.1775 10.0782L 34.1775 12.3987C 34.1775 12.7737 34.0915 13.1492 33.9289 13.4847L 33.6553 14.0488C 33.6176 14.1264 33.598 14.2118 33.598 14.2986L 33.598 15.4934C 33.598 16.3188 33.2815 17.0899 32.7068 17.6649Z" fill="#B0B0B0"/>
</g>
</g>
</g>
<g id="Group_5">
<g id="Group_6">
<g id="Vector_3">
<path d="M 0.541992 -3.45555e-07C 0.242668 -3.45555e-07 2.99931e-07 0.250152 2.99931e-07 0.558708L 2.99931e-07 4.14301C 2.99931e-07 4.45156 0.242668 4.70172 0.541992 4.70172C 0.841317 4.70172 1.08398 4.45156 1.08398 4.14301L 1.08398 0.558708C 1.08398 0.250226 0.841317 -3.45555e-07 0.541992 -3.45555e-07Z" transform="translate(33.5979 23.298)" fill="#B0B0B0"/>
</g>
</g>
</g>
<g id="Group_7">
<g id="Group_8">
<g id="Vector_4">
<path d="M 0.541992 -2.36433e-07C 0.242668 -2.36433e-07 -2.42591e-08 0.250152 -2.42591e-08 0.558708L -2.42591e-08 3.40447C -2.42591e-08 3.71303 0.242668 3.96318 0.541992 3.96318C 0.841316 3.96318 1.08398 3.71303 1.08398 3.40447L 1.08398 0.558708C 1.08398 0.250227 0.841316 -2.36433e-07 0.541992 -2.36433e-07Z" transform="translate(2.31812 24.0365)" fill="#B0B0B0"/>
</g>
</g>
</g>
<g id="Group_9">
<g id="Group_10">
<g id="Vector_5">
<path d="M 9.03841 1.65917C 6.98852 -0.453938 2.69963 -0.0499555 0.950655 0.2218C 0.399774 0.307394 4.85182e-07 0.787958 4.85182e-07 1.36447L 4.85182e-07 2.65159C 4.85182e-07 2.96014 0.242668 3.21029 0.541993 3.21029C 0.841317 3.21029 1.08398 2.96014 1.08398 2.65159L 1.08398 1.3644C 1.08398 1.3454 1.09613 1.32916 1.11231 1.32663C 1.8109 1.21809 3.19718 1.05063 4.63345 1.14933C 6.3236 1.26532 7.54778 1.70268 8.27196 2.44926C 8.48362 2.66745 8.82681 2.66745 9.03841 2.44926C 9.25007 2.23106 9.25007 1.87729 9.03841 1.65917Z" transform="translate(13.9083 5.07581)" fill="#B0B0B0"/>
</g>
</g>
</g>
<g id="Group_11">
<g id="Group_12">
<g id="Vector_6">
<path d="M 0.541992 -2.36433e-07C 0.242668 -2.36433e-07 1.94073e-07 0.250152 1.94073e-07 0.558708L 1.94073e-07 2.94827C 1.94073e-07 3.25682 0.242668 3.50697 0.541992 3.50697C 0.841317 3.50697 1.08398 3.25682 1.08398 2.94827L 1.08398 0.558708C 1.08398 0.250227 0.841317 -2.36433e-07 0.541992 -2.36433e-07Z" transform="translate(11.5902 24.4928)" fill="#B0B0B0"/>
</g>
</g>
</g>
<g id="Group_13">
<g id="Group_14">
<g id="Vector_7">
<path d="M 0.541992 -2.36433e-07C 0.242668 -2.36433e-07 -1.7643e-08 0.250152 -1.7643e-08 0.558708L -1.7643e-08 2.94827C -1.7643e-08 3.25682 0.242668 3.50697 0.541992 3.50697C 0.841316 3.50697 1.08398 3.25682 1.08398 2.94827L 1.08398 0.558708C 1.08398 0.250227 0.841316 -2.36433e-07 0.541992 -2.36433e-07Z" transform="translate(24.3394 24.4928)" fill="#B0B0B0"/>
</g>
</g>
</g>
</g>
</g>
</svg>

