<svg width="30" height="30" viewBox="0 0 30 30" version="1.1" xmlns="http://www.w3.org/2000/svg" xmlns:xlink="http://www.w3.org/1999/xlink">
<g id="Canvas" fill="none">
<g id="Group">
<rect width="30" height="30" fill="white" fill-opacity="0.9"/>
<g id="XMLID 19">
<path d="M 15.778 1.87981C 15.2331 1.87981 14.5935 1.87981 14.0724 1.87981C 14.2382 3.16386 14.6172 4.44791 14.4751 5.66062C 14.2382 7.80071 13.6934 9.94079 13.2433 12.0571C 13.1722 12.3424 12.8879 12.5802 12.6984 12.8656C 12.4615 12.604 12.0588 12.3662 11.9878 12.0809C 11.4903 9.96457 11.0639 7.84827 10.6138 5.70818C 10.3295 4.32902 10.0216 2.94985 9.71364 1.52313C 7.27369 2.21271 4.90481 2.83096 2.55962 3.54432C 1.49363 3.85344 0.948784 4.66192 1.09092 5.8033C 1.23305 7.18246 1.44625 8.56163 1.58838 9.91701C 1.65945 10.6304 1.7542 11.3437 1.7542 12.0333C 1.7542 12.2949 1.44625 12.5564 1.28043 12.818C 1.06723 12.6278 0.688208 12.4376 0.664519 12.2235C 0.403942 9.77434 0.0959878 7.30136 0.00123267 4.82837C -0.0461449 3.63943 1.28043 2.54561 2.55962 2.18893C 4.90481 1.52313 7.22631 0.833546 9.54781 0.0964059C 10.6612 -0.260275 10.827 0.429309 10.9928 1.23778C 11.4903 3.68699 11.9878 6.1362 12.5326 8.75186C 13.8355 5.99353 13.4565 3.4492 12.0825 0.714652C 13.9776 0.714652 15.4937 0.690873 17.0335 0.73843C 17.1993 0.73843 17.5072 1.14267 17.5072 1.35668C 17.5072 1.73714 17.3888 2.14138 17.1993 2.47428C 16.0149 4.54302 16.7492 6.56422 17.4125 8.60918C 17.91 6.23131 18.4311 3.82966 18.9049 1.45179C 19.2128 -0.117603 19.4734 -0.16516 20.9421 0.357971C 22.9794 1.09511 25.064 1.64202 27.1486 2.16515C 29.02 2.64073 30.1097 3.901 29.9912 5.8033C 29.8491 7.82449 29.6596 9.8219 29.399 11.8193C 29.3516 12.1998 28.9252 12.5089 28.6647 12.8656C 28.4988 12.4851 28.1435 12.0809 28.1672 11.7242C 28.333 9.91701 28.641 8.10983 28.7831 6.30265C 28.9489 4.40035 28.4515 3.75833 26.6037 3.25898C 25.2298 2.87852 23.8558 2.56939 22.4819 2.21271C 21.7712 2.02248 21.0843 1.76092 20.1841 1.47557C 19.734 3.52054 19.2839 5.54173 18.8338 7.56292C 18.5259 9.0372 18.2416 10.5115 17.8863 11.962C 17.7915 12.3187 17.4125 12.5802 17.1519 12.8894C 16.9624 12.604 16.6545 12.3187 16.5834 11.9858C 16.1333 9.89323 15.5885 7.82449 15.3516 5.70818C 15.2094 4.47169 15.6121 3.18764 15.778 1.87981Z" transform="translate(0 17.1106)" fill="#B0B0B0"/>
</g>
<g id="Rectangle 13">
<rect width="28.125" height="0.9375" transform="translate(0.9375 29.0625)" fill="#B0B0B0"/>
</g>
<g id="XMLID 16">
<path d="M 13.8397 7.90958C 13.745 8.81317 13.9345 9.78809 13.5318 10.2637C 11.992 12.0708 11.1392 14.4963 8.86507 15.7565C 6.59094 17.0168 4.45895 15.709 3.06131 14.092C 2.6586 13.6165 2.42172 12.9982 2.04269 12.5226C 1.73474 12.1184 1.30834 11.7855 0.95301 11.4288C 0.834566 11.3099 0.692433 11.2386 0.597678 11.1435C 0.0765248 10.5966 -0.184051 7.79068 0.147592 7.07732C 0.38448 6.60175 0.621367 6.05484 0.597678 5.55548C 0.479234 3.24895 1.78212 1.25154 4.53002 0.419282C 6.66201 -0.222743 8.48605 -0.151407 10.3811 0.799741C 11.8972 1.56066 12.9632 2.67826 13.0817 4.50922C 13.1527 5.46037 12.8685 6.48285 13.7213 7.26755C 13.8634 7.41022 13.816 7.79068 13.8397 7.90958ZM 11.9683 5.43659C 12.0157 3.81964 11.3761 2.6307 9.90737 1.91734C 8.39129 1.13264 7.01734 1.01375 5.26437 1.56066C 2.61123 2.39291 1.45047 3.55807 1.87687 6.3164C 1.97163 6.93465 1.54523 7.31511 1.45048 7.71935C 1.26096 8.52782 1.54523 9.50275 1.8295 10.335C 1.99532 10.8106 2.6586 11.0959 2.99025 11.5477C 3.62984 12.38 4.07993 13.3787 4.81428 14.092C 6.14086 15.3761 7.53849 15.4236 8.91244 14.2347C 9.71786 13.5451 10.239 12.5464 10.8786 11.6666C 11.1629 11.2624 11.3524 10.7392 11.7077 10.4301C 12.1815 10.0021 12.9869 8.24248 12.5842 7.95713C 11.5182 7.24377 11.992 6.3164 11.9683 5.43659Z" transform="translate(7.74194 0)" fill="#B0B0B0"/>
</g>
<g id="XMLID 15">
<path d="M 2.65314 0.0155297C 3.31643 0.0155297 4.0034 -0.0320281 4.643 0.039308C 4.8562 0.0630867 5.21153 0.372209 5.21153 0.562439C 5.21153 0.776447 4.90358 1.18069 4.71407 1.18069C 3.34012 1.22824 1.96617 1.22824 0.59222 1.18069C 0.379021 1.18069 0.18951 0.800226 0 0.586217C 0.213199 0.395988 0.402709 0.0868651 0.639597 0.0630864C 1.32657 -0.0320285 1.98986 0.0155297 2.65314 0.0155297Z" transform="translate(19.3076 26.4178)" fill="#B0B0B0"/>
</g>
</g>
</g>
</svg>

