<svg width="24" height="18" viewBox="0 0 24 18" version="1.1" xmlns="http://www.w3.org/2000/svg" xmlns:xlink="http://www.w3.org/1999/xlink">
<g id="Canvas" fill="none">
<g id="Group">
<g id="Group_2">
<g id="Vector">
<path fill-rule="evenodd" clip-rule="evenodd" d="M 21.4682 5.62549L 21.4682 5.75053L 21.2757 5.796L 20.102 6.07324L 20.1003 6.07364L 10.9812 8.29432L 10.693 8.36449L 10.691 8.42254L 10.3857 8.33877L 2.6315 6.21112L 2.28803 6.12661L 2.27132 6.12661C 2.18375 6.12661 1.90151 6.07819 1.64372 5.78821C 1.38397 5.49605 1.17505 4.98873 1.17505 4.11825C 1.17505 3.52303 1.26161 3.01783 1.56248 2.70716C 1.64417 2.59763 1.75341 2.53151 1.84736 2.49299C 1.94669 2.45225 2.04936 2.4338 2.13027 2.4338L 2.13055 2.4338L 2.13082 2.4338L 2.1311 2.4338L 2.13138 2.4338L 2.13165 2.4338L 2.13193 2.4338L 2.1322 2.4338L 2.13248 2.4338L 2.13275 2.4338L 2.13303 2.4338L 2.1333 2.4338L 2.13358 2.4338L 2.13385 2.4338L 2.13413 2.4338L 2.1344 2.4338L 2.13468 2.4338L 2.13495 2.4338L 2.13523 2.4338L 2.13551 2.4338L 2.13578 2.4338L 2.13606 2.4338L 2.13633 2.4338L 2.13661 2.4338L 2.13688 2.4338L 2.13716 2.4338L 2.13743 2.4338L 2.1377 2.4338L 2.13798 2.4338L 2.13825 2.4338L 2.13853 2.4338L 2.1388 2.4338L 2.13908 2.4338L 2.13935 2.4338L 2.13963 2.4338L 2.1399 2.4338L 2.14017 2.4338L 2.14045 2.4338L 2.14072 2.4338L 2.141 2.4338L 2.14127 2.4338L 2.14154 2.4338L 2.14182 2.4338L 2.14209 2.4338L 2.14236 2.4338L 2.14264 2.4338L 2.14291 2.4338L 2.14318 2.4338L 2.14346 2.4338L 2.14373 2.4338L 2.144 2.4338L 2.14428 2.4338L 2.14455 2.4338L 2.14482 2.4338L 2.14509 2.4338L 2.14537 2.4338L 2.14564 2.4338L 2.14591 2.4338L 2.14618 2.4338L 2.14645 2.4338L 2.14673 2.4338L 2.147 2.4338L 2.14727 2.4338L 2.14754 2.4338L 2.14781 2.4338L 2.14808 2.4338L 2.14835 2.4338L 2.14863 2.4338L 2.1489 2.4338L 2.14917 2.4338L 2.14944 2.4338L 2.14971 2.4338L 2.14998 2.4338L 2.15025 2.4338L 2.15052 2.4338L 2.15079 2.4338L 2.15106 2.4338L 2.15133 2.4338L 2.15159 2.4338L 2.15186 2.4338L 2.15213 2.4338L 2.1524 2.4338L 2.15267 2.4338L 2.15294 2.4338L 2.15321 2.4338L 2.15347 2.4338L 2.15374 2.4338L 2.15401 2.4338L 2.15428 2.4338L 2.15454 2.4338L 2.15481 2.4338L 2.15508 2.4338L 2.15534 2.4338L 2.15561 2.4338L 2.15588 2.4338L 2.15614 2.4338L 2.15641 2.4338L 2.15668 2.4338L 2.15694 2.4338L 2.15721 2.4338L 2.15747 2.4338L 2.15774 2.4338L 2.158 2.4338L 2.15826 2.4338L 2.15853 2.4338L 2.15879 2.4338L 2.15906 2.4338L 2.15932 2.4338L 2.15958 2.4338L 2.15985 2.4338L 2.16011 2.4338L 2.16037 2.4338L 2.16063 2.4338L 2.1609 2.4338L 2.16116 2.4338L 2.16142 2.4338L 2.16168 2.4338L 2.16194 2.4338L 2.1622 2.4338L 2.16247 2.4338L 2.16273 2.4338L 2.16299 2.4338L 2.16325 2.4338L 2.16351 2.4338L 2.16376 2.4338L 2.16402 2.4338L 2.16428 2.4338L 2.16454 2.4338L 2.1648 2.4338L 2.16506 2.4338L 2.16532 2.4338L 2.16557 2.4338L 2.16583 2.4338L 2.16609 2.4338L 2.16634 2.4338L 2.1666 2.4338L 2.16686 2.4338L 2.16711 2.4338L 2.16737 2.4338L 2.16762 2.4338L 2.16788 2.4338L 2.16813 2.4338L 2.16839 2.4338L 2.16864 2.4338L 2.1689 2.4338L 2.16915 2.4338L 2.1694 2.4338L 2.16966 2.4338L 2.16991 2.4338L 2.17016 2.4338L 2.17041 2.4338L 2.17066 2.4338L 2.17092 2.4338L 2.17117 2.4338L 2.17142 2.4338L 2.17167 2.4338L 2.17192 2.4338L 2.17217 2.4338L 2.17242 2.4338L 2.17267 2.4338L 2.17291 2.4338L 2.17316 2.4338L 2.17341 2.4338L 2.17366 2.4338L 2.17391 2.4338L 2.17415 2.4338L 2.1744 2.4338L 2.17465 2.4338L 2.17489 2.4338L 2.17514 2.4338L 2.17538 2.4338L 2.17563 2.4338L 2.17587 2.4338L 2.17612 2.4338L 2.17636 2.4338L 2.1766 2.4338L 2.17685 2.4338L 2.17709 2.4338L 2.17733 2.4338L 2.17757 2.4338L 2.17782 2.4338L 2.17806 2.4338L 2.1783 2.4338L 2.17854 2.4338L 2.17878 2.4338L 2.17902 2.4338L 2.17926 2.4338L 2.1795 2.4338L 2.17974 2.4338L 2.17997 2.4338L 2.18021 2.4338L 2.18045 2.4338L 2.18069 2.4338L 2.18092 2.4338L 2.18116 2.4338L 2.18139 2.4338L 2.18163 2.4338L 2.18186 2.4338L 2.1821 2.4338L 2.18233 2.4338L 2.18257 2.4338L 2.1828 2.4338L 2.18303 2.4338L 2.18326 2.4338L 2.1835 2.4338L 2.18373 2.4338L 2.18396 2.4338L 2.18419 2.4338L 2.18442 2.4338L 2.18465 2.4338L 2.18488 2.4338L 2.18511 2.4338L 2.18534 2.4338L 2.18557 2.4338L 2.18579 2.4338L 2.18602 2.4338L 2.18625 2.4338L 2.18647 2.4338L 2.1867 2.4338L 2.18692 2.4338L 2.18715 2.4338L 2.18737 2.4338L 2.1876 2.4338L 2.18782 2.4338L 2.18804 2.4338L 2.18827 2.4338L 2.18849 2.4338L 2.18871 2.4338L 2.18893 2.4338L 2.18915 2.4338L 2.18937 2.4338L 2.18959 2.4338L 2.18981 2.4338L 2.19003 2.4338L 2.19025 2.4338L 2.19046 2.4338L 2.19068 2.4338L 2.1909 2.4338L 2.19111 2.4338L 2.19133 2.4338L 2.19155 2.4338L 2.19176 2.4338L 2.19197 2.4338L 2.19219 2.4338L 2.1924 2.4338L 2.19261 2.4338L 2.19283 2.4338L 2.19304 2.4338L 2.19325 2.4338L 2.19346 2.4338L 2.19367 2.4338L 2.19388 2.4338L 2.19409 2.4338L 2.1943 2.4338L 2.1945 2.4338L 2.19471 2.4338L 2.19492 2.4338L 2.19513 2.4338L 2.19533 2.4338L 2.19554 2.4338L 2.19574 2.4338L 2.19595 2.4338L 2.19615 2.4338L 2.19635 2.4338L 2.19655 2.4338L 2.19676 2.4338L 2.19696 2.4338L 2.19716 2.4338L 2.19736 2.4338L 2.19756 2.4338L 2.19776 2.4338L 2.19796 2.4338L 2.19815 2.4338L 2.19835 2.4338L 2.19855 2.4338L 2.19874 2.4338L 2.19894 2.4338L 2.19914 2.4338L 2.19933 2.4338L 2.19952 2.4338L 2.19972 2.4338L 2.19991 2.4338L 2.2001 2.4338L 2.20029 2.4338L 2.20049 2.4338L 2.20068 2.4338L 2.20087 2.4338L 2.20105 2.4338L 2.20124 2.4338L 2.20143 2.4338L 2.20162 2.4338L 2.20181 2.4338L 2.20199 2.4338L 2.20218 2.4338L 2.20236 2.4338L 2.20255 2.4338L 2.20273 2.4338L 2.20291 2.4338L 2.2031 2.4338L 2.20328 2.4338L 2.20346 2.4338L 2.20364 2.4338L 2.20382 2.4338L 2.204 2.4338L 2.20418 2.4338L 2.20436 2.4338L 2.20453 2.4338L 2.20471 2.4338L 2.20489 2.4338L 2.20506 2.4338L 2.20524 2.4338L 2.20541 2.4338L 2.20558 2.4338L 2.20576 2.4338L 2.20593 2.4338L 2.2061 2.4338L 2.20627 2.4338L 2.20644 2.4338L 2.20661 2.4338L 2.20678 2.4338L 2.20695 2.4338L 2.20712 2.4338L 2.20728 2.4338L 2.20745 2.4338L 2.20761 2.4338L 2.20778 2.4338L 2.20794 2.4338L 2.20811 2.4338L 2.20827 2.4338L 2.20843 2.4338L 2.20859 2.4338L 2.20875 2.4338L 2.20891 2.4338L 2.20907 2.4338L 2.20923 2.4338L 2.20939 2.4338L 2.20955 2.4338L 2.2097 2.4338L 2.20986 2.4338L 2.21001 2.4338L 2.21017 2.4338L 2.21032 2.4338L 2.21047 2.4338L 2.21063 2.4338L 2.21078 2.4338L 2.21093 2.4338L 2.21108 2.4338L 2.21123 2.4338L 2.21138 2.4338L 2.21152 2.4338L 2.21167 2.4338L 2.21182 2.4338L 2.21196 2.4338L 2.21211 2.4338L 2.21225 2.4338L 2.2124 2.4338L 2.21254 2.4338L 2.21268 2.4338L 2.21282 2.4338L 2.21296 2.4338L 2.2131 2.4338L 2.21324 2.4338L 2.21338 2.4338L 2.21352 2.4338L 2.21365 2.4338L 2.21379 2.4338L 2.21392 2.4338L 2.21406 2.4338L 2.21419 2.4338L 2.21432 2.4338L 2.21446 2.4338L 2.21459 2.4338L 2.21472 2.4338L 2.21485 2.4338L 2.21498 2.4338L 2.21511 2.4338L 2.21523 2.4338L 2.21536 2.4338L 2.21548 2.4338L 2.21561 2.4338L 2.21573 2.4338L 2.21586 2.4338L 2.21598 2.4338L 2.2161 2.4338L 2.21622 2.4338L 2.21634 2.4338L 2.21646 2.4338L 2.21658 2.4338L 2.2167 2.4338L 2.21681 2.4338L 2.21693 2.4338L 2.21705 2.4338L 2.21716 2.4338L 2.21727 2.4338L 2.21739 2.4338L 2.2175 2.4338L 2.21761 2.4338L 2.21772 2.4338L 2.21783 2.4338L 2.21794 2.4338L 2.21805 2.4338L 2.21815 2.4338L 2.21826 2.4338L 2.21836 2.4338L 2.21847 2.4338L 2.21857 2.4338L 2.21867 2.4338L 2.21878 2.4338L 2.21888 2.4338L 2.21898 2.4338L 2.21908 2.4338L 2.21918 2.4338L 2.21927 2.4338L 2.21937 2.4338L 2.21947 2.4338L 2.21956 2.4338L 2.21965 2.4338L 2.21975 2.4338L 2.21984 2.4338L 2.21993 2.4338L 2.22002 2.4338L 2.22011 2.4338L 2.2202 2.4338L 2.22029 2.4338L 2.22038 2.4338L 2.22046 2.4338L 2.22055 2.4338L 2.22063 2.4338L 2.22071 2.4338L 2.2208 2.4338L 2.22088 2.4338L 2.22096 2.4338L 2.22104 2.4338L 2.22112 2.4338L 2.2212 2.4338L 2.22127 2.4338L 2.22135 2.4338L 2.22142 2.4338L 2.2215 2.4338L 2.22157 2.4338L 2.22164 2.4338L 2.22172 2.4338L 2.22179 2.4338L 2.22186 2.4338L 2.22193 2.4338L 2.22199 2.4338L 2.22206 2.4338L 2.22213 2.4338L 2.22219 2.4338L 2.22226 2.4338L 2.22232 2.4338L 2.22238 2.4338L 2.22244 2.4338L 2.2225 2.4338L 2.22256 2.4338L 2.22262 2.4338L 2.22268 2.4338L 2.22273 2.4338L 2.22279 2.4338L 2.22284 2.4338L 2.2229 2.4338L 2.22295 2.4338L 2.223 2.4338L 2.22305 2.4338L 2.2231 2.4338L 2.22315 2.4338L 2.2232 2.4338L 2.22325 2.4338L 2.22329 2.4338L 2.22334 2.4338L 2.22338 2.4338L 2.22342 2.4338L 2.22346 2.4338L 2.22351 2.4338L 2.22355 2.4338L 2.22358 2.4338L 2.22362 2.4338L 2.22366 2.4338L 2.22369 2.4338L 2.22373 2.4338L 2.22376 2.4338L 2.2238 2.4338L 2.22383 2.4338L 2.22386 2.4338L 2.22389 2.4338L 2.22392 2.4338L 2.22395 2.4338L 2.22397 2.4338L 2.224 2.4338L 2.22402 2.4338L 2.22405 2.4338L 2.22407 2.4338L 2.22409 2.4338L 2.22411 2.4338L 2.22413 2.4338L 2.22415 2.4338L 2.22417 2.4338L 2.22418 2.4338L 2.2242 2.4338L 2.22421 2.4338L 2.22423 2.4338L 2.22424 2.4338L 2.22425 2.4338L 2.22426 2.4338L 2.22427 2.4338L 2.22428 2.4338L 2.22428 2.4338L 2.22429 2.4338L 2.22429 2.4338L 2.2243 2.4338L 2.2243 2.4338L 2.26297 2.4338L 2.29984 2.44549L 7.84757 4.20384L 10.6214 5.08302L 10.8022 5.14031L 10.8017 5.15501L 10.9678 5.12232L 13.0816 4.70623L 13.0834 4.70586L 20.3197 3.22597L 20.3219 3.22551L 21.401 2.99461L 21.9345 2.88047L 21.8 3.12623C 21.8713 3.04262 21.9534 2.96764 22.0481 2.90445L 22.0772 2.87581L 22.1164 2.83717L 22.1683 2.8186C 22.4272 2.72595 22.6022 2.63667 22.6825 2.55768C 22.696 2.54435 22.7034 2.53468 22.7073 2.5286L 14.8527 0.254882L 2.07559 2.0053L 2.07128 2.00616C 2.0649 2.0075 2.05381 2.01 2.03871 2.01406C 2.00845 2.0222 1.96249 2.03647 1.90625 2.05993C 1.79366 2.10691 1.64179 2.1899 1.49159 2.33279C 1.19938 2.61081 0.879057 3.14888 0.922409 4.19578C 1.01315 5.34646 1.36874 5.88686 1.64743 6.16115L 1.94437 6.4534L 1.54678 6.57791L 0.593156 6.87654C 0.596701 6.88245 0.604117 6.89266 0.618987 6.9073C 0.699242 6.98629 0.87429 7.07556 1.13318 7.16822L 1.12403 7.19378C 1.15459 7.18703 1.19055 7.20313 1.22407 7.2252L 1.22419 7.22531L 1.22424 7.22537L 1.22427 7.22539L 1.22429 7.22541L 1.22431 7.22543L 1.22439 7.22551L 1.22503 7.22614L 1.23018 7.23121L 1.25341 7.25407C 1.34807 7.31726 1.43022 7.39224 1.50148 7.47584L 1.36702 7.23008L 1.90049 7.34422L 2.98012 7.57522L 9.9366 8.96306L 9.94308 8.96435L 9.94306 8.96444L 10.5513 9.10258L 12.3819 9.47217L 12.4607 9.48808L 12.632 9.43297L 15.0765 8.64641L 15.0768 8.64634L 20.9534 6.74924L 20.9739 6.74259L 20.9954 6.73958L 21.0302 6.98715C 20.9954 6.73958 20.9954 6.73957 20.9955 6.73956L 20.9957 6.73954L 20.996 6.73949L 20.9968 6.73938L 20.9988 6.73912L 21.0042 6.73844L 21.0207 6.73668C 21.034 6.73539 21.052 6.73397 21.0738 6.73304C 21.1171 6.73119 21.1771 6.73116 21.2454 6.73863C 21.3753 6.75283 21.5706 6.79805 21.7227 6.94779C 22.0368 7.2569 22.1264 7.76947 22.1264 8.37532L 22.1264 8.38219L 22.1263 8.38218C 22.1019 9.27131 21.8935 9.78525 21.6445 10.0808C 21.3952 10.3766 21.1243 10.4299 21.0302 10.4299L 21.0186 10.4299L 20.2534 10.6515L 20.2504 10.6523L 20.2504 10.6523L 12.8691 12.6883L 12.6867 12.7386L 12.6877 12.7694L 12.6283 12.7547L 12.5635 12.7726L 12.5623 12.7384L 12.3665 12.69L 3.01083 10.3764L 3.01055 10.3764L 2.07054 10.1451L 1.88027 10.0983L 1.88027 9.96215L 1.72655 10.0045C 1.14427 10.165 0.770237 10.297 0.535728 10.4022C 0.493263 10.4213 0.456122 10.4392 0.423721 10.4558L 0.73763 10.54L 1.19404 10.6625L 0.835958 10.9709C 0.528084 11.2361 0.175167 11.7558 0.263854 12.8905L 0.264163 12.8945L 0.264131 12.8945C 0.33183 13.9828 0.655565 14.5204 0.924583 14.7852C 1.0608 14.9193 1.19007 14.9906 1.28061 15.0281C 1.32609 15.047 1.36208 15.0575 1.38451 15.0629C 1.39572 15.0657 1.40349 15.0671 1.4073 15.0678C 1.40805 15.0679 1.40864 15.068 1.40908 15.0681L 1.43062 15.0706L 1.454 15.078L 9.80353 17.7407L 22.2108 14.8009C 22.1805 14.7856 22.1463 14.7692 22.1076 14.7519C 21.873 14.6466 21.499 14.5146 20.9167 14.3541L 20.763 14.3118L 20.763 14.4022L 20.572 14.4486L 10.2758 16.9473L 9.98776 17.0172L 9.98576 17.0763L 9.67987 16.9916L 1.53209 14.7333L 1.51908 14.7333C 1.42661 14.7333 1.15641 14.6813 0.906745 14.3922C 0.656583 14.1025 0.4474 13.5994 0.422919 12.732L 0.42272 12.7249L 0.422819 12.7249C 0.422819 12.1191 0.512489 11.6065 0.826557 11.2974L 1.00192 11.4756L 0.826557 11.2974C 1.01425 11.1127 1.21823 11.0405 1.42505 11.0405L 1.42533 11.0405L 1.4256 11.0405L 1.42588 11.0405L 1.42616 11.0405L 1.42643 11.0405L 1.42671 11.0405L 1.42698 11.0405L 1.42726 11.0405L 1.42753 11.0405L 1.42781 11.0405L 1.42808 11.0405L 1.42836 11.0405L 1.42863 11.0405L 1.42891 11.0405L 1.42918 11.0405L 1.42946 11.0405L 1.42973 11.0405L 1.43001 11.0405L 1.43029 11.0405L 1.43056 11.0405L 1.43084 11.0405L 1.43111 11.0405L 1.43139 11.0405L 1.43166 11.0405L 1.43193 11.0405L 1.43221 11.0405L 1.43248 11.0405L 1.43276 11.0405L 1.43303 11.0405L 1.43331 11.0405L 1.43358 11.0405L 1.43386 11.0405L 1.43413 11.0405L 1.43441 11.0405L 1.43468 11.0405L 1.43495 11.0405L 1.43523 11.0405L 1.4355 11.0405L 1.43578 11.0405L 1.43605 11.0405L 1.43632 11.0405L 1.4366 11.0405L 1.43687 11.0405L 1.43714 11.0405L 1.43742 11.0405L 1.43769 11.0405L 1.43796 11.0405L 1.43824 11.0405L 1.43851 11.0405L 1.43878 11.0405L 1.43906 11.0405L 1.43933 11.0405L 1.4396 11.0405L 1.43987 11.0405L 1.44015 11.0405L 1.44042 11.0405L 1.44069 11.0405L 1.44096 11.0405L 1.44123 11.0405L 1.44151 11.0405L 1.44178 11.0405L 1.44205 11.0405L 1.44232 11.0405L 1.44259 11.0405L 1.44286 11.0405L 1.44313 11.0405L 1.44341 11.0405L 1.44368 11.0405L 1.44395 11.0405L 1.44422 11.0405L 1.44449 11.0405L 1.44476 11.0405L 1.44503 11.0405L 1.4453 11.0405L 1.44557 11.0405L 1.44584 11.0405L 1.44611 11.0405L 1.44637 11.0405L 1.44664 11.0405L 1.44691 11.0405L 1.44718 11.0405L 1.44745 11.0405L 1.44772 11.0405L 1.44799 11.0405L 1.44825 11.0405L 1.44852 11.0405L 1.44879 11.0405L 1.44906 11.0405L 1.44932 11.0405L 1.44959 11.0405L 1.44986 11.0405L 1.45012 11.0405L 1.45039 11.0405L 1.45066 11.0405L 1.45092 11.0405L 1.45119 11.0405L 1.45145 11.0405L 1.45172 11.0405L 1.45199 11.0405L 1.45225 11.0405L 1.45252 11.0405L 1.45278 11.0405L 1.45304 11.0405L 1.45331 11.0405L 1.45357 11.0405L 1.45384 11.0405L 1.4541 11.0405L 1.45436 11.0405L 1.45463 11.0405L 1.45489 11.0405L 1.45515 11.0405L 1.45541 11.0405L 1.45568 11.0405L 1.45594 11.0405L 1.4562 11.0405L 1.45646 11.0405L 1.45672 11.0405L 1.45698 11.0405L 1.45724 11.0405L 1.45751 11.0405L 1.45777 11.0405L 1.45803 11.0405L 1.45829 11.0405L 1.45854 11.0405L 1.4588 11.0405L 1.45906 11.0405L 1.45932 11.0405L 1.45958 11.0405L 1.45984 11.0405L 1.4601 11.0405L 1.46035 11.0405L 1.46061 11.0405L 1.46087 11.0405L 1.46112 11.0405L 1.46138 11.0405L 1.46164 11.0405L 1.46189 11.0405L 1.46215 11.0405L 1.4624 11.0405L 1.46266 11.0405L 1.46291 11.0405L 1.46317 11.0405L 1.46342 11.0405L 1.46368 11.0405L 1.46393 11.0405L 1.46418 11.0405L 1.46444 11.0405L 1.46469 11.0405L 1.46494 11.0405L 1.46519 11.0405L 1.46544 11.0405L 1.4657 11.0405L 1.46595 11.0405L 1.4662 11.0405L 1.46645 11.0405L 1.4667 11.0405L 1.46695 11.0405L 1.4672 11.0405L 1.46745 11.0405L 1.46769 11.0405L 1.46794 11.0405L 1.46819 11.0405L 1.46844 11.0405L 1.46869 11.0405L 1.46893 11.0405L 1.46918 11.0405L 1.46943 11.0405L 1.46967 11.0405L 1.46992 11.0405L 1.47016 11.0405L 1.47041 11.0405L 1.47065 11.0405L 1.4709 11.0405L 1.47114 11.0405L 1.47138 11.0405L 1.47163 11.0405L 1.47187 11.0405L 1.47211 11.0405L 1.47235 11.0405L 1.4726 11.0405L 1.47284 11.0405L 1.47308 11.0405L 1.47332 11.0405L 1.47356 11.0405L 1.4738 11.0405L 1.47404 11.0405L 1.47428 11.0405L 1.47452 11.0405L 1.47475 11.0405L 1.47499 11.0405L 1.47523 11.0405L 1.47547 11.0405L 1.4757 11.0405L 1.47594 11.0405L 1.47617 11.0405L 1.47641 11.0405L 1.47664 11.0405L 1.47688 11.0405L 1.47711 11.0405L 1.47735 11.0405L 1.47758 11.0405L 1.47781 11.0405L 1.47804 11.0405L 1.47828 11.0405L 1.47851 11.0405L 1.47874 11.0405L 1.47897 11.0405L 1.4792 11.0405L 1.47943 11.0405L 1.47966 11.0405L 1.47989 11.0405L 1.48012 11.0405L 1.48035 11.0405L 1.48057 11.0405L 1.4808 11.0405L 1.48103 11.0405L 1.48125 11.0405L 1.48148 11.0405L 1.4817 11.0405L 1.48193 11.0405L 1.48215 11.0405L 1.48238 11.0405L 1.4826 11.0405L 1.48282 11.0405L 1.48305 11.0405L 1.48327 11.0405L 1.48349 11.0405L 1.48371 11.0405L 1.48393 11.0405L 1.48415 11.0405L 1.48437 11.0405L 1.48459 11.0405L 1.48481 11.0405L 1.48503 11.0405L 1.48524 11.0405L 1.48546 11.0405L 1.48568 11.0405L 1.48589 11.0405L 1.48611 11.0405L 1.48633 11.0405L 1.48654 11.0405L 1.48675 11.0405L 1.48697 11.0405L 1.48718 11.0405L 1.48739 11.0405L 1.48761 11.0405L 1.48782 11.0405L 1.48803 11.0405L 1.48824 11.0405L 1.48845 11.0405L 1.48866 11.0405L 1.48887 11.0405L 1.48908 11.0405L 1.48928 11.0405L 1.48949 11.0405L 1.4897 11.0405L 1.4899 11.0405L 1.49011 11.0405L 1.49032 11.0405L 1.49052 11.0405L 1.49072 11.0405L 1.49093 11.0405L 1.49113 11.0405L 1.49133 11.0405L 1.49154 11.0405L 1.49174 11.0405L 1.49194 11.0405L 1.49214 11.0405L 1.49234 11.0405L 1.49254 11.0405L 1.49274 11.0405L 1.49293 11.0405L 1.49313 11.0405L 1.49333 11.0405L 1.49352 11.0405L 1.49372 11.0405L 1.49392 11.0405L 1.49411 11.0405L 1.4943 11.0405L 1.4945 11.0405L 1.49469 11.0405L 1.49488 11.0405L 1.49507 11.0405L 1.49527 11.0405L 1.49546 11.0405L 1.49565 11.0405L 1.49583 11.0405L 1.49602 11.0405L 1.49621 11.0405L 1.4964 11.0405L 1.49659 11.0405L 1.49677 11.0405L 1.49696 11.0405L 1.49714 11.0405L 1.49733 11.0405L 1.49751 11.0405L 1.49769 11.0405L 1.49788 11.0405L 1.49806 11.0405L 1.49824 11.0405L 1.49842 11.0405L 1.4986 11.0405L 1.49878 11.0405L 1.49896 11.0405L 1.49914 11.0405L 1.49931 11.0405L 1.49949 11.0405L 1.49967 11.0405L 1.49984 11.0405L 1.50002 11.0405L 1.50019 11.0405L 1.50036 11.0405L 1.50054 11.0405L 1.50071 11.0405L 1.50088 11.0405L 1.50105 11.0405L 1.50122 11.0405L 1.50139 11.0405L 1.50156 11.0405L 1.50173 11.0405L 1.5019 11.0405L 1.50206 11.0405L 1.50223 11.0405L 1.50239 11.0405L 1.50256 11.0405L 1.50272 11.0405L 1.50289 11.0405L 1.50305 11.0405L 1.50321 11.0405L 1.50337 11.0405L 1.50353 11.0405L 1.50369 11.0405L 1.50385 11.0405L 1.50401 11.0405L 1.50417 11.0405L 1.50433 11.0405L 1.50448 11.0405L 1.50464 11.0405L 1.50479 11.0405L 1.50495 11.0405L 1.5051 11.0405L 1.50525 11.0405L 1.50541 11.0405L 1.50556 11.0405L 1.50571 11.0405L 1.50586 11.0405L 1.50601 11.0405L 1.50616 11.0405L 1.5063 11.0405L 1.50645 11.0405L 1.5066 11.0405L 1.50674 11.0405L 1.50689 11.0405L 1.50703 11.0405L 1.50718 11.0405L 1.50732 11.0405L 1.50746 11.0405L 1.5076 11.0405L 1.50774 11.0405L 1.50788 11.0405L 1.50802 11.0405L 1.50816 11.0405L 1.5083 11.0405L 1.50843 11.0405L 1.50857 11.0405L 1.5087 11.0405L 1.50884 11.0405L 1.50897 11.0405L 1.5091 11.0405L 1.50924 11.0405L 1.50937 11.0405L 1.5095 11.0405L 1.50963 11.0405L 1.50976 11.0405L 1.50989 11.0405L 1.51001 11.0405L 1.51014 11.0405L 1.51026 11.0405L 1.51039 11.0405L 1.51051 11.0405L 1.51064 11.0405L 1.51076 11.0405L 1.51088 11.0405L 1.511 11.0405L 1.51112 11.0405L 1.51124 11.0405L 1.51136 11.0405L 1.51148 11.0405L 1.51159 11.0405L 1.51171 11.0405L 1.51183 11.0405L 1.51194 11.0405L 1.51205 11.0405L 1.51217 11.0405L 1.51228 11.0405L 1.51239 11.0405L 1.5125 11.0405L 1.51261 11.0405L 1.51272 11.0405L 1.51283 11.0405L 1.51293 11.0405L 1.51304 11.0405L 1.51314 11.0405L 1.51325 11.0405L 1.51335 11.0405L 1.51345 11.0405L 1.51356 11.0405L 1.51366 11.0405L 1.51376 11.0405L 1.51386 11.0405L 1.51396 11.0405L 1.51405 11.0405L 1.51415 11.0405L 1.51425 11.0405L 1.51434 11.0405L 1.51443 11.0405L 1.51453 11.0405L 1.51462 11.0405L 1.51471 11.0405L 1.5148 11.0405L 1.51489 11.0405L 1.51498 11.0405L 1.51507 11.0405L 1.51516 11.0405L 1.51524 11.0405L 1.51533 11.0405L 1.51541 11.0405L 1.51549 11.0405L 1.51558 11.0405L 1.51566 11.0405L 1.51574 11.0405L 1.51582 11.0405L 1.5159 11.0405L 1.51598 11.0405L 1.51605 11.0405L 1.51613 11.0405L 1.5162 11.0405L 1.51628 11.0405L 1.51635 11.0405L 1.51642 11.0405L 1.5165 11.0405L 1.51657 11.0405L 1.51664 11.0405L 1.51671 11.0405L 1.51677 11.0405L 1.51684 11.0405L 1.51691 11.0405L 1.51697 11.0405L 1.51704 11.0405L 1.5171 11.0405L 1.51716 11.0405L 1.51722 11.0405L 1.51728 11.0405L 1.51734 11.0405L 1.5174 11.0405L 1.51746 11.0405L 1.51751 11.0405L 1.51757 11.0405L 1.51762 11.0405L 1.51768 11.0405L 1.51773 11.0405L 1.51778 11.0405L 1.51783 11.0405L 1.51788 11.0405L 1.51793 11.0405L 1.51798 11.0405L 1.51803 11.0405L 1.51807 11.0405L 1.51812 11.0405L 1.51816 11.0405L 1.5182 11.0405L 1.51824 11.0405L 1.51829 11.0405L 1.51833 11.0405L 1.51836 11.0405L 1.5184 11.0405L 1.51844 11.0405L 1.51847 11.0405L 1.51851 11.0405L 1.51854 11.0405L 1.51858 11.0405L 1.51861 11.0405L 1.51864 11.0405L 1.51867 11.0405L 1.5187 11.0405L 1.51873 11.0405L 1.51875 11.0405L 1.51878 11.0405L 1.5188 11.0405L 1.51883 11.0405L 1.51885 11.0405L 1.51887 11.0405L 1.51889 11.0405L 1.51891 11.0405L 1.51893 11.0405L 1.51895 11.0405L 1.51896 11.0405L 1.51898 11.0405L 1.51899 11.0405L 1.51901 11.0405L 1.51902 11.0405L 1.51903 11.0405L 1.51904 11.0405L 1.51905 11.0405L 1.51906 11.0405L 1.51907 11.0405L 1.51908 11.0405L 1.5584 11.0405L 1.59582 11.0526L 9.91741 13.7364L 10.0672 13.7847L 10.0677 13.7698L 10.2596 13.7296L 12.4693 13.2669L 12.5292 13.2543L 12.5882 13.2709L 12.847 13.3437L 13.9995 12.9947L 14.0103 12.9914L 14.0214 12.9891L 19.6144 11.8327L 19.6161 11.8323L 20.6958 11.6013L 21.2477 11.4832L 20.9643 11.9713C 20.7084 12.412 20.6707 12.9908 20.6887 13.4687C 20.688 13.2549 20.7013 13.0306 20.7363 12.8126C 20.809 12.3596 20.9852 11.8738 21.3899 11.6037L 21.39 11.6036L 21.3901 11.6034L 21.3903 11.6033L 21.3904 11.6031L 21.3906 11.603L 21.3907 11.6028L 21.3909 11.6027L 21.391 11.6025L 21.3912 11.6024L 21.3913 11.6022L 21.3915 11.6021L 21.3916 11.6019L 21.3918 11.6018L 21.392 11.6016L 21.3921 11.6015L 21.3923 11.6013L 21.3924 11.6012L 21.3926 11.601L 21.3927 11.6009L 21.3929 11.6007L 21.3931 11.6005L 21.3932 11.6004L 21.3934 11.6002L 21.3936 11.6001L 21.3937 11.5999L 21.3939 11.5997L 21.394 11.5996L 21.3942 11.5994L 21.3944 11.5992L 21.3946 11.5991L 21.3947 11.5989L 21.3949 11.5987L 21.3951 11.5986L 21.3952 11.5984L 21.3954 11.5982L 21.3956 11.5981L 21.3958 11.5979L 21.3959 11.5977L 21.3961 11.5975L 21.3963 11.5974L 21.3965 11.5972L 21.3966 11.597L 21.3968 11.5968L 21.397 11.5967L 21.3972 11.5965L 21.3974 11.5963L 21.3975 11.5961L 21.3977 11.5959L 21.3979 11.5958L 21.3981 11.5956L 21.3983 11.5954L 21.3985 11.5952L 21.3987 11.595L 21.3989 11.5948L 21.399 11.5947L 21.3992 11.5945L 21.3994 11.5943L 21.3996 11.5941L 21.3998 11.5939L 21.4 11.5937L 21.4002 11.5935L 21.4004 11.5933L 21.4006 11.5931L 21.4008 11.5929L 21.401 11.5927L 21.4012 11.5925L 21.4014 11.5923L 21.4016 11.5921L 21.4018 11.5919L 21.402 11.5917L 21.4022 11.5915L 21.4024 11.5913L 21.4026 11.5911L 21.4028 11.5909L 21.403 11.5907L 21.4032 11.5905L 21.4035 11.5903L 21.4037 11.5901L 21.4039 11.5899L 21.4041 11.5897L 21.4043 11.5895L 21.4045 11.5893L 21.4047 11.589L 21.405 11.5888L 21.4052 11.5886L 21.4054 11.5884L 21.4056 11.5882L 21.4058 11.588L 21.4061 11.5878L 21.4063 11.5875L 21.4065 11.5873L 21.4067 11.5871L 21.407 11.5869L 21.4072 11.5866L 21.4074 11.5864L 21.4076 11.5862L 21.4079 11.586L 21.4081 11.5857L 21.4083 11.5855L 21.4086 11.5853L 21.4088 11.5851L 21.409 11.5848L 21.4093 11.5846L 21.4095 11.5844L 21.4097 11.5841L 21.41 11.5839L 21.4102 11.5837L 21.4105 11.5834L 21.4107 11.5832L 21.4109 11.5829L 21.4112 11.5827L 21.4114 11.5825L 21.4117 11.5822L 21.4119 11.582L 21.4122 11.5817L 21.4124 11.5815L 21.4127 11.5812L 21.4129 11.581L 21.4132 11.5807L 21.4134 11.5805L 21.4137 11.5802L 21.4139 11.58L 21.4142 11.5797L 21.4144 11.5795L 21.4147 11.5792L 21.415 11.579L 21.4152 11.5787L 21.4155 11.5785L 21.4157 11.5782L 21.416 11.578L 21.4163 11.5777L 21.4165 11.5774L 21.4168 11.5772L 21.4171 11.5769L 21.4173 11.5766L 21.4176 11.5764L 21.4179 11.5761L 21.4182 11.5758L 21.4184 11.5756L 21.4187 11.5753L 21.419 11.575L 21.4582 11.5364L 21.5101 11.5178C 21.769 11.4252 21.944 11.3359 22.0243 11.2569C 22.0396 11.2418 22.047 11.2314 22.0504 11.2256C 22.0499 11.2242 22.0491 11.2225 22.0481 11.2206L 21.5058 11.0153L 21.03 10.8352L 21.4634 10.5686C 21.6202 10.472 21.8223 10.3053 21.9923 9.9959C 22.1635 9.68455 22.3092 9.21591 22.3318 8.5062L 22.3319 8.5026C 22.3769 7.52754 22.1506 6.99754 21.8777 6.69053L 21.6053 6.38421L 22.0023 6.28228L 22.8139 6.0739C 22.7988 6.06683 22.783 6.05958 22.7663 6.05214C 22.5314 5.94738 22.1571 5.81533 21.5749 5.6549L 21.4682 5.62549ZM 23.1458 6.24679L 22.8958 6.24679C 22.8958 6.2692 22.8985 6.28994 22.9033 6.30905L 22.3323 6.45567C 22.3061 6.42194 22.2791 6.38951 22.2513 6.35832L 22.0645 6.52442L 22.1267 6.76657L 22.2274 6.7407C 22.4671 7.11758 22.6204 7.67406 22.5816 8.51414C 22.5438 9.70509 22.1715 10.2974 21.8315 10.6039L 21.6828 10.5477L 21.5943 10.7815L 21.7253 10.9944C 21.7744 10.9642 21.826 10.9294 21.8788 10.8892L 22.2055 11.0129C 22.4876 11.3368 22.1115 11.5681 21.5943 11.7532M 22.0524 11.232C 22.0524 11.2319 22.0523 11.2314 22.0522 11.2304ZM 0.590824 6.88238C 0.590778 6.88239 0.590826 6.88187 0.591116 6.8808ZM 22.7107 2.53277C 22.7106 2.53275 22.7105 2.53223 22.7104 2.5312Z" fill="#003C75"/>
<path fill-rule="evenodd" clip-rule="evenodd" d="M 21.4682 5.62549L 21.4682 5.75053L 21.2757 5.796L 20.102 6.07324L 20.1003 6.07364L 10.9812 8.29432L 10.693 8.36449L 10.691 8.42254L 10.3857 8.33877L 2.6315 6.21112L 2.28803 6.12661L 2.27132 6.12661C 2.18375 6.12661 1.90151 6.07819 1.64372 5.78821C 1.38397 5.49605 1.17505 4.98873 1.17505 4.11825C 1.17505 3.52303 1.26161 3.01783 1.56248 2.70716C 1.64417 2.59763 1.75341 2.53151 1.84736 2.49299C 1.94669 2.45225 2.04936 2.4338 2.13027 2.4338L 2.13055 2.4338L 2.13082 2.4338L 2.1311 2.4338L 2.13138 2.4338L 2.13165 2.4338L 2.13193 2.4338L 2.1322 2.4338L 2.13248 2.4338L 2.13275 2.4338L 2.13303 2.4338L 2.1333 2.4338L 2.13358 2.4338L 2.13385 2.4338L 2.13413 2.4338L 2.1344 2.4338L 2.13468 2.4338L 2.13495 2.4338L 2.13523 2.4338L 2.13551 2.4338L 2.13578 2.4338L 2.13606 2.4338L 2.13633 2.4338L 2.13661 2.4338L 2.13688 2.4338L 2.13716 2.4338L 2.13743 2.4338L 2.1377 2.4338L 2.13798 2.4338L 2.13825 2.4338L 2.13853 2.4338L 2.1388 2.4338L 2.13908 2.4338L 2.13935 2.4338L 2.13963 2.4338L 2.1399 2.4338L 2.14017 2.4338L 2.14045 2.4338L 2.14072 2.4338L 2.141 2.4338L 2.14127 2.4338L 2.14154 2.4338L 2.14182 2.4338L 2.14209 2.4338L 2.14236 2.4338L 2.14264 2.4338L 2.14291 2.4338L 2.14318 2.4338L 2.14346 2.4338L 2.14373 2.4338L 2.144 2.4338L 2.14428 2.4338L 2.14455 2.4338L 2.14482 2.4338L 2.14509 2.4338L 2.14537 2.4338L 2.14564 2.4338L 2.14591 2.4338L 2.14618 2.4338L 2.14645 2.4338L 2.14673 2.4338L 2.147 2.4338L 2.14727 2.4338L 2.14754 2.4338L 2.14781 2.4338L 2.14808 2.4338L 2.14835 2.4338L 2.14863 2.4338L 2.1489 2.4338L 2.14917 2.4338L 2.14944 2.4338L 2.14971 2.4338L 2.14998 2.4338L 2.15025 2.4338L 2.15052 2.4338L 2.15079 2.4338L 2.15106 2.4338L 2.15133 2.4338L 2.15159 2.4338L 2.15186 2.4338L 2.15213 2.4338L 2.1524 2.4338L 2.15267 2.4338L 2.15294 2.4338L 2.15321 2.4338L 2.15347 2.4338L 2.15374 2.4338L 2.15401 2.4338L 2.15428 2.4338L 2.15454 2.4338L 2.15481 2.4338L 2.15508 2.4338L 2.15534 2.4338L 2.15561 2.4338L 2.15588 2.4338L 2.15614 2.4338L 2.15641 2.4338L 2.15668 2.4338L 2.15694 2.4338L 2.15721 2.4338L 2.15747 2.4338L 2.15774 2.4338L 2.158 2.4338L 2.15826 2.4338L 2.15853 2.4338L 2.15879 2.4338L 2.15906 2.4338L 2.15932 2.4338L 2.15958 2.4338L 2.15985 2.4338L 2.16011 2.4338L 2.16037 2.4338L 2.16063 2.4338L 2.1609 2.4338L 2.16116 2.4338L 2.16142 2.4338L 2.16168 2.4338L 2.16194 2.4338L 2.1622 2.4338L 2.16247 2.4338L 2.16273 2.4338L 2.16299 2.4338L 2.16325 2.4338L 2.16351 2.4338L 2.16376 2.4338L 2.16402 2.4338L 2.16428 2.4338L 2.16454 2.4338L 2.1648 2.4338L 2.16506 2.4338L 2.16532 2.4338L 2.16557 2.4338L 2.16583 2.4338L 2.16609 2.4338L 2.16634 2.4338L 2.1666 2.4338L 2.16686 2.4338L 2.16711 2.4338L 2.16737 2.4338L 2.16762 2.4338L 2.16788 2.4338L 2.16813 2.4338L 2.16839 2.4338L 2.16864 2.4338L 2.1689 2.4338L 2.16915 2.4338L 2.1694 2.4338L 2.16966 2.4338L 2.16991 2.4338L 2.17016 2.4338L 2.17041 2.4338L 2.17066 2.4338L 2.17092 2.4338L 2.17117 2.4338L 2.17142 2.4338L 2.17167 2.4338L 2.17192 2.4338L 2.17217 2.4338L 2.17242 2.4338L 2.17267 2.4338L 2.17291 2.4338L 2.17316 2.4338L 2.17341 2.4338L 2.17366 2.4338L 2.17391 2.4338L 2.17415 2.4338L 2.1744 2.4338L 2.17465 2.4338L 2.17489 2.4338L 2.17514 2.4338L 2.17538 2.4338L 2.17563 2.4338L 2.17587 2.4338L 2.17612 2.4338L 2.17636 2.4338L 2.1766 2.4338L 2.17685 2.4338L 2.17709 2.4338L 2.17733 2.4338L 2.17757 2.4338L 2.17782 2.4338L 2.17806 2.4338L 2.1783 2.4338L 2.17854 2.4338L 2.17878 2.4338L 2.17902 2.4338L 2.17926 2.4338L 2.1795 2.4338L 2.17974 2.4338L 2.17997 2.4338L 2.18021 2.4338L 2.18045 2.4338L 2.18069 2.4338L 2.18092 2.4338L 2.18116 2.4338L 2.18139 2.4338L 2.18163 2.4338L 2.18186 2.4338L 2.1821 2.4338L 2.18233 2.4338L 2.18257 2.4338L 2.1828 2.4338L 2.18303 2.4338L 2.18326 2.4338L 2.1835 2.4338L 2.18373 2.4338L 2.18396 2.4338L 2.18419 2.4338L 2.18442 2.4338L 2.18465 2.4338L 2.18488 2.4338L 2.18511 2.4338L 2.18534 2.4338L 2.18557 2.4338L 2.18579 2.4338L 2.18602 2.4338L 2.18625 2.4338L 2.18647 2.4338L 2.1867 2.4338L 2.18692 2.4338L 2.18715 2.4338L 2.18737 2.4338L 2.1876 2.4338L 2.18782 2.4338L 2.18804 2.4338L 2.18827 2.4338L 2.18849 2.4338L 2.18871 2.4338L 2.18893 2.4338L 2.18915 2.4338L 2.18937 2.4338L 2.18959 2.4338L 2.18981 2.4338L 2.19003 2.4338L 2.19025 2.4338L 2.19046 2.4338L 2.19068 2.4338L 2.1909 2.4338L 2.19111 2.4338L 2.19133 2.4338L 2.19155 2.4338L 2.19176 2.4338L 2.19197 2.4338L 2.19219 2.4338L 2.1924 2.4338L 2.19261 2.4338L 2.19283 2.4338L 2.19304 2.4338L 2.19325 2.4338L 2.19346 2.4338L 2.19367 2.4338L 2.19388 2.4338L 2.19409 2.4338L 2.1943 2.4338L 2.1945 2.4338L 2.19471 2.4338L 2.19492 2.4338L 2.19513 2.4338L 2.19533 2.4338L 2.19554 2.4338L 2.19574 2.4338L 2.19595 2.4338L 2.19615 2.4338L 2.19635 2.4338L 2.19655 2.4338L 2.19676 2.4338L 2.19696 2.4338L 2.19716 2.4338L 2.19736 2.4338L 2.19756 2.4338L 2.19776 2.4338L 2.19796 2.4338L 2.19815 2.4338L 2.19835 2.4338L 2.19855 2.4338L 2.19874 2.4338L 2.19894 2.4338L 2.19914 2.4338L 2.19933 2.4338L 2.19952 2.4338L 2.19972 2.4338L 2.19991 2.4338L 2.2001 2.4338L 2.20029 2.4338L 2.20049 2.4338L 2.20068 2.4338L 2.20087 2.4338L 2.20105 2.4338L 2.20124 2.4338L 2.20143 2.4338L 2.20162 2.4338L 2.20181 2.4338L 2.20199 2.4338L 2.20218 2.4338L 2.20236 2.4338L 2.20255 2.4338L 2.20273 2.4338L 2.20291 2.4338L 2.2031 2.4338L 2.20328 2.4338L 2.20346 2.4338L 2.20364 2.4338L 2.20382 2.4338L 2.204 2.4338L 2.20418 2.4338L 2.20436 2.4338L 2.20453 2.4338L 2.20471 2.4338L 2.20489 2.4338L 2.20506 2.4338L 2.20524 2.4338L 2.20541 2.4338L 2.20558 2.4338L 2.20576 2.4338L 2.20593 2.4338L 2.2061 2.4338L 2.20627 2.4338L 2.20644 2.4338L 2.20661 2.4338L 2.20678 2.4338L 2.20695 2.4338L 2.20712 2.4338L 2.20728 2.4338L 2.20745 2.4338L 2.20761 2.4338L 2.20778 2.4338L 2.20794 2.4338L 2.20811 2.4338L 2.20827 2.4338L 2.20843 2.4338L 2.20859 2.4338L 2.20875 2.4338L 2.20891 2.4338L 2.20907 2.4338L 2.20923 2.4338L 2.20939 2.4338L 2.20955 2.4338L 2.2097 2.4338L 2.20986 2.4338L 2.21001 2.4338L 2.21017 2.4338L 2.21032 2.4338L 2.21047 2.4338L 2.21063 2.4338L 2.21078 2.4338L 2.21093 2.4338L 2.21108 2.4338L 2.21123 2.4338L 2.21138 2.4338L 2.21152 2.4338L 2.21167 2.4338L 2.21182 2.4338L 2.21196 2.4338L 2.21211 2.4338L 2.21225 2.4338L 2.2124 2.4338L 2.21254 2.4338L 2.21268 2.4338L 2.21282 2.4338L 2.21296 2.4338L 2.2131 2.4338L 2.21324 2.4338L 2.21338 2.4338L 2.21352 2.4338L 2.21365 2.4338L 2.21379 2.4338L 2.21392 2.4338L 2.21406 2.4338L 2.21419 2.4338L 2.21432 2.4338L 2.21446 2.4338L 2.21459 2.4338L 2.21472 2.4338L 2.21485 2.4338L 2.21498 2.4338L 2.21511 2.4338L 2.21523 2.4338L 2.21536 2.4338L 2.21548 2.4338L 2.21561 2.4338L 2.21573 2.4338L 2.21586 2.4338L 2.21598 2.4338L 2.2161 2.4338L 2.21622 2.4338L 2.21634 2.4338L 2.21646 2.4338L 2.21658 2.4338L 2.2167 2.4338L 2.21681 2.4338L 2.21693 2.4338L 2.21705 2.4338L 2.21716 2.4338L 2.21727 2.4338L 2.21739 2.4338L 2.2175 2.4338L 2.21761 2.4338L 2.21772 2.4338L 2.21783 2.4338L 2.21794 2.4338L 2.21805 2.4338L 2.21815 2.4338L 2.21826 2.4338L 2.21836 2.4338L 2.21847 2.4338L 2.21857 2.4338L 2.21867 2.4338L 2.21878 2.4338L 2.21888 2.4338L 2.21898 2.4338L 2.21908 2.4338L 2.21918 2.4338L 2.21927 2.4338L 2.21937 2.4338L 2.21947 2.4338L 2.21956 2.4338L 2.21965 2.4338L 2.21975 2.4338L 2.21984 2.4338L 2.21993 2.4338L 2.22002 2.4338L 2.22011 2.4338L 2.2202 2.4338L 2.22029 2.4338L 2.22038 2.4338L 2.22046 2.4338L 2.22055 2.4338L 2.22063 2.4338L 2.22071 2.4338L 2.2208 2.4338L 2.22088 2.4338L 2.22096 2.4338L 2.22104 2.4338L 2.22112 2.4338L 2.2212 2.4338L 2.22127 2.4338L 2.22135 2.4338L 2.22142 2.4338L 2.2215 2.4338L 2.22157 2.4338L 2.22164 2.4338L 2.22172 2.4338L 2.22179 2.4338L 2.22186 2.4338L 2.22193 2.4338L 2.22199 2.4338L 2.22206 2.4338L 2.22213 2.4338L 2.22219 2.4338L 2.22226 2.4338L 2.22232 2.4338L 2.22238 2.4338L 2.22244 2.4338L 2.2225 2.4338L 2.22256 2.4338L 2.22262 2.4338L 2.22268 2.4338L 2.22273 2.4338L 2.22279 2.4338L 2.22284 2.4338L 2.2229 2.4338L 2.22295 2.4338L 2.223 2.4338L 2.22305 2.4338L 2.2231 2.4338L 2.22315 2.4338L 2.2232 2.4338L 2.22325 2.4338L 2.22329 2.4338L 2.22334 2.4338L 2.22338 2.4338L 2.22342 2.4338L 2.22346 2.4338L 2.22351 2.4338L 2.22355 2.4338L 2.22358 2.4338L 2.22362 2.4338L 2.22366 2.4338L 2.22369 2.4338L 2.22373 2.4338L 2.22376 2.4338L 2.2238 2.4338L 2.22383 2.4338L 2.22386 2.4338L 2.22389 2.4338L 2.22392 2.4338L 2.22395 2.4338L 2.22397 2.4338L 2.224 2.4338L 2.22402 2.4338L 2.22405 2.4338L 2.22407 2.4338L 2.22409 2.4338L 2.22411 2.4338L 2.22413 2.4338L 2.22415 2.4338L 2.22417 2.4338L 2.22418 2.4338L 2.2242 2.4338L 2.22421 2.4338L 2.22423 2.4338L 2.22424 2.4338L 2.22425 2.4338L 2.22426 2.4338L 2.22427 2.4338L 2.22428 2.4338L 2.22428 2.4338L 2.22429 2.4338L 2.22429 2.4338L 2.2243 2.4338L 2.2243 2.4338L 2.26297 2.4338L 2.29984 2.44549L 7.84757 4.20384L 10.6214 5.08302L 10.8022 5.14031L 10.8017 5.15501L 10.9678 5.12232L 13.0816 4.70623L 13.0834 4.70586L 20.3197 3.22597L 20.3219 3.22551L 21.401 2.99461L 21.9345 2.88047L 21.8 3.12623C 21.8713 3.04262 21.9534 2.96764 22.0481 2.90445L 22.0772 2.87581L 22.1164 2.83717L 22.1683 2.8186C 22.4272 2.72595 22.6022 2.63667 22.6825 2.55768C 22.696 2.54435 22.7034 2.53468 22.7073 2.5286L 14.8527 0.254882L 2.07559 2.0053L 2.07128 2.00616C 2.0649 2.0075 2.05381 2.01 2.03871 2.01406C 2.00845 2.0222 1.96249 2.03647 1.90625 2.05993C 1.79366 2.10691 1.64179 2.1899 1.49159 2.33279C 1.19938 2.61081 0.879057 3.14888 0.922409 4.19578C 1.01315 5.34646 1.36874 5.88686 1.64743 6.16115L 1.94437 6.4534L 1.54678 6.57791L 0.593156 6.87654C 0.596701 6.88245 0.604117 6.89266 0.618987 6.9073C 0.699242 6.98629 0.87429 7.07556 1.13318 7.16822L 1.12403 7.19378C 1.15459 7.18703 1.19055 7.20313 1.22407 7.2252L 1.22419 7.22531L 1.22424 7.22537L 1.22427 7.22539L 1.22429 7.22541L 1.22431 7.22543L 1.22439 7.22551L 1.22503 7.22614L 1.23018 7.23121L 1.25341 7.25407C 1.34807 7.31726 1.43022 7.39224 1.50148 7.47584L 1.36702 7.23008L 1.90049 7.34422L 2.98012 7.57522L 9.9366 8.96306L 9.94308 8.96435L 9.94306 8.96444L 10.5513 9.10258L 12.3819 9.47217L 12.4607 9.48808L 12.632 9.43297L 15.0765 8.64641L 15.0768 8.64634L 20.9534 6.74924L 20.9739 6.74259L 20.9954 6.73958L 21.0302 6.98715C 20.9954 6.73958 20.9954 6.73957 20.9955 6.73956L 20.9957 6.73954L 20.996 6.73949L 20.9968 6.73938L 20.9988 6.73912L 21.0042 6.73844L 21.0207 6.73668C 21.034 6.73539 21.052 6.73397 21.0738 6.73304C 21.1171 6.73119 21.1771 6.73116 21.2454 6.73863C 21.3753 6.75283 21.5706 6.79805 21.7227 6.94779C 22.0368 7.2569 22.1264 7.76947 22.1264 8.37532L 22.1264 8.38219L 22.1263 8.38218C 22.1019 9.27131 21.8935 9.78525 21.6445 10.0808C 21.3952 10.3766 21.1243 10.4299 21.0302 10.4299L 21.0186 10.4299L 20.2534 10.6515L 20.2504 10.6523L 20.2504 10.6523L 12.8691 12.6883L 12.6867 12.7386L 12.6877 12.7694L 12.6283 12.7547L 12.5635 12.7726L 12.5623 12.7384L 12.3665 12.69L 3.01083 10.3764L 3.01055 10.3764L 2.07054 10.1451L 1.88027 10.0983L 1.88027 9.96215L 1.72655 10.0045C 1.14427 10.165 0.770237 10.297 0.535728 10.4022C 0.493263 10.4213 0.456122 10.4392 0.423721 10.4558L 0.73763 10.54L 1.19404 10.6625L 0.835958 10.9709C 0.528084 11.2361 0.175167 11.7558 0.263854 12.8905L 0.264163 12.8945L 0.264131 12.8945C 0.33183 13.9828 0.655565 14.5204 0.924583 14.7852C 1.0608 14.9193 1.19007 14.9906 1.28061 15.0281C 1.32609 15.047 1.36208 15.0575 1.38451 15.0629C 1.39572 15.0657 1.40349 15.0671 1.4073 15.0678C 1.40805 15.0679 1.40864 15.068 1.40908 15.0681L 1.43062 15.0706L 1.454 15.078L 9.80353 17.7407L 22.2108 14.8009C 22.1805 14.7856 22.1463 14.7692 22.1076 14.7519C 21.873 14.6466 21.499 14.5146 20.9167 14.3541L 20.763 14.3118L 20.763 14.4022L 20.572 14.4486L 10.2758 16.9473L 9.98776 17.0172L 9.98576 17.0763L 9.67987 16.9916L 1.53209 14.7333L 1.51908 14.7333C 1.42661 14.7333 1.15641 14.6813 0.906745 14.3922C 0.656583 14.1025 0.4474 13.5994 0.422919 12.732L 0.42272 12.7249L 0.422819 12.7249C 0.422819 12.1191 0.512489 11.6065 0.826557 11.2974L 1.00192 11.4756L 0.826557 11.2974C 1.01425 11.1127 1.21823 11.0405 1.42505 11.0405L 1.42533 11.0405L 1.4256 11.0405L 1.42588 11.0405L 1.42616 11.0405L 1.42643 11.0405L 1.42671 11.0405L 1.42698 11.0405L 1.42726 11.0405L 1.42753 11.0405L 1.42781 11.0405L 1.42808 11.0405L 1.42836 11.0405L 1.42863 11.0405L 1.42891 11.0405L 1.42918 11.0405L 1.42946 11.0405L 1.42973 11.0405L 1.43001 11.0405L 1.43029 11.0405L 1.43056 11.0405L 1.43084 11.0405L 1.43111 11.0405L 1.43139 11.0405L 1.43166 11.0405L 1.43193 11.0405L 1.43221 11.0405L 1.43248 11.0405L 1.43276 11.0405L 1.43303 11.0405L 1.43331 11.0405L 1.43358 11.0405L 1.43386 11.0405L 1.43413 11.0405L 1.43441 11.0405L 1.43468 11.0405L 1.43495 11.0405L 1.43523 11.0405L 1.4355 11.0405L 1.43578 11.0405L 1.43605 11.0405L 1.43632 11.0405L 1.4366 11.0405L 1.43687 11.0405L 1.43714 11.0405L 1.43742 11.0405L 1.43769 11.0405L 1.43796 11.0405L 1.43824 11.0405L 1.43851 11.0405L 1.43878 11.0405L 1.43906 11.0405L 1.43933 11.0405L 1.4396 11.0405L 1.43987 11.0405L 1.44015 11.0405L 1.44042 11.0405L 1.44069 11.0405L 1.44096 11.0405L 1.44123 11.0405L 1.44151 11.0405L 1.44178 11.0405L 1.44205 11.0405L 1.44232 11.0405L 1.44259 11.0405L 1.44286 11.0405L 1.44313 11.0405L 1.44341 11.0405L 1.44368 11.0405L 1.44395 11.0405L 1.44422 11.0405L 1.44449 11.0405L 1.44476 11.0405L 1.44503 11.0405L 1.4453 11.0405L 1.44557 11.0405L 1.44584 11.0405L 1.44611 11.0405L 1.44637 11.0405L 1.44664 11.0405L 1.44691 11.0405L 1.44718 11.0405L 1.44745 11.0405L 1.44772 11.0405L 1.44799 11.0405L 1.44825 11.0405L 1.44852 11.0405L 1.44879 11.0405L 1.44906 11.0405L 1.44932 11.0405L 1.44959 11.0405L 1.44986 11.0405L 1.45012 11.0405L 1.45039 11.0405L 1.45066 11.0405L 1.45092 11.0405L 1.45119 11.0405L 1.45145 11.0405L 1.45172 11.0405L 1.45199 11.0405L 1.45225 11.0405L 1.45252 11.0405L 1.45278 11.0405L 1.45304 11.0405L 1.45331 11.0405L 1.45357 11.0405L 1.45384 11.0405L 1.4541 11.0405L 1.45436 11.0405L 1.45463 11.0405L 1.45489 11.0405L 1.45515 11.0405L 1.45541 11.0405L 1.45568 11.0405L 1.45594 11.0405L 1.4562 11.0405L 1.45646 11.0405L 1.45672 11.0405L 1.45698 11.0405L 1.45724 11.0405L 1.45751 11.0405L 1.45777 11.0405L 1.45803 11.0405L 1.45829 11.0405L 1.45854 11.0405L 1.4588 11.0405L 1.45906 11.0405L 1.45932 11.0405L 1.45958 11.0405L 1.45984 11.0405L 1.4601 11.0405L 1.46035 11.0405L 1.46061 11.0405L 1.46087 11.0405L 1.46112 11.0405L 1.46138 11.0405L 1.46164 11.0405L 1.46189 11.0405L 1.46215 11.0405L 1.4624 11.0405L 1.46266 11.0405L 1.46291 11.0405L 1.46317 11.0405L 1.46342 11.0405L 1.46368 11.0405L 1.46393 11.0405L 1.46418 11.0405L 1.46444 11.0405L 1.46469 11.0405L 1.46494 11.0405L 1.46519 11.0405L 1.46544 11.0405L 1.4657 11.0405L 1.46595 11.0405L 1.4662 11.0405L 1.46645 11.0405L 1.4667 11.0405L 1.46695 11.0405L 1.4672 11.0405L 1.46745 11.0405L 1.46769 11.0405L 1.46794 11.0405L 1.46819 11.0405L 1.46844 11.0405L 1.46869 11.0405L 1.46893 11.0405L 1.46918 11.0405L 1.46943 11.0405L 1.46967 11.0405L 1.46992 11.0405L 1.47016 11.0405L 1.47041 11.0405L 1.47065 11.0405L 1.4709 11.0405L 1.47114 11.0405L 1.47138 11.0405L 1.47163 11.0405L 1.47187 11.0405L 1.47211 11.0405L 1.47235 11.0405L 1.4726 11.0405L 1.47284 11.0405L 1.47308 11.0405L 1.47332 11.0405L 1.47356 11.0405L 1.4738 11.0405L 1.47404 11.0405L 1.47428 11.0405L 1.47452 11.0405L 1.47475 11.0405L 1.47499 11.0405L 1.47523 11.0405L 1.47547 11.0405L 1.4757 11.0405L 1.47594 11.0405L 1.47617 11.0405L 1.47641 11.0405L 1.47664 11.0405L 1.47688 11.0405L 1.47711 11.0405L 1.47735 11.0405L 1.47758 11.0405L 1.47781 11.0405L 1.47804 11.0405L 1.47828 11.0405L 1.47851 11.0405L 1.47874 11.0405L 1.47897 11.0405L 1.4792 11.0405L 1.47943 11.0405L 1.47966 11.0405L 1.47989 11.0405L 1.48012 11.0405L 1.48035 11.0405L 1.48057 11.0405L 1.4808 11.0405L 1.48103 11.0405L 1.48125 11.0405L 1.48148 11.0405L 1.4817 11.0405L 1.48193 11.0405L 1.48215 11.0405L 1.48238 11.0405L 1.4826 11.0405L 1.48282 11.0405L 1.48305 11.0405L 1.48327 11.0405L 1.48349 11.0405L 1.48371 11.0405L 1.48393 11.0405L 1.48415 11.0405L 1.48437 11.0405L 1.48459 11.0405L 1.48481 11.0405L 1.48503 11.0405L 1.48524 11.0405L 1.48546 11.0405L 1.48568 11.0405L 1.48589 11.0405L 1.48611 11.0405L 1.48633 11.0405L 1.48654 11.0405L 1.48675 11.0405L 1.48697 11.0405L 1.48718 11.0405L 1.48739 11.0405L 1.48761 11.0405L 1.48782 11.0405L 1.48803 11.0405L 1.48824 11.0405L 1.48845 11.0405L 1.48866 11.0405L 1.48887 11.0405L 1.48908 11.0405L 1.48928 11.0405L 1.48949 11.0405L 1.4897 11.0405L 1.4899 11.0405L 1.49011 11.0405L 1.49032 11.0405L 1.49052 11.0405L 1.49072 11.0405L 1.49093 11.0405L 1.49113 11.0405L 1.49133 11.0405L 1.49154 11.0405L 1.49174 11.0405L 1.49194 11.0405L 1.49214 11.0405L 1.49234 11.0405L 1.49254 11.0405L 1.49274 11.0405L 1.49293 11.0405L 1.49313 11.0405L 1.49333 11.0405L 1.49352 11.0405L 1.49372 11.0405L 1.49392 11.0405L 1.49411 11.0405L 1.4943 11.0405L 1.4945 11.0405L 1.49469 11.0405L 1.49488 11.0405L 1.49507 11.0405L 1.49527 11.0405L 1.49546 11.0405L 1.49565 11.0405L 1.49583 11.0405L 1.49602 11.0405L 1.49621 11.0405L 1.4964 11.0405L 1.49659 11.0405L 1.49677 11.0405L 1.49696 11.0405L 1.49714 11.0405L 1.49733 11.0405L 1.49751 11.0405L 1.49769 11.0405L 1.49788 11.0405L 1.49806 11.0405L 1.49824 11.0405L 1.49842 11.0405L 1.4986 11.0405L 1.49878 11.0405L 1.49896 11.0405L 1.49914 11.0405L 1.49931 11.0405L 1.49949 11.0405L 1.49967 11.0405L 1.49984 11.0405L 1.50002 11.0405L 1.50019 11.0405L 1.50036 11.0405L 1.50054 11.0405L 1.50071 11.0405L 1.50088 11.0405L 1.50105 11.0405L 1.50122 11.0405L 1.50139 11.0405L 1.50156 11.0405L 1.50173 11.0405L 1.5019 11.0405L 1.50206 11.0405L 1.50223 11.0405L 1.50239 11.0405L 1.50256 11.0405L 1.50272 11.0405L 1.50289 11.0405L 1.50305 11.0405L 1.50321 11.0405L 1.50337 11.0405L 1.50353 11.0405L 1.50369 11.0405L 1.50385 11.0405L 1.50401 11.0405L 1.50417 11.0405L 1.50433 11.0405L 1.50448 11.0405L 1.50464 11.0405L 1.50479 11.0405L 1.50495 11.0405L 1.5051 11.0405L 1.50525 11.0405L 1.50541 11.0405L 1.50556 11.0405L 1.50571 11.0405L 1.50586 11.0405L 1.50601 11.0405L 1.50616 11.0405L 1.5063 11.0405L 1.50645 11.0405L 1.5066 11.0405L 1.50674 11.0405L 1.50689 11.0405L 1.50703 11.0405L 1.50718 11.0405L 1.50732 11.0405L 1.50746 11.0405L 1.5076 11.0405L 1.50774 11.0405L 1.50788 11.0405L 1.50802 11.0405L 1.50816 11.0405L 1.5083 11.0405L 1.50843 11.0405L 1.50857 11.0405L 1.5087 11.0405L 1.50884 11.0405L 1.50897 11.0405L 1.5091 11.0405L 1.50924 11.0405L 1.50937 11.0405L 1.5095 11.0405L 1.50963 11.0405L 1.50976 11.0405L 1.50989 11.0405L 1.51001 11.0405L 1.51014 11.0405L 1.51026 11.0405L 1.51039 11.0405L 1.51051 11.0405L 1.51064 11.0405L 1.51076 11.0405L 1.51088 11.0405L 1.511 11.0405L 1.51112 11.0405L 1.51124 11.0405L 1.51136 11.0405L 1.51148 11.0405L 1.51159 11.0405L 1.51171 11.0405L 1.51183 11.0405L 1.51194 11.0405L 1.51205 11.0405L 1.51217 11.0405L 1.51228 11.0405L 1.51239 11.0405L 1.5125 11.0405L 1.51261 11.0405L 1.51272 11.0405L 1.51283 11.0405L 1.51293 11.0405L 1.51304 11.0405L 1.51314 11.0405L 1.51325 11.0405L 1.51335 11.0405L 1.51345 11.0405L 1.51356 11.0405L 1.51366 11.0405L 1.51376 11.0405L 1.51386 11.0405L 1.51396 11.0405L 1.51405 11.0405L 1.51415 11.0405L 1.51425 11.0405L 1.51434 11.0405L 1.51443 11.0405L 1.51453 11.0405L 1.51462 11.0405L 1.51471 11.0405L 1.5148 11.0405L 1.51489 11.0405L 1.51498 11.0405L 1.51507 11.0405L 1.51516 11.0405L 1.51524 11.0405L 1.51533 11.0405L 1.51541 11.0405L 1.51549 11.0405L 1.51558 11.0405L 1.51566 11.0405L 1.51574 11.0405L 1.51582 11.0405L 1.5159 11.0405L 1.51598 11.0405L 1.51605 11.0405L 1.51613 11.0405L 1.5162 11.0405L 1.51628 11.0405L 1.51635 11.0405L 1.51642 11.0405L 1.5165 11.0405L 1.51657 11.0405L 1.51664 11.0405L 1.51671 11.0405L 1.51677 11.0405L 1.51684 11.0405L 1.51691 11.0405L 1.51697 11.0405L 1.51704 11.0405L 1.5171 11.0405L 1.51716 11.0405L 1.51722 11.0405L 1.51728 11.0405L 1.51734 11.0405L 1.5174 11.0405L 1.51746 11.0405L 1.51751 11.0405L 1.51757 11.0405L 1.51762 11.0405L 1.51768 11.0405L 1.51773 11.0405L 1.51778 11.0405L 1.51783 11.0405L 1.51788 11.0405L 1.51793 11.0405L 1.51798 11.0405L 1.51803 11.0405L 1.51807 11.0405L 1.51812 11.0405L 1.51816 11.0405L 1.5182 11.0405L 1.51824 11.0405L 1.51829 11.0405L 1.51833 11.0405L 1.51836 11.0405L 1.5184 11.0405L 1.51844 11.0405L 1.51847 11.0405L 1.51851 11.0405L 1.51854 11.0405L 1.51858 11.0405L 1.51861 11.0405L 1.51864 11.0405L 1.51867 11.0405L 1.5187 11.0405L 1.51873 11.0405L 1.51875 11.0405L 1.51878 11.0405L 1.5188 11.0405L 1.51883 11.0405L 1.51885 11.0405L 1.51887 11.0405L 1.51889 11.0405L 1.51891 11.0405L 1.51893 11.0405L 1.51895 11.0405L 1.51896 11.0405L 1.51898 11.0405L 1.51899 11.0405L 1.51901 11.0405L 1.51902 11.0405L 1.51903 11.0405L 1.51904 11.0405L 1.51905 11.0405L 1.51906 11.0405L 1.51907 11.0405L 1.51908 11.0405L 1.5584 11.0405L 1.59582 11.0526L 9.91741 13.7364L 10.0672 13.7847L 10.0677 13.7698L 10.2596 13.7296L 12.4693 13.2669L 12.5292 13.2543L 12.5882 13.2709L 12.847 13.3437L 13.9995 12.9947L 14.0103 12.9914L 14.0214 12.9891L 19.6144 11.8327L 19.6161 11.8323L 20.6958 11.6013L 21.2477 11.4832L 20.9643 11.9713C 20.7084 12.412 20.6707 12.9908 20.6887 13.4687C 20.688 13.2549 20.7013 13.0306 20.7363 12.8126C 20.809 12.3596 20.9852 11.8738 21.3899 11.6037L 21.39 11.6036L 21.3901 11.6034L 21.3903 11.6033L 21.3904 11.6031L 21.3906 11.603L 21.3907 11.6028L 21.3909 11.6027L 21.391 11.6025L 21.3912 11.6024L 21.3913 11.6022L 21.3915 11.6021L 21.3916 11.6019L 21.3918 11.6018L 21.392 11.6016L 21.3921 11.6015L 21.3923 11.6013L 21.3924 11.6012L 21.3926 11.601L 21.3927 11.6009L 21.3929 11.6007L 21.3931 11.6005L 21.3932 11.6004L 21.3934 11.6002L 21.3936 11.6001L 21.3937 11.5999L 21.3939 11.5997L 21.394 11.5996L 21.3942 11.5994L 21.3944 11.5992L 21.3946 11.5991L 21.3947 11.5989L 21.3949 11.5987L 21.3951 11.5986L 21.3952 11.5984L 21.3954 11.5982L 21.3956 11.5981L 21.3958 11.5979L 21.3959 11.5977L 21.3961 11.5975L 21.3963 11.5974L 21.3965 11.5972L 21.3966 11.597L 21.3968 11.5968L 21.397 11.5967L 21.3972 11.5965L 21.3974 11.5963L 21.3975 11.5961L 21.3977 11.5959L 21.3979 11.5958L 21.3981 11.5956L 21.3983 11.5954L 21.3985 11.5952L 21.3987 11.595L 21.3989 11.5948L 21.399 11.5947L 21.3992 11.5945L 21.3994 11.5943L 21.3996 11.5941L 21.3998 11.5939L 21.4 11.5937L 21.4002 11.5935L 21.4004 11.5933L 21.4006 11.5931L 21.4008 11.5929L 21.401 11.5927L 21.4012 11.5925L 21.4014 11.5923L 21.4016 11.5921L 21.4018 11.5919L 21.402 11.5917L 21.4022 11.5915L 21.4024 11.5913L 21.4026 11.5911L 21.4028 11.5909L 21.403 11.5907L 21.4032 11.5905L 21.4035 11.5903L 21.4037 11.5901L 21.4039 11.5899L 21.4041 11.5897L 21.4043 11.5895L 21.4045 11.5893L 21.4047 11.589L 21.405 11.5888L 21.4052 11.5886L 21.4054 11.5884L 21.4056 11.5882L 21.4058 11.588L 21.4061 11.5878L 21.4063 11.5875L 21.4065 11.5873L 21.4067 11.5871L 21.407 11.5869L 21.4072 11.5866L 21.4074 11.5864L 21.4076 11.5862L 21.4079 11.586L 21.4081 11.5857L 21.4083 11.5855L 21.4086 11.5853L 21.4088 11.5851L 21.409 11.5848L 21.4093 11.5846L 21.4095 11.5844L 21.4097 11.5841L 21.41 11.5839L 21.4102 11.5837L 21.4105 11.5834L 21.4107 11.5832L 21.4109 11.5829L 21.4112 11.5827L 21.4114 11.5825L 21.4117 11.5822L 21.4119 11.582L 21.4122 11.5817L 21.4124 11.5815L 21.4127 11.5812L 21.4129 11.581L 21.4132 11.5807L 21.4134 11.5805L 21.4137 11.5802L 21.4139 11.58L 21.4142 11.5797L 21.4144 11.5795L 21.4147 11.5792L 21.415 11.579L 21.4152 11.5787L 21.4155 11.5785L 21.4157 11.5782L 21.416 11.578L 21.4163 11.5777L 21.4165 11.5774L 21.4168 11.5772L 21.4171 11.5769L 21.4173 11.5766L 21.4176 11.5764L 21.4179 11.5761L 21.4182 11.5758L 21.4184 11.5756L 21.4187 11.5753L 21.419 11.575L 21.4582 11.5364L 21.5101 11.5178C 21.769 11.4252 21.944 11.3359 22.0243 11.2569C 22.0396 11.2418 22.047 11.2314 22.0504 11.2256C 22.0499 11.2242 22.0491 11.2225 22.0481 11.2206L 21.5058 11.0153L 21.03 10.8352L 21.4634 10.5686C 21.6202 10.472 21.8223 10.3053 21.9923 9.9959C 22.1635 9.68455 22.3092 9.21591 22.3318 8.5062L 22.3319 8.5026C 22.3769 7.52754 22.1506 6.99754 21.8777 6.69053L 21.6053 6.38421L 22.0023 6.28228L 22.8139 6.0739C 22.7988 6.06683 22.783 6.05958 22.7663 6.05214C 22.5314 5.94738 22.1571 5.81533 21.5749 5.6549L 21.4682 5.62549ZM 23.1458 6.24679L 22.8958 6.24679C 22.8958 6.2692 22.8985 6.28994 22.9033 6.30905L 22.3323 6.45567C 22.3061 6.42194 22.2791 6.38951 22.2513 6.35832L 22.0645 6.52442L 22.1267 6.76657L 22.2274 6.7407C 22.4671 7.11758 22.6204 7.67406 22.5816 8.51414C 22.5438 9.70509 22.1715 10.2974 21.8315 10.6039L 21.6828 10.5477L 21.5943 10.7815L 21.7253 10.9944C 21.7744 10.9642 21.826 10.9294 21.8788 10.8892L 22.2055 11.0129C 22.4876 11.3368 22.1115 11.5681 21.5943 11.7532M 22.0524 11.232C 22.0524 11.2319 22.0523 11.2314 22.0522 11.2304ZM 0.590824 6.88238C 0.590778 6.88239 0.590826 6.88187 0.591116 6.8808ZM 22.7107 2.53277C 22.7106 2.53275 22.7105 2.53223 22.7104 2.5312Z" stroke-width="0.5" stroke-miterlimit="8" stroke="#003C75"/>
</g>
</g>
</g>
</g>
</svg>

